M48
;Layer_Color=9474304
;FILE_FORMAT=2:5
INCH,LZ
;TYPE=PLATED
T5F00S00C0.03150
T12F00S00C0.07087
;TYPE=NON_PLATED
%
G90
G05
T05
G00X0086757Y0044585
M15
G01X0087654Y004719
M16
G00X0096063Y004138
M15
G01X0096961Y0043986
M16
G00X0114676Y0034971
M15
G01X0115573Y0037577
M16
G00X0123982Y0031767
M15
G01X012488Y0034373
M16
T12
G00X030315Y0241732
M15
G01Y0254331
M16
G00X030315Y0288976
M15
G01Y0301575
M16
G00X030315Y0348819
M15
G01Y0336221
M16
G00X0153543Y0348819
M15
G01Y0336221
M16
G00X0153543Y0288976
M15
G01Y0301575
M16
G00X0153543Y0241732
M15
G01Y0254331
M16
G00X0153543Y0396063
M15
G01Y0383465
M16
G00X030315Y0396063
M15
G01Y0383465
M16
M17
M30
