G04*
G04 #@! TF.GenerationSoftware,Altium Limited,Altium Designer,18.1.11 (251)*
G04*
G04 Layer_Color=128*
%FSLAX25Y25*%
%MOIN*%
G70*
G01*
G75*
%ADD10C,0.00984*%
%ADD11C,0.00787*%
%ADD16C,0.01575*%
%ADD17C,0.00197*%
%ADD119C,0.00200*%
G36*
X872201Y-141778D02*
X873919D01*
Y-142065D01*
X874778D01*
Y-142351D01*
X875637D01*
Y-142637D01*
X876496D01*
Y-142924D01*
X877069D01*
Y-143210D01*
X877355D01*
Y-143496D01*
X877928D01*
Y-143783D01*
X878214D01*
Y-144069D01*
X878786D01*
Y-144355D01*
X879073D01*
Y-144641D01*
X879359D01*
Y-144928D01*
X879646D01*
Y-145214D01*
X879932D01*
Y-145501D01*
X880218D01*
Y-145787D01*
X880504D01*
Y-146073D01*
Y-146359D01*
X880791D01*
Y-146646D01*
X881077D01*
Y-146932D01*
Y-147218D01*
X881363D01*
Y-147505D01*
X881650D01*
Y-147791D01*
Y-148077D01*
X881936D01*
Y-148364D01*
Y-148650D01*
Y-148936D01*
X882222D01*
Y-149223D01*
Y-149509D01*
Y-149795D01*
X882509D01*
Y-150082D01*
Y-150368D01*
Y-150654D01*
Y-150940D01*
X882795D01*
Y-151227D01*
Y-151513D01*
Y-151799D01*
Y-152086D01*
Y-152372D01*
X883081D01*
Y-152658D01*
Y-152945D01*
Y-153231D01*
Y-153517D01*
Y-153804D01*
Y-154090D01*
Y-154376D01*
Y-154663D01*
Y-154949D01*
Y-155235D01*
Y-155521D01*
Y-155808D01*
Y-156094D01*
Y-156380D01*
Y-156667D01*
Y-156953D01*
Y-157239D01*
Y-157526D01*
Y-157812D01*
Y-158098D01*
X882795D01*
Y-158385D01*
Y-158671D01*
Y-158957D01*
Y-159244D01*
Y-159530D01*
Y-159816D01*
Y-160102D01*
X882509D01*
Y-160389D01*
Y-160675D01*
Y-160961D01*
Y-161248D01*
Y-161534D01*
X882222D01*
Y-161820D01*
Y-162107D01*
Y-162393D01*
Y-162679D01*
Y-162966D01*
X881936D01*
Y-163252D01*
Y-163538D01*
Y-163824D01*
X881650D01*
Y-164111D01*
Y-164397D01*
Y-164683D01*
Y-164970D01*
X881363D01*
Y-165256D01*
Y-165542D01*
Y-165829D01*
X881077D01*
Y-166115D01*
Y-166401D01*
X880791D01*
Y-166688D01*
Y-166974D01*
Y-167260D01*
X880504D01*
Y-167547D01*
Y-167833D01*
X880218D01*
Y-168119D01*
Y-168405D01*
X879932D01*
Y-168692D01*
Y-168978D01*
X879646D01*
Y-169264D01*
X879359D01*
Y-169551D01*
Y-169837D01*
X879073D01*
Y-170123D01*
X878786D01*
Y-170410D01*
X878500D01*
Y-170696D01*
Y-170982D01*
X878214D01*
Y-171269D01*
X877928D01*
Y-171555D01*
X877641D01*
Y-171841D01*
X877355D01*
Y-172127D01*
X877069D01*
Y-172414D01*
X876496D01*
Y-172700D01*
X876210D01*
Y-172986D01*
X875637D01*
Y-173273D01*
X875351D01*
Y-173559D01*
X874778D01*
Y-173845D01*
X873919D01*
Y-174132D01*
X873060D01*
Y-174418D01*
X872201D01*
Y-174704D01*
X870483D01*
Y-174991D01*
X865330D01*
Y-174704D01*
X862753D01*
Y-174418D01*
X860749D01*
Y-174132D01*
X859317D01*
Y-173845D01*
X857886D01*
Y-173559D01*
X856454D01*
Y-173845D01*
Y-174132D01*
Y-174418D01*
Y-174704D01*
Y-174991D01*
Y-175277D01*
Y-175563D01*
X856168D01*
Y-175850D01*
Y-176136D01*
Y-176422D01*
Y-176709D01*
Y-176995D01*
Y-177281D01*
X855882D01*
Y-177568D01*
Y-177854D01*
Y-178140D01*
Y-178426D01*
Y-178713D01*
Y-178999D01*
X855595D01*
Y-179285D01*
Y-179572D01*
Y-179858D01*
Y-180144D01*
Y-180431D01*
Y-180717D01*
Y-181003D01*
X855309D01*
Y-181290D01*
Y-181576D01*
Y-181862D01*
Y-182149D01*
Y-182435D01*
Y-182721D01*
X855023D01*
Y-183007D01*
Y-183294D01*
Y-183580D01*
Y-183866D01*
Y-184153D01*
Y-184439D01*
X854736D01*
Y-184725D01*
Y-185012D01*
Y-185298D01*
Y-185584D01*
Y-185871D01*
Y-186157D01*
Y-186443D01*
X854450D01*
Y-186730D01*
Y-187016D01*
Y-187302D01*
Y-187588D01*
Y-187875D01*
Y-188161D01*
X854164D01*
Y-188447D01*
Y-188734D01*
Y-189020D01*
Y-189306D01*
Y-189593D01*
Y-189879D01*
X853877D01*
Y-190165D01*
Y-190452D01*
Y-190738D01*
Y-191024D01*
Y-191311D01*
Y-191597D01*
Y-191883D01*
X840421D01*
Y-191597D01*
X840707D01*
Y-191311D01*
Y-191024D01*
Y-190738D01*
Y-190452D01*
Y-190165D01*
X840993D01*
Y-189879D01*
Y-189593D01*
Y-189306D01*
Y-189020D01*
Y-188734D01*
Y-188447D01*
Y-188161D01*
X841280D01*
Y-187875D01*
Y-187588D01*
Y-187302D01*
Y-187016D01*
Y-186730D01*
Y-186443D01*
X841566D01*
Y-186157D01*
Y-185871D01*
Y-185584D01*
Y-185298D01*
Y-185012D01*
Y-184725D01*
X841852D01*
Y-184439D01*
Y-184153D01*
Y-183866D01*
Y-183580D01*
Y-183294D01*
Y-183007D01*
Y-182721D01*
X842138D01*
Y-182435D01*
Y-182149D01*
Y-181862D01*
Y-181576D01*
Y-181290D01*
Y-181003D01*
X842425D01*
Y-180717D01*
Y-180431D01*
Y-180144D01*
Y-179858D01*
Y-179572D01*
Y-179285D01*
X842711D01*
Y-178999D01*
Y-178713D01*
Y-178426D01*
Y-178140D01*
Y-177854D01*
Y-177568D01*
X842997D01*
Y-177281D01*
Y-176995D01*
Y-176709D01*
Y-176422D01*
Y-176136D01*
Y-175850D01*
Y-175563D01*
X843284D01*
Y-175277D01*
Y-174991D01*
Y-174704D01*
Y-174418D01*
Y-174132D01*
Y-173845D01*
X843570D01*
Y-173559D01*
Y-173273D01*
Y-172986D01*
Y-172700D01*
Y-172414D01*
Y-172127D01*
X843856D01*
Y-171841D01*
Y-171555D01*
Y-171269D01*
Y-170982D01*
Y-170696D01*
Y-170410D01*
X844143D01*
Y-170123D01*
Y-169837D01*
Y-169551D01*
Y-169264D01*
Y-168978D01*
Y-168692D01*
Y-168405D01*
X844429D01*
Y-168119D01*
Y-167833D01*
Y-167547D01*
Y-167260D01*
Y-166974D01*
Y-166688D01*
X844715D01*
Y-166401D01*
Y-166115D01*
Y-165829D01*
Y-165542D01*
Y-165256D01*
Y-164970D01*
X845002D01*
Y-164683D01*
Y-164397D01*
Y-164111D01*
Y-163824D01*
Y-163538D01*
Y-163252D01*
Y-162966D01*
X845288D01*
Y-162679D01*
Y-162393D01*
Y-162107D01*
Y-161820D01*
Y-161534D01*
Y-161248D01*
X845574D01*
Y-160961D01*
Y-160675D01*
Y-160389D01*
Y-160102D01*
Y-159816D01*
Y-159530D01*
X845861D01*
Y-159244D01*
Y-158957D01*
Y-158671D01*
Y-158385D01*
Y-158098D01*
Y-157812D01*
X846147D01*
Y-157526D01*
Y-157239D01*
Y-156953D01*
Y-156667D01*
Y-156380D01*
Y-156094D01*
Y-155808D01*
X846433D01*
Y-155521D01*
Y-155235D01*
Y-154949D01*
Y-154663D01*
Y-154376D01*
Y-154090D01*
X846719D01*
Y-153804D01*
Y-153517D01*
Y-153231D01*
Y-152945D01*
Y-152658D01*
Y-152372D01*
X847006D01*
Y-152086D01*
Y-151799D01*
Y-151513D01*
Y-151227D01*
Y-150940D01*
Y-150654D01*
Y-150368D01*
X847292D01*
Y-150082D01*
Y-149795D01*
Y-149509D01*
Y-149223D01*
Y-148936D01*
Y-148650D01*
X847578D01*
Y-148364D01*
Y-148077D01*
Y-147791D01*
Y-147505D01*
Y-147218D01*
Y-146932D01*
X847865D01*
Y-146646D01*
Y-146359D01*
Y-146073D01*
Y-145787D01*
Y-145501D01*
Y-145214D01*
Y-144928D01*
X848151D01*
Y-144641D01*
Y-144355D01*
Y-144069D01*
Y-143783D01*
Y-143496D01*
Y-143210D01*
X848437D01*
Y-142924D01*
Y-142637D01*
Y-142351D01*
Y-142065D01*
Y-141778D01*
Y-141492D01*
X872201D01*
Y-141778D01*
D02*
G37*
G36*
X903409Y-138343D02*
Y-138629D01*
X903123D01*
Y-138915D01*
Y-139202D01*
Y-139488D01*
Y-139774D01*
Y-140060D01*
Y-140347D01*
X902837D01*
Y-140633D01*
Y-140919D01*
Y-141206D01*
Y-141492D01*
Y-141778D01*
Y-142065D01*
X902551D01*
Y-142351D01*
Y-142637D01*
Y-142924D01*
Y-143210D01*
Y-143496D01*
Y-143783D01*
Y-144069D01*
X902264D01*
Y-144355D01*
Y-144641D01*
Y-144928D01*
Y-145214D01*
Y-145501D01*
Y-145787D01*
X901978D01*
Y-146073D01*
Y-146359D01*
Y-146646D01*
Y-146932D01*
Y-147218D01*
Y-147505D01*
X901692D01*
Y-147791D01*
Y-148077D01*
Y-148364D01*
Y-148650D01*
Y-148936D01*
Y-149223D01*
Y-149509D01*
X901405D01*
Y-149795D01*
Y-150082D01*
Y-150368D01*
Y-150654D01*
Y-150940D01*
Y-151227D01*
X901119D01*
Y-151513D01*
Y-151799D01*
Y-152086D01*
Y-152372D01*
Y-152658D01*
Y-152945D01*
X900833D01*
Y-153231D01*
Y-153517D01*
Y-153804D01*
Y-154090D01*
Y-154376D01*
Y-154663D01*
X900546D01*
Y-154949D01*
Y-155235D01*
Y-155521D01*
Y-155808D01*
Y-156094D01*
Y-156380D01*
Y-156667D01*
X900260D01*
Y-156953D01*
Y-157239D01*
Y-157526D01*
Y-157812D01*
Y-158098D01*
Y-158385D01*
X899974D01*
Y-158671D01*
Y-158957D01*
X900546D01*
Y-158671D01*
X900833D01*
Y-158385D01*
X901119D01*
Y-158098D01*
X901692D01*
Y-157812D01*
X901978D01*
Y-157526D01*
X902264D01*
Y-157239D01*
X902837D01*
Y-156953D01*
X903409D01*
Y-156667D01*
X903696D01*
Y-156380D01*
X904268D01*
Y-156094D01*
X905127D01*
Y-155808D01*
X905700D01*
Y-155521D01*
X906559D01*
Y-155235D01*
X907990D01*
Y-154949D01*
X914289D01*
Y-155235D01*
X915435D01*
Y-155521D01*
X916294D01*
Y-155808D01*
X916866D01*
Y-156094D01*
X917153D01*
Y-156380D01*
X917725D01*
Y-156667D01*
X918011D01*
Y-156953D01*
X918298D01*
Y-157239D01*
X918584D01*
Y-157526D01*
X918870D01*
Y-157812D01*
Y-158098D01*
X919157D01*
Y-158385D01*
Y-158671D01*
X919443D01*
Y-158957D01*
Y-159244D01*
Y-159530D01*
X919729D01*
Y-159816D01*
Y-160102D01*
Y-160389D01*
Y-160675D01*
X920016D01*
Y-160961D01*
Y-161248D01*
Y-161534D01*
Y-161820D01*
Y-162107D01*
Y-162393D01*
Y-162679D01*
Y-162966D01*
Y-163252D01*
Y-163538D01*
Y-163824D01*
Y-164111D01*
Y-164397D01*
Y-164683D01*
Y-164970D01*
Y-165256D01*
Y-165542D01*
Y-165829D01*
X919729D01*
Y-166115D01*
Y-166401D01*
Y-166688D01*
Y-166974D01*
Y-167260D01*
Y-167547D01*
Y-167833D01*
X919443D01*
Y-168119D01*
Y-168405D01*
Y-168692D01*
Y-168978D01*
Y-169264D01*
Y-169551D01*
Y-169837D01*
X919157D01*
Y-170123D01*
Y-170410D01*
Y-170696D01*
Y-170982D01*
Y-171269D01*
Y-171555D01*
X918870D01*
Y-171841D01*
Y-172127D01*
Y-172414D01*
Y-172700D01*
Y-172986D01*
Y-173273D01*
X918584D01*
Y-173559D01*
Y-173845D01*
Y-174132D01*
Y-174418D01*
Y-174704D01*
Y-174991D01*
X918298D01*
Y-175277D01*
Y-175563D01*
Y-175850D01*
Y-176136D01*
Y-176422D01*
Y-176709D01*
Y-176995D01*
X918011D01*
Y-177281D01*
Y-177568D01*
Y-177854D01*
Y-178140D01*
Y-178426D01*
Y-178713D01*
X917725D01*
Y-178999D01*
Y-179285D01*
Y-179572D01*
Y-179858D01*
Y-180144D01*
Y-180431D01*
X917439D01*
Y-180717D01*
Y-181003D01*
Y-181290D01*
Y-181576D01*
Y-181862D01*
Y-182149D01*
Y-182435D01*
X917153D01*
Y-182721D01*
Y-183007D01*
Y-183294D01*
Y-183580D01*
Y-183866D01*
Y-184153D01*
X916866D01*
Y-184439D01*
Y-184725D01*
Y-185012D01*
Y-185298D01*
Y-185584D01*
Y-185871D01*
X916580D01*
Y-186157D01*
Y-186443D01*
Y-186730D01*
Y-187016D01*
Y-187302D01*
Y-187588D01*
X916294D01*
Y-187875D01*
Y-188161D01*
Y-188447D01*
Y-188734D01*
Y-189020D01*
Y-189306D01*
Y-189593D01*
X916007D01*
Y-189879D01*
Y-190165D01*
Y-190452D01*
Y-190738D01*
Y-191024D01*
Y-191311D01*
X915721D01*
Y-191597D01*
Y-191883D01*
X902551D01*
Y-191597D01*
Y-191311D01*
X902837D01*
Y-191024D01*
Y-190738D01*
Y-190452D01*
Y-190165D01*
Y-189879D01*
Y-189593D01*
X903123D01*
Y-189306D01*
Y-189020D01*
Y-188734D01*
Y-188447D01*
Y-188161D01*
Y-187875D01*
Y-187588D01*
X903409D01*
Y-187302D01*
Y-187016D01*
Y-186730D01*
Y-186443D01*
Y-186157D01*
Y-185871D01*
X903696D01*
Y-185584D01*
Y-185298D01*
Y-185012D01*
Y-184725D01*
Y-184439D01*
Y-184153D01*
X903982D01*
Y-183866D01*
Y-183580D01*
Y-183294D01*
Y-183007D01*
Y-182721D01*
Y-182435D01*
Y-182149D01*
X904268D01*
Y-181862D01*
Y-181576D01*
Y-181290D01*
Y-181003D01*
Y-180717D01*
Y-180431D01*
X904555D01*
Y-180144D01*
Y-179858D01*
Y-179572D01*
Y-179285D01*
Y-178999D01*
Y-178713D01*
Y-178426D01*
X904841D01*
Y-178140D01*
Y-177854D01*
Y-177568D01*
Y-177281D01*
Y-176995D01*
Y-176709D01*
X905127D01*
Y-176422D01*
Y-176136D01*
Y-175850D01*
Y-175563D01*
Y-175277D01*
Y-174991D01*
X905414D01*
Y-174704D01*
Y-174418D01*
Y-174132D01*
Y-173845D01*
Y-173559D01*
Y-173273D01*
X905700D01*
Y-172986D01*
Y-172700D01*
Y-172414D01*
Y-172127D01*
Y-171841D01*
Y-171555D01*
Y-171269D01*
X905986D01*
Y-170982D01*
Y-170696D01*
Y-170410D01*
Y-170123D01*
Y-169837D01*
Y-169551D01*
X906273D01*
Y-169264D01*
Y-168978D01*
Y-168692D01*
Y-168405D01*
Y-168119D01*
Y-167833D01*
Y-167547D01*
X906559D01*
Y-167260D01*
Y-166974D01*
Y-166688D01*
Y-166401D01*
Y-166115D01*
Y-165829D01*
X906273D01*
Y-165542D01*
Y-165256D01*
X905986D01*
Y-164970D01*
X905700D01*
Y-164683D01*
X905127D01*
Y-164397D01*
X903409D01*
Y-164683D01*
X901978D01*
Y-164970D01*
X901119D01*
Y-165256D01*
X900546D01*
Y-165542D01*
X900260D01*
Y-165829D01*
X899687D01*
Y-166115D01*
X899401D01*
Y-166401D01*
X899115D01*
Y-166688D01*
Y-166974D01*
X898828D01*
Y-167260D01*
Y-167547D01*
Y-167833D01*
X898542D01*
Y-168119D01*
Y-168405D01*
Y-168692D01*
Y-168978D01*
Y-169264D01*
Y-169551D01*
X898256D01*
Y-169837D01*
Y-170123D01*
Y-170410D01*
Y-170696D01*
Y-170982D01*
Y-171269D01*
Y-171555D01*
X897970D01*
Y-171841D01*
Y-172127D01*
Y-172414D01*
Y-172700D01*
Y-172986D01*
Y-173273D01*
X897683D01*
Y-173559D01*
Y-173845D01*
Y-174132D01*
Y-174418D01*
Y-174704D01*
Y-174991D01*
X897397D01*
Y-175277D01*
Y-175563D01*
Y-175850D01*
Y-176136D01*
Y-176422D01*
Y-176709D01*
X897111D01*
Y-176995D01*
Y-177281D01*
Y-177568D01*
Y-177854D01*
Y-178140D01*
Y-178426D01*
Y-178713D01*
X896824D01*
Y-178999D01*
Y-179285D01*
Y-179572D01*
Y-179858D01*
Y-180144D01*
Y-180431D01*
X896538D01*
Y-180717D01*
Y-181003D01*
Y-181290D01*
Y-181576D01*
Y-181862D01*
Y-182149D01*
X896252D01*
Y-182435D01*
Y-182721D01*
Y-183007D01*
Y-183294D01*
Y-183580D01*
Y-183866D01*
Y-184153D01*
X895965D01*
Y-184439D01*
Y-184725D01*
Y-185012D01*
Y-185298D01*
Y-185584D01*
Y-185871D01*
X895679D01*
Y-186157D01*
Y-186443D01*
Y-186730D01*
Y-187016D01*
Y-187302D01*
Y-187588D01*
X895393D01*
Y-187875D01*
Y-188161D01*
Y-188447D01*
Y-188734D01*
Y-189020D01*
Y-189306D01*
X895106D01*
Y-189593D01*
Y-189879D01*
Y-190165D01*
Y-190452D01*
Y-190738D01*
Y-191024D01*
Y-191311D01*
X894820D01*
Y-191597D01*
Y-191883D01*
X881650D01*
Y-191597D01*
Y-191311D01*
X881936D01*
Y-191024D01*
Y-190738D01*
Y-190452D01*
Y-190165D01*
Y-189879D01*
Y-189593D01*
Y-189306D01*
X882222D01*
Y-189020D01*
Y-188734D01*
Y-188447D01*
Y-188161D01*
Y-187875D01*
Y-187588D01*
X882509D01*
Y-187302D01*
Y-187016D01*
Y-186730D01*
Y-186443D01*
Y-186157D01*
Y-185871D01*
X882795D01*
Y-185584D01*
Y-185298D01*
Y-185012D01*
Y-184725D01*
Y-184439D01*
Y-184153D01*
Y-183866D01*
X883081D01*
Y-183580D01*
Y-183294D01*
Y-183007D01*
Y-182721D01*
Y-182435D01*
Y-182149D01*
X883368D01*
Y-181862D01*
Y-181576D01*
Y-181290D01*
Y-181003D01*
Y-180717D01*
Y-180431D01*
X883654D01*
Y-180144D01*
Y-179858D01*
Y-179572D01*
Y-179285D01*
Y-178999D01*
Y-178713D01*
X883940D01*
Y-178426D01*
Y-178140D01*
Y-177854D01*
Y-177568D01*
Y-177281D01*
Y-176995D01*
Y-176709D01*
X884227D01*
Y-176422D01*
Y-176136D01*
Y-175850D01*
Y-175563D01*
Y-175277D01*
Y-174991D01*
X884513D01*
Y-174704D01*
Y-174418D01*
Y-174132D01*
Y-173845D01*
Y-173559D01*
Y-173273D01*
X884799D01*
Y-172986D01*
Y-172700D01*
Y-172414D01*
Y-172127D01*
Y-171841D01*
Y-171555D01*
Y-171269D01*
X885085D01*
Y-170982D01*
Y-170696D01*
Y-170410D01*
Y-170123D01*
Y-169837D01*
Y-169551D01*
X885372D01*
Y-169264D01*
Y-168978D01*
Y-168692D01*
Y-168405D01*
Y-168119D01*
Y-167833D01*
X885658D01*
Y-167547D01*
Y-167260D01*
Y-166974D01*
Y-166688D01*
Y-166401D01*
Y-166115D01*
X885944D01*
Y-165829D01*
Y-165542D01*
Y-165256D01*
Y-164970D01*
Y-164683D01*
Y-164397D01*
Y-164111D01*
X886231D01*
Y-163824D01*
Y-163538D01*
Y-163252D01*
Y-162966D01*
Y-162679D01*
Y-162393D01*
X886517D01*
Y-162107D01*
Y-161820D01*
Y-161534D01*
Y-161248D01*
Y-160961D01*
Y-160675D01*
X886803D01*
Y-160389D01*
Y-160102D01*
Y-159816D01*
Y-159530D01*
Y-159244D01*
Y-158957D01*
X887090D01*
Y-158671D01*
Y-158385D01*
Y-158098D01*
Y-157812D01*
Y-157526D01*
Y-157239D01*
Y-156953D01*
X887376D01*
Y-156667D01*
Y-156380D01*
Y-156094D01*
Y-155808D01*
Y-155521D01*
Y-155235D01*
X887662D01*
Y-154949D01*
Y-154663D01*
Y-154376D01*
Y-154090D01*
Y-153804D01*
Y-153517D01*
X887949D01*
Y-153231D01*
Y-152945D01*
Y-152658D01*
Y-152372D01*
Y-152086D01*
Y-151799D01*
Y-151513D01*
X888235D01*
Y-151227D01*
Y-150940D01*
Y-150654D01*
Y-150368D01*
Y-150082D01*
Y-149795D01*
X888521D01*
Y-149509D01*
Y-149223D01*
Y-148936D01*
Y-148650D01*
Y-148364D01*
Y-148077D01*
X888807D01*
Y-147791D01*
Y-147505D01*
Y-147218D01*
Y-146932D01*
Y-146646D01*
Y-146359D01*
X889094D01*
Y-146073D01*
Y-145787D01*
Y-145501D01*
Y-145214D01*
Y-144928D01*
Y-144641D01*
Y-144355D01*
X889380D01*
Y-144069D01*
Y-143783D01*
Y-143496D01*
Y-143210D01*
Y-142924D01*
Y-142637D01*
X889666D01*
Y-142351D01*
Y-142065D01*
Y-141778D01*
Y-141492D01*
Y-141206D01*
Y-140919D01*
X889953D01*
Y-140633D01*
Y-140347D01*
Y-140060D01*
Y-139774D01*
Y-139488D01*
Y-139202D01*
Y-138915D01*
X890239D01*
Y-138629D01*
Y-138343D01*
Y-138056D01*
X903409D01*
Y-138343D01*
D02*
G37*
G36*
X1005337Y-155808D02*
X1005050D01*
Y-156094D01*
X1004764D01*
Y-156380D01*
Y-156667D01*
X1004478D01*
Y-156953D01*
X1004192D01*
Y-157239D01*
X1003905D01*
Y-157526D01*
Y-157812D01*
X1003619D01*
Y-158098D01*
X1003333D01*
Y-158385D01*
X1003046D01*
Y-158671D01*
X1002760D01*
Y-158957D01*
Y-159244D01*
X1002474D01*
Y-159530D01*
X1002187D01*
Y-159816D01*
X1001901D01*
Y-160102D01*
Y-160389D01*
X1001615D01*
Y-160675D01*
X1001328D01*
Y-160961D01*
X1001042D01*
Y-161248D01*
X1000756D01*
Y-161534D01*
Y-161820D01*
X1000469D01*
Y-162107D01*
X1000183D01*
Y-162393D01*
X999897D01*
Y-162679D01*
Y-162966D01*
X999611D01*
Y-163252D01*
X999324D01*
Y-163538D01*
X999038D01*
Y-163824D01*
Y-164111D01*
X998752D01*
Y-164397D01*
X998465D01*
Y-164683D01*
X998179D01*
Y-164970D01*
X997893D01*
Y-165256D01*
Y-165542D01*
X997606D01*
Y-165829D01*
X997320D01*
Y-166115D01*
X997034D01*
Y-166401D01*
Y-166688D01*
X996747D01*
Y-166974D01*
X996461D01*
Y-167260D01*
X996175D01*
Y-167547D01*
Y-167833D01*
X995889D01*
Y-168119D01*
X995602D01*
Y-168405D01*
X995316D01*
Y-168692D01*
X995030D01*
Y-168978D01*
Y-169264D01*
X994743D01*
Y-169551D01*
X994457D01*
Y-169837D01*
X994171D01*
Y-170123D01*
Y-170410D01*
X993884D01*
Y-170696D01*
X993598D01*
Y-170982D01*
X993312D01*
Y-171269D01*
Y-171555D01*
X993025D01*
Y-171841D01*
X992739D01*
Y-172127D01*
X992453D01*
Y-172414D01*
X992166D01*
Y-172700D01*
Y-172986D01*
X991880D01*
Y-173273D01*
X991594D01*
Y-173559D01*
X991308D01*
Y-173845D01*
Y-174132D01*
X991021D01*
Y-174418D01*
X990735D01*
Y-174704D01*
X990449D01*
Y-174991D01*
X990162D01*
Y-175277D01*
Y-175563D01*
X990449D01*
Y-175850D01*
Y-176136D01*
X990735D01*
Y-176422D01*
Y-176709D01*
X991021D01*
Y-176995D01*
X991308D01*
Y-177281D01*
Y-177568D01*
X991594D01*
Y-177854D01*
Y-178140D01*
X991880D01*
Y-178426D01*
Y-178713D01*
X992166D01*
Y-178999D01*
Y-179285D01*
X992453D01*
Y-179572D01*
Y-179858D01*
X992739D01*
Y-180144D01*
Y-180431D01*
X993025D01*
Y-180717D01*
Y-181003D01*
X993312D01*
Y-181290D01*
Y-181576D01*
X993598D01*
Y-181862D01*
X993884D01*
Y-182149D01*
Y-182435D01*
X994171D01*
Y-182721D01*
Y-183007D01*
X994457D01*
Y-183294D01*
Y-183580D01*
X994743D01*
Y-183866D01*
Y-184153D01*
X995030D01*
Y-184439D01*
Y-184725D01*
X995316D01*
Y-185012D01*
Y-185298D01*
X995602D01*
Y-185584D01*
Y-185871D01*
X995889D01*
Y-186157D01*
X996175D01*
Y-186443D01*
Y-186730D01*
X996461D01*
Y-187016D01*
Y-187302D01*
X996747D01*
Y-187588D01*
Y-187875D01*
X997034D01*
Y-188161D01*
Y-188447D01*
X997320D01*
Y-188734D01*
Y-189020D01*
X997606D01*
Y-189306D01*
Y-189593D01*
X997893D01*
Y-189879D01*
Y-190165D01*
X998179D01*
Y-190452D01*
X998465D01*
Y-190738D01*
Y-191024D01*
X998752D01*
Y-191311D01*
Y-191597D01*
X999038D01*
Y-191883D01*
X983863D01*
Y-191597D01*
X983577D01*
Y-191311D01*
Y-191024D01*
Y-190738D01*
X983291D01*
Y-190452D01*
Y-190165D01*
Y-189879D01*
X983004D01*
Y-189593D01*
Y-189306D01*
X982718D01*
Y-189020D01*
Y-188734D01*
Y-188447D01*
X982432D01*
Y-188161D01*
Y-187875D01*
Y-187588D01*
X982146D01*
Y-187302D01*
Y-187016D01*
X981859D01*
Y-186730D01*
Y-186443D01*
Y-186157D01*
X981573D01*
Y-185871D01*
Y-185584D01*
Y-185298D01*
X981287D01*
Y-185012D01*
Y-184725D01*
Y-184439D01*
X981000D01*
Y-184153D01*
X980428D01*
Y-184439D01*
Y-184725D01*
X980141D01*
Y-185012D01*
X979855D01*
Y-185298D01*
Y-185584D01*
X979569D01*
Y-185871D01*
X979282D01*
Y-186157D01*
Y-186443D01*
X978996D01*
Y-186730D01*
X978710D01*
Y-187016D01*
Y-187302D01*
X978423D01*
Y-187588D01*
X978137D01*
Y-187875D01*
X977851D01*
Y-188161D01*
Y-188447D01*
X977565D01*
Y-188734D01*
X977278D01*
Y-189020D01*
Y-189306D01*
X976992D01*
Y-189593D01*
X976705D01*
Y-189879D01*
Y-190165D01*
X976419D01*
Y-190452D01*
X976133D01*
Y-190738D01*
Y-191024D01*
X975847D01*
Y-191311D01*
X975560D01*
Y-191597D01*
Y-191883D01*
X959527D01*
Y-191597D01*
X959813D01*
Y-191311D01*
X960099D01*
Y-191024D01*
X960386D01*
Y-190738D01*
X960672D01*
Y-190452D01*
Y-190165D01*
X960958D01*
Y-189879D01*
X961245D01*
Y-189593D01*
X961531D01*
Y-189306D01*
X961817D01*
Y-189020D01*
Y-188734D01*
X962104D01*
Y-188447D01*
X962390D01*
Y-188161D01*
X962676D01*
Y-187875D01*
Y-187588D01*
X962963D01*
Y-187302D01*
X963249D01*
Y-187016D01*
X963535D01*
Y-186730D01*
X963822D01*
Y-186443D01*
Y-186157D01*
X964108D01*
Y-185871D01*
X964394D01*
Y-185584D01*
X964680D01*
Y-185298D01*
X964967D01*
Y-185012D01*
Y-184725D01*
X965253D01*
Y-184439D01*
X965539D01*
Y-184153D01*
X965826D01*
Y-183866D01*
Y-183580D01*
X966112D01*
Y-183294D01*
X966398D01*
Y-183007D01*
X966685D01*
Y-182721D01*
X966971D01*
Y-182435D01*
Y-182149D01*
X967257D01*
Y-181862D01*
X967544D01*
Y-181576D01*
X967830D01*
Y-181290D01*
Y-181003D01*
X968116D01*
Y-180717D01*
X968402D01*
Y-180431D01*
X968689D01*
Y-180144D01*
X968975D01*
Y-179858D01*
Y-179572D01*
X969261D01*
Y-179285D01*
X969548D01*
Y-178999D01*
X969834D01*
Y-178713D01*
Y-178426D01*
X970120D01*
Y-178140D01*
X970407D01*
Y-177854D01*
X970693D01*
Y-177568D01*
X970979D01*
Y-177281D01*
Y-176995D01*
X971266D01*
Y-176709D01*
X971552D01*
Y-176422D01*
X971838D01*
Y-176136D01*
X972124D01*
Y-175850D01*
Y-175563D01*
X972411D01*
Y-175277D01*
X972697D01*
Y-174991D01*
X972983D01*
Y-174704D01*
Y-174418D01*
X973270D01*
Y-174132D01*
X973556D01*
Y-173845D01*
X973842D01*
Y-173559D01*
X974129D01*
Y-173273D01*
Y-172986D01*
X974415D01*
Y-172700D01*
Y-172414D01*
Y-172127D01*
X974129D01*
Y-171841D01*
X973842D01*
Y-171555D01*
Y-171269D01*
X973556D01*
Y-170982D01*
Y-170696D01*
X973270D01*
Y-170410D01*
Y-170123D01*
X972983D01*
Y-169837D01*
Y-169551D01*
X972697D01*
Y-169264D01*
Y-168978D01*
X972411D01*
Y-168692D01*
Y-168405D01*
X972124D01*
Y-168119D01*
X971838D01*
Y-167833D01*
Y-167547D01*
X971552D01*
Y-167260D01*
Y-166974D01*
X971266D01*
Y-166688D01*
Y-166401D01*
X970979D01*
Y-166115D01*
Y-165829D01*
X970693D01*
Y-165542D01*
Y-165256D01*
X970407D01*
Y-164970D01*
Y-164683D01*
X970120D01*
Y-164397D01*
X969834D01*
Y-164111D01*
Y-163824D01*
X969548D01*
Y-163538D01*
Y-163252D01*
X969261D01*
Y-162966D01*
Y-162679D01*
X968975D01*
Y-162393D01*
Y-162107D01*
X968689D01*
Y-161820D01*
Y-161534D01*
X968402D01*
Y-161248D01*
Y-160961D01*
X968116D01*
Y-160675D01*
Y-160389D01*
X967830D01*
Y-160102D01*
X967544D01*
Y-159816D01*
Y-159530D01*
X967257D01*
Y-159244D01*
Y-158957D01*
X966971D01*
Y-158671D01*
Y-158385D01*
X966685D01*
Y-158098D01*
Y-157812D01*
X966398D01*
Y-157526D01*
Y-157239D01*
X966112D01*
Y-156953D01*
Y-156667D01*
X965826D01*
Y-156380D01*
X965539D01*
Y-156094D01*
Y-155808D01*
X965253D01*
Y-155521D01*
X981000D01*
Y-155808D01*
X981287D01*
Y-156094D01*
Y-156380D01*
Y-156667D01*
X981573D01*
Y-156953D01*
Y-157239D01*
Y-157526D01*
X981859D01*
Y-157812D01*
Y-158098D01*
Y-158385D01*
X982146D01*
Y-158671D01*
Y-158957D01*
Y-159244D01*
X982432D01*
Y-159530D01*
Y-159816D01*
Y-160102D01*
X982718D01*
Y-160389D01*
Y-160675D01*
Y-160961D01*
X983004D01*
Y-161248D01*
Y-161534D01*
Y-161820D01*
X983291D01*
Y-162107D01*
Y-162393D01*
Y-162679D01*
X983577D01*
Y-162966D01*
Y-163252D01*
Y-163538D01*
Y-163824D01*
X984150D01*
Y-163538D01*
X984436D01*
Y-163252D01*
X984722D01*
Y-162966D01*
Y-162679D01*
X985009D01*
Y-162393D01*
X985295D01*
Y-162107D01*
Y-161820D01*
X985581D01*
Y-161534D01*
X985868D01*
Y-161248D01*
Y-160961D01*
X986154D01*
Y-160675D01*
X986440D01*
Y-160389D01*
Y-160102D01*
X986726D01*
Y-159816D01*
X987013D01*
Y-159530D01*
Y-159244D01*
X987299D01*
Y-158957D01*
X987585D01*
Y-158671D01*
Y-158385D01*
X987872D01*
Y-158098D01*
X988158D01*
Y-157812D01*
Y-157526D01*
X988444D01*
Y-157239D01*
X988731D01*
Y-156953D01*
Y-156667D01*
X989017D01*
Y-156380D01*
X989303D01*
Y-156094D01*
Y-155808D01*
X989590D01*
Y-155521D01*
X1005337D01*
Y-155808D01*
D02*
G37*
G36*
X961245D02*
Y-156094D01*
Y-156380D01*
Y-156667D01*
Y-156953D01*
Y-157239D01*
Y-157526D01*
Y-157812D01*
Y-158098D01*
Y-158385D01*
Y-158671D01*
Y-158957D01*
Y-159244D01*
Y-159530D01*
Y-159816D01*
Y-160102D01*
Y-160389D01*
Y-160675D01*
Y-160961D01*
Y-161248D01*
Y-161534D01*
X960958D01*
Y-161820D01*
Y-162107D01*
Y-162393D01*
Y-162679D01*
Y-162966D01*
X960672D01*
Y-163252D01*
Y-163538D01*
Y-163824D01*
Y-164111D01*
X960386D01*
Y-164397D01*
Y-164683D01*
Y-164970D01*
Y-165256D01*
X960099D01*
Y-165542D01*
Y-165829D01*
Y-166115D01*
X959813D01*
Y-166401D01*
Y-166688D01*
Y-166974D01*
X959527D01*
Y-167260D01*
Y-167547D01*
Y-167833D01*
X959241D01*
Y-168119D01*
Y-168405D01*
Y-168692D01*
X958954D01*
Y-168978D01*
Y-169264D01*
X958668D01*
Y-169551D01*
Y-169837D01*
X958381D01*
Y-170123D01*
Y-170410D01*
Y-170696D01*
X958095D01*
Y-170982D01*
Y-171269D01*
X957809D01*
Y-171555D01*
Y-171841D01*
Y-172127D01*
X957523D01*
Y-172414D01*
Y-172700D01*
X957236D01*
Y-172986D01*
Y-173273D01*
Y-173559D01*
X956950D01*
Y-173845D01*
Y-174132D01*
X956664D01*
Y-174418D01*
Y-174704D01*
Y-174991D01*
X956377D01*
Y-175277D01*
Y-175563D01*
X956091D01*
Y-175850D01*
Y-176136D01*
Y-176422D01*
X955805D01*
Y-176709D01*
Y-176995D01*
X955518D01*
Y-177281D01*
Y-177568D01*
Y-177854D01*
X955232D01*
Y-178140D01*
Y-178426D01*
X954946D01*
Y-178713D01*
Y-178999D01*
Y-179285D01*
X954659D01*
Y-179572D01*
Y-179858D01*
X954373D01*
Y-180144D01*
Y-180431D01*
Y-180717D01*
X954087D01*
Y-181003D01*
Y-181290D01*
X953800D01*
Y-181576D01*
Y-181862D01*
Y-182149D01*
X953514D01*
Y-182435D01*
Y-182721D01*
X953228D01*
Y-183007D01*
Y-183294D01*
Y-183580D01*
X952942D01*
Y-183866D01*
Y-184153D01*
X952655D01*
Y-184439D01*
Y-184725D01*
Y-185012D01*
X952369D01*
Y-185298D01*
Y-185584D01*
X952083D01*
Y-185871D01*
Y-186157D01*
Y-186443D01*
X951796D01*
Y-186730D01*
Y-187016D01*
X951510D01*
Y-187302D01*
Y-187588D01*
Y-187875D01*
X951224D01*
Y-188161D01*
Y-188447D01*
X950937D01*
Y-188734D01*
Y-189020D01*
Y-189306D01*
X950651D01*
Y-189593D01*
Y-189879D01*
X950365D01*
Y-190165D01*
Y-190452D01*
Y-190738D01*
X950078D01*
Y-191024D01*
Y-191311D01*
X949792D01*
Y-191597D01*
Y-191883D01*
Y-192169D01*
X949506D01*
Y-192456D01*
Y-192742D01*
X949220D01*
Y-193028D01*
Y-193315D01*
X948933D01*
Y-193601D01*
Y-193887D01*
X948647D01*
Y-194174D01*
Y-194460D01*
Y-194746D01*
X948361D01*
Y-195033D01*
X948074D01*
Y-195319D01*
Y-195605D01*
Y-195891D01*
X947788D01*
Y-196178D01*
X947502D01*
Y-196464D01*
Y-196750D01*
X947215D01*
Y-197037D01*
Y-197323D01*
X946929D01*
Y-197609D01*
Y-197896D01*
X946643D01*
Y-198182D01*
Y-198468D01*
X946356D01*
Y-198755D01*
X946070D01*
Y-199041D01*
Y-199327D01*
X945784D01*
Y-199614D01*
Y-199900D01*
X945497D01*
Y-200186D01*
X945211D01*
Y-200472D01*
X944925D01*
Y-200759D01*
Y-201045D01*
X944639D01*
Y-201331D01*
X944352D01*
Y-201618D01*
Y-201904D01*
X944066D01*
Y-202190D01*
X943780D01*
Y-202477D01*
X943493D01*
Y-202763D01*
Y-203049D01*
X943207D01*
Y-203336D01*
X942921D01*
Y-203622D01*
X942634D01*
Y-203908D01*
X942348D01*
Y-204195D01*
X942062D01*
Y-204481D01*
Y-204767D01*
X941775D01*
Y-205053D01*
X941489D01*
Y-205340D01*
X941203D01*
Y-205626D01*
X940916D01*
Y-205912D01*
X940630D01*
Y-206199D01*
X940344D01*
Y-206485D01*
X940057D01*
Y-206771D01*
X939485D01*
Y-207058D01*
X939199D01*
Y-207344D01*
X938912D01*
Y-207630D01*
X938626D01*
Y-207917D01*
X938340D01*
Y-208203D01*
X937767D01*
Y-208489D01*
X937481D01*
Y-208776D01*
X936908D01*
Y-209062D01*
X936622D01*
Y-209348D01*
X936049D01*
Y-209634D01*
X935763D01*
Y-209921D01*
X935190D01*
Y-210207D01*
X934618D01*
Y-210493D01*
X934045D01*
Y-210780D01*
X933472D01*
Y-211066D01*
X932900D01*
Y-211352D01*
X932041D01*
Y-211639D01*
X931468D01*
Y-211925D01*
X930609D01*
Y-212211D01*
X929464D01*
Y-212498D01*
X928319D01*
Y-212784D01*
X926601D01*
Y-213070D01*
X924597D01*
Y-213357D01*
X924310D01*
Y-213070D01*
Y-212784D01*
Y-212498D01*
Y-212211D01*
Y-211925D01*
Y-211639D01*
Y-211352D01*
Y-211066D01*
Y-210780D01*
Y-210493D01*
Y-210207D01*
Y-209921D01*
Y-209634D01*
Y-209348D01*
Y-209062D01*
Y-208776D01*
Y-208489D01*
Y-208203D01*
Y-207917D01*
Y-207630D01*
Y-207344D01*
Y-207058D01*
Y-206771D01*
Y-206485D01*
Y-206199D01*
Y-205912D01*
Y-205626D01*
Y-205340D01*
Y-205053D01*
Y-204767D01*
Y-204481D01*
Y-204195D01*
Y-203908D01*
X924883D01*
Y-203622D01*
X925455D01*
Y-203336D01*
X926028D01*
Y-203049D01*
X926601D01*
Y-202763D01*
X927173D01*
Y-202477D01*
X927746D01*
Y-202190D01*
X928032D01*
Y-201904D01*
X928605D01*
Y-201618D01*
X928891D01*
Y-201331D01*
X929464D01*
Y-201045D01*
X929750D01*
Y-200759D01*
X930037D01*
Y-200472D01*
X930609D01*
Y-200186D01*
X930896D01*
Y-199900D01*
X931182D01*
Y-199614D01*
X931468D01*
Y-199327D01*
X931754D01*
Y-199041D01*
X932041D01*
Y-198755D01*
X932327D01*
Y-198468D01*
X932613D01*
Y-198182D01*
X932900D01*
Y-197896D01*
X933186D01*
Y-197609D01*
X933472D01*
Y-197323D01*
X933759D01*
Y-197037D01*
Y-196750D01*
X934045D01*
Y-196464D01*
X934331D01*
Y-196178D01*
X934618D01*
Y-195891D01*
Y-195605D01*
X934904D01*
Y-195319D01*
X935190D01*
Y-195033D01*
Y-194746D01*
X935476D01*
Y-194460D01*
Y-194174D01*
X935763D01*
Y-193887D01*
X936049D01*
Y-193601D01*
Y-193315D01*
X936335D01*
Y-193028D01*
Y-192742D01*
X936622D01*
Y-192456D01*
Y-192169D01*
X934904D01*
Y-191883D01*
X932900D01*
Y-191597D01*
X931754D01*
Y-191311D01*
X931182D01*
Y-191024D01*
X930323D01*
Y-190738D01*
X929750D01*
Y-190452D01*
X929464D01*
Y-190165D01*
X928891D01*
Y-189879D01*
X928605D01*
Y-189593D01*
X928319D01*
Y-189306D01*
X928032D01*
Y-189020D01*
X927746D01*
Y-188734D01*
X927460D01*
Y-188447D01*
Y-188161D01*
X927173D01*
Y-187875D01*
X926887D01*
Y-187588D01*
Y-187302D01*
X926601D01*
Y-187016D01*
Y-186730D01*
X926315D01*
Y-186443D01*
Y-186157D01*
X926028D01*
Y-185871D01*
Y-185584D01*
Y-185298D01*
X925742D01*
Y-185012D01*
Y-184725D01*
Y-184439D01*
Y-184153D01*
X925455D01*
Y-183866D01*
Y-183580D01*
Y-183294D01*
Y-183007D01*
Y-182721D01*
Y-182435D01*
Y-182149D01*
X925169D01*
Y-181862D01*
Y-181576D01*
Y-181290D01*
Y-181003D01*
Y-180717D01*
Y-180431D01*
Y-180144D01*
Y-179858D01*
Y-179572D01*
Y-179285D01*
Y-178999D01*
Y-178713D01*
Y-178426D01*
Y-178140D01*
Y-177854D01*
X924883D01*
Y-177568D01*
Y-177281D01*
Y-176995D01*
Y-176709D01*
Y-176422D01*
Y-176136D01*
Y-175850D01*
Y-175563D01*
Y-175277D01*
Y-174991D01*
Y-174704D01*
Y-174418D01*
Y-174132D01*
Y-173845D01*
Y-173559D01*
X924597D01*
Y-173273D01*
Y-172986D01*
Y-172700D01*
Y-172414D01*
Y-172127D01*
Y-171841D01*
Y-171555D01*
Y-171269D01*
Y-170982D01*
Y-170696D01*
Y-170410D01*
Y-170123D01*
Y-169837D01*
Y-169551D01*
Y-169264D01*
Y-168978D01*
X924310D01*
Y-168692D01*
Y-168405D01*
Y-168119D01*
Y-167833D01*
Y-167547D01*
Y-167260D01*
Y-166974D01*
Y-166688D01*
Y-166401D01*
Y-166115D01*
Y-165829D01*
Y-165542D01*
Y-165256D01*
Y-164970D01*
Y-164683D01*
Y-164397D01*
X924024D01*
Y-164111D01*
Y-163824D01*
Y-163538D01*
Y-163252D01*
Y-162966D01*
Y-162679D01*
Y-162393D01*
Y-162107D01*
Y-161820D01*
Y-161534D01*
Y-161248D01*
Y-160961D01*
Y-160675D01*
Y-160389D01*
X923738D01*
Y-160102D01*
Y-159816D01*
Y-159530D01*
Y-159244D01*
Y-158957D01*
Y-158671D01*
Y-158385D01*
Y-158098D01*
Y-157812D01*
Y-157526D01*
Y-157239D01*
Y-156953D01*
Y-156667D01*
Y-156380D01*
Y-156094D01*
Y-155808D01*
X923451D01*
Y-155521D01*
X937194D01*
Y-155808D01*
Y-156094D01*
Y-156380D01*
Y-156667D01*
Y-156953D01*
Y-157239D01*
Y-157526D01*
Y-157812D01*
Y-158098D01*
Y-158385D01*
Y-158671D01*
Y-158957D01*
Y-159244D01*
Y-159530D01*
X937481D01*
Y-159816D01*
Y-160102D01*
Y-160389D01*
Y-160675D01*
Y-160961D01*
Y-161248D01*
Y-161534D01*
Y-161820D01*
Y-162107D01*
Y-162393D01*
Y-162679D01*
Y-162966D01*
Y-163252D01*
Y-163538D01*
Y-163824D01*
Y-164111D01*
Y-164397D01*
Y-164683D01*
Y-164970D01*
Y-165256D01*
Y-165542D01*
Y-165829D01*
Y-166115D01*
Y-166401D01*
Y-166688D01*
Y-166974D01*
Y-167260D01*
Y-167547D01*
Y-167833D01*
Y-168119D01*
Y-168405D01*
Y-168692D01*
Y-168978D01*
Y-169264D01*
Y-169551D01*
Y-169837D01*
Y-170123D01*
Y-170410D01*
Y-170696D01*
Y-170982D01*
Y-171269D01*
X937767D01*
Y-171555D01*
X937481D01*
Y-171841D01*
Y-172127D01*
X937767D01*
Y-172414D01*
Y-172700D01*
Y-172986D01*
Y-173273D01*
Y-173559D01*
Y-173845D01*
Y-174132D01*
Y-174418D01*
Y-174704D01*
Y-174991D01*
Y-175277D01*
Y-175563D01*
Y-175850D01*
Y-176136D01*
Y-176422D01*
Y-176709D01*
Y-176995D01*
Y-177281D01*
Y-177568D01*
Y-177854D01*
Y-178140D01*
Y-178426D01*
Y-178713D01*
Y-178999D01*
Y-179285D01*
Y-179572D01*
X938053D01*
Y-179858D01*
Y-180144D01*
Y-180431D01*
X938340D01*
Y-180717D01*
X938626D01*
Y-181003D01*
X938912D01*
Y-181290D01*
X939771D01*
Y-181576D01*
X940630D01*
Y-181290D01*
X940916D01*
Y-181003D01*
Y-180717D01*
Y-180431D01*
X941203D01*
Y-180144D01*
Y-179858D01*
X941489D01*
Y-179572D01*
Y-179285D01*
Y-178999D01*
X941775D01*
Y-178713D01*
Y-178426D01*
Y-178140D01*
X942062D01*
Y-177854D01*
Y-177568D01*
Y-177281D01*
X942348D01*
Y-176995D01*
Y-176709D01*
Y-176422D01*
X942634D01*
Y-176136D01*
Y-175850D01*
X942921D01*
Y-175563D01*
Y-175277D01*
Y-174991D01*
X943207D01*
Y-174704D01*
Y-174418D01*
Y-174132D01*
X943493D01*
Y-173845D01*
Y-173559D01*
Y-173273D01*
X943780D01*
Y-172986D01*
Y-172700D01*
X944066D01*
Y-172414D01*
Y-172127D01*
Y-171841D01*
X944352D01*
Y-171555D01*
Y-171269D01*
Y-170982D01*
X944639D01*
Y-170696D01*
Y-170410D01*
Y-170123D01*
X944925D01*
Y-169837D01*
Y-169551D01*
X945211D01*
Y-169264D01*
Y-168978D01*
Y-168692D01*
X945497D01*
Y-168405D01*
Y-168119D01*
Y-167833D01*
X945784D01*
Y-167547D01*
Y-167260D01*
Y-166974D01*
X946070D01*
Y-166688D01*
Y-166401D01*
X946356D01*
Y-166115D01*
Y-165829D01*
Y-165542D01*
X946643D01*
Y-165256D01*
Y-164970D01*
Y-164683D01*
X946929D01*
Y-164397D01*
Y-164111D01*
Y-163824D01*
X947215D01*
Y-163538D01*
Y-163252D01*
Y-162966D01*
Y-162679D01*
X947502D01*
Y-162393D01*
Y-162107D01*
Y-161820D01*
Y-161534D01*
X947788D01*
Y-161248D01*
Y-160961D01*
Y-160675D01*
Y-160389D01*
Y-160102D01*
X948074D01*
Y-159816D01*
Y-159530D01*
Y-159244D01*
Y-158957D01*
Y-158671D01*
Y-158385D01*
X948361D01*
Y-158098D01*
Y-157812D01*
Y-157526D01*
Y-157239D01*
Y-156953D01*
Y-156667D01*
Y-156380D01*
Y-156094D01*
Y-155808D01*
Y-155521D01*
X961245D01*
Y-155808D01*
D02*
G37*
%LPC*%
G36*
X867907Y-152658D02*
X859890D01*
Y-152945D01*
Y-153231D01*
Y-153517D01*
Y-153804D01*
Y-154090D01*
X859604D01*
Y-154376D01*
Y-154663D01*
Y-154949D01*
Y-155235D01*
Y-155521D01*
Y-155808D01*
X859317D01*
Y-156094D01*
Y-156380D01*
Y-156667D01*
Y-156953D01*
Y-157239D01*
Y-157526D01*
X859031D01*
Y-157812D01*
Y-158098D01*
Y-158385D01*
Y-158671D01*
Y-158957D01*
Y-159244D01*
X858745D01*
Y-159530D01*
Y-159816D01*
Y-160102D01*
Y-160389D01*
Y-160675D01*
Y-160961D01*
Y-161248D01*
X858458D01*
Y-161534D01*
Y-161820D01*
Y-162107D01*
Y-162393D01*
Y-162679D01*
Y-162966D01*
X858172D01*
Y-163252D01*
Y-163538D01*
Y-163824D01*
X865330D01*
Y-163538D01*
X866475D01*
Y-163252D01*
X867048D01*
Y-162966D01*
X867334D01*
Y-162679D01*
X867620D01*
Y-162393D01*
X867907D01*
Y-162107D01*
X868193D01*
Y-161820D01*
Y-161534D01*
X868479D01*
Y-161248D01*
Y-160961D01*
X868766D01*
Y-160675D01*
Y-160389D01*
X869052D01*
Y-160102D01*
Y-159816D01*
Y-159530D01*
Y-159244D01*
X869338D01*
Y-158957D01*
Y-158671D01*
Y-158385D01*
Y-158098D01*
Y-157812D01*
X869625D01*
Y-157526D01*
Y-157239D01*
Y-156953D01*
Y-156667D01*
Y-156380D01*
Y-156094D01*
Y-155808D01*
Y-155521D01*
Y-155235D01*
Y-154949D01*
Y-154663D01*
X869338D01*
Y-154376D01*
Y-154090D01*
X869052D01*
Y-153804D01*
Y-153517D01*
X868766D01*
Y-153231D01*
X868479D01*
Y-152945D01*
X867907D01*
Y-152658D01*
D02*
G37*
%LPD*%
D10*
X1182685Y-202012D02*
Y-194141D01*
X1186621D01*
X1187932Y-195452D01*
Y-198076D01*
X1186621Y-199388D01*
X1182685D01*
X1185308D02*
X1187932Y-202012D01*
X1194492D02*
X1191868D01*
X1190556Y-200700D01*
Y-198076D01*
X1191868Y-196764D01*
X1194492D01*
X1195804Y-198076D01*
Y-199388D01*
X1190556D01*
X1198428Y-196764D02*
X1201052Y-202012D01*
X1203675Y-196764D01*
X828354Y-233511D02*
Y-241382D01*
X832290D01*
X833602Y-240070D01*
Y-234823D01*
X832290Y-233511D01*
X828354D01*
X840161Y-241382D02*
X837537D01*
X836226Y-240070D01*
Y-237446D01*
X837537Y-236134D01*
X840161D01*
X841473Y-237446D01*
Y-238758D01*
X836226D01*
X844097Y-241382D02*
X848033D01*
X849345Y-240070D01*
X848033Y-238758D01*
X845409D01*
X844097Y-237446D01*
X845409Y-236134D01*
X849345D01*
X854592Y-244006D02*
X855904D01*
X857216Y-242694D01*
Y-236134D01*
X853280D01*
X851968Y-237446D01*
Y-240070D01*
X853280Y-241382D01*
X857216D01*
X859840D02*
X862464D01*
X861152D01*
Y-236134D01*
X859840D01*
X866399Y-241382D02*
Y-236134D01*
X870335D01*
X871647Y-237446D01*
Y-241382D01*
X878207D02*
X875583D01*
X874271Y-240070D01*
Y-237446D01*
X875583Y-236134D01*
X878207D01*
X879519Y-237446D01*
Y-238758D01*
X874271D01*
X882143Y-236134D02*
Y-241382D01*
Y-238758D01*
X883454Y-237446D01*
X884766Y-236134D01*
X886078D01*
X1025204Y-115400D02*
Y-123272D01*
X1029140D01*
X1030452Y-121960D01*
Y-116712D01*
X1029140Y-115400D01*
X1025204D01*
X1034388Y-123272D02*
X1037012D01*
X1038323Y-121960D01*
Y-119336D01*
X1037012Y-118024D01*
X1034388D01*
X1033076Y-119336D01*
Y-121960D01*
X1034388Y-123272D01*
X1046195Y-118024D02*
X1042259D01*
X1040947Y-119336D01*
Y-121960D01*
X1042259Y-123272D01*
X1046195D01*
X1048819Y-118024D02*
Y-121960D01*
X1050131Y-123272D01*
X1054066D01*
Y-118024D01*
X1056690Y-123272D02*
Y-118024D01*
X1058002D01*
X1059314Y-119336D01*
Y-123272D01*
Y-119336D01*
X1060626Y-118024D01*
X1061938Y-119336D01*
Y-123272D01*
X1068498D02*
X1065874D01*
X1064562Y-121960D01*
Y-119336D01*
X1065874Y-118024D01*
X1068498D01*
X1069810Y-119336D01*
Y-120648D01*
X1064562D01*
X1072433Y-123272D02*
Y-118024D01*
X1076369D01*
X1077681Y-119336D01*
Y-123272D01*
X1081617Y-116712D02*
Y-118024D01*
X1080305D01*
X1082929D01*
X1081617D01*
Y-121960D01*
X1082929Y-123272D01*
X1025204Y-154770D02*
Y-162642D01*
X1030452D01*
X1034388Y-157394D02*
X1037012D01*
X1038323Y-158706D01*
Y-162642D01*
X1034388D01*
X1033076Y-161330D01*
X1034388Y-160018D01*
X1038323D01*
X1040947Y-157394D02*
Y-161330D01*
X1042259Y-162642D01*
X1046195D01*
Y-163954D01*
X1044883Y-165266D01*
X1043571D01*
X1046195Y-162642D02*
Y-157394D01*
X1052755Y-162642D02*
X1050131D01*
X1048819Y-161330D01*
Y-158706D01*
X1050131Y-157394D01*
X1052755D01*
X1054066Y-158706D01*
Y-160018D01*
X1048819D01*
X1056690Y-157394D02*
Y-162642D01*
Y-160018D01*
X1058002Y-158706D01*
X1059314Y-157394D01*
X1060626D01*
X1072433Y-162642D02*
Y-154770D01*
X1077681Y-162642D01*
Y-154770D01*
X1081617Y-157394D02*
X1084241D01*
X1085552Y-158706D01*
Y-162642D01*
X1081617D01*
X1080305Y-161330D01*
X1081617Y-160018D01*
X1085552D01*
X1088176Y-162642D02*
Y-157394D01*
X1089488D01*
X1090800Y-158706D01*
Y-162642D01*
Y-158706D01*
X1092112Y-157394D01*
X1093424Y-158706D01*
Y-162642D01*
X1099984D02*
X1097360D01*
X1096048Y-161330D01*
Y-158706D01*
X1097360Y-157394D01*
X1099984D01*
X1101295Y-158706D01*
Y-160018D01*
X1096048D01*
X1025204Y-194141D02*
Y-202012D01*
X1029140D01*
X1030452Y-200700D01*
Y-195452D01*
X1029140Y-194141D01*
X1025204D01*
X1034388Y-196764D02*
X1037012D01*
X1038323Y-198076D01*
Y-202012D01*
X1034388D01*
X1033076Y-200700D01*
X1034388Y-199388D01*
X1038323D01*
X1042259Y-195452D02*
Y-196764D01*
X1040947D01*
X1043571D01*
X1042259D01*
Y-200700D01*
X1043571Y-202012D01*
X1051443D02*
X1048819D01*
X1047507Y-200700D01*
Y-198076D01*
X1048819Y-196764D01*
X1051443D01*
X1052755Y-198076D01*
Y-199388D01*
X1047507D01*
X1025204Y-233511D02*
Y-241382D01*
X1029140D01*
X1030452Y-240070D01*
Y-234823D01*
X1029140Y-233511D01*
X1025204D01*
X1034388Y-241382D02*
X1037012D01*
X1038323Y-240070D01*
Y-237446D01*
X1037012Y-236134D01*
X1034388D01*
X1033076Y-237446D01*
Y-240070D01*
X1034388Y-241382D01*
X1046195Y-236134D02*
X1042259D01*
X1040947Y-237446D01*
Y-240070D01*
X1042259Y-241382D01*
X1046195D01*
X1048819Y-236134D02*
Y-240070D01*
X1050131Y-241382D01*
X1054066D01*
Y-236134D01*
X1056690Y-241382D02*
Y-236134D01*
X1058002D01*
X1059314Y-237446D01*
Y-241382D01*
Y-237446D01*
X1060626Y-236134D01*
X1061938Y-237446D01*
Y-241382D01*
X1068498D02*
X1065874D01*
X1064562Y-240070D01*
Y-237446D01*
X1065874Y-236134D01*
X1068498D01*
X1069810Y-237446D01*
Y-238758D01*
X1064562D01*
X1072433Y-241382D02*
Y-236134D01*
X1076369D01*
X1077681Y-237446D01*
Y-241382D01*
X1081617Y-234823D02*
Y-236134D01*
X1080305D01*
X1082929D01*
X1081617D01*
Y-240070D01*
X1082929Y-241382D01*
D11*
X1178748Y-229571D02*
Y-190201D01*
X1021267Y-150831D02*
X1296858D01*
X1021267Y-190201D02*
X1296858D01*
X824417Y-229571D02*
X1296858D01*
X824417Y-111461D02*
X1296858D01*
X824417Y-268941D02*
Y-111461D01*
X1021267Y-268941D02*
Y-111461D01*
X-356685Y900350D02*
X1296858D01*
Y-268941D02*
Y900350D01*
X-356685Y-268941D02*
Y900350D01*
Y-268941D02*
X1296858D01*
X1035046Y-255164D02*
X1031110D01*
Y-258115D01*
X1033078D01*
X1031110D01*
Y-261067D01*
X1037014Y-257131D02*
Y-261067D01*
Y-259099D01*
X1037998Y-258115D01*
X1038981Y-257131D01*
X1039965D01*
X1042917Y-261067D02*
X1044885D01*
X1043901D01*
Y-257131D01*
X1042917D01*
X1047837Y-256147D02*
X1048821Y-255164D01*
X1050789D01*
X1051772Y-256147D01*
Y-257131D01*
X1050789Y-258115D01*
X1049805D01*
X1050789D01*
X1051772Y-259099D01*
Y-260083D01*
X1050789Y-261067D01*
X1048821D01*
X1047837Y-260083D01*
X1057676Y-255164D02*
Y-261067D01*
X1054724D01*
X1053740Y-260083D01*
Y-258115D01*
X1054724Y-257131D01*
X1057676D01*
X1059644Y-262051D02*
X1063580D01*
X1069483Y-261067D02*
X1065548D01*
X1069483Y-257131D01*
Y-256147D01*
X1068499Y-255164D01*
X1066531D01*
X1065548Y-256147D01*
X1071451D02*
X1072435Y-255164D01*
X1074403D01*
X1075387Y-256147D01*
Y-260083D01*
X1074403Y-261067D01*
X1072435D01*
X1071451Y-260083D01*
Y-256147D01*
X1081291Y-261067D02*
X1077355D01*
X1081291Y-257131D01*
Y-256147D01*
X1080307Y-255164D01*
X1078339D01*
X1077355Y-256147D01*
X1083258D02*
X1084242Y-255164D01*
X1086210D01*
X1087194Y-256147D01*
Y-260083D01*
X1086210Y-261067D01*
X1084242D01*
X1083258Y-260083D01*
Y-256147D01*
X1089162Y-262051D02*
X1093098D01*
X1095066Y-255164D02*
X1099001D01*
X1097034D01*
Y-261067D01*
X1100969D02*
X1102937D01*
X1101953D01*
Y-257131D01*
X1100969D01*
X1105889Y-261067D02*
Y-257131D01*
X1106873D01*
X1107857Y-258115D01*
Y-261067D01*
Y-258115D01*
X1108841Y-257131D01*
X1109825Y-258115D01*
Y-261067D01*
X1114744D02*
X1112776D01*
X1111792Y-260083D01*
Y-258115D01*
X1112776Y-257131D01*
X1114744D01*
X1115728Y-258115D01*
Y-259099D01*
X1111792D01*
X1117696Y-262051D02*
X1121632D01*
X1123600Y-255164D02*
Y-261067D01*
X1126552D01*
X1127535Y-260083D01*
Y-259099D01*
X1126552Y-258115D01*
X1123600D01*
X1126552D01*
X1127535Y-257131D01*
Y-256147D01*
X1126552Y-255164D01*
X1123600D01*
X1129503Y-261067D02*
X1131471D01*
X1130487D01*
Y-255164D01*
X1129503D01*
X1135407Y-257131D02*
X1137375D01*
X1138359Y-258115D01*
Y-261067D01*
X1135407D01*
X1134423Y-260083D01*
X1135407Y-259099D01*
X1138359D01*
X1140326Y-261067D02*
X1143278D01*
X1144262Y-260083D01*
X1143278Y-259099D01*
X1141311D01*
X1140326Y-258115D01*
X1141311Y-257131D01*
X1144262D01*
X1147214Y-256147D02*
Y-257131D01*
X1146230D01*
X1148198D01*
X1147214D01*
Y-260083D01*
X1148198Y-261067D01*
X1154102D02*
X1152134D01*
X1151150Y-260083D01*
Y-258115D01*
X1152134Y-257131D01*
X1154102D01*
X1155085Y-258115D01*
Y-259099D01*
X1151150D01*
X1157053Y-257131D02*
Y-261067D01*
Y-259099D01*
X1158037Y-258115D01*
X1159021Y-257131D01*
X1160005D01*
X1162957Y-262051D02*
X1166893D01*
X1168861Y-256147D02*
X1169845Y-255164D01*
X1171812D01*
X1172796Y-256147D01*
Y-260083D01*
X1171812Y-261067D01*
X1169845D01*
X1168861Y-260083D01*
Y-256147D01*
X1174764D02*
X1175748Y-255164D01*
X1177716D01*
X1178700Y-256147D01*
Y-260083D01*
X1177716Y-261067D01*
X1175748D01*
X1174764Y-260083D01*
Y-256147D01*
X1180668Y-261067D02*
Y-260083D01*
X1181652D01*
Y-261067D01*
X1180668D01*
X1185588D02*
Y-255164D01*
X1188539D01*
X1189523Y-256147D01*
Y-258115D01*
X1188539Y-259099D01*
X1185588D01*
X1195427Y-257131D02*
X1192475D01*
X1191491Y-258115D01*
Y-260083D01*
X1192475Y-261067D01*
X1195427D01*
X1197395Y-255164D02*
Y-261067D01*
X1200346D01*
X1201330Y-260083D01*
Y-259099D01*
Y-258115D01*
X1200346Y-257131D01*
X1197395D01*
X1203298Y-255164D02*
Y-261067D01*
X1206250D01*
X1207234Y-260083D01*
Y-256147D01*
X1206250Y-255164D01*
X1203298D01*
X1210186Y-261067D02*
X1212154D01*
X1213138Y-260083D01*
Y-258115D01*
X1212154Y-257131D01*
X1210186D01*
X1209202Y-258115D01*
Y-260083D01*
X1210186Y-261067D01*
X1219041Y-257131D02*
X1216089D01*
X1215106Y-258115D01*
Y-260083D01*
X1216089Y-261067D01*
X1219041D01*
D16*
X846071Y-247293D02*
Y-263036D01*
X851318Y-257788D01*
X856566Y-263036D01*
Y-247293D01*
X861814Y-263036D02*
X867061D01*
X864437D01*
Y-252540D01*
X861814D01*
X874933Y-263036D02*
Y-252540D01*
X877556D01*
X880180Y-255164D01*
Y-263036D01*
Y-255164D01*
X882804Y-252540D01*
X885428Y-255164D01*
Y-263036D01*
X890676Y-247293D02*
Y-257788D01*
X895923Y-263036D01*
X901171Y-257788D01*
Y-247293D01*
X916914Y-249917D02*
X914290Y-247293D01*
X909042D01*
X906419Y-249917D01*
Y-260412D01*
X909042Y-263036D01*
X914290D01*
X916914Y-260412D01*
Y-255164D01*
X911666D01*
X1200401Y-210546D02*
X1203025Y-207923D01*
X1208273D01*
X1210897Y-210546D01*
Y-221042D01*
X1208273Y-223665D01*
X1203025D01*
X1200401Y-221042D01*
Y-210546D01*
X1216144D02*
X1218768Y-207923D01*
X1224016D01*
X1226639Y-210546D01*
Y-221042D01*
X1224016Y-223665D01*
X1218768D01*
X1216144Y-221042D01*
Y-210546D01*
X1037015Y-212186D02*
X1039311Y-209890D01*
X1043903D01*
X1046199Y-212186D01*
Y-221370D01*
X1043903Y-223665D01*
X1039311D01*
X1037015Y-221370D01*
Y-212186D01*
X1050791D02*
X1053086Y-209890D01*
X1057678D01*
X1059974Y-212186D01*
Y-214482D01*
X1057678Y-216778D01*
X1055382D01*
X1057678D01*
X1059974Y-219074D01*
Y-221370D01*
X1057678Y-223665D01*
X1053086D01*
X1050791Y-221370D01*
X1064566Y-223665D02*
X1073749Y-214482D01*
X1078341Y-223665D02*
X1082932D01*
X1080637D01*
Y-209890D01*
X1078341Y-212186D01*
X1089820D02*
X1092116Y-209890D01*
X1096707D01*
X1099003Y-212186D01*
Y-221370D01*
X1096707Y-223665D01*
X1092116D01*
X1089820Y-221370D01*
Y-212186D01*
X1103595Y-223665D02*
X1112778Y-214482D01*
X1126553Y-223665D02*
X1117370D01*
X1126553Y-214482D01*
Y-212186D01*
X1124258Y-209890D01*
X1119666D01*
X1117370Y-212186D01*
X1131145D02*
X1133441Y-209890D01*
X1138033D01*
X1140329Y-212186D01*
Y-221370D01*
X1138033Y-223665D01*
X1133441D01*
X1131145Y-221370D01*
Y-212186D01*
X1144920Y-223665D02*
X1149512D01*
X1147216D01*
Y-209890D01*
X1144920Y-212186D01*
X1156400Y-221370D02*
X1158695Y-223665D01*
X1163287D01*
X1165583Y-221370D01*
Y-212186D01*
X1163287Y-209890D01*
X1158695D01*
X1156400Y-212186D01*
Y-214482D01*
X1158695Y-216778D01*
X1165583D01*
X1031110Y-132331D02*
X1039506D01*
X1035308D01*
Y-144925D01*
X1043704D02*
X1047902D01*
X1045803D01*
Y-136529D01*
X1043704D01*
X1054200Y-144925D02*
Y-136529D01*
X1056299D01*
X1058398Y-138628D01*
Y-144925D01*
Y-138628D01*
X1060497Y-136529D01*
X1062596Y-138628D01*
Y-144925D01*
X1073091D02*
X1068893D01*
X1066794Y-142826D01*
Y-138628D01*
X1068893Y-136529D01*
X1073091D01*
X1075190Y-138628D01*
Y-140727D01*
X1066794D01*
X1091983Y-132331D02*
Y-144925D01*
X1098280D01*
X1100379Y-142826D01*
Y-140727D01*
X1098280Y-138628D01*
X1091983D01*
X1098280D01*
X1100379Y-136529D01*
Y-134430D01*
X1098280Y-132331D01*
X1091983D01*
X1104577Y-144925D02*
X1108775D01*
X1106676D01*
Y-132331D01*
X1104577D01*
X1117171Y-136529D02*
X1121369D01*
X1123469Y-138628D01*
Y-144925D01*
X1117171D01*
X1115072Y-142826D01*
X1117171Y-140727D01*
X1123469D01*
X1127667Y-144925D02*
X1133964D01*
X1136063Y-142826D01*
X1133964Y-140727D01*
X1129766D01*
X1127667Y-138628D01*
X1129766Y-136529D01*
X1136063D01*
X1142360Y-134430D02*
Y-136529D01*
X1140261D01*
X1144459D01*
X1142360D01*
Y-142826D01*
X1144459Y-144925D01*
X1157053D02*
X1152855D01*
X1150756Y-142826D01*
Y-138628D01*
X1152855Y-136529D01*
X1157053D01*
X1159153Y-138628D01*
Y-140727D01*
X1150756D01*
X1163351Y-136529D02*
Y-144925D01*
Y-140727D01*
X1165450Y-138628D01*
X1167549Y-136529D01*
X1169648D01*
X1042921Y-168552D02*
Y-182327D01*
X1049809D01*
X1052104Y-180031D01*
Y-170848D01*
X1049809Y-168552D01*
X1042921D01*
X1056696Y-173144D02*
Y-182327D01*
Y-177735D01*
X1058992Y-175439D01*
X1061288Y-173144D01*
X1063584D01*
X1070471Y-182327D02*
X1075063D01*
X1072767D01*
Y-173144D01*
X1070471D01*
X1081950Y-182327D02*
X1086542D01*
X1084246D01*
Y-168552D01*
X1081950D01*
X1093430Y-182327D02*
X1098021D01*
X1095725D01*
Y-168552D01*
X1093430D01*
X1127867Y-170848D02*
X1125571Y-168552D01*
X1120980D01*
X1118684Y-170848D01*
Y-180031D01*
X1120980Y-182327D01*
X1125571D01*
X1127867Y-180031D01*
Y-175439D01*
X1123276D01*
X1132459Y-173144D02*
Y-180031D01*
X1134755Y-182327D01*
X1141642D01*
Y-173144D01*
X1146234Y-182327D02*
X1150826D01*
X1148530D01*
Y-173144D01*
X1146234D01*
X1166897Y-168552D02*
Y-182327D01*
X1160009D01*
X1157713Y-180031D01*
Y-175439D01*
X1160009Y-173144D01*
X1166897D01*
X1178376Y-182327D02*
X1173784D01*
X1171488Y-180031D01*
Y-175439D01*
X1173784Y-173144D01*
X1178376D01*
X1180672Y-175439D01*
Y-177735D01*
X1171488D01*
D17*
X1969Y5649D02*
G03*
X5906Y0I4793J-856D01*
G01*
X114173Y0D02*
G03*
X119482Y3937I-962J6845D01*
G01*
X220474Y208749D02*
G03*
X179920Y177368I-1674J-39731D01*
G01*
X214567Y74803D02*
G03*
X212598Y72835I0J-1969D01*
G01*
X214567Y137795D02*
G03*
X212598Y135827I0J-1969D01*
G01*
X291339Y72835D02*
G03*
X289370Y74803I-1969J0D01*
G01*
X291339Y135827D02*
G03*
X289370Y137795I-1969J0D01*
G01*
X355315Y74803D02*
G03*
X353346Y76772I-1969J0D01*
G01*
X355315Y137795D02*
G03*
X353346Y139764I-1969J0D01*
G01*
X445276Y96063D02*
G03*
X446260Y95079I984J0D01*
G01*
Y133268D02*
G03*
X445276Y132283I0J-984D01*
G01*
X559449Y190157D02*
G03*
X560433Y189173I984J0D01*
G01*
X565551D02*
G03*
X566535Y190157I0J984D01*
G01*
X593110Y71850D02*
G03*
X594095Y72835I0J984D01*
G01*
Y100394D02*
G03*
X593110Y101378I-984J0D01*
G01*
X214567Y11811D02*
G03*
X212598Y9843I0J-1969D01*
G01*
X291339D02*
G03*
X289370Y11811I-1969J0D01*
G01*
X355315D02*
G03*
X353346Y13780I-1969J0D01*
G01*
X438976Y11811D02*
G03*
X437008Y9843I0J-1969D01*
G01*
X196850Y72835D02*
G03*
X194882Y74803I-1969J0D01*
G01*
X196850Y135827D02*
G03*
X194882Y137795I-1969J0D01*
G01*
X245079Y76772D02*
G03*
X243110Y74803I0J-1969D01*
G01*
X245079Y139764D02*
G03*
X243110Y137795I0J-1969D01*
G01*
X260827Y74803D02*
G03*
X258858Y76772I-1969J0D01*
G01*
X260827Y137795D02*
G03*
X258858Y139764I-1969J0D01*
G01*
X309055Y74803D02*
G03*
X307087Y72835I0J-1969D01*
G01*
X309055Y137795D02*
G03*
X307087Y135827I0J-1969D01*
G01*
X339567Y76772D02*
G03*
X337598Y74803I0J-1969D01*
G01*
X339567Y139764D02*
G03*
X337598Y137795I0J-1969D01*
G01*
X451378Y95079D02*
G03*
X452362Y96063I0J984D01*
G01*
Y132283D02*
G03*
X451378Y133268I-984J0D01*
G01*
X587008Y72835D02*
G03*
X587992Y71850I984J0D01*
G01*
Y101378D02*
G03*
X587008Y100394I0J-984D01*
G01*
X196850Y9843D02*
G03*
X194882Y11811I-1969J0D01*
G01*
X245079Y13780D02*
G03*
X243110Y11811I0J-1969D01*
G01*
X260827Y11811D02*
G03*
X258858Y13780I-1969J0D01*
G01*
X309055Y11811D02*
G03*
X307087Y9843I0J-1969D01*
G01*
X339567Y13780D02*
G03*
X337598Y11811I0J-1969D01*
G01*
X421260Y9843D02*
G03*
X419291Y11811I-1969J0D01*
G01*
X469488Y13780D02*
G03*
X467520Y11811I0J-1969D01*
G01*
X485236Y11811D02*
G03*
X483268Y13780I-1969J0D01*
G01*
X515748Y9843D02*
G03*
X513779Y11811I-1969J0D01*
G01*
X533465D02*
G03*
X531496Y9843I0J-1969D01*
G01*
X563976Y13780D02*
G03*
X562008Y11811I0J-1969D01*
G01*
X579724Y11811D02*
G03*
X577756Y13780I-1969J0D01*
G01*
X629921Y86614D02*
G03*
X629921Y86614I-39370J0D01*
G01*
X377953Y11811D02*
G03*
X173228Y11811I-102362J-102362D01*
G01*
X377953Y74803D02*
G03*
X173228Y74803I-102362J-102362D01*
G01*
X641732Y212598D02*
G03*
X641732Y212598I-78740J0D01*
G01*
X602362Y11811D02*
G03*
X397638Y11811I-102362J-102362D01*
G01*
X507874Y114173D02*
G03*
X507874Y114173I-59055J0D01*
G01*
X560433Y236024D02*
G03*
X559449Y235039I0J-984D01*
G01*
X566535D02*
G03*
X565551Y236024I-984J0D01*
G01*
X377953Y137795D02*
G03*
X173228Y137795I-102362J-102362D01*
G01*
X171312Y424484D02*
G03*
X173788Y431342I-2191J4667D01*
G01*
X220474Y208749D02*
G03*
X454859Y291178I7872J352063D01*
G01*
X277819Y427393D02*
G03*
X102362Y500000I-165735J-152199D01*
G01*
X173788Y431342D02*
G03*
X102362Y476378I-68387J-29303D01*
G01*
X454859Y346617D02*
G03*
X281482Y425102I-226513J-269634D01*
G01*
X171312Y424484D02*
G03*
X11635Y354556I57035J-347502D01*
G01*
X11602Y283277D02*
G03*
X11811Y354331I-31779J35621D01*
G01*
X11635Y283240D02*
G03*
X79220Y241796I216711J277573D01*
G01*
X81102Y232729D02*
G03*
X79220Y241796I-7642J3142D01*
G01*
X277819Y427393D02*
G03*
X281482Y425102I4142J2550D01*
G01*
X5906Y-0D02*
X114173Y0D01*
X119482Y3937D02*
X179920Y177368D01*
X515748Y-0D02*
X531496D01*
X421260D02*
X437008D01*
X446260Y95079D02*
X451378D01*
X446260Y133268D02*
X451378D01*
X196850Y-0D02*
Y9843D01*
Y62992D02*
Y72835D01*
Y125984D02*
Y135827D01*
X212598Y-0D02*
Y9843D01*
Y62992D02*
Y72835D01*
Y125984D02*
Y135827D01*
X291339Y-0D02*
Y9843D01*
Y62992D02*
Y72835D01*
Y125984D02*
Y135827D01*
X307087Y-0D02*
Y9843D01*
Y62992D02*
Y72835D01*
Y125984D02*
Y135827D01*
X421260Y-0D02*
Y9843D01*
X437008Y-0D02*
Y9843D01*
X531496Y-0D02*
Y9843D01*
X445276Y96063D02*
Y132283D01*
X559449Y190157D02*
Y235039D01*
X566535Y190157D02*
Y235039D01*
X587008Y72835D02*
Y100394D01*
X594095Y72835D02*
Y100394D01*
X196850Y-0D02*
X212598D01*
X196850Y62992D02*
X212598D01*
X196850Y125984D02*
X212598D01*
X291339Y-0D02*
X307087D01*
X291339Y62992D02*
X307087D01*
X291339Y125984D02*
X307087D01*
X560433Y189173D02*
X565551D01*
X587992Y71850D02*
X593110D01*
X587992Y101378D02*
X593110D01*
X515748Y-0D02*
Y9843D01*
X452362Y96063D02*
Y132283D01*
X173228Y74803D02*
X194882D01*
X214567D02*
X243110D01*
X245079Y76772D02*
X258858D01*
X173228Y137795D02*
X194882D01*
X214567D02*
X243110D01*
X245079Y139764D02*
X258858D01*
X355315Y74803D02*
X377953D01*
X309055D02*
X337598D01*
X339567Y76772D02*
X353346D01*
X355315Y137795D02*
X377953D01*
X309055D02*
X337598D01*
X339567Y139764D02*
X353346D01*
X214567Y11811D02*
X243110D01*
X173228D02*
X194882D01*
X245079Y13780D02*
X258858D01*
X309055Y11811D02*
X337598D01*
X355315D02*
X377953D01*
X339567Y13780D02*
X353346D01*
X485236Y11811D02*
X513779D01*
X438976D02*
X467520D01*
X397638D02*
X419291D01*
X469488Y13780D02*
X483268D01*
X533465Y11811D02*
X562008D01*
X579724D02*
X602362D01*
X563976Y13780D02*
X577756D01*
X260827Y74803D02*
X289370D01*
X260827Y137795D02*
X289370D01*
X260827Y11811D02*
X289370D01*
X560433Y236024D02*
X565551D01*
X455014Y291366D02*
X494095Y294991D01*
X505643Y296063D02*
X541339Y299375D01*
X552887Y300447D02*
X588583Y303758D01*
X600131Y304830D02*
X645669Y309055D01*
X600131Y332965D02*
X645669Y328740D01*
X552887Y337349D02*
X588583Y334037D01*
X505643Y341732D02*
X541339Y338420D01*
X455014Y346430D02*
X494095Y342804D01*
X645669Y309055D02*
Y328740D01*
X494095Y296063D02*
X505643D01*
X541339Y300447D02*
X552887D01*
X588583Y304830D02*
X600131D01*
X588583Y332965D02*
X600131D01*
X541339Y337349D02*
X552887D01*
X588583Y332965D02*
Y334037D01*
Y303758D02*
Y304830D01*
X541339Y299375D02*
Y300447D01*
Y337349D02*
Y338420D01*
X494095Y341732D02*
Y342804D01*
Y341732D02*
X505643D01*
X494095Y294991D02*
Y296063D01*
X1969Y5649D02*
X81102Y232729D01*
X102362Y476378D02*
Y500000D01*
X454859Y346617D02*
X455014Y346430D01*
X454859Y291178D02*
X455014Y291366D01*
X11635Y354556D02*
X11811Y354331D01*
X11602Y283277D02*
X11635Y283240D01*
D119*
X236575Y388779D02*
X240118D01*
X238347Y387008D02*
Y390551D01*
X244235Y382352D02*
X247779D01*
X246007Y380580D02*
Y384123D01*
X228914Y395207D02*
X232458D01*
X230686Y393436D02*
Y396979D01*
X221254Y401635D02*
X224797D01*
X223026Y399864D02*
Y403407D01*
X213594Y408063D02*
X217137D01*
X215365Y406291D02*
Y409835D01*
X205933Y414491D02*
X209476D01*
X207705Y412719D02*
Y416263D01*
X198273Y420919D02*
X201816D01*
X200044Y419147D02*
Y422690D01*
X66929Y108268D02*
X82677D01*
X74803Y100394D02*
Y116142D01*
X124016Y195866D02*
X139764D01*
X131890Y187992D02*
Y203740D01*
X203748Y260291D02*
X208079D01*
X205913Y258126D02*
Y262457D01*
X203748Y278291D02*
X208079D01*
X205913Y276126D02*
Y280457D01*
X177748Y278291D02*
X182079D01*
X179913Y276126D02*
Y280457D01*
X177748Y260291D02*
X182079D01*
X179913Y258126D02*
Y262457D01*
X216378Y229252D02*
X220315D01*
X218347Y227284D02*
Y231221D01*
X216378Y239252D02*
X220315D01*
X218347Y237283D02*
Y241220D01*
X226378Y229252D02*
X230315D01*
X228346Y227284D02*
Y231221D01*
X226378Y239252D02*
X230315D01*
X228346Y237283D02*
Y241220D01*
X236378Y229252D02*
X240315D01*
X238347Y227284D02*
Y231221D01*
X236378Y239252D02*
X240315D01*
X238347Y237283D02*
Y241220D01*
X53616Y45858D02*
X57238D01*
X55427Y44047D02*
Y47669D01*
X44310Y49062D02*
X47932D01*
X46121Y47251D02*
Y50873D01*
X46873Y56507D02*
X50495D01*
X48684Y54696D02*
Y58318D01*
X56180Y53303D02*
X59802D01*
X57991Y51492D02*
Y55114D01*
X65182Y29656D02*
X74238D01*
X69710Y25128D02*
Y34183D01*
X20363Y45088D02*
X29419D01*
X24891Y40561D02*
Y49616D01*
X345079Y284959D02*
X348622D01*
X346850Y283187D02*
Y286730D01*
X384449Y353150D02*
X387992D01*
X386221Y351378D02*
Y354921D01*
X41982Y343622D02*
X45525D01*
X43754Y341850D02*
Y345394D01*
X41982Y333622D02*
X45525D01*
X43754Y331850D02*
Y335394D01*
X41982Y323622D02*
X45525D01*
X43754Y321850D02*
Y325394D01*
X41982Y313622D02*
X45525D01*
X43754Y311850D02*
Y315394D01*
X41982Y303622D02*
X45525D01*
X43754Y301850D02*
Y305394D01*
X41982Y293622D02*
X45525D01*
X43754Y291850D02*
Y295394D01*
X116338Y383071D02*
X119882D01*
X118110Y381299D02*
Y384842D01*
X116338Y353150D02*
X119882D01*
X118110Y351378D02*
Y354921D01*
X217201Y295400D02*
X220351D01*
X218776Y293825D02*
Y296975D01*
X202484Y307750D02*
X205633D01*
X204059Y306175D02*
Y309324D01*
X220948Y319950D02*
X223507D01*
X222227Y318671D02*
Y321230D01*
X205627Y332806D02*
X208186D01*
X206907Y331526D02*
Y334085D01*
X177641Y356958D02*
X180200D01*
X178920Y355678D02*
Y358238D01*
X162320Y369814D02*
X164879D01*
X163599Y368534D02*
Y371093D01*
X251870Y376310D02*
X254429D01*
X253150Y375030D02*
Y377589D01*
X267191Y363454D02*
X269750D01*
X268470Y362175D02*
Y364734D01*
X241228Y363789D02*
X244771D01*
X243000Y362017D02*
Y365560D01*
X233568Y370216D02*
X237111D01*
X235339Y368445D02*
Y371988D01*
X248888Y357361D02*
X252432D01*
X250660Y355589D02*
Y359132D01*
X256549Y350933D02*
X260092D01*
X258320Y349161D02*
Y352704D01*
X287191Y325221D02*
X290734D01*
X288962Y323450D02*
Y326993D01*
X279530Y331649D02*
X283073D01*
X281302Y329877D02*
Y333421D01*
X271870Y338077D02*
X275413D01*
X273641Y336305D02*
Y339849D01*
X264209Y344505D02*
X267753D01*
X265981Y342733D02*
Y346277D01*
X252586Y315096D02*
X256129D01*
X254358Y313324D02*
Y316867D01*
X260246Y308668D02*
X263790D01*
X262018Y306896D02*
Y310439D01*
X267907Y302240D02*
X271450D01*
X269679Y300468D02*
Y304012D01*
X244926Y321524D02*
X248469D01*
X246697Y319752D02*
Y323295D01*
X229605Y334379D02*
X233148D01*
X231376Y332608D02*
Y336151D01*
X221944Y340807D02*
X225488D01*
X223716Y339036D02*
Y342579D01*
X198963Y360091D02*
X202506D01*
X200735Y358319D02*
Y361862D01*
X206623Y353663D02*
X210167D01*
X208395Y351891D02*
Y355435D01*
X214284Y347235D02*
X217827D01*
X216055Y345463D02*
Y349007D01*
X191303Y366519D02*
X194846D01*
X193074Y364747D02*
Y368290D01*
X183642Y372947D02*
X187185D01*
X185414Y371175D02*
Y374718D01*
X175982Y379375D02*
X179525D01*
X177753Y377603D02*
Y381146D01*
X168321Y385802D02*
X171864D01*
X170093Y384031D02*
Y387574D01*
X237265Y327951D02*
X240809D01*
X239037Y326180D02*
Y329723D01*
X202926Y395928D02*
X206469D01*
X204697Y394156D02*
Y397700D01*
X210586Y389500D02*
X214129D01*
X212358Y387728D02*
Y391272D01*
X218247Y383072D02*
X221790D01*
X220018Y381300D02*
Y384844D01*
X225907Y376644D02*
X229450D01*
X227679Y374873D02*
Y378416D01*
X195265Y402356D02*
X198809D01*
X197037Y400584D02*
Y404127D01*
X187605Y408784D02*
X191148D01*
X189376Y407012D02*
Y410555D01*
X279232Y363789D02*
X281791D01*
X280512Y362509D02*
Y365068D01*
X285138Y363789D02*
X287697D01*
X286417Y362509D02*
Y365068D01*
X199170Y338454D02*
X201729D01*
X200449Y337175D02*
Y339734D01*
X183849Y351310D02*
X186408D01*
X185128Y350030D02*
Y352589D01*
X242995Y301722D02*
X245554D01*
X244275Y300442D02*
Y303001D01*
X227674Y314578D02*
X230233D01*
X228954Y313298D02*
Y315857D01*
X103456Y39479D02*
X108180D01*
X105818Y37117D02*
Y41841D01*
X94937Y42683D02*
X98087D01*
X96512Y41108D02*
Y44258D01*
X85631Y45888D02*
X88780D01*
X87206Y44313D02*
Y47462D01*
X113550Y36274D02*
X116699D01*
X115125Y34699D02*
Y37849D01*
X122856Y33070D02*
X126006D01*
X124431Y31495D02*
Y34645D01*
X96457Y20866D02*
X102362D01*
X99410Y17913D02*
Y23819D01*
X115660Y14457D02*
X120384D01*
X118022Y12095D02*
Y16819D01*
X78435Y27275D02*
X83159D01*
X80797Y24913D02*
Y29637D01*
X416043Y315945D02*
X418602D01*
X417323Y314665D02*
Y317224D01*
X416043Y321850D02*
X418602D01*
X417323Y320571D02*
Y323130D01*
X162096Y191207D02*
X166033D01*
X164065Y189238D02*
Y193175D01*
X169662Y183216D02*
X173599D01*
X171631Y181247D02*
Y185184D01*
X163603Y166568D02*
X167540D01*
X165571Y164599D02*
Y168536D01*
X152671Y165309D02*
X156607D01*
X154639Y163341D02*
Y167278D01*
X262515Y397653D02*
X265075D01*
X263795Y396374D02*
Y398933D01*
X276658Y411796D02*
X279217D01*
X277937Y410516D02*
Y413075D01*
X194390Y326378D02*
X197736D01*
X196063Y324705D02*
Y328051D01*
X164231Y351684D02*
X167577D01*
X165904Y350011D02*
Y353358D01*
X439173Y329646D02*
X442717D01*
X440945Y327874D02*
Y331417D01*
X439173Y334646D02*
X442717D01*
X440945Y332874D02*
Y336417D01*
X439173Y339646D02*
X442717D01*
X440945Y337874D02*
Y341417D01*
X439173Y298150D02*
X442717D01*
X440945Y296378D02*
Y299921D01*
X439173Y303150D02*
X442717D01*
X440945Y301378D02*
Y304921D01*
X439173Y308150D02*
X442717D01*
X440945Y306378D02*
Y309921D01*
X416949Y358019D02*
X420296D01*
X418622Y356346D02*
Y359692D01*
X382854Y377704D02*
X386200D01*
X384527Y376031D02*
Y379377D01*
X416949Y279528D02*
X420296D01*
X418622Y277854D02*
Y281201D01*
X382854Y259842D02*
X386200D01*
X384527Y258169D02*
Y261516D01*
X150000Y248031D02*
X157087D01*
X153543Y244488D02*
Y251575D01*
X150000Y295276D02*
X157087D01*
X153543Y291732D02*
Y298819D01*
X150000Y342520D02*
X157087D01*
X153543Y338976D02*
Y346063D01*
X150000Y389764D02*
X157087D01*
X153543Y386221D02*
Y393307D01*
X299606Y389764D02*
X306693D01*
X303150Y386221D02*
Y393307D01*
X299606Y342520D02*
X306693D01*
X303150Y338976D02*
Y346063D01*
X299606Y295276D02*
X306693D01*
X303150Y291732D02*
Y298819D01*
X299606Y248031D02*
X306693D01*
X303150Y244488D02*
Y251575D01*
X73819Y334646D02*
X77362D01*
X75590Y332874D02*
Y336417D01*
X73819Y326772D02*
X77362D01*
X75590Y325000D02*
Y328543D01*
X73819Y311024D02*
X77362D01*
X75590Y309252D02*
Y312795D01*
X73819Y303150D02*
X77362D01*
X75590Y301378D02*
Y304921D01*
X60827Y303150D02*
X64370D01*
X62598Y301378D02*
Y304921D01*
X60827Y311024D02*
X64370D01*
X62598Y309252D02*
Y312795D01*
X60827Y326772D02*
X64370D01*
X62598Y325000D02*
Y328543D01*
X60827Y334646D02*
X64370D01*
X62598Y332874D02*
Y336417D01*
X106496Y480315D02*
X109252D01*
X107874Y478937D02*
Y481693D01*
X106496Y485433D02*
X109252D01*
X107874Y484055D02*
Y486811D01*
X106496Y495669D02*
X109252D01*
X107874Y494291D02*
Y497047D01*
X106496Y490551D02*
X109252D01*
X107874Y489173D02*
Y491929D01*
X260039Y413386D02*
X263583D01*
X261811Y411614D02*
Y415158D01*
X252968Y406315D02*
X256512D01*
X254740Y404543D02*
Y408086D01*
X267110Y420457D02*
X270654D01*
X268882Y418685D02*
Y422228D01*
X233646Y453922D02*
X237189D01*
X235418Y452150D02*
Y455693D01*
X219504Y439779D02*
X223047D01*
X221275Y438008D02*
Y441551D01*
X226575Y446850D02*
X230118D01*
X228346Y445079D02*
Y448622D01*
X621063Y323898D02*
X624606D01*
X622835Y322126D02*
Y325669D01*
X621063Y313898D02*
X624606D01*
X622835Y312126D02*
Y315669D01*
X638386Y313898D02*
X641929D01*
X640158Y312126D02*
Y315669D01*
X638386Y323898D02*
X641929D01*
X640158Y322126D02*
Y325669D01*
X124016Y488189D02*
X127953D01*
X125984Y486221D02*
Y490158D01*
X139764Y482283D02*
X147638D01*
X143701Y478346D02*
Y486221D01*
X161417Y472441D02*
X177165D01*
X169291Y464567D02*
Y480315D01*
X185039Y452756D02*
X208661D01*
X196850Y440945D02*
Y464567D01*
X365551Y387795D02*
X366732D01*
X366142Y387205D02*
Y388386D01*
X369488Y374016D02*
X370669D01*
X370079Y373425D02*
Y374606D01*
X81102Y282480D02*
X82284D01*
X81693Y281890D02*
Y283071D01*
X57480Y106496D02*
X58661D01*
X58071Y105905D02*
Y107087D01*
X82087Y62992D02*
X83268D01*
X82677Y62402D02*
Y63583D01*
X36024Y66929D02*
X37205D01*
X36614Y66339D02*
Y67520D01*
X284842Y342126D02*
X286024D01*
X285433Y341535D02*
Y342717D01*
X522023Y306079D02*
X523205D01*
X522614Y305488D02*
Y306669D01*
X569268Y310016D02*
X570449D01*
X569858Y309425D02*
Y310606D01*
X571260Y228346D02*
X572441D01*
X571850Y227756D02*
Y228937D01*
X553543Y228346D02*
X554724D01*
X554134Y227756D02*
Y228937D01*
X553745Y196850D02*
X554926D01*
X554335Y196260D02*
Y197441D01*
X571260Y196850D02*
X572441D01*
X571850Y196260D02*
Y197441D01*
X439370Y124016D02*
X440551D01*
X439961Y123425D02*
Y124606D01*
X457087Y124016D02*
X458268D01*
X457677Y123425D02*
Y124606D01*
X457087Y104331D02*
X458268D01*
X457677Y103740D02*
Y104921D01*
X439370Y104331D02*
X440551D01*
X439961Y103740D02*
Y104921D01*
X581102Y94488D02*
X582283D01*
X581693Y93898D02*
Y95079D01*
X581102Y78740D02*
X582283D01*
X581693Y78150D02*
Y79331D01*
X598819Y78740D02*
X600000D01*
X599409Y78150D02*
Y79331D01*
X598819Y94488D02*
X600000D01*
X599409Y93898D02*
Y95079D01*
M02*
