G04*
G04 #@! TF.GenerationSoftware,Altium Limited,Altium Designer,18.1.11 (251)*
G04*
G04 Layer_Color=8388736*
%FSLAX25Y25*%
%MOIN*%
G70*
G01*
G75*
%ADD10C,0.00984*%
%ADD11C,0.00787*%
%ADD16C,0.01575*%
%ADD17C,0.00197*%
%ADD26C,0.02362*%
%ADD27C,0.03347*%
%ADD28C,0.08268*%
G04:AMPARAMS|DCode=29|XSize=62.99mil|YSize=55.12mil|CornerRadius=0mil|HoleSize=0mil|Usage=FLASHONLY|Rotation=341.000|XOffset=0mil|YOffset=0mil|HoleType=Round|Shape=Rectangle|*
%AMROTATEDRECTD29*
4,1,4,-0.03875,-0.01580,-0.02081,0.03631,0.03875,0.01580,0.02081,-0.03631,-0.03875,-0.01580,0.0*
%
%ADD29ROTATEDRECTD29*%

G04:AMPARAMS|DCode=30|XSize=62.99mil|YSize=55.12mil|CornerRadius=0mil|HoleSize=0mil|Usage=FLASHONLY|Rotation=71.000|XOffset=0mil|YOffset=0mil|HoleType=Round|Shape=Rectangle|*
%AMROTATEDRECTD30*
4,1,4,0.01580,-0.03875,-0.03631,-0.02081,-0.01580,0.03875,0.03631,0.02081,0.01580,-0.03875,0.0*
%
%ADD30ROTATEDRECTD30*%

G04:AMPARAMS|DCode=31|XSize=19.68mil|YSize=90.55mil|CornerRadius=0mil|HoleSize=0mil|Usage=FLASHONLY|Rotation=161.000|XOffset=0mil|YOffset=0mil|HoleType=Round|Shape=Round|*
%AMOVALD31*
21,1,0.07087,0.01968,0.00000,0.00000,251.0*
1,1,0.01968,0.01154,0.03350*
1,1,0.01968,-0.01154,-0.03350*
%
%ADD31OVALD31*%

G04:AMPARAMS|DCode=32|XSize=27.56mil|YSize=90.55mil|CornerRadius=0mil|HoleSize=0mil|Usage=FLASHONLY|Rotation=161.000|XOffset=0mil|YOffset=0mil|HoleType=Round|Shape=Round|*
%AMOVALD32*
21,1,0.06299,0.02756,0.00000,0.00000,251.0*
1,1,0.02756,0.01025,0.02978*
1,1,0.02756,-0.01025,-0.02978*
%
%ADD32OVALD32*%

%ADD33R,0.04331X0.06299*%
G04:AMPARAMS|DCode=34|XSize=199.21mil|YSize=81.1mil|CornerRadius=5.12mil|HoleSize=0mil|Usage=FLASHONLY|Rotation=0.000|XOffset=0mil|YOffset=0mil|HoleType=Round|Shape=RoundedRectangle|*
%AMROUNDEDRECTD34*
21,1,0.19921,0.07087,0,0,0.0*
21,1,0.18898,0.08110,0,0,0.0*
1,1,0.01024,0.09449,-0.03543*
1,1,0.01024,-0.09449,-0.03543*
1,1,0.01024,-0.09449,0.03543*
1,1,0.01024,0.09449,0.03543*
%
%ADD34ROUNDEDRECTD34*%
%ADD35R,0.05512X0.06299*%
G04:AMPARAMS|DCode=36|XSize=141.73mil|YSize=122.05mil|CornerRadius=16.73mil|HoleSize=0mil|Usage=FLASHONLY|Rotation=90.000|XOffset=0mil|YOffset=0mil|HoleType=Round|Shape=RoundedRectangle|*
%AMROUNDEDRECTD36*
21,1,0.14173,0.08858,0,0,90.0*
21,1,0.10827,0.12205,0,0,90.0*
1,1,0.03347,0.04429,0.05413*
1,1,0.03347,0.04429,-0.05413*
1,1,0.03347,-0.04429,-0.05413*
1,1,0.03347,-0.04429,0.05413*
%
%ADD36ROUNDEDRECTD36*%
%ADD37C,0.06299*%
%ADD38P,0.08908X4X365.0*%
%ADD39C,0.16142*%
%ADD40C,0.06693*%
%ADD41C,0.06890*%
%ADD42R,0.06890X0.06890*%
%ADD43C,0.05984*%
%ADD44C,0.13976*%
%ADD45R,0.06299X0.06299*%
%ADD46R,0.06299X0.06299*%
%ADD47C,0.06299*%
%ADD48C,0.06394*%
%ADD49P,0.06125X4X185.0*%
G04:AMPARAMS|DCode=50|XSize=43.31mil|YSize=43.31mil|CornerRadius=11.81mil|HoleSize=0mil|Usage=FLASHONLY|Rotation=140.000|XOffset=0mil|YOffset=0mil|HoleType=Round|Shape=RoundedRectangle|*
%AMROUNDEDRECTD50*
21,1,0.04331,0.01968,0,0,140.0*
21,1,0.01968,0.04331,0,0,140.0*
1,1,0.02362,-0.00121,0.01387*
1,1,0.02362,0.01387,0.00121*
1,1,0.02362,0.00121,-0.01387*
1,1,0.02362,-0.01387,-0.00121*
%
%ADD50ROUNDEDRECTD50*%
%ADD51P,0.08908X4X95.0*%
%ADD52R,0.04331X0.04331*%
G04:AMPARAMS|DCode=53|XSize=43.31mil|YSize=43.31mil|CornerRadius=11.81mil|HoleSize=0mil|Usage=FLASHONLY|Rotation=0.000|XOffset=0mil|YOffset=0mil|HoleType=Round|Shape=RoundedRectangle|*
%AMROUNDEDRECTD53*
21,1,0.04331,0.01968,0,0,0.0*
21,1,0.01968,0.04331,0,0,0.0*
1,1,0.02362,0.00984,-0.00984*
1,1,0.02362,-0.00984,-0.00984*
1,1,0.02362,-0.00984,0.00984*
1,1,0.02362,0.00984,0.00984*
%
%ADD53ROUNDEDRECTD53*%
%ADD54C,0.05118*%
G04:AMPARAMS|DCode=55|XSize=94.49mil|YSize=66.93mil|CornerRadius=0mil|HoleSize=0mil|Usage=FLASHONLY|Rotation=71.000|XOffset=0mil|YOffset=0mil|HoleType=Round|Shape=Round|*
%AMOVALD55*
21,1,0.02756,0.06693,0.00000,0.00000,71.0*
1,1,0.06693,-0.00449,-0.01303*
1,1,0.06693,0.00449,0.01303*
%
%ADD55OVALD55*%

%ADD56C,0.09449*%
G04:AMPARAMS|DCode=57|XSize=43.31mil|YSize=43.31mil|CornerRadius=11.81mil|HoleSize=0mil|Usage=FLASHONLY|Rotation=270.000|XOffset=0mil|YOffset=0mil|HoleType=Round|Shape=RoundedRectangle|*
%AMROUNDEDRECTD57*
21,1,0.04331,0.01968,0,0,270.0*
21,1,0.01968,0.04331,0,0,270.0*
1,1,0.02362,-0.00984,-0.00984*
1,1,0.02362,-0.00984,0.00984*
1,1,0.02362,0.00984,0.00984*
1,1,0.02362,0.00984,-0.00984*
%
%ADD57ROUNDEDRECTD57*%
%ADD58R,0.04331X0.04331*%
G04:AMPARAMS|DCode=59|XSize=43.31mil|YSize=43.31mil|CornerRadius=11.81mil|HoleSize=0mil|Usage=FLASHONLY|Rotation=225.000|XOffset=0mil|YOffset=0mil|HoleType=Round|Shape=RoundedRectangle|*
%AMROUNDEDRECTD59*
21,1,0.04331,0.01968,0,0,225.0*
21,1,0.01968,0.04331,0,0,225.0*
1,1,0.02362,-0.01392,0.00000*
1,1,0.02362,0.00000,0.01392*
1,1,0.02362,0.01392,0.00000*
1,1,0.02362,0.00000,-0.01392*
%
%ADD59ROUNDEDRECTD59*%
%ADD60P,0.06125X4X270.0*%
%ADD61C,0.05906*%
%ADD62O,0.08268X0.04331*%
%ADD63O,0.08268X0.04331*%
%ADD64O,0.12205X0.27953*%
%ADD65O,0.05512X0.04921*%
G04:AMPARAMS|DCode=66|XSize=49.21mil|YSize=55.12mil|CornerRadius=13.29mil|HoleSize=0mil|Usage=FLASHONLY|Rotation=270.000|XOffset=0mil|YOffset=0mil|HoleType=Round|Shape=RoundedRectangle|*
%AMROUNDEDRECTD66*
21,1,0.04921,0.02854,0,0,270.0*
21,1,0.02264,0.05512,0,0,270.0*
1,1,0.02657,-0.01427,-0.01132*
1,1,0.02657,-0.01427,0.01132*
1,1,0.02657,0.01427,0.01132*
1,1,0.02657,0.01427,-0.01132*
%
%ADD66ROUNDEDRECTD66*%
G04:AMPARAMS|DCode=67|XSize=63.94mil|YSize=63.94mil|CornerRadius=16.97mil|HoleSize=0mil|Usage=FLASHONLY|Rotation=225.000|XOffset=0mil|YOffset=0mil|HoleType=Round|Shape=RoundedRectangle|*
%AMROUNDEDRECTD67*
21,1,0.06394,0.03000,0,0,225.0*
21,1,0.03000,0.06394,0,0,225.0*
1,1,0.03394,-0.02121,0.00000*
1,1,0.03394,0.00000,0.02121*
1,1,0.03394,0.02121,0.00000*
1,1,0.03394,0.00000,-0.02121*
%
%ADD67ROUNDEDRECTD67*%
G04:AMPARAMS|DCode=68|XSize=63.94mil|YSize=63.94mil|CornerRadius=16.97mil|HoleSize=0mil|Usage=FLASHONLY|Rotation=90.000|XOffset=0mil|YOffset=0mil|HoleType=Round|Shape=RoundedRectangle|*
%AMROUNDEDRECTD68*
21,1,0.06394,0.03000,0,0,90.0*
21,1,0.03000,0.06394,0,0,90.0*
1,1,0.03394,0.01500,0.01500*
1,1,0.03394,0.01500,-0.01500*
1,1,0.03394,-0.01500,-0.01500*
1,1,0.03394,-0.01500,0.01500*
%
%ADD68ROUNDEDRECTD68*%
%ADD69C,0.04331*%
%ADD70C,0.08268*%
%ADD71C,0.24016*%
%ADD72C,0.01575*%
G36*
X362398Y357739D02*
X362407D01*
X362472Y357733D01*
X362481Y357731D01*
X362491Y357730D01*
X362554Y357717D01*
X362564Y357715D01*
X362573Y357713D01*
X362635Y357694D01*
X362644Y357690D01*
X362653Y357687D01*
X362713Y357663D01*
X362722Y357658D01*
X362731Y357654D01*
X362788Y357624D01*
X362796Y357618D01*
X362805Y357614D01*
X362858Y357578D01*
X362866Y357572D01*
X362874Y357566D01*
X362924Y357525D01*
X362931Y357518D01*
X362938Y357512D01*
X362984Y357466D01*
X362990Y357459D01*
X362997Y357452D01*
X363038Y357402D01*
X363044Y357394D01*
X363050Y357386D01*
X363086Y357333D01*
X363090Y357324D01*
X363096Y357316D01*
X363126Y357259D01*
X363130Y357250D01*
X363135Y357241D01*
X363159Y357182D01*
X363162Y357172D01*
X363166Y357163D01*
X363185Y357101D01*
X363187Y357092D01*
X363189Y357082D01*
X363202Y357019D01*
X363203Y357009D01*
X363205Y357000D01*
X363211Y356935D01*
Y356926D01*
X363212Y356916D01*
Y356884D01*
X363212Y351526D01*
X363513Y352653D01*
X363513Y352653D01*
Y352653D01*
X363519Y352676D01*
X363523Y352687D01*
X363527Y352698D01*
X363544Y352742D01*
X363550Y352753D01*
X363555Y352764D01*
X363577Y352805D01*
X363584Y352815D01*
X363590Y352826D01*
X363618Y352864D01*
X363625Y352873D01*
X363632Y352883D01*
X363665Y352918D01*
X363673Y352926D01*
X363682Y352934D01*
X363718Y352965D01*
X363727Y352972D01*
X363737Y352980D01*
X363776Y353006D01*
X363787Y353012D01*
X363797Y353018D01*
X363839Y353040D01*
X363850Y353044D01*
X363861Y353049D01*
X363906Y353065D01*
X363917Y353068D01*
X363928Y353072D01*
X363974Y353083D01*
X363986Y353084D01*
X363998Y353087D01*
X364045Y353092D01*
X364057Y353092D01*
X364069Y353093D01*
X364116Y353093D01*
X364128Y353092D01*
X364140Y353091D01*
X364187Y353085D01*
X364199Y353082D01*
X364211Y353081D01*
X364257Y353069D01*
X364268Y353065D01*
X364279Y353062D01*
X364323Y353044D01*
X364334Y353039D01*
X364345Y353034D01*
X364387Y353012D01*
X364397Y353005D01*
X364407Y352999D01*
X364446Y352972D01*
X364455Y352965D01*
X364465Y352958D01*
X364500Y352926D01*
X364508Y352917D01*
X364517Y352909D01*
X364548Y352873D01*
X364555Y352864D01*
X364563Y352854D01*
X364590Y352815D01*
X364595Y352805D01*
X364602Y352795D01*
X364624Y352753D01*
X364628Y352742D01*
X364633Y352731D01*
X364650Y352687D01*
X364653Y352675D01*
X364657Y352664D01*
X364669Y352618D01*
X364670Y352606D01*
X364673Y352594D01*
X364679Y352547D01*
X364679Y352535D01*
X364680Y352523D01*
Y352500D01*
Y352487D01*
X364679Y352480D01*
X364680Y352474D01*
X364678Y352448D01*
X364677Y352442D01*
X364677Y352435D01*
X364673Y352410D01*
X364672Y352403D01*
X364671Y352397D01*
X364666Y352372D01*
X364664Y352365D01*
X364663Y352359D01*
X364660Y352347D01*
X364660Y352347D01*
X364222Y350707D01*
X365889Y353590D01*
X365889Y353590D01*
X365903Y353615D01*
X365909Y353624D01*
X365915Y353633D01*
X365949Y353680D01*
X365956Y353688D01*
X365963Y353696D01*
X366001Y353739D01*
X366009Y353746D01*
X366017Y353754D01*
X366060Y353792D01*
X366069Y353798D01*
X366077Y353805D01*
X366124Y353838D01*
X366134Y353843D01*
X366143Y353849D01*
X366193Y353877D01*
X366203Y353881D01*
X366213Y353886D01*
X366266Y353908D01*
X366276Y353911D01*
X366286Y353916D01*
X366341Y353932D01*
X366352Y353934D01*
X366362Y353937D01*
X366419Y353946D01*
X366430Y353947D01*
X366440Y353949D01*
X366498Y353953D01*
X366509Y353953D01*
X366519Y353953D01*
X366577Y353951D01*
X366588Y353949D01*
X366598Y353948D01*
X366655Y353940D01*
X366666Y353937D01*
X366676Y353935D01*
X366732Y353920D01*
X366742Y353917D01*
X366753Y353914D01*
X366806Y353893D01*
X366816Y353888D01*
X366826Y353884D01*
X366877Y353857D01*
X366886Y353851D01*
X366895Y353846D01*
X366943Y353814D01*
X366952Y353807D01*
X366961Y353801D01*
X367005Y353764D01*
X367012Y353757D01*
X367020Y353750D01*
X367060Y353708D01*
X367067Y353699D01*
X367074Y353692D01*
X367109Y353646D01*
X367115Y353637D01*
X367121Y353628D01*
X367151Y353579D01*
X367156Y353569D01*
X367161Y353560D01*
X367186Y353508D01*
X367189Y353498D01*
X367194Y353488D01*
X367212Y353433D01*
X367215Y353423D01*
X367218Y353412D01*
X367231Y353356D01*
X367232Y353345D01*
X367234Y353335D01*
X367240Y353278D01*
X367240Y353267D01*
X367242Y353256D01*
Y353227D01*
Y353210D01*
X367241Y353204D01*
X367241Y353197D01*
X367239Y353163D01*
X367238Y353156D01*
X367237Y353150D01*
X367233Y353116D01*
X367231Y353109D01*
X367231Y353103D01*
X367224Y353069D01*
X367222Y353063D01*
X367221Y353056D01*
X367212Y353023D01*
X367210Y353017D01*
X367209Y353011D01*
X367197Y352978D01*
X367195Y352972D01*
X367193Y352966D01*
X367180Y352934D01*
X367177Y352928D01*
X367174Y352922D01*
X367159Y352891D01*
X367156Y352886D01*
X367153Y352880D01*
X367144Y352865D01*
X367144Y352865D01*
X367144Y352865D01*
X365495Y350011D01*
X366661Y351179D01*
X366677Y351196D01*
X366686Y351203D01*
X366695Y351211D01*
X366732Y351240D01*
X366741Y351247D01*
X366751Y351254D01*
X366790Y351278D01*
X366801Y351283D01*
X366811Y351289D01*
X366853Y351308D01*
X366864Y351312D01*
X366875Y351317D01*
X366919Y351331D01*
X366931Y351334D01*
X366942Y351337D01*
X366988Y351346D01*
X366999Y351348D01*
X367011Y351350D01*
X367057Y351353D01*
X367069Y351353D01*
X367081Y351354D01*
X367127Y351352D01*
X367139Y351350D01*
X367150Y351350D01*
X367197Y351343D01*
X367208Y351340D01*
X367219Y351338D01*
X367264Y351325D01*
X367275Y351321D01*
X367286Y351317D01*
X367329Y351299D01*
X367340Y351294D01*
X367350Y351289D01*
X367391Y351267D01*
X367401Y351260D01*
X367411Y351254D01*
X367448Y351226D01*
X367457Y351219D01*
X367467Y351212D01*
X367501Y351180D01*
X367509Y351171D01*
X367517Y351163D01*
X367547Y351128D01*
X367554Y351118D01*
X367561Y351109D01*
X367587Y351070D01*
X367593Y351060D01*
X367599Y351050D01*
X367620Y351009D01*
X367625Y350998D01*
X367630Y350987D01*
X367646Y350943D01*
X367649Y350932D01*
X367653Y350921D01*
X367664Y350876D01*
X367665Y350864D01*
X367668Y350853D01*
X367673Y350807D01*
X367673Y350795D01*
X367674Y350783D01*
Y350760D01*
Y350741D01*
X367673Y350731D01*
Y350721D01*
X367670Y350682D01*
X367668Y350673D01*
X367667Y350663D01*
X367659Y350625D01*
X367656Y350616D01*
X367655Y350606D01*
X367643Y350569D01*
X367640Y350560D01*
X367637Y350551D01*
X367622Y350515D01*
X367617Y350507D01*
X367614Y350498D01*
X367595Y350463D01*
X367590Y350455D01*
X367585Y350447D01*
X367564Y350414D01*
X367558Y350407D01*
X367552Y350399D01*
X367528Y350369D01*
X367521Y350362D01*
X367515Y350354D01*
X367501Y350341D01*
X367501Y350341D01*
X367501Y350341D01*
X367501Y350341D01*
X366655Y349493D01*
X371338Y352200D01*
X371338Y352200D01*
X371368Y352217D01*
X371377Y352221D01*
X371387Y352227D01*
X371450Y352255D01*
X371460Y352258D01*
X371469Y352262D01*
X371535Y352284D01*
X371545Y352286D01*
X371555Y352289D01*
X371622Y352303D01*
X371633Y352305D01*
X371643Y352307D01*
X371711Y352314D01*
X371722Y352314D01*
X371732Y352315D01*
X371801Y352315D01*
X371812Y352314D01*
X371822Y352314D01*
X371891Y352307D01*
X371901Y352305D01*
X371911Y352304D01*
X371979Y352289D01*
X371988Y352286D01*
X371999Y352284D01*
X372064Y352262D01*
X372074Y352258D01*
X372084Y352255D01*
X372147Y352227D01*
X372156Y352222D01*
X372165Y352218D01*
X372225Y352183D01*
X372233Y352177D01*
X372242Y352172D01*
X372298Y352131D01*
X372306Y352124D01*
X372314Y352118D01*
X372366Y352072D01*
X372373Y352064D01*
X372380Y352057D01*
X372427Y352006D01*
X372433Y351998D01*
X372440Y351990D01*
X372480Y351934D01*
X372485Y351925D01*
X372492Y351917D01*
X372526Y351857D01*
X372530Y351847D01*
X372535Y351838D01*
X372564Y351775D01*
X372567Y351765D01*
X372571Y351756D01*
X372592Y351690D01*
X372595Y351680D01*
X372598Y351670D01*
X372612Y351603D01*
X372613Y351592D01*
X372615Y351582D01*
X372623Y351514D01*
X372623Y351503D01*
X372624Y351493D01*
Y351458D01*
Y351430D01*
X372623Y351421D01*
X372623Y351412D01*
X372618Y351355D01*
X372616Y351346D01*
X372616Y351338D01*
X372606Y351281D01*
X372603Y351273D01*
X372602Y351264D01*
X372587Y351209D01*
X372584Y351201D01*
X372582Y351192D01*
X372562Y351138D01*
X372558Y351131D01*
X372556Y351122D01*
X372531Y351070D01*
X372527Y351063D01*
X372523Y351055D01*
X372495Y351005D01*
X372490Y350998D01*
X372485Y350991D01*
X372452Y350943D01*
X372447Y350937D01*
X372442Y350930D01*
X372405Y350886D01*
X372399Y350880D01*
X372393Y350873D01*
X372353Y350832D01*
X372346Y350827D01*
X372340Y350821D01*
X372296Y350784D01*
X372289Y350779D01*
X372282Y350773D01*
X372235Y350740D01*
X372228Y350736D01*
X372221Y350731D01*
X372196Y350717D01*
X372196Y350716D01*
X367604Y348063D01*
X368665Y348348D01*
X368665D01*
X368665Y348348D01*
X368687Y348354D01*
X368698Y348356D01*
X368709Y348358D01*
X368754Y348365D01*
X368765Y348366D01*
X368776Y348367D01*
X368822Y348369D01*
X368833Y348368D01*
X368845Y348368D01*
X368890Y348364D01*
X368901Y348362D01*
X368912Y348361D01*
X368957Y348353D01*
X368968Y348349D01*
X368979Y348347D01*
X369022Y348333D01*
X369032Y348328D01*
X369043Y348325D01*
X369084Y348306D01*
X369094Y348301D01*
X369104Y348296D01*
X369143Y348272D01*
X369152Y348266D01*
X369162Y348260D01*
X369198Y348232D01*
X369207Y348224D01*
X369215Y348217D01*
X369248Y348186D01*
X369255Y348177D01*
X369263Y348169D01*
X369292Y348134D01*
X369299Y348125D01*
X369305Y348116D01*
X369330Y348077D01*
X369335Y348067D01*
X369341Y348058D01*
X369361Y348017D01*
X369365Y348007D01*
X369370Y347996D01*
X369386Y347954D01*
X369388Y347942D01*
X369392Y347932D01*
X369402Y347887D01*
X369404Y347876D01*
X369406Y347865D01*
X369411Y347820D01*
X369411Y347809D01*
X369413Y347797D01*
Y347775D01*
Y347753D01*
X369411Y347742D01*
X369411Y347732D01*
X369407Y347689D01*
X369405Y347678D01*
X369403Y347668D01*
X369394Y347625D01*
X369391Y347615D01*
X369388Y347605D01*
X369374Y347564D01*
X369370Y347554D01*
X369366Y347544D01*
X369348Y347505D01*
X369342Y347495D01*
X369338Y347485D01*
X369315Y347449D01*
X369309Y347440D01*
X369303Y347431D01*
X369277Y347397D01*
X369270Y347389D01*
X369263Y347380D01*
X369233Y347349D01*
X369225Y347342D01*
X369217Y347334D01*
X369184Y347306D01*
X369175Y347300D01*
X369167Y347294D01*
X369131Y347270D01*
X369122Y347265D01*
X369113Y347259D01*
X369074Y347239D01*
X369064Y347235D01*
X369055Y347230D01*
X369015Y347214D01*
X369004Y347211D01*
X368994Y347207D01*
X368973Y347202D01*
X368973Y347202D01*
X367275Y346745D01*
X370674Y346743D01*
D01*
X370700Y346743D01*
X370710Y346742D01*
X370720Y346742D01*
X370771Y346737D01*
X370781Y346735D01*
X370791Y346734D01*
X370841Y346724D01*
X370851Y346722D01*
X370860Y346720D01*
X370910Y346705D01*
X370919Y346701D01*
X370928Y346698D01*
X370976Y346678D01*
X370984Y346674D01*
X370993Y346670D01*
X371039Y346645D01*
X371047Y346640D01*
X371056Y346636D01*
X371099Y346607D01*
X371106Y346601D01*
X371114Y346595D01*
X371154Y346562D01*
X371161Y346555D01*
X371169Y346549D01*
X371205Y346513D01*
X371211Y346505D01*
X371218Y346498D01*
X371251Y346458D01*
X371257Y346450D01*
X371263Y346443D01*
X371291Y346399D01*
X371296Y346391D01*
X371302Y346383D01*
X371326Y346337D01*
X371330Y346328D01*
X371334Y346320D01*
X371354Y346272D01*
X371357Y346263D01*
X371360Y346253D01*
X371376Y346204D01*
X371377Y346194D01*
X371380Y346185D01*
X371390Y346134D01*
X371391Y346125D01*
X371393Y346115D01*
X371398Y346064D01*
Y346054D01*
X371399Y346044D01*
Y346018D01*
Y345992D01*
X371398Y345983D01*
Y345973D01*
X371393Y345921D01*
X371391Y345912D01*
X371390Y345902D01*
X371380Y345851D01*
X371377Y345842D01*
X371375Y345832D01*
X371360Y345783D01*
X371357Y345774D01*
X371354Y345765D01*
X371334Y345717D01*
X371329Y345708D01*
X371326Y345699D01*
X371301Y345654D01*
X371296Y345645D01*
X371291Y345637D01*
X371263Y345594D01*
X371256Y345586D01*
X371251Y345578D01*
X371218Y345538D01*
X371211Y345531D01*
X371205Y345524D01*
X371168Y345487D01*
X371161Y345481D01*
X371154Y345474D01*
X371114Y345441D01*
X371106Y345436D01*
X371098Y345430D01*
X371055Y345401D01*
X371047Y345396D01*
X371039Y345391D01*
X370993Y345367D01*
X370984Y345363D01*
X370975Y345358D01*
X370927Y345338D01*
X370918Y345336D01*
X370909Y345332D01*
X370860Y345317D01*
X370850Y345315D01*
X370841Y345312D01*
X370790Y345302D01*
X370780Y345301D01*
X370771Y345299D01*
X370719Y345294D01*
X370709Y345294D01*
X370700Y345293D01*
X370674Y345293D01*
X370674Y345293D01*
X370674Y345293D01*
X370674D01*
X370674Y345293D01*
X367434Y345295D01*
X368975Y344883D01*
X368975Y344883D01*
X368975D01*
X368996Y344878D01*
X369006Y344874D01*
X369017Y344871D01*
X369057Y344855D01*
X369067Y344850D01*
X369077Y344846D01*
X369115Y344826D01*
X369124Y344820D01*
X369134Y344815D01*
X369170Y344791D01*
X369178Y344784D01*
X369187Y344778D01*
X369220Y344751D01*
X369228Y344743D01*
X369236Y344736D01*
X369266Y344705D01*
X369272Y344696D01*
X369280Y344688D01*
X369306Y344654D01*
X369312Y344645D01*
X369318Y344636D01*
X369341Y344599D01*
X369345Y344590D01*
X369351Y344580D01*
X369369Y344541D01*
X369373Y344531D01*
X369377Y344521D01*
X369391Y344480D01*
X369394Y344470D01*
X369397Y344459D01*
X369406Y344417D01*
X369408Y344406D01*
X369410Y344396D01*
X369415Y344353D01*
X369415Y344342D01*
X369416Y344331D01*
Y344310D01*
Y344287D01*
X369415Y344276D01*
X369414Y344264D01*
X369409Y344219D01*
X369407Y344208D01*
X369405Y344197D01*
X369395Y344153D01*
X369391Y344142D01*
X369389Y344131D01*
X369373Y344089D01*
X369369Y344078D01*
X369365Y344068D01*
X369345Y344027D01*
X369339Y344017D01*
X369334Y344007D01*
X369309Y343969D01*
X369302Y343960D01*
X369296Y343951D01*
X369267Y343916D01*
X369259Y343908D01*
X369251Y343899D01*
X369219Y343868D01*
X369210Y343861D01*
X369202Y343853D01*
X369166Y343825D01*
X369156Y343819D01*
X369147Y343812D01*
X369108Y343789D01*
X369098Y343784D01*
X369088Y343779D01*
X369047Y343760D01*
X369036Y343756D01*
X369026Y343752D01*
X368983Y343738D01*
X368971Y343735D01*
X368961Y343732D01*
X368916Y343723D01*
X368905Y343722D01*
X368894Y343720D01*
X368849Y343716D01*
X368837Y343717D01*
X368826Y343716D01*
X368781Y343717D01*
X368770Y343719D01*
X368758Y343719D01*
X368713Y343726D01*
X368702Y343729D01*
X368691Y343730D01*
X368669Y343736D01*
X368669D01*
X367504Y344047D01*
X372173Y341348D01*
X372173Y341348D01*
X372198Y341333D01*
X372205Y341328D01*
X372213Y341324D01*
X372260Y341291D01*
X372266Y341285D01*
X372273Y341280D01*
X372318Y341243D01*
X372324Y341237D01*
X372330Y341232D01*
X372371Y341191D01*
X372376Y341184D01*
X372382Y341178D01*
X372420Y341134D01*
X372424Y341127D01*
X372430Y341121D01*
X372463Y341073D01*
X372467Y341066D01*
X372472Y341059D01*
X372501Y341009D01*
X372504Y341001D01*
X372509Y340994D01*
X372533Y340942D01*
X372536Y340933D01*
X372540Y340926D01*
X372559Y340872D01*
X372562Y340863D01*
X372565Y340855D01*
X372580Y340800D01*
X372581Y340791D01*
X372583Y340783D01*
X372593Y340726D01*
X372594Y340718D01*
X372595Y340709D01*
X372601Y340652D01*
X372600Y340643D01*
X372601Y340635D01*
Y340606D01*
Y340571D01*
X372600Y340561D01*
X372600Y340551D01*
X372593Y340482D01*
X372591Y340472D01*
X372590Y340461D01*
X372575Y340394D01*
X372572Y340384D01*
X372570Y340374D01*
X372549Y340308D01*
X372544Y340299D01*
X372541Y340289D01*
X372513Y340226D01*
X372508Y340217D01*
X372504Y340207D01*
X372469Y340147D01*
X372463Y340139D01*
X372458Y340130D01*
X372417Y340074D01*
X372410Y340067D01*
X372404Y340058D01*
X372358Y340007D01*
X372350Y340000D01*
X372343Y339992D01*
X372292Y339946D01*
X372284Y339940D01*
X372276Y339933D01*
X372220Y339892D01*
X372211Y339887D01*
X372202Y339881D01*
X372143Y339847D01*
X372133Y339842D01*
X372124Y339837D01*
X372061Y339809D01*
X372051Y339806D01*
X372042Y339802D01*
X371976Y339780D01*
X371966Y339778D01*
X371956Y339775D01*
X371888Y339761D01*
X371878Y339759D01*
X371868Y339757D01*
X371799Y339750D01*
X371789Y339750D01*
X371779Y339749D01*
X371709Y339749D01*
X371699Y339750D01*
X371689Y339750D01*
X371620Y339758D01*
X371610Y339760D01*
X371600Y339761D01*
X371532Y339775D01*
X371522Y339778D01*
X371512Y339781D01*
X371446Y339802D01*
X371437Y339806D01*
X371427Y339809D01*
X371364Y339838D01*
X371355Y339843D01*
X371346Y339847D01*
X371316Y339864D01*
X371316Y339864D01*
X366716Y342524D01*
X367522Y341719D01*
X367522Y341719D01*
X367522Y341719D01*
X367535Y341705D01*
X367542Y341698D01*
X367549Y341691D01*
X367573Y341661D01*
X367579Y341653D01*
X367585Y341646D01*
X367606Y341613D01*
X367611Y341605D01*
X367617Y341597D01*
X367635Y341562D01*
X367639Y341553D01*
X367643Y341545D01*
X367658Y341509D01*
X367661Y341499D01*
X367665Y341490D01*
X367676Y341453D01*
X367678Y341444D01*
X367681Y341434D01*
X367688Y341396D01*
X367689Y341387D01*
X367691Y341377D01*
X367695Y341338D01*
Y341328D01*
X367696Y341319D01*
Y341299D01*
Y341276D01*
X367695Y341264D01*
X367695Y341253D01*
X367689Y341206D01*
X367687Y341195D01*
X367685Y341183D01*
X367674Y341138D01*
X367670Y341127D01*
X367667Y341116D01*
X367651Y341072D01*
X367646Y341062D01*
X367642Y341051D01*
X367621Y341009D01*
X367615Y340999D01*
X367609Y340989D01*
X367583Y340950D01*
X367576Y340941D01*
X367569Y340932D01*
X367539Y340896D01*
X367530Y340888D01*
X367523Y340879D01*
X367488Y340848D01*
X367479Y340841D01*
X367470Y340833D01*
X367433Y340806D01*
X367423Y340800D01*
X367413Y340793D01*
X367372Y340770D01*
X367362Y340766D01*
X367351Y340760D01*
X367308Y340742D01*
X367297Y340739D01*
X367286Y340735D01*
X367241Y340722D01*
X367230Y340720D01*
X367219Y340717D01*
X367173Y340709D01*
X367161Y340709D01*
X367149Y340707D01*
X367103Y340705D01*
X367091Y340706D01*
X367079Y340706D01*
X367033Y340709D01*
X367022Y340711D01*
X367010Y340713D01*
X366964Y340722D01*
X366953Y340725D01*
X366942Y340727D01*
X366897Y340742D01*
X366887Y340747D01*
X366876Y340750D01*
X366833Y340770D01*
X366823Y340776D01*
X366813Y340781D01*
X366773Y340805D01*
X366764Y340812D01*
X366754Y340818D01*
X366717Y340847D01*
X366709Y340855D01*
X366700Y340863D01*
X366683Y340879D01*
D01*
X366683Y340879D01*
X366683Y340879D01*
X366683Y340879D01*
X365439Y342121D01*
X367138Y339175D01*
X367138Y339175D01*
X367146Y339160D01*
X367149Y339154D01*
X367153Y339149D01*
X367168Y339118D01*
X367170Y339112D01*
X367173Y339106D01*
X367186Y339074D01*
X367188Y339068D01*
X367191Y339062D01*
X367202Y339030D01*
X367203Y339023D01*
X367206Y339017D01*
X367215Y338984D01*
X367216Y338978D01*
X367217Y338971D01*
X367224Y338937D01*
X367225Y338931D01*
X367226Y338925D01*
X367231Y338891D01*
X367231Y338884D01*
X367232Y338878D01*
X367234Y338843D01*
X367234Y338837D01*
X367235Y338830D01*
Y338813D01*
Y338784D01*
X367234Y338773D01*
X367234Y338763D01*
X367227Y338705D01*
X367225Y338695D01*
X367224Y338684D01*
X367211Y338628D01*
X367208Y338618D01*
X367206Y338607D01*
X367187Y338553D01*
X367183Y338543D01*
X367179Y338533D01*
X367155Y338480D01*
X367149Y338471D01*
X367144Y338461D01*
X367115Y338412D01*
X367108Y338404D01*
X367102Y338394D01*
X367067Y338349D01*
X367060Y338341D01*
X367053Y338332D01*
X367014Y338291D01*
X367005Y338284D01*
X366998Y338276D01*
X366954Y338239D01*
X366945Y338233D01*
X366936Y338226D01*
X366888Y338194D01*
X366879Y338189D01*
X366870Y338183D01*
X366819Y338157D01*
X366809Y338153D01*
X366799Y338148D01*
X366745Y338127D01*
X366735Y338124D01*
X366725Y338120D01*
X366669Y338105D01*
X366659Y338103D01*
X366648Y338101D01*
X366591Y338092D01*
X366581Y338091D01*
X366570Y338090D01*
X366512Y338087D01*
X366502Y338088D01*
X366491Y338088D01*
X366433Y338091D01*
X366423Y338093D01*
X366412Y338094D01*
X366355Y338104D01*
X366345Y338107D01*
X366334Y338109D01*
X366279Y338125D01*
X366269Y338129D01*
X366259Y338132D01*
X366205Y338154D01*
X366196Y338159D01*
X366186Y338163D01*
X366136Y338191D01*
X366127Y338197D01*
X366117Y338203D01*
X366070Y338236D01*
X366062Y338243D01*
X366053Y338249D01*
X366010Y338287D01*
X366002Y338295D01*
X365994Y338302D01*
X365955Y338345D01*
X365949Y338353D01*
X365942Y338361D01*
X365908Y338408D01*
X365902Y338417D01*
X365896Y338426D01*
X365882Y338451D01*
X365882Y338451D01*
X364255Y341271D01*
X364672Y339722D01*
X364672Y339722D01*
X364672Y339722D01*
X364675Y339709D01*
X364676Y339703D01*
X364678Y339697D01*
X364683Y339671D01*
X364684Y339665D01*
X364685Y339658D01*
X364688Y339633D01*
X364689Y339626D01*
X364690Y339620D01*
X364691Y339594D01*
X364691Y339587D01*
X364692Y339581D01*
Y339568D01*
Y339544D01*
X364691Y339532D01*
X364690Y339520D01*
X364685Y339473D01*
X364682Y339461D01*
X364681Y339450D01*
X364669Y339404D01*
X364665Y339392D01*
X364662Y339381D01*
X364646Y339336D01*
X364640Y339326D01*
X364636Y339315D01*
X364614Y339273D01*
X364608Y339263D01*
X364602Y339252D01*
X364575Y339213D01*
X364567Y339204D01*
X364560Y339194D01*
X364529Y339159D01*
X364520Y339151D01*
X364512Y339142D01*
X364477Y339110D01*
X364468Y339103D01*
X364458Y339095D01*
X364420Y339068D01*
X364409Y339062D01*
X364399Y339056D01*
X364357Y339033D01*
X364347Y339029D01*
X364336Y339023D01*
X364292Y339006D01*
X364280Y339003D01*
X364269Y338999D01*
X364223Y338987D01*
X364211Y338985D01*
X364200Y338983D01*
X364153Y338976D01*
X364141Y338976D01*
X364129Y338974D01*
X364082Y338974D01*
X364070Y338975D01*
X364058Y338975D01*
X364011Y338980D01*
X363999Y338983D01*
X363987Y338984D01*
X363941Y338995D01*
X363930Y338999D01*
X363918Y339002D01*
X363874Y339018D01*
X363863Y339023D01*
X363852Y339027D01*
X363809Y339049D01*
X363799Y339055D01*
X363789Y339061D01*
X363749Y339087D01*
X363740Y339095D01*
X363730Y339102D01*
X363694Y339132D01*
X363686Y339141D01*
X363677Y339149D01*
X363645Y339184D01*
X363638Y339193D01*
X363630Y339202D01*
X363602Y339241D01*
X363597Y339251D01*
X363590Y339261D01*
X363567Y339303D01*
X363562Y339314D01*
X363557Y339324D01*
X363539Y339368D01*
X363536Y339380D01*
X363531Y339391D01*
X363525Y339414D01*
X363525Y339414D01*
X363212Y340578D01*
Y303578D01*
Y303545D01*
X363211Y303536D01*
Y303526D01*
X363205Y303462D01*
X363203Y303452D01*
X363202Y303443D01*
X363189Y303379D01*
X363187Y303370D01*
X363185Y303360D01*
X363166Y303298D01*
X363162Y303289D01*
X363159Y303280D01*
X363135Y303220D01*
X363130Y303211D01*
X363126Y303203D01*
X363096Y303145D01*
X363090Y303137D01*
X363086Y303129D01*
X363050Y303075D01*
X363044Y303067D01*
X363038Y303059D01*
X362997Y303009D01*
X362990Y303003D01*
X362984Y302995D01*
X362938Y302949D01*
X362931Y302943D01*
X362924Y302936D01*
X362874Y302895D01*
X362866Y302890D01*
X362858Y302884D01*
X362805Y302848D01*
X362796Y302843D01*
X362788Y302838D01*
X362731Y302807D01*
X362722Y302803D01*
X362713Y302799D01*
X362653Y302774D01*
X362644Y302771D01*
X362635Y302767D01*
X362573Y302749D01*
X362564Y302747D01*
X362554Y302744D01*
X362491Y302731D01*
X362481Y302730D01*
X362472Y302728D01*
X362407Y302722D01*
X362398D01*
X362388Y302721D01*
X362323D01*
X362314Y302722D01*
X362304D01*
X362239Y302728D01*
X362230Y302730D01*
X362220Y302731D01*
X362157Y302744D01*
X362147Y302747D01*
X362138Y302749D01*
X362076Y302767D01*
X362067Y302771D01*
X362057Y302774D01*
X361998Y302799D01*
X361989Y302803D01*
X361980Y302807D01*
X361923Y302838D01*
X361915Y302843D01*
X361906Y302848D01*
X361853Y302884D01*
X361845Y302890D01*
X361837Y302895D01*
X361787Y302936D01*
X361780Y302943D01*
X361773Y302949D01*
X361727Y302995D01*
X361721Y303002D01*
X361714Y303009D01*
X361673Y303059D01*
X361667Y303067D01*
X361661Y303075D01*
X361625Y303129D01*
X361621Y303137D01*
X361615Y303145D01*
X361585Y303203D01*
X361581Y303211D01*
X361576Y303220D01*
X361552Y303280D01*
X361549Y303289D01*
X361545Y303298D01*
X361526Y303360D01*
X361524Y303370D01*
X361522Y303379D01*
X361509Y303443D01*
X361508Y303452D01*
X361506Y303462D01*
X361500Y303526D01*
Y303536D01*
X361499Y303545D01*
Y303578D01*
X361499Y340505D01*
X361207Y339411D01*
Y339411D01*
X361200Y339386D01*
X361195Y339374D01*
X361192Y339362D01*
X361172Y339314D01*
X361166Y339302D01*
X361161Y339291D01*
X361135Y339246D01*
X361127Y339235D01*
X361120Y339224D01*
X361089Y339183D01*
X361080Y339174D01*
X361072Y339164D01*
X361035Y339127D01*
X361025Y339119D01*
X361016Y339110D01*
X360975Y339078D01*
X360964Y339071D01*
X360953Y339064D01*
X360908Y339038D01*
X360896Y339033D01*
X360885Y339026D01*
X360837Y339006D01*
X360825Y339003D01*
X360813Y338998D01*
X360763Y338985D01*
X360750Y338983D01*
X360737Y338980D01*
X360686Y338973D01*
X360673Y338972D01*
X360660Y338971D01*
X360608Y338971D01*
X360595Y338972D01*
X360582Y338973D01*
X360531Y338979D01*
X360518Y338982D01*
X360505Y338984D01*
X360455Y338998D01*
X360443Y339002D01*
X360431Y339006D01*
X360383Y339026D01*
X360371Y339032D01*
X360360Y339037D01*
X360315Y339063D01*
X360304Y339071D01*
X360293Y339078D01*
X360252Y339109D01*
X360243Y339118D01*
X360232Y339126D01*
X360196Y339163D01*
X360188Y339173D01*
X360179Y339182D01*
X360147Y339223D01*
X360140Y339234D01*
X360133Y339245D01*
X360107Y339290D01*
X360101Y339301D01*
X360095Y339313D01*
X360075Y339361D01*
X360071Y339373D01*
X360067Y339385D01*
X360053Y339435D01*
X360051Y339448D01*
X360048Y339461D01*
X360042Y339512D01*
X360041Y339525D01*
X360040Y339538D01*
X360040Y339590D01*
X360041Y339603D01*
X360041Y339616D01*
X360048Y339667D01*
X360051Y339680D01*
X360053Y339692D01*
X360060Y339718D01*
X360060Y339718D01*
X360501Y341371D01*
X358816Y338455D01*
X358816Y338455D01*
X358816Y338455D01*
X358815Y338454D01*
X358815Y338454D01*
X358801Y338428D01*
X358794Y338419D01*
X358788Y338410D01*
X358753Y338362D01*
X358746Y338354D01*
X358739Y338345D01*
X358699Y338302D01*
X358690Y338294D01*
X358683Y338286D01*
X358638Y338248D01*
X358629Y338241D01*
X358620Y338234D01*
X358571Y338201D01*
X358562Y338196D01*
X358552Y338189D01*
X358500Y338162D01*
X358490Y338158D01*
X358480Y338153D01*
X358425Y338131D01*
X358414Y338128D01*
X358403Y338124D01*
X358346Y338109D01*
X358335Y338107D01*
X358325Y338104D01*
X358266Y338095D01*
X358255Y338095D01*
X358244Y338093D01*
X358185Y338091D01*
X358174Y338092D01*
X358163Y338092D01*
X358103Y338096D01*
X358092Y338098D01*
X358082Y338099D01*
X358023Y338110D01*
X358013Y338113D01*
X358002Y338115D01*
X357945Y338133D01*
X357935Y338137D01*
X357924Y338141D01*
X357870Y338164D01*
X357860Y338170D01*
X357850Y338174D01*
X357799Y338204D01*
X357790Y338210D01*
X357781Y338216D01*
X357733Y338251D01*
X357725Y338259D01*
X357716Y338265D01*
X357672Y338306D01*
X357665Y338314D01*
X357657Y338322D01*
X357618Y338367D01*
X357612Y338376D01*
X357605Y338384D01*
X357572Y338433D01*
X357566Y338443D01*
X357560Y338452D01*
X357533Y338505D01*
X357528Y338515D01*
X357523Y338525D01*
X357502Y338580D01*
X357499Y338591D01*
X357495Y338601D01*
X357479Y338658D01*
X357478Y338669D01*
X357475Y338680D01*
X357466Y338738D01*
X357466Y338750D01*
X357464Y338760D01*
X357462Y338820D01*
X357463Y338831D01*
X357462Y338842D01*
X357467Y338901D01*
X357469Y338912D01*
X357470Y338923D01*
X357481Y338981D01*
X357484Y338992D01*
X357486Y339003D01*
X357504Y339059D01*
X357508Y339069D01*
X357511Y339080D01*
X357535Y339134D01*
X357540Y339144D01*
X357545Y339154D01*
X357560Y339180D01*
X357560Y339180D01*
X359209Y342033D01*
X358043Y340865D01*
X358043Y340865D01*
X358043Y340865D01*
X358025Y340847D01*
X358015Y340838D01*
X358005Y340830D01*
X357964Y340798D01*
X357953Y340791D01*
X357943Y340784D01*
X357898Y340758D01*
X357886Y340752D01*
X357874Y340746D01*
X357827Y340726D01*
X357814Y340722D01*
X357802Y340718D01*
X357752Y340704D01*
X357739Y340702D01*
X357727Y340699D01*
X357675Y340693D01*
X357662Y340692D01*
X357649Y340691D01*
X357598Y340691D01*
X357585Y340692D01*
X357572Y340692D01*
X357520Y340699D01*
X357508Y340702D01*
X357495Y340704D01*
X357445Y340718D01*
X357433Y340722D01*
X357420Y340726D01*
X357372Y340746D01*
X357361Y340752D01*
X357349Y340757D01*
X357304Y340783D01*
X357294Y340791D01*
X357283Y340797D01*
X357242Y340829D01*
X357232Y340838D01*
X357222Y340846D01*
X357185Y340883D01*
X357177Y340893D01*
X357168Y340902D01*
X357137Y340943D01*
X357130Y340954D01*
X357122Y340965D01*
X357096Y341009D01*
X357091Y341021D01*
X357085Y341033D01*
X357065Y341081D01*
X357061Y341093D01*
X357057Y341105D01*
X357043Y341155D01*
X357041Y341168D01*
X357038Y341181D01*
X357031Y341232D01*
X357031Y341245D01*
X357030Y341258D01*
X357029Y341310D01*
X357031Y341323D01*
X357031Y341336D01*
X357038Y341387D01*
X357041Y341400D01*
X357043Y341412D01*
X357056Y341462D01*
X357061Y341475D01*
X357065Y341487D01*
X357084Y341535D01*
X357090Y341546D01*
X357096Y341558D01*
X357122Y341603D01*
X357129Y341614D01*
X357136Y341625D01*
X357168Y341666D01*
X357176Y341675D01*
X357185Y341685D01*
X357203Y341704D01*
X357203Y341704D01*
X357203Y341704D01*
X358021Y342523D01*
X353425Y339867D01*
X353425Y339867D01*
X353397Y339850D01*
X353388Y339846D01*
X353379Y339842D01*
X353320Y339815D01*
X353311Y339812D01*
X353302Y339808D01*
X353241Y339787D01*
X353232Y339785D01*
X353222Y339781D01*
X353159Y339767D01*
X353150Y339765D01*
X353140Y339763D01*
X353076Y339755D01*
X353066Y339754D01*
X353057Y339753D01*
X352992Y339751D01*
X352982Y339752D01*
X352973Y339751D01*
X352908Y339756D01*
X352898Y339757D01*
X352889Y339758D01*
X352825Y339768D01*
X352815Y339771D01*
X352806Y339772D01*
X352743Y339789D01*
X352734Y339792D01*
X352725Y339795D01*
X352664Y339818D01*
X352656Y339822D01*
X352646Y339825D01*
X352588Y339854D01*
X352580Y339859D01*
X352571Y339863D01*
X352516Y339898D01*
X352509Y339903D01*
X352500Y339909D01*
X352449Y339948D01*
X352442Y339955D01*
X352434Y339961D01*
X352387Y340005D01*
X352380Y340012D01*
X352373Y340019D01*
X352331Y340067D01*
X352325Y340075D01*
X352319Y340083D01*
X352281Y340135D01*
X352276Y340144D01*
X352270Y340152D01*
X352238Y340208D01*
X352234Y340216D01*
X352229Y340225D01*
X352202Y340284D01*
X352199Y340293D01*
X352195Y340302D01*
X352174Y340363D01*
X352172Y340373D01*
X352169Y340382D01*
X352154Y340445D01*
X352153Y340454D01*
X352151Y340464D01*
X352142Y340528D01*
X352142Y340538D01*
X352141Y340547D01*
X352139Y340612D01*
X352139Y340622D01*
X352139Y340632D01*
X352143Y340696D01*
X352145Y340706D01*
X352145Y340716D01*
X352156Y340779D01*
X352158Y340789D01*
X352160Y340798D01*
X352177Y340861D01*
X352180Y340870D01*
X352183Y340879D01*
X352205Y340940D01*
X352210Y340949D01*
X352213Y340958D01*
X352242Y341016D01*
X352247Y341024D01*
X352251Y341033D01*
X352285Y341088D01*
X352291Y341095D01*
X352296Y341104D01*
X352336Y341155D01*
X352342Y341162D01*
X352348Y341170D01*
X352393Y341217D01*
X352400Y341224D01*
X352406Y341231D01*
X352455Y341273D01*
X352463Y341279D01*
X352470Y341286D01*
X352523Y341323D01*
X352531Y341328D01*
X352539Y341334D01*
X352567Y341350D01*
X352567Y341350D01*
X357224Y344042D01*
X356045Y343725D01*
X356044Y343724D01*
X356019Y343718D01*
X356007Y343716D01*
X355994Y343713D01*
X355943Y343706D01*
X355930Y343706D01*
X355917Y343704D01*
X355865Y343704D01*
X355852Y343705D01*
X355839Y343706D01*
X355788Y343713D01*
X355775Y343716D01*
X355762Y343718D01*
X355712Y343731D01*
X355700Y343736D01*
X355688Y343739D01*
X355640Y343759D01*
X355628Y343765D01*
X355617Y343771D01*
X355572Y343796D01*
X355561Y343804D01*
X355550Y343811D01*
X355509Y343842D01*
X355500Y343851D01*
X355489Y343859D01*
X355453Y343896D01*
X355445Y343906D01*
X355436Y343915D01*
X355404Y343957D01*
X355397Y343968D01*
X355390Y343978D01*
X355364Y344023D01*
X355358Y344035D01*
X355352Y344046D01*
X355332Y344094D01*
X355328Y344107D01*
X355324Y344118D01*
X355311Y344169D01*
X355308Y344181D01*
X355305Y344194D01*
X355299Y344245D01*
X355298Y344258D01*
X355297Y344271D01*
X355297Y344323D01*
X355298Y344336D01*
X355298Y344349D01*
X355305Y344400D01*
X355308Y344413D01*
X355310Y344426D01*
X355324Y344476D01*
X355328Y344488D01*
X355332Y344500D01*
X355352Y344548D01*
X355358Y344560D01*
X355363Y344571D01*
X355389Y344616D01*
X355397Y344627D01*
X355403Y344638D01*
X355435Y344679D01*
X355444Y344689D01*
X355452Y344699D01*
X355489Y344735D01*
X355499Y344744D01*
X355508Y344752D01*
X355549Y344784D01*
X355560Y344791D01*
X355571Y344798D01*
X355616Y344824D01*
X355627Y344830D01*
X355639Y344836D01*
X355687Y344856D01*
X355699Y344860D01*
X355711Y344864D01*
X355736Y344871D01*
X355736Y344871D01*
X355736D01*
X357330Y345299D01*
X354029Y345301D01*
D01*
X354000Y345301D01*
X353989Y345302D01*
X353978Y345302D01*
X353919Y345309D01*
X353908Y345311D01*
X353897Y345312D01*
X353839Y345326D01*
X353829Y345329D01*
X353818Y345332D01*
X353762Y345352D01*
X353752Y345356D01*
X353742Y345360D01*
X353688Y345386D01*
X353679Y345392D01*
X353669Y345396D01*
X353619Y345428D01*
X353610Y345435D01*
X353601Y345441D01*
X353554Y345478D01*
X353546Y345485D01*
X353538Y345493D01*
X353496Y345534D01*
X353489Y345543D01*
X353481Y345551D01*
X353444Y345597D01*
X353438Y345607D01*
X353431Y345615D01*
X353400Y345666D01*
X353395Y345676D01*
X353389Y345685D01*
X353363Y345738D01*
X353360Y345749D01*
X353355Y345759D01*
X353335Y345815D01*
X353333Y345826D01*
X353329Y345836D01*
X353316Y345894D01*
X353315Y345905D01*
X353312Y345916D01*
X353306Y345975D01*
X353306Y345986D01*
X353305Y345997D01*
X353305Y346056D01*
X353306Y346067D01*
X353306Y346078D01*
X353313Y346137D01*
X353315Y346148D01*
X353316Y346159D01*
X353329Y346217D01*
X353333Y346227D01*
X353336Y346238D01*
X353355Y346294D01*
X353360Y346304D01*
X353364Y346314D01*
X353390Y346368D01*
X353395Y346377D01*
X353400Y346387D01*
X353432Y346437D01*
X353439Y346446D01*
X353445Y346455D01*
X353482Y346501D01*
X353489Y346510D01*
X353496Y346518D01*
X353538Y346560D01*
X353547Y346567D01*
X353555Y346575D01*
X353601Y346612D01*
X353610Y346618D01*
X353619Y346624D01*
X353669Y346656D01*
X353679Y346661D01*
X353689Y346667D01*
X353742Y346692D01*
X353753Y346696D01*
X353763Y346701D01*
X353819Y346720D01*
X353829Y346723D01*
X353840Y346726D01*
X353898Y346740D01*
X353909Y346741D01*
X353920Y346743D01*
X353978Y346750D01*
X353989Y346750D01*
X354001Y346751D01*
X354030Y346751D01*
D01*
X357382Y346749D01*
X355734Y347189D01*
X355734D01*
X355709Y347196D01*
X355697Y347201D01*
X355684Y347204D01*
X355637Y347224D01*
X355625Y347230D01*
X355613Y347236D01*
X355568Y347262D01*
X355558Y347269D01*
X355547Y347276D01*
X355506Y347307D01*
X355496Y347316D01*
X355486Y347324D01*
X355450Y347361D01*
X355441Y347371D01*
X355432Y347380D01*
X355401Y347422D01*
X355394Y347433D01*
X355386Y347443D01*
X355361Y347488D01*
X355355Y347500D01*
X355349Y347511D01*
X355329Y347559D01*
X355325Y347571D01*
X355321Y347584D01*
X355307Y347634D01*
X355305Y347646D01*
X355302Y347659D01*
X355295Y347710D01*
X355295Y347723D01*
X355294Y347736D01*
X355294Y347788D01*
X355295Y347801D01*
X355295Y347814D01*
X355302Y347865D01*
X355305Y347878D01*
X355307Y347891D01*
X355320Y347941D01*
X355325Y347953D01*
X355329Y347966D01*
X355348Y348013D01*
X355355Y348025D01*
X355360Y348037D01*
X355386Y348081D01*
X355393Y348092D01*
X355400Y348103D01*
X355432Y348144D01*
X355440Y348154D01*
X355449Y348164D01*
X355485Y348200D01*
X355495Y348209D01*
X355505Y348218D01*
X355546Y348249D01*
X355557Y348256D01*
X355568Y348264D01*
X355612Y348289D01*
X355624Y348295D01*
X355636Y348301D01*
X355683Y348321D01*
X355696Y348325D01*
X355708Y348329D01*
X355758Y348343D01*
X355771Y348345D01*
X355783Y348348D01*
X355835Y348355D01*
X355848Y348355D01*
X355861Y348356D01*
X355912Y348356D01*
X355925Y348355D01*
X355938Y348355D01*
X355990Y348348D01*
X356002Y348345D01*
X356015Y348343D01*
X356040Y348336D01*
X356040Y348336D01*
X357198Y348027D01*
X352547Y350717D01*
X352547Y350717D01*
X352518Y350733D01*
X352511Y350739D01*
X352502Y350743D01*
X352450Y350781D01*
X352442Y350787D01*
X352434Y350793D01*
X352386Y350836D01*
X352379Y350843D01*
X352372Y350849D01*
X352328Y350897D01*
X352322Y350904D01*
X352315Y350911D01*
X352276Y350963D01*
X352271Y350971D01*
X352265Y350979D01*
X352230Y351034D01*
X352226Y351043D01*
X352221Y351051D01*
X352192Y351109D01*
X352189Y351118D01*
X352185Y351127D01*
X352162Y351187D01*
X352160Y351197D01*
X352156Y351206D01*
X352139Y351268D01*
X352138Y351278D01*
X352135Y351287D01*
X352125Y351351D01*
X352124Y351361D01*
X352122Y351370D01*
X352118Y351435D01*
X352119Y351445D01*
X352118Y351454D01*
X352120Y351519D01*
X352121Y351529D01*
X352122Y351538D01*
X352130Y351603D01*
X352133Y351612D01*
X352134Y351622D01*
X352149Y351685D01*
X352152Y351694D01*
X352154Y351704D01*
X352175Y351765D01*
X352179Y351774D01*
X352182Y351783D01*
X352209Y351842D01*
X352214Y351850D01*
X352218Y351859D01*
X352250Y351915D01*
X352256Y351923D01*
X352260Y351931D01*
X352298Y351984D01*
X352305Y351991D01*
X352310Y351999D01*
X352353Y352048D01*
X352360Y352055D01*
X352366Y352062D01*
X352414Y352106D01*
X352421Y352112D01*
X352429Y352119D01*
X352480Y352158D01*
X352488Y352163D01*
X352496Y352169D01*
X352551Y352203D01*
X352560Y352207D01*
X352568Y352213D01*
X352626Y352241D01*
X352635Y352245D01*
X352644Y352249D01*
X352704Y352272D01*
X352714Y352274D01*
X352723Y352277D01*
X352785Y352294D01*
X352795Y352296D01*
X352804Y352298D01*
X352868Y352309D01*
X352878Y352309D01*
X352888Y352311D01*
X352952Y352315D01*
X352962Y352315D01*
X352972Y352316D01*
X353036Y352313D01*
X353046Y352312D01*
X353056Y352312D01*
X353120Y352303D01*
X353129Y352301D01*
X353139Y352300D01*
X353202Y352285D01*
X353211Y352282D01*
X353221Y352280D01*
X353282Y352259D01*
X353291Y352255D01*
X353300Y352252D01*
X353359Y352225D01*
X353367Y352220D01*
X353376Y352216D01*
X353404Y352200D01*
X353404Y352200D01*
X358009Y349537D01*
X357208Y350337D01*
X357208Y350337D01*
X357208Y350337D01*
X357189Y350356D01*
X357181Y350366D01*
X357172Y350375D01*
X357140Y350416D01*
X357134Y350427D01*
X357126Y350438D01*
X357100Y350483D01*
X357095Y350494D01*
X357089Y350506D01*
X357069Y350554D01*
X357065Y350566D01*
X357061Y350578D01*
X357047Y350628D01*
X357045Y350641D01*
X357042Y350654D01*
X357035Y350705D01*
X357035Y350718D01*
X357033Y350731D01*
X357033Y350783D01*
X357035Y350796D01*
X357035Y350809D01*
X357042Y350860D01*
X357045Y350872D01*
X357047Y350885D01*
X357060Y350935D01*
X357065Y350948D01*
X357068Y350960D01*
X357088Y351008D01*
X357094Y351019D01*
X357100Y351031D01*
X357126Y351076D01*
X357133Y351087D01*
X357140Y351098D01*
X357172Y351139D01*
X357180Y351148D01*
X357189Y351158D01*
X357225Y351195D01*
X357235Y351203D01*
X357244Y351212D01*
X357286Y351244D01*
X357297Y351251D01*
X357307Y351258D01*
X357352Y351284D01*
X357364Y351289D01*
X357375Y351295D01*
X357423Y351315D01*
X357436Y351319D01*
X357448Y351324D01*
X357498Y351337D01*
X357510Y351339D01*
X357523Y351342D01*
X357575Y351349D01*
X357588Y351349D01*
X357600Y351351D01*
X357652Y351351D01*
X357665Y351350D01*
X357678Y351349D01*
X357730Y351342D01*
X357742Y351340D01*
X357755Y351337D01*
X357805Y351324D01*
X357817Y351320D01*
X357829Y351316D01*
X357877Y351296D01*
X357889Y351290D01*
X357901Y351285D01*
X357946Y351259D01*
X357956Y351251D01*
X357967Y351244D01*
X358008Y351213D01*
X358018Y351204D01*
X358028Y351196D01*
X358046Y351177D01*
X358046Y351177D01*
X359214Y350012D01*
X357566Y352869D01*
X357566Y352869D01*
X357551Y352895D01*
X357547Y352905D01*
X357541Y352915D01*
X357518Y352969D01*
X357514Y352979D01*
X357510Y352990D01*
X357492Y353046D01*
X357490Y353057D01*
X357487Y353068D01*
X357476Y353126D01*
X357475Y353137D01*
X357473Y353148D01*
X357469Y353207D01*
X357469Y353218D01*
X357469Y353229D01*
X357471Y353288D01*
X357472Y353299D01*
X357473Y353310D01*
X357482Y353369D01*
X357484Y353380D01*
X357486Y353391D01*
X357502Y353448D01*
X357505Y353458D01*
X357508Y353469D01*
X357530Y353524D01*
X357535Y353534D01*
X357539Y353544D01*
X357567Y353596D01*
X357573Y353606D01*
X357579Y353616D01*
X357612Y353664D01*
X357619Y353673D01*
X357626Y353682D01*
X357664Y353727D01*
X357672Y353735D01*
X357680Y353743D01*
X357723Y353783D01*
X357732Y353790D01*
X357740Y353797D01*
X357788Y353833D01*
X357797Y353838D01*
X357806Y353845D01*
X357858Y353874D01*
X357868Y353879D01*
X357877Y353884D01*
X357932Y353908D01*
X357942Y353911D01*
X357952Y353916D01*
X358009Y353933D01*
X358020Y353935D01*
X358031Y353938D01*
X358089Y353949D01*
X358100Y353950D01*
X358111Y353952D01*
X358170Y353957D01*
X358181Y353956D01*
X358192Y353957D01*
X358251Y353955D01*
X358262Y353953D01*
X358273Y353953D01*
X358332Y353944D01*
X358343Y353941D01*
X358354Y353939D01*
X358411Y353924D01*
X358421Y353920D01*
X358432Y353917D01*
X358487Y353895D01*
X358497Y353890D01*
X358507Y353886D01*
X358559Y353858D01*
X358569Y353852D01*
X358578Y353847D01*
X358627Y353814D01*
X358636Y353806D01*
X358645Y353800D01*
X358690Y353761D01*
X358698Y353753D01*
X358706Y353746D01*
X358746Y353702D01*
X358753Y353694D01*
X358760Y353685D01*
X358795Y353638D01*
X358801Y353628D01*
X358807Y353619D01*
X358822Y353594D01*
X358822Y353593D01*
X360489Y350704D01*
X360048Y352342D01*
X360048Y352342D01*
X360041Y352367D01*
X360039Y352380D01*
X360036Y352393D01*
X360030Y352444D01*
X360029Y352457D01*
X360028Y352470D01*
X360028Y352522D01*
X360029Y352535D01*
X360030Y352548D01*
X360036Y352599D01*
X360039Y352612D01*
X360041Y352625D01*
X360055Y352675D01*
X360059Y352687D01*
X360063Y352699D01*
X360083Y352747D01*
X360089Y352759D01*
X360094Y352770D01*
X360120Y352815D01*
X360128Y352826D01*
X360134Y352837D01*
X360166Y352878D01*
X360175Y352887D01*
X360183Y352897D01*
X360220Y352934D01*
X360230Y352942D01*
X360239Y352951D01*
X360280Y352983D01*
X360291Y352990D01*
X360302Y352997D01*
X360347Y353023D01*
X360358Y353028D01*
X360370Y353035D01*
X360418Y353054D01*
X360430Y353058D01*
X360442Y353063D01*
X360492Y353076D01*
X360505Y353078D01*
X360518Y353081D01*
X360569Y353088D01*
X360582Y353089D01*
X360595Y353090D01*
X360647Y353090D01*
X360660Y353089D01*
X360673Y353088D01*
X360724Y353082D01*
X360737Y353079D01*
X360749Y353077D01*
X360800Y353063D01*
X360812Y353059D01*
X360824Y353055D01*
X360872Y353035D01*
X360883Y353029D01*
X360895Y353024D01*
X360940Y352998D01*
X360951Y352990D01*
X360962Y352983D01*
X361003Y352952D01*
X361012Y352943D01*
X361022Y352935D01*
X361059Y352898D01*
X361067Y352888D01*
X361076Y352879D01*
X361108Y352838D01*
X361115Y352827D01*
X361122Y352816D01*
X361148Y352771D01*
X361153Y352759D01*
X361159Y352748D01*
X361179Y352700D01*
X361183Y352688D01*
X361188Y352676D01*
X361194Y352651D01*
Y352651D01*
X361194Y352651D01*
X361499Y351519D01*
Y356884D01*
Y356916D01*
X361500Y356926D01*
Y356935D01*
X361506Y357000D01*
X361508Y357009D01*
X361509Y357019D01*
X361522Y357082D01*
X361524Y357092D01*
X361526Y357101D01*
X361545Y357163D01*
X361549Y357172D01*
X361552Y357182D01*
X361576Y357241D01*
X361581Y357250D01*
X361585Y357259D01*
X361615Y357316D01*
X361621Y357324D01*
X361625Y357333D01*
X361661Y357386D01*
X361667Y357394D01*
X361673Y357402D01*
X361714Y357452D01*
X361721Y357459D01*
X361727Y357466D01*
X361773Y357512D01*
X361780Y357518D01*
X361787Y357525D01*
X361837Y357566D01*
X361845Y357572D01*
X361853Y357578D01*
X361906Y357614D01*
X361915Y357618D01*
X361923Y357624D01*
X361980Y357654D01*
X361989Y357658D01*
X361998Y357663D01*
X362057Y357687D01*
X362067Y357690D01*
X362076Y357694D01*
X362138Y357713D01*
X362147Y357715D01*
X362157Y357717D01*
X362220Y357730D01*
X362230Y357731D01*
X362239Y357733D01*
X362304Y357739D01*
X362314D01*
X362323Y357740D01*
X362388D01*
X362398Y357739D01*
D02*
G37*
G36*
X449969Y166897D02*
X449974Y166897D01*
X452264Y166797D01*
X452268Y166797D01*
X452272Y166797D01*
X454556Y166597D01*
X454560Y166596D01*
X454564Y166596D01*
X456837Y166297D01*
X456841Y166296D01*
X456846Y166295D01*
X457974Y166096D01*
X457974D01*
X457976Y166096D01*
X457979Y166095D01*
X457995Y166091D01*
X458012Y166086D01*
X458014Y166085D01*
X458016Y166084D01*
X458031Y166076D01*
X458046Y166068D01*
X458048Y166067D01*
X458050Y166066D01*
X458063Y166055D01*
X458077Y166044D01*
X458078Y166043D01*
X458080Y166041D01*
X458090Y166028D01*
X458102Y166015D01*
X458103Y166013D01*
X458104Y166011D01*
X458112Y165996D01*
X458121Y165981D01*
X458122Y165979D01*
X458123Y165977D01*
X458128Y165961D01*
X458133Y165944D01*
X458133Y165942D01*
X458134Y165940D01*
X458136Y165923D01*
X458138Y165906D01*
X458138Y165904D01*
X458138Y165902D01*
X458136Y165884D01*
X458135Y165867D01*
X453799Y141279D01*
X453795Y141263D01*
X453790Y141246D01*
X453789Y141244D01*
X453789Y141242D01*
X453781Y141227D01*
X453774Y141211D01*
X453772Y141209D01*
X453771Y141207D01*
X453761Y141194D01*
X453750Y141180D01*
X453749Y141179D01*
X453747Y141177D01*
X453734Y141166D01*
X453722Y141154D01*
X453720Y141153D01*
X453718Y141152D01*
X453703Y141143D01*
X453688Y141134D01*
X453686Y141134D01*
X453684Y141133D01*
X453668Y141127D01*
X453652Y141121D01*
X453649Y141121D01*
X453647Y141121D01*
X453630Y141118D01*
X453613Y141116D01*
X453611Y141116D01*
X453609Y141116D01*
X453591Y141117D01*
X453574Y141118D01*
X452392Y141300D01*
X450012Y141508D01*
X447625D01*
X445245Y141300D01*
X444063Y141118D01*
X444048Y141117D01*
X444033Y141116D01*
X444031Y141116D01*
X444029Y141116D01*
X444027Y141116D01*
X444025Y141116D01*
X444010Y141118D01*
X443995Y141120D01*
X443993Y141120D01*
X443991Y141121D01*
X443989Y141121D01*
X443986Y141121D01*
X443972Y141127D01*
X443958Y141131D01*
X443956Y141132D01*
X443954Y141133D01*
X443952Y141134D01*
X443950Y141134D01*
X443937Y141142D01*
X443923Y141149D01*
X443922Y141151D01*
X443920Y141152D01*
X443918Y141153D01*
X443916Y141154D01*
X443905Y141164D01*
X443893Y141174D01*
X443892Y141175D01*
X443890Y141177D01*
X443889Y141179D01*
X443888Y141180D01*
X443879Y141192D01*
X443869Y141204D01*
X443868Y141206D01*
X443866Y141207D01*
X443866Y141209D01*
X443864Y141211D01*
X443858Y141225D01*
X443851Y141238D01*
X443850Y141240D01*
X443849Y141242D01*
X443848Y141244D01*
X443847Y141246D01*
X443844Y141261D01*
X443839Y141275D01*
X443839Y141277D01*
X443839Y141279D01*
X439503Y165867D01*
X439500Y165903D01*
X439500Y165906D01*
D01*
Y165906D01*
X439505Y165944D01*
X439517Y165981D01*
X439536Y166015D01*
X439561Y166044D01*
X439592Y166068D01*
X439626Y166086D01*
X439664Y166096D01*
X439664Y166096D01*
X440792Y166295D01*
X440797Y166296D01*
X440801Y166297D01*
X443073Y166596D01*
X443078Y166596D01*
X443082Y166597D01*
X445365Y166797D01*
X445370Y166797D01*
X445374Y166797D01*
X447664Y166897D01*
X447669Y166897D01*
X447673Y166897D01*
X449965D01*
X449969Y166897D01*
D02*
G37*
G36*
X408603Y148133D02*
X408641Y148125D01*
X408677Y148110D01*
X408709Y148088D01*
X418577Y139807D01*
X418583Y139801D01*
X418590Y139796D01*
X418597Y139787D01*
X418604Y139779D01*
X418609Y139772D01*
X418614Y139766D01*
X418620Y139756D01*
X418625Y139747D01*
X418629Y139739D01*
X418633Y139731D01*
X418636Y139721D01*
X418640Y139711D01*
X418642Y139703D01*
X418644Y139694D01*
X418645Y139684D01*
X418647Y139673D01*
X418647Y139664D01*
X418648Y139656D01*
X418647Y139645D01*
X418647Y139634D01*
X418645Y139626D01*
X418644Y139617D01*
X418641Y139607D01*
X418639Y139596D01*
X418635Y139588D01*
X418633Y139580D01*
X418628Y139571D01*
X418623Y139561D01*
X418618Y139553D01*
X418614Y139546D01*
X418608Y139538D01*
X418602Y139529D01*
X418595Y139523D01*
X418590Y139516D01*
X418581Y139509D01*
X418574Y139502D01*
X418567Y139497D01*
X418560Y139491D01*
X418550Y139486D01*
X418541Y139480D01*
X418533Y139477D01*
X418526Y139473D01*
X418515Y139470D01*
X418505Y139466D01*
X418497Y139464D01*
X418489Y139462D01*
X418478Y139461D01*
X418467Y139459D01*
X418459Y139459D01*
X418450Y139458D01*
X406201D01*
X406185Y139459D01*
X406170Y139460D01*
X405616Y139547D01*
X405106Y138662D01*
X404022Y136618D01*
X403034Y134527D01*
X402143Y132391D01*
X401735Y131308D01*
X401726Y131291D01*
X401719Y131275D01*
X401718Y131274D01*
X401718Y131273D01*
X401706Y131258D01*
X401695Y131244D01*
X401695Y131244D01*
X401694Y131243D01*
X401680Y131230D01*
X401667Y131218D01*
X401666Y131218D01*
X401665Y131217D01*
X401649Y131208D01*
X401633Y131199D01*
X401632Y131198D01*
X401631Y131198D01*
X401613Y131192D01*
X401597Y131186D01*
X401596Y131186D01*
X401594Y131185D01*
X401576Y131183D01*
X401558Y131180D01*
X401557Y131180D01*
X401556Y131180D01*
X401538Y131181D01*
X401519Y131182D01*
X401518Y131183D01*
X401517Y131183D01*
X401500Y131187D01*
X401482Y131192D01*
X399393Y131952D01*
X399393Y131952D01*
X399389Y131954D01*
X399385Y131956D01*
X399371Y131963D01*
X399358Y131969D01*
X399354Y131972D01*
X399351Y131974D01*
X399339Y131983D01*
X399327Y131992D01*
X399324Y131996D01*
X399321Y131998D01*
X399311Y132010D01*
X399301Y132021D01*
X399299Y132025D01*
X399296Y132028D01*
X399289Y132042D01*
X399281Y132055D01*
X399280Y132059D01*
X399278Y132063D01*
X399273Y132077D01*
X399268Y132091D01*
X399268Y132096D01*
X399266Y132100D01*
X399265Y132115D01*
X399263Y132130D01*
X399263Y132134D01*
X399263Y132138D01*
X399264Y132153D01*
X399265Y132168D01*
X399266Y132173D01*
X399266Y132177D01*
X399271Y132191D01*
X399274Y132206D01*
X399667Y133283D01*
X399668Y133287D01*
X399670Y133291D01*
X400547Y135409D01*
X400549Y135413D01*
X400550Y135417D01*
X401519Y137494D01*
X401521Y137498D01*
X401523Y137502D01*
X402581Y139535D01*
X402584Y139539D01*
X402586Y139543D01*
X403732Y141528D01*
X403734Y141531D01*
X403736Y141535D01*
X404968Y143468D01*
X404970Y143472D01*
X404973Y143476D01*
X406287Y145353D01*
X406290Y145357D01*
X406292Y145360D01*
X407688Y147179D01*
X407691Y147182D01*
X407693Y147186D01*
X408430Y148064D01*
X408458Y148091D01*
X408490Y148112D01*
X408526Y148126D01*
X408564Y148134D01*
X408603Y148133D01*
D02*
G37*
G36*
X489065Y148133D02*
X489074Y148134D01*
X489084Y148132D01*
X489095Y148130D01*
X489103Y148128D01*
X489112Y148126D01*
X489122Y148122D01*
X489132Y148119D01*
X489140Y148115D01*
X489148Y148112D01*
X489157Y148106D01*
X489166Y148101D01*
X489173Y148095D01*
X489180Y148091D01*
X489188Y148083D01*
X489196Y148076D01*
X489202Y148070D01*
X489208Y148064D01*
X489945Y147186D01*
X489947Y147182D01*
X489950Y147179D01*
X491345Y145360D01*
X491348Y145357D01*
X491351Y145353D01*
X492665Y143476D01*
X492667Y143472D01*
X492670Y143468D01*
X493902Y141535D01*
X493904Y141531D01*
X493906Y141528D01*
X495052Y139543D01*
X495054Y139539D01*
X495056Y139535D01*
X496115Y137502D01*
X496116Y137498D01*
X496119Y137494D01*
X497087Y135417D01*
X497089Y135413D01*
X497091Y135409D01*
X497968Y133291D01*
X497969Y133287D01*
X497971Y133283D01*
X498363Y132206D01*
X498373Y132168D01*
X498375Y132130D01*
X498370Y132091D01*
X498357Y132055D01*
X498337Y132021D01*
X498311Y131992D01*
X498280Y131969D01*
X498245Y131952D01*
X490249Y129042D01*
X490235Y129038D01*
X490220Y129034D01*
X490218Y129034D01*
X490216Y129033D01*
X490214Y129033D01*
X490211Y129033D01*
X490197Y129032D01*
X490181Y129030D01*
X490180Y129030D01*
X490178Y129030D01*
X490175Y129031D01*
X490173Y129030D01*
X490158Y129032D01*
X490143Y129034D01*
X490141Y129034D01*
X490139Y129035D01*
X490137Y129035D01*
X490134Y129036D01*
X490120Y129041D01*
X490106Y129045D01*
X490104Y129046D01*
X490102Y129047D01*
X490100Y129048D01*
X490098Y129049D01*
X490085Y129056D01*
X490071Y129063D01*
X490070Y129065D01*
X490069Y129066D01*
X489132Y129716D01*
X487184Y130895D01*
X485145Y131906D01*
X483029Y132743D01*
X480850Y133399D01*
X478624Y133870D01*
X476366Y134153D01*
X474090Y134246D01*
X472951Y134221D01*
X472940Y134222D01*
X472929Y134221D01*
X472921Y134223D01*
X472912Y134224D01*
X472902Y134227D01*
X472891Y134229D01*
X472883Y134232D01*
X472875Y134234D01*
X472865Y134239D01*
X472855Y134243D01*
X472848Y134248D01*
X472840Y134252D01*
X472832Y134258D01*
X472823Y134264D01*
X472816Y134270D01*
X472810Y134276D01*
X472802Y134284D01*
X472795Y134291D01*
X472790Y134299D01*
X472784Y134305D01*
X472779Y134314D01*
X472773Y134323D01*
X472769Y134331D01*
X472765Y134339D01*
X472762Y134349D01*
X472758Y134359D01*
X472756Y134367D01*
X472753Y134376D01*
X472752Y134386D01*
X472750Y134397D01*
X472750Y134406D01*
X472749Y134414D01*
X472749Y134425D01*
X472749Y134436D01*
X472751Y134444D01*
X472752Y134453D01*
X472754Y134463D01*
X472756Y134474D01*
X472760Y134482D01*
X472762Y134490D01*
X472767Y134500D01*
X472771Y134510D01*
X472776Y134517D01*
X472779Y134525D01*
X472786Y134533D01*
X472792Y134542D01*
X472798Y134548D01*
X472803Y134555D01*
X472812Y134562D01*
X472819Y134570D01*
X488929Y148088D01*
X488929Y148088D01*
X488938Y148094D01*
X488946Y148101D01*
X488954Y148105D01*
X488961Y148110D01*
X488971Y148114D01*
X488981Y148119D01*
X488989Y148122D01*
X488997Y148125D01*
X489007Y148127D01*
X489018Y148130D01*
X489026Y148131D01*
X489035Y148133D01*
X489046Y148133D01*
X489056Y148134D01*
X489065Y148133D01*
D02*
G37*
G36*
X414070Y101716D02*
X414079Y101715D01*
X414089Y101713D01*
X414099Y101711D01*
X414108Y101708D01*
X414117Y101706D01*
X414126Y101702D01*
X414136Y101699D01*
X414144Y101694D01*
X414152Y101690D01*
X414160Y101684D01*
X414169Y101679D01*
X414176Y101673D01*
X414183Y101667D01*
X414190Y101660D01*
X414198Y101653D01*
X414204Y101646D01*
X414210Y101639D01*
X414215Y101630D01*
X414221Y101622D01*
X414225Y101614D01*
X414230Y101606D01*
X414467Y101120D01*
X415074Y100234D01*
X415838Y99487D01*
X416734Y98904D01*
X417727Y98506D01*
X418778Y98310D01*
X419847Y98322D01*
X420897Y98544D01*
X421404Y98732D01*
X421406Y98733D01*
X421408Y98734D01*
X421424Y98738D01*
X421441Y98742D01*
X421444Y98742D01*
X421446Y98743D01*
X421462Y98743D01*
X421480Y98744D01*
X421482Y98744D01*
X421484Y98744D01*
X421501Y98742D01*
X421519Y98739D01*
X421520Y98738D01*
X421523Y98738D01*
X421539Y98732D01*
X421555Y98727D01*
X421557Y98725D01*
X421559Y98725D01*
X421573Y98716D01*
X421589Y98707D01*
X421590Y98706D01*
X421592Y98704D01*
X421605Y98693D01*
X421618Y98681D01*
X421619Y98680D01*
X421621Y98678D01*
X421631Y98664D01*
X421641Y98650D01*
X421642Y98649D01*
X421643Y98647D01*
X421998Y98042D01*
X422747Y96857D01*
X423548Y95709D01*
X424400Y94596D01*
X424844Y94053D01*
X424850Y94045D01*
X424856Y94038D01*
X424860Y94030D01*
X424865Y94023D01*
X424865Y94022D01*
X424866Y94021D01*
X424870Y94012D01*
X424874Y94004D01*
X424877Y93995D01*
X424880Y93987D01*
X424880Y93986D01*
X424881Y93985D01*
X424883Y93976D01*
X424886Y93967D01*
X424886Y93958D01*
X424888Y93950D01*
X424888Y93948D01*
X424888Y93947D01*
Y93938D01*
X424889Y93928D01*
X424889Y93919D01*
X424889Y93911D01*
X424888Y93910D01*
Y93909D01*
X424887Y93899D01*
X424886Y93889D01*
X424883Y93881D01*
X424881Y93873D01*
X424881Y93871D01*
X424881Y93871D01*
X424877Y93862D01*
X424874Y93852D01*
X424870Y93845D01*
X424867Y93837D01*
X424866Y93836D01*
X424866Y93835D01*
X424861Y93827D01*
X424856Y93818D01*
X424851Y93811D01*
X424846Y93804D01*
X424845Y93803D01*
X424844Y93802D01*
X424838Y93796D01*
X424831Y93788D01*
X424825Y93783D01*
X424819Y93776D01*
X408709Y80259D01*
X408677Y80237D01*
X408641Y80221D01*
X408603Y80213D01*
X408564Y80213D01*
X408526Y80220D01*
X408490Y80235D01*
X408458Y80256D01*
X408430Y80283D01*
X408430Y80283D01*
X407693Y81161D01*
X407691Y81164D01*
X407688Y81168D01*
X406292Y82986D01*
X406290Y82990D01*
X406287Y82993D01*
X404973Y84871D01*
X404970Y84875D01*
X404968Y84878D01*
X403736Y86811D01*
X403734Y86815D01*
X403732Y86819D01*
X402586Y88804D01*
X402584Y88808D01*
X402581Y88811D01*
X401523Y90845D01*
X401521Y90849D01*
X401519Y90852D01*
X400550Y92930D01*
X400549Y92934D01*
X400547Y92938D01*
X399670Y95056D01*
X399668Y95060D01*
X399667Y95064D01*
X399274Y96140D01*
X399271Y96155D01*
X399266Y96170D01*
X399266Y96174D01*
X399265Y96178D01*
X399264Y96193D01*
X399263Y96208D01*
X399263Y96213D01*
X399263Y96217D01*
X399265Y96232D01*
X399266Y96247D01*
X399268Y96251D01*
X399268Y96255D01*
X399273Y96270D01*
X399278Y96284D01*
X399280Y96288D01*
X399281Y96292D01*
X399289Y96305D01*
X399296Y96318D01*
X399299Y96321D01*
X399301Y96325D01*
X399311Y96336D01*
X399321Y96348D01*
X399321D01*
X399324Y96351D01*
X399327Y96354D01*
D01*
X399327Y96354D01*
X399339Y96363D01*
X399351Y96373D01*
X399354Y96375D01*
X399358Y96377D01*
X399372Y96384D01*
X399385Y96391D01*
X399389Y96392D01*
X399393Y96394D01*
X413985Y101705D01*
X413993Y101707D01*
X414002Y101710D01*
X414012Y101712D01*
X414022Y101715D01*
X414031Y101715D01*
X414040Y101717D01*
X414050Y101716D01*
X414061Y101717D01*
X414070Y101716D01*
D02*
G37*
G36*
X494520Y97741D02*
X494535Y97740D01*
X494539Y97739D01*
X494543Y97739D01*
X494558Y97734D01*
X494573Y97731D01*
X498245Y96394D01*
X498249Y96392D01*
X498253Y96391D01*
X498266Y96384D01*
X498280Y96377D01*
X498283Y96375D01*
X498287Y96373D01*
X498299Y96363D01*
X498311Y96354D01*
X498314Y96351D01*
X498317Y96348D01*
X498327Y96336D01*
X498337Y96325D01*
X498339Y96321D01*
X498342Y96318D01*
X498349Y96305D01*
X498357Y96292D01*
X498358Y96288D01*
X498360Y96284D01*
X498364Y96270D01*
X498370Y96255D01*
X498370Y96251D01*
X498371Y96247D01*
X498373Y96232D01*
X498375Y96217D01*
Y96217D01*
Y96217D01*
X498375Y96213D01*
X498375Y96208D01*
Y96208D01*
X498374Y96193D01*
X498373Y96178D01*
X498372Y96174D01*
X498371Y96170D01*
X498367Y96155D01*
X498363Y96140D01*
X497971Y95064D01*
X497969Y95060D01*
X497968Y95056D01*
X497091Y92938D01*
X497089Y92934D01*
X497087Y92930D01*
X496119Y90852D01*
X496116Y90849D01*
X496115Y90845D01*
X495056Y88811D01*
X495054Y88808D01*
X495052Y88804D01*
X493906Y86819D01*
X493904Y86815D01*
X493902Y86811D01*
X492670Y84878D01*
X492667Y84875D01*
X492665Y84871D01*
X491351Y82993D01*
X491348Y82990D01*
X491345Y82986D01*
X489950Y81168D01*
X489947Y81164D01*
X489945Y81161D01*
X489208Y80283D01*
X489180Y80256D01*
X489148Y80235D01*
X489112Y80220D01*
X489074Y80213D01*
X489035Y80213D01*
X488997Y80221D01*
X488961Y80237D01*
X488929Y80259D01*
X472820Y93776D01*
X472820Y93776D01*
X472820Y93776D01*
X472819Y93776D01*
X472813Y93783D01*
X472806Y93788D01*
X472800Y93796D01*
X472793Y93803D01*
X472792Y93804D01*
X472792Y93804D01*
X472787Y93811D01*
X472782Y93818D01*
X472777Y93827D01*
X472771Y93836D01*
X472771Y93836D01*
X472771Y93837D01*
X472768Y93845D01*
X472763Y93852D01*
X472761Y93862D01*
X472757Y93871D01*
X472757Y93872D01*
X472756Y93873D01*
X472755Y93881D01*
X472752Y93889D01*
X472751Y93900D01*
X472749Y93910D01*
Y93910D01*
X472749Y93911D01*
X472749Y93919D01*
X472749Y93928D01*
X472750Y93938D01*
X472750Y93948D01*
X472750Y93949D01*
X472750Y93950D01*
X472751Y93958D01*
X472752Y93967D01*
X472755Y93976D01*
X472757Y93986D01*
X472757Y93987D01*
X472758Y93987D01*
X472761Y93995D01*
X472763Y94004D01*
X472768Y94013D01*
X472772Y94022D01*
X472773Y94023D01*
X472773Y94023D01*
X472778Y94030D01*
X472782Y94038D01*
X472788Y94046D01*
X472794Y94054D01*
X473030Y94339D01*
X473491Y94915D01*
X473938Y95503D01*
X474372Y96100D01*
X474583Y96403D01*
X474587Y96407D01*
X474590Y96412D01*
X474598Y96420D01*
X474606Y96430D01*
X474607Y96431D01*
X474609Y96433D01*
X474613Y96436D01*
X474616Y96440D01*
X474626Y96447D01*
X474636Y96455D01*
X474638Y96456D01*
X474639Y96457D01*
X474644Y96459D01*
X474648Y96462D01*
X474659Y96467D01*
X474670Y96473D01*
X474672Y96473D01*
X474674Y96474D01*
X474679Y96476D01*
X474684Y96478D01*
X474695Y96481D01*
X474707Y96484D01*
X474709Y96484D01*
X474711Y96485D01*
X474716Y96485D01*
X474721Y96486D01*
X474733Y96487D01*
X474746Y96488D01*
X474748Y96488D01*
X474750Y96488D01*
X474755Y96487D01*
X474760Y96487D01*
X477233Y96305D01*
X482187Y96232D01*
X487131Y96546D01*
X492036Y97245D01*
X494466Y97739D01*
X494482Y97740D01*
X494497Y97742D01*
X494501Y97742D01*
X494504Y97742D01*
X494520Y97741D01*
D02*
G37*
G36*
X444048Y87229D02*
X444063Y87228D01*
X445245Y87046D01*
X447625Y86838D01*
X450012D01*
X452392Y87046D01*
X453574Y87228D01*
X453591Y87229D01*
X453609Y87231D01*
X453611Y87230D01*
X453613Y87230D01*
X453630Y87228D01*
X453647Y87226D01*
X453649Y87225D01*
X453652Y87225D01*
X453668Y87219D01*
X453684Y87214D01*
X453686Y87213D01*
X453688Y87212D01*
X453703Y87203D01*
X453718Y87195D01*
X453720Y87194D01*
X453722Y87192D01*
X453734Y87181D01*
X453747Y87170D01*
X453749Y87168D01*
X453750Y87167D01*
X453761Y87153D01*
X453771Y87139D01*
X453772Y87137D01*
X453774Y87135D01*
X453781Y87120D01*
X453789Y87104D01*
X453789Y87102D01*
X453790Y87100D01*
X453795Y87084D01*
X453799Y87067D01*
X458135Y62479D01*
X458136Y62462D01*
X458138Y62445D01*
X458138Y62443D01*
X458138Y62441D01*
X458136Y62424D01*
X458134Y62406D01*
X458133Y62404D01*
X458133Y62402D01*
X458128Y62386D01*
X458123Y62369D01*
X458122Y62367D01*
X458121Y62365D01*
X458112Y62350D01*
X458104Y62335D01*
X458103Y62334D01*
X458102Y62331D01*
X458091Y62318D01*
X458080Y62305D01*
X458078Y62304D01*
X458077Y62302D01*
X458063Y62292D01*
X458050Y62280D01*
X458048Y62279D01*
X458046Y62278D01*
X458031Y62270D01*
X458016Y62262D01*
X458014Y62262D01*
X458012Y62261D01*
X458001Y62258D01*
X457995Y62256D01*
X457979Y62251D01*
X457976Y62251D01*
X457974Y62250D01*
X456846Y62051D01*
X456841Y62051D01*
X456837Y62050D01*
X454564Y61751D01*
X454560Y61751D01*
X454556Y61750D01*
X452272Y61550D01*
X452268Y61550D01*
X452264Y61549D01*
X449974Y61449D01*
X449969Y61450D01*
X449965Y61449D01*
X447673D01*
X447669Y61450D01*
X447664Y61449D01*
X445374Y61549D01*
X445370Y61550D01*
X445365Y61550D01*
X443082Y61750D01*
X443078Y61751D01*
X443073Y61751D01*
X440801Y62050D01*
X440797Y62051D01*
X440792Y62051D01*
X439664Y62250D01*
X439664Y62250D01*
X439626Y62261D01*
X439592Y62278D01*
X439561Y62302D01*
X439536Y62331D01*
X439517Y62365D01*
X439505Y62402D01*
X439500Y62441D01*
Y62441D01*
D01*
X439500Y62443D01*
X439503Y62479D01*
X443839Y87067D01*
X443839Y87069D01*
X443839Y87071D01*
X443844Y87086D01*
X443847Y87100D01*
X443848Y87103D01*
X443849Y87104D01*
X443850Y87106D01*
X443851Y87108D01*
X443858Y87122D01*
X443864Y87135D01*
X443865Y87137D01*
X443866Y87139D01*
X443868Y87141D01*
X443869Y87143D01*
X443879Y87155D01*
X443888Y87167D01*
X443889Y87168D01*
X443890Y87170D01*
X443892Y87171D01*
X443893Y87173D01*
X443905Y87182D01*
X443916Y87192D01*
X443918Y87194D01*
X443920Y87195D01*
X443922Y87196D01*
X443923Y87197D01*
X443937Y87204D01*
X443950Y87212D01*
X443952Y87213D01*
X443954Y87214D01*
X443956Y87214D01*
X443958Y87216D01*
X443972Y87220D01*
X443986Y87225D01*
X443989Y87225D01*
X443991Y87226D01*
X443993Y87226D01*
X443995Y87227D01*
X444010Y87228D01*
X444025Y87230D01*
X444027Y87230D01*
X444029Y87231D01*
X444031Y87230D01*
X444033Y87231D01*
X444033D01*
X444048Y87229D01*
D02*
G37*
G36*
X48581Y24456D02*
X49255Y24575D01*
X49372Y23912D01*
X50038Y24029D01*
X50159Y23348D01*
X50278Y22671D01*
X50397Y21993D01*
X50518Y21312D01*
X50637Y20635D01*
X50756Y19961D01*
X50873Y19298D01*
X50991Y18627D01*
X48292Y18151D01*
X48174Y18822D01*
X47493Y18702D01*
X47611Y18031D01*
X44911Y17555D01*
X44793Y18226D01*
X44779Y18223D01*
X44897Y17553D01*
X38817Y16481D01*
X38699Y17151D01*
X38685Y17149D01*
X38803Y16478D01*
X36104Y16002D01*
X35986Y16673D01*
X35304Y16553D01*
X35423Y15882D01*
X32723Y15406D01*
X32605Y16077D01*
X32591Y16074D01*
X32709Y15404D01*
X30010Y14928D01*
X29892Y15598D01*
X29210Y15478D01*
X29329Y14808D01*
X26629Y14332D01*
X26511Y15002D01*
X25834Y14883D01*
X25717Y15546D01*
X25598Y16220D01*
X25479Y16897D01*
X25358Y17578D01*
X25239Y18256D01*
X25120Y18933D01*
X24999Y19614D01*
X24882Y20278D01*
X25560Y20397D01*
X25440Y21078D01*
X30179Y21914D01*
X30299Y21233D01*
X30973Y21351D01*
X31090Y20688D01*
X31093Y20689D01*
X30976Y21352D01*
X30856Y22033D01*
X36273Y22988D01*
X36393Y22307D01*
X37067Y22426D01*
X37184Y21763D01*
X37187Y21764D01*
X37070Y22427D01*
X36950Y23108D01*
X43041Y24182D01*
X43161Y23501D01*
X43164Y23501D01*
X43842Y23621D01*
X43722Y24302D01*
X48461Y25137D01*
X48581Y24456D01*
D02*
G37*
G36*
X48983Y16180D02*
X49661Y16299D01*
X49778Y15636D01*
X49898Y14955D01*
X50017Y14277D01*
X50137Y13600D01*
X50257Y12919D01*
X50938Y13039D01*
X51057Y12361D01*
X51731Y12480D01*
X51850Y11806D01*
X51967Y11143D01*
X52085Y10473D01*
X46672Y9518D01*
X46554Y10189D01*
X45877Y10069D01*
X45873Y10069D01*
X45991Y9398D01*
X41256Y8563D01*
X41138Y9234D01*
X40460Y9114D01*
X40343Y9777D01*
X40329Y9775D01*
X40446Y9112D01*
X39779Y8994D01*
X39897Y8324D01*
X35162Y7489D01*
X35044Y8159D01*
X34366Y8040D01*
X34249Y8703D01*
X34235Y8700D01*
X34352Y8037D01*
X33685Y7920D01*
X33803Y7249D01*
X29068Y6414D01*
X28950Y7085D01*
X28272Y6965D01*
X28155Y7628D01*
X27478Y7509D01*
X27359Y8183D01*
X27239Y8860D01*
X27119Y9541D01*
X27797Y9661D01*
X27677Y10338D01*
X27000Y10219D01*
X26880Y10896D01*
X26760Y11577D01*
X26643Y12241D01*
X27321Y12360D01*
X27201Y13041D01*
X31940Y13877D01*
X32060Y13196D01*
X32734Y13315D01*
X32851Y12651D01*
X32854Y12652D01*
X32737Y13315D01*
X33415Y13435D01*
X33295Y14116D01*
X38034Y14951D01*
X38154Y14270D01*
X38828Y14389D01*
X38945Y13726D01*
X38948Y13727D01*
X38831Y14390D01*
X39509Y14509D01*
X39389Y15190D01*
X44128Y16026D01*
X44248Y15345D01*
X44922Y15464D01*
X45039Y14800D01*
X45705Y14918D01*
X45825Y14237D01*
X45945Y13559D01*
X46064Y12882D01*
X46185Y12201D01*
X46876Y12323D01*
X46756Y13004D01*
X46637Y13681D01*
X45959Y13562D01*
X45840Y14240D01*
X45720Y14921D01*
X45603Y15584D01*
X46280Y15703D01*
X46160Y16384D01*
X48863Y16861D01*
X48983Y16180D01*
D02*
G37*
G36*
X1005337Y-155808D02*
X1005050D01*
Y-156094D01*
X1004764D01*
Y-156380D01*
Y-156667D01*
X1004478D01*
Y-156953D01*
X1004192D01*
Y-157239D01*
X1003905D01*
Y-157526D01*
Y-157812D01*
X1003619D01*
Y-158098D01*
X1003333D01*
Y-158385D01*
X1003046D01*
Y-158671D01*
X1002760D01*
Y-158957D01*
Y-159244D01*
X1002474D01*
Y-159530D01*
X1002187D01*
Y-159816D01*
X1001901D01*
Y-160102D01*
Y-160389D01*
X1001615D01*
Y-160675D01*
X1001328D01*
Y-160961D01*
X1001042D01*
Y-161248D01*
X1000756D01*
Y-161534D01*
Y-161820D01*
X1000469D01*
Y-162107D01*
X1000183D01*
Y-162393D01*
X999897D01*
Y-162679D01*
Y-162966D01*
X999611D01*
Y-163252D01*
X999324D01*
Y-163538D01*
X999038D01*
Y-163824D01*
Y-164111D01*
X998752D01*
Y-164397D01*
X998465D01*
Y-164683D01*
X998179D01*
Y-164970D01*
X997893D01*
Y-165256D01*
Y-165542D01*
X997606D01*
Y-165829D01*
X997320D01*
Y-166115D01*
X997034D01*
Y-166401D01*
Y-166688D01*
X996747D01*
Y-166974D01*
X996461D01*
Y-167260D01*
X996175D01*
Y-167547D01*
Y-167833D01*
X995889D01*
Y-168119D01*
X995602D01*
Y-168405D01*
X995316D01*
Y-168692D01*
X995030D01*
Y-168978D01*
Y-169264D01*
X994743D01*
Y-169551D01*
X994457D01*
Y-169837D01*
X994171D01*
Y-170123D01*
Y-170410D01*
X993884D01*
Y-170696D01*
X993598D01*
Y-170982D01*
X993312D01*
Y-171269D01*
Y-171555D01*
X993025D01*
Y-171841D01*
X992739D01*
Y-172127D01*
X992453D01*
Y-172414D01*
X992166D01*
Y-172700D01*
Y-172986D01*
X991880D01*
Y-173273D01*
X991594D01*
Y-173559D01*
X991308D01*
Y-173845D01*
Y-174132D01*
X991021D01*
Y-174418D01*
X990735D01*
Y-174704D01*
X990449D01*
Y-174991D01*
X990162D01*
Y-175277D01*
Y-175563D01*
X990449D01*
Y-175850D01*
Y-176136D01*
X990735D01*
Y-176422D01*
Y-176709D01*
X991021D01*
Y-176995D01*
X991308D01*
Y-177281D01*
Y-177568D01*
X991594D01*
Y-177854D01*
Y-178140D01*
X991880D01*
Y-178426D01*
Y-178713D01*
X992166D01*
Y-178999D01*
Y-179285D01*
X992453D01*
Y-179572D01*
Y-179858D01*
X992739D01*
Y-180144D01*
Y-180431D01*
X993025D01*
Y-180717D01*
Y-181003D01*
X993312D01*
Y-181290D01*
Y-181576D01*
X993598D01*
Y-181862D01*
X993884D01*
Y-182149D01*
Y-182435D01*
X994171D01*
Y-182721D01*
Y-183007D01*
X994457D01*
Y-183294D01*
Y-183580D01*
X994743D01*
Y-183866D01*
Y-184153D01*
X995030D01*
Y-184439D01*
Y-184725D01*
X995316D01*
Y-185012D01*
Y-185298D01*
X995602D01*
Y-185584D01*
Y-185871D01*
X995889D01*
Y-186157D01*
X996175D01*
Y-186443D01*
Y-186730D01*
X996461D01*
Y-187016D01*
Y-187302D01*
X996747D01*
Y-187588D01*
Y-187875D01*
X997034D01*
Y-188161D01*
Y-188447D01*
X997320D01*
Y-188734D01*
Y-189020D01*
X997606D01*
Y-189306D01*
Y-189593D01*
X997893D01*
Y-189879D01*
Y-190165D01*
X998179D01*
Y-190452D01*
X998465D01*
Y-190738D01*
Y-191024D01*
X998752D01*
Y-191311D01*
Y-191597D01*
X999038D01*
Y-191883D01*
X983863D01*
Y-191597D01*
X983577D01*
Y-191311D01*
Y-191024D01*
Y-190738D01*
X983291D01*
Y-190452D01*
Y-190165D01*
Y-189879D01*
X983004D01*
Y-189593D01*
Y-189306D01*
X982718D01*
Y-189020D01*
Y-188734D01*
Y-188447D01*
X982432D01*
Y-188161D01*
Y-187875D01*
Y-187588D01*
X982146D01*
Y-187302D01*
Y-187016D01*
X981859D01*
Y-186730D01*
Y-186443D01*
Y-186157D01*
X981573D01*
Y-185871D01*
Y-185584D01*
Y-185298D01*
X981287D01*
Y-185012D01*
Y-184725D01*
Y-184439D01*
X981000D01*
Y-184153D01*
X980428D01*
Y-184439D01*
Y-184725D01*
X980141D01*
Y-185012D01*
X979855D01*
Y-185298D01*
Y-185584D01*
X979569D01*
Y-185871D01*
X979282D01*
Y-186157D01*
Y-186443D01*
X978996D01*
Y-186730D01*
X978710D01*
Y-187016D01*
Y-187302D01*
X978423D01*
Y-187588D01*
X978137D01*
Y-187875D01*
X977851D01*
Y-188161D01*
Y-188447D01*
X977565D01*
Y-188734D01*
X977278D01*
Y-189020D01*
Y-189306D01*
X976992D01*
Y-189593D01*
X976705D01*
Y-189879D01*
Y-190165D01*
X976419D01*
Y-190452D01*
X976133D01*
Y-190738D01*
Y-191024D01*
X975847D01*
Y-191311D01*
X975560D01*
Y-191597D01*
Y-191883D01*
X959527D01*
Y-191597D01*
X959813D01*
Y-191311D01*
X960099D01*
Y-191024D01*
X960386D01*
Y-190738D01*
X960672D01*
Y-190452D01*
Y-190165D01*
X960958D01*
Y-189879D01*
X961245D01*
Y-189593D01*
X961531D01*
Y-189306D01*
X961817D01*
Y-189020D01*
Y-188734D01*
X962104D01*
Y-188447D01*
X962390D01*
Y-188161D01*
X962676D01*
Y-187875D01*
Y-187588D01*
X962963D01*
Y-187302D01*
X963249D01*
Y-187016D01*
X963535D01*
Y-186730D01*
X963822D01*
Y-186443D01*
Y-186157D01*
X964108D01*
Y-185871D01*
X964394D01*
Y-185584D01*
X964680D01*
Y-185298D01*
X964967D01*
Y-185012D01*
Y-184725D01*
X965253D01*
Y-184439D01*
X965539D01*
Y-184153D01*
X965826D01*
Y-183866D01*
Y-183580D01*
X966112D01*
Y-183294D01*
X966398D01*
Y-183007D01*
X966685D01*
Y-182721D01*
X966971D01*
Y-182435D01*
Y-182149D01*
X967257D01*
Y-181862D01*
X967544D01*
Y-181576D01*
X967830D01*
Y-181290D01*
Y-181003D01*
X968116D01*
Y-180717D01*
X968402D01*
Y-180431D01*
X968689D01*
Y-180144D01*
X968975D01*
Y-179858D01*
Y-179572D01*
X969261D01*
Y-179285D01*
X969548D01*
Y-178999D01*
X969834D01*
Y-178713D01*
Y-178426D01*
X970120D01*
Y-178140D01*
X970407D01*
Y-177854D01*
X970693D01*
Y-177568D01*
X970979D01*
Y-177281D01*
Y-176995D01*
X971266D01*
Y-176709D01*
X971552D01*
Y-176422D01*
X971838D01*
Y-176136D01*
X972124D01*
Y-175850D01*
Y-175563D01*
X972411D01*
Y-175277D01*
X972697D01*
Y-174991D01*
X972983D01*
Y-174704D01*
Y-174418D01*
X973270D01*
Y-174132D01*
X973556D01*
Y-173845D01*
X973842D01*
Y-173559D01*
X974129D01*
Y-173273D01*
Y-172986D01*
X974415D01*
Y-172700D01*
Y-172414D01*
Y-172127D01*
X974129D01*
Y-171841D01*
X973842D01*
Y-171555D01*
Y-171269D01*
X973556D01*
Y-170982D01*
Y-170696D01*
X973270D01*
Y-170410D01*
Y-170123D01*
X972983D01*
Y-169837D01*
Y-169551D01*
X972697D01*
Y-169264D01*
Y-168978D01*
X972411D01*
Y-168692D01*
Y-168405D01*
X972124D01*
Y-168119D01*
X971838D01*
Y-167833D01*
Y-167547D01*
X971552D01*
Y-167260D01*
Y-166974D01*
X971266D01*
Y-166688D01*
Y-166401D01*
X970979D01*
Y-166115D01*
Y-165829D01*
X970693D01*
Y-165542D01*
Y-165256D01*
X970407D01*
Y-164970D01*
Y-164683D01*
X970120D01*
Y-164397D01*
X969834D01*
Y-164111D01*
Y-163824D01*
X969548D01*
Y-163538D01*
Y-163252D01*
X969261D01*
Y-162966D01*
Y-162679D01*
X968975D01*
Y-162393D01*
Y-162107D01*
X968689D01*
Y-161820D01*
Y-161534D01*
X968402D01*
Y-161248D01*
Y-160961D01*
X968116D01*
Y-160675D01*
Y-160389D01*
X967830D01*
Y-160102D01*
X967544D01*
Y-159816D01*
Y-159530D01*
X967257D01*
Y-159244D01*
Y-158957D01*
X966971D01*
Y-158671D01*
Y-158385D01*
X966685D01*
Y-158098D01*
Y-157812D01*
X966398D01*
Y-157526D01*
Y-157239D01*
X966112D01*
Y-156953D01*
Y-156667D01*
X965826D01*
Y-156380D01*
X965539D01*
Y-156094D01*
Y-155808D01*
X965253D01*
Y-155521D01*
X981000D01*
Y-155808D01*
X981287D01*
Y-156094D01*
Y-156380D01*
Y-156667D01*
X981573D01*
Y-156953D01*
Y-157239D01*
Y-157526D01*
X981859D01*
Y-157812D01*
Y-158098D01*
Y-158385D01*
X982146D01*
Y-158671D01*
Y-158957D01*
Y-159244D01*
X982432D01*
Y-159530D01*
Y-159816D01*
Y-160102D01*
X982718D01*
Y-160389D01*
Y-160675D01*
Y-160961D01*
X983004D01*
Y-161248D01*
Y-161534D01*
Y-161820D01*
X983291D01*
Y-162107D01*
Y-162393D01*
Y-162679D01*
X983577D01*
Y-162966D01*
Y-163252D01*
Y-163538D01*
Y-163824D01*
X984150D01*
Y-163538D01*
X984436D01*
Y-163252D01*
X984722D01*
Y-162966D01*
Y-162679D01*
X985009D01*
Y-162393D01*
X985295D01*
Y-162107D01*
Y-161820D01*
X985581D01*
Y-161534D01*
X985868D01*
Y-161248D01*
Y-160961D01*
X986154D01*
Y-160675D01*
X986440D01*
Y-160389D01*
Y-160102D01*
X986726D01*
Y-159816D01*
X987013D01*
Y-159530D01*
Y-159244D01*
X987299D01*
Y-158957D01*
X987585D01*
Y-158671D01*
Y-158385D01*
X987872D01*
Y-158098D01*
X988158D01*
Y-157812D01*
Y-157526D01*
X988444D01*
Y-157239D01*
X988731D01*
Y-156953D01*
Y-156667D01*
X989017D01*
Y-156380D01*
X989303D01*
Y-156094D01*
Y-155808D01*
X989590D01*
Y-155521D01*
X1005337D01*
Y-155808D01*
D02*
G37*
G36*
X872201Y-141778D02*
X873919D01*
Y-142065D01*
X874778D01*
Y-142351D01*
X875637D01*
Y-142637D01*
X876496D01*
Y-142924D01*
X877069D01*
Y-143210D01*
X877355D01*
Y-143496D01*
X877928D01*
Y-143783D01*
X878214D01*
Y-144069D01*
X878786D01*
Y-144355D01*
X879073D01*
Y-144641D01*
X879359D01*
Y-144928D01*
X879646D01*
Y-145214D01*
X879932D01*
Y-145501D01*
X880218D01*
Y-145787D01*
X880504D01*
Y-146073D01*
Y-146359D01*
X880791D01*
Y-146646D01*
X881077D01*
Y-146932D01*
Y-147218D01*
X881363D01*
Y-147505D01*
X881650D01*
Y-147791D01*
Y-148077D01*
X881936D01*
Y-148364D01*
Y-148650D01*
Y-148936D01*
X882222D01*
Y-149223D01*
Y-149509D01*
Y-149795D01*
X882509D01*
Y-150082D01*
Y-150368D01*
Y-150654D01*
Y-150940D01*
X882795D01*
Y-151227D01*
Y-151513D01*
Y-151799D01*
Y-152086D01*
Y-152372D01*
X883081D01*
Y-152658D01*
Y-152945D01*
Y-153231D01*
Y-153517D01*
Y-153804D01*
Y-154090D01*
Y-154376D01*
Y-154663D01*
Y-154949D01*
Y-155235D01*
Y-155521D01*
Y-155808D01*
Y-156094D01*
Y-156380D01*
Y-156667D01*
Y-156953D01*
Y-157239D01*
Y-157526D01*
Y-157812D01*
Y-158098D01*
X882795D01*
Y-158385D01*
Y-158671D01*
Y-158957D01*
Y-159244D01*
Y-159530D01*
Y-159816D01*
Y-160102D01*
X882509D01*
Y-160389D01*
Y-160675D01*
Y-160961D01*
Y-161248D01*
Y-161534D01*
X882222D01*
Y-161820D01*
Y-162107D01*
Y-162393D01*
Y-162679D01*
Y-162966D01*
X881936D01*
Y-163252D01*
Y-163538D01*
Y-163824D01*
X881650D01*
Y-164111D01*
Y-164397D01*
Y-164683D01*
Y-164970D01*
X881363D01*
Y-165256D01*
Y-165542D01*
Y-165829D01*
X881077D01*
Y-166115D01*
Y-166401D01*
X880791D01*
Y-166688D01*
Y-166974D01*
Y-167260D01*
X880504D01*
Y-167547D01*
Y-167833D01*
X880218D01*
Y-168119D01*
Y-168405D01*
X879932D01*
Y-168692D01*
Y-168978D01*
X879646D01*
Y-169264D01*
X879359D01*
Y-169551D01*
Y-169837D01*
X879073D01*
Y-170123D01*
X878786D01*
Y-170410D01*
X878500D01*
Y-170696D01*
Y-170982D01*
X878214D01*
Y-171269D01*
X877928D01*
Y-171555D01*
X877641D01*
Y-171841D01*
X877355D01*
Y-172127D01*
X877069D01*
Y-172414D01*
X876496D01*
Y-172700D01*
X876210D01*
Y-172986D01*
X875637D01*
Y-173273D01*
X875351D01*
Y-173559D01*
X874778D01*
Y-173845D01*
X873919D01*
Y-174132D01*
X873060D01*
Y-174418D01*
X872201D01*
Y-174704D01*
X870483D01*
Y-174991D01*
X865330D01*
Y-174704D01*
X862753D01*
Y-174418D01*
X860749D01*
Y-174132D01*
X859317D01*
Y-173845D01*
X857886D01*
Y-173559D01*
X856454D01*
Y-173845D01*
Y-174132D01*
Y-174418D01*
Y-174704D01*
Y-174991D01*
Y-175277D01*
Y-175563D01*
X856168D01*
Y-175850D01*
Y-176136D01*
Y-176422D01*
Y-176709D01*
Y-176995D01*
Y-177281D01*
X855882D01*
Y-177568D01*
Y-177854D01*
Y-178140D01*
Y-178426D01*
Y-178713D01*
Y-178999D01*
X855595D01*
Y-179285D01*
Y-179572D01*
Y-179858D01*
Y-180144D01*
Y-180431D01*
Y-180717D01*
Y-181003D01*
X855309D01*
Y-181290D01*
Y-181576D01*
Y-181862D01*
Y-182149D01*
Y-182435D01*
Y-182721D01*
X855023D01*
Y-183007D01*
Y-183294D01*
Y-183580D01*
Y-183866D01*
Y-184153D01*
Y-184439D01*
X854736D01*
Y-184725D01*
Y-185012D01*
Y-185298D01*
Y-185584D01*
Y-185871D01*
Y-186157D01*
Y-186443D01*
X854450D01*
Y-186730D01*
Y-187016D01*
Y-187302D01*
Y-187588D01*
Y-187875D01*
Y-188161D01*
X854164D01*
Y-188447D01*
Y-188734D01*
Y-189020D01*
Y-189306D01*
Y-189593D01*
Y-189879D01*
X853877D01*
Y-190165D01*
Y-190452D01*
Y-190738D01*
Y-191024D01*
Y-191311D01*
Y-191597D01*
Y-191883D01*
X840421D01*
Y-191597D01*
X840707D01*
Y-191311D01*
Y-191024D01*
Y-190738D01*
Y-190452D01*
Y-190165D01*
X840993D01*
Y-189879D01*
Y-189593D01*
Y-189306D01*
Y-189020D01*
Y-188734D01*
Y-188447D01*
Y-188161D01*
X841280D01*
Y-187875D01*
Y-187588D01*
Y-187302D01*
Y-187016D01*
Y-186730D01*
Y-186443D01*
X841566D01*
Y-186157D01*
Y-185871D01*
Y-185584D01*
Y-185298D01*
Y-185012D01*
Y-184725D01*
X841852D01*
Y-184439D01*
Y-184153D01*
Y-183866D01*
Y-183580D01*
Y-183294D01*
Y-183007D01*
Y-182721D01*
X842138D01*
Y-182435D01*
Y-182149D01*
Y-181862D01*
Y-181576D01*
Y-181290D01*
Y-181003D01*
X842425D01*
Y-180717D01*
Y-180431D01*
Y-180144D01*
Y-179858D01*
Y-179572D01*
Y-179285D01*
X842711D01*
Y-178999D01*
Y-178713D01*
Y-178426D01*
Y-178140D01*
Y-177854D01*
Y-177568D01*
X842997D01*
Y-177281D01*
Y-176995D01*
Y-176709D01*
Y-176422D01*
Y-176136D01*
Y-175850D01*
Y-175563D01*
X843284D01*
Y-175277D01*
Y-174991D01*
Y-174704D01*
Y-174418D01*
Y-174132D01*
Y-173845D01*
X843570D01*
Y-173559D01*
Y-173273D01*
Y-172986D01*
Y-172700D01*
Y-172414D01*
Y-172127D01*
X843856D01*
Y-171841D01*
Y-171555D01*
Y-171269D01*
Y-170982D01*
Y-170696D01*
Y-170410D01*
X844143D01*
Y-170123D01*
Y-169837D01*
Y-169551D01*
Y-169264D01*
Y-168978D01*
Y-168692D01*
Y-168405D01*
X844429D01*
Y-168119D01*
Y-167833D01*
Y-167547D01*
Y-167260D01*
Y-166974D01*
Y-166688D01*
X844715D01*
Y-166401D01*
Y-166115D01*
Y-165829D01*
Y-165542D01*
Y-165256D01*
Y-164970D01*
X845002D01*
Y-164683D01*
Y-164397D01*
Y-164111D01*
Y-163824D01*
Y-163538D01*
Y-163252D01*
Y-162966D01*
X845288D01*
Y-162679D01*
Y-162393D01*
Y-162107D01*
Y-161820D01*
Y-161534D01*
Y-161248D01*
X845574D01*
Y-160961D01*
Y-160675D01*
Y-160389D01*
Y-160102D01*
Y-159816D01*
Y-159530D01*
X845861D01*
Y-159244D01*
Y-158957D01*
Y-158671D01*
Y-158385D01*
Y-158098D01*
Y-157812D01*
X846147D01*
Y-157526D01*
Y-157239D01*
Y-156953D01*
Y-156667D01*
Y-156380D01*
Y-156094D01*
Y-155808D01*
X846433D01*
Y-155521D01*
Y-155235D01*
Y-154949D01*
Y-154663D01*
Y-154376D01*
Y-154090D01*
X846719D01*
Y-153804D01*
Y-153517D01*
Y-153231D01*
Y-152945D01*
Y-152658D01*
Y-152372D01*
X847006D01*
Y-152086D01*
Y-151799D01*
Y-151513D01*
Y-151227D01*
Y-150940D01*
Y-150654D01*
Y-150368D01*
X847292D01*
Y-150082D01*
Y-149795D01*
Y-149509D01*
Y-149223D01*
Y-148936D01*
Y-148650D01*
X847578D01*
Y-148364D01*
Y-148077D01*
Y-147791D01*
Y-147505D01*
Y-147218D01*
Y-146932D01*
X847865D01*
Y-146646D01*
Y-146359D01*
Y-146073D01*
Y-145787D01*
Y-145501D01*
Y-145214D01*
Y-144928D01*
X848151D01*
Y-144641D01*
Y-144355D01*
Y-144069D01*
Y-143783D01*
Y-143496D01*
Y-143210D01*
X848437D01*
Y-142924D01*
Y-142637D01*
Y-142351D01*
Y-142065D01*
Y-141778D01*
Y-141492D01*
X872201D01*
Y-141778D01*
D02*
G37*
G36*
X961245Y-155808D02*
Y-156094D01*
Y-156380D01*
Y-156667D01*
Y-156953D01*
Y-157239D01*
Y-157526D01*
Y-157812D01*
Y-158098D01*
Y-158385D01*
Y-158671D01*
Y-158957D01*
Y-159244D01*
Y-159530D01*
Y-159816D01*
Y-160102D01*
Y-160389D01*
Y-160675D01*
Y-160961D01*
Y-161248D01*
Y-161534D01*
X960958D01*
Y-161820D01*
Y-162107D01*
Y-162393D01*
Y-162679D01*
Y-162966D01*
X960672D01*
Y-163252D01*
Y-163538D01*
Y-163824D01*
Y-164111D01*
X960386D01*
Y-164397D01*
Y-164683D01*
Y-164970D01*
Y-165256D01*
X960099D01*
Y-165542D01*
Y-165829D01*
Y-166115D01*
X959813D01*
Y-166401D01*
Y-166688D01*
Y-166974D01*
X959527D01*
Y-167260D01*
Y-167547D01*
Y-167833D01*
X959241D01*
Y-168119D01*
Y-168405D01*
Y-168692D01*
X958954D01*
Y-168978D01*
Y-169264D01*
X958668D01*
Y-169551D01*
Y-169837D01*
X958381D01*
Y-170123D01*
Y-170410D01*
Y-170696D01*
X958095D01*
Y-170982D01*
Y-171269D01*
X957809D01*
Y-171555D01*
Y-171841D01*
Y-172127D01*
X957523D01*
Y-172414D01*
Y-172700D01*
X957236D01*
Y-172986D01*
Y-173273D01*
Y-173559D01*
X956950D01*
Y-173845D01*
Y-174132D01*
X956664D01*
Y-174418D01*
Y-174704D01*
Y-174991D01*
X956377D01*
Y-175277D01*
Y-175563D01*
X956091D01*
Y-175850D01*
Y-176136D01*
Y-176422D01*
X955805D01*
Y-176709D01*
Y-176995D01*
X955518D01*
Y-177281D01*
Y-177568D01*
Y-177854D01*
X955232D01*
Y-178140D01*
Y-178426D01*
X954946D01*
Y-178713D01*
Y-178999D01*
Y-179285D01*
X954659D01*
Y-179572D01*
Y-179858D01*
X954373D01*
Y-180144D01*
Y-180431D01*
Y-180717D01*
X954087D01*
Y-181003D01*
Y-181290D01*
X953800D01*
Y-181576D01*
Y-181862D01*
Y-182149D01*
X953514D01*
Y-182435D01*
Y-182721D01*
X953228D01*
Y-183007D01*
Y-183294D01*
Y-183580D01*
X952942D01*
Y-183866D01*
Y-184153D01*
X952655D01*
Y-184439D01*
Y-184725D01*
Y-185012D01*
X952369D01*
Y-185298D01*
Y-185584D01*
X952083D01*
Y-185871D01*
Y-186157D01*
Y-186443D01*
X951796D01*
Y-186730D01*
Y-187016D01*
X951510D01*
Y-187302D01*
Y-187588D01*
Y-187875D01*
X951224D01*
Y-188161D01*
Y-188447D01*
X950937D01*
Y-188734D01*
Y-189020D01*
Y-189306D01*
X950651D01*
Y-189593D01*
Y-189879D01*
X950365D01*
Y-190165D01*
Y-190452D01*
Y-190738D01*
X950078D01*
Y-191024D01*
Y-191311D01*
X949792D01*
Y-191597D01*
Y-191883D01*
Y-192169D01*
X949506D01*
Y-192456D01*
Y-192742D01*
X949220D01*
Y-193028D01*
Y-193315D01*
X948933D01*
Y-193601D01*
Y-193887D01*
X948647D01*
Y-194174D01*
Y-194460D01*
Y-194746D01*
X948361D01*
Y-195033D01*
X948074D01*
Y-195319D01*
Y-195605D01*
Y-195891D01*
X947788D01*
Y-196178D01*
X947502D01*
Y-196464D01*
Y-196750D01*
X947215D01*
Y-197037D01*
Y-197323D01*
X946929D01*
Y-197609D01*
Y-197896D01*
X946643D01*
Y-198182D01*
Y-198468D01*
X946356D01*
Y-198755D01*
X946070D01*
Y-199041D01*
Y-199327D01*
X945784D01*
Y-199614D01*
Y-199900D01*
X945497D01*
Y-200186D01*
X945211D01*
Y-200472D01*
X944925D01*
Y-200759D01*
Y-201045D01*
X944639D01*
Y-201331D01*
X944352D01*
Y-201618D01*
Y-201904D01*
X944066D01*
Y-202190D01*
X943780D01*
Y-202477D01*
X943493D01*
Y-202763D01*
Y-203049D01*
X943207D01*
Y-203336D01*
X942921D01*
Y-203622D01*
X942634D01*
Y-203908D01*
X942348D01*
Y-204195D01*
X942062D01*
Y-204481D01*
Y-204767D01*
X941775D01*
Y-205053D01*
X941489D01*
Y-205340D01*
X941203D01*
Y-205626D01*
X940916D01*
Y-205912D01*
X940630D01*
Y-206199D01*
X940344D01*
Y-206485D01*
X940057D01*
Y-206771D01*
X939485D01*
Y-207058D01*
X939199D01*
Y-207344D01*
X938912D01*
Y-207630D01*
X938626D01*
Y-207917D01*
X938340D01*
Y-208203D01*
X937767D01*
Y-208489D01*
X937481D01*
Y-208776D01*
X936908D01*
Y-209062D01*
X936622D01*
Y-209348D01*
X936049D01*
Y-209634D01*
X935763D01*
Y-209921D01*
X935190D01*
Y-210207D01*
X934618D01*
Y-210493D01*
X934045D01*
Y-210780D01*
X933472D01*
Y-211066D01*
X932900D01*
Y-211352D01*
X932041D01*
Y-211639D01*
X931468D01*
Y-211925D01*
X930609D01*
Y-212211D01*
X929464D01*
Y-212498D01*
X928319D01*
Y-212784D01*
X926601D01*
Y-213070D01*
X924597D01*
Y-213357D01*
X924310D01*
Y-213070D01*
Y-212784D01*
Y-212498D01*
Y-212211D01*
Y-211925D01*
Y-211639D01*
Y-211352D01*
Y-211066D01*
Y-210780D01*
Y-210493D01*
Y-210207D01*
Y-209921D01*
Y-209634D01*
Y-209348D01*
Y-209062D01*
Y-208776D01*
Y-208489D01*
Y-208203D01*
Y-207917D01*
Y-207630D01*
Y-207344D01*
Y-207058D01*
Y-206771D01*
Y-206485D01*
Y-206199D01*
Y-205912D01*
Y-205626D01*
Y-205340D01*
Y-205053D01*
Y-204767D01*
Y-204481D01*
Y-204195D01*
Y-203908D01*
X924883D01*
Y-203622D01*
X925455D01*
Y-203336D01*
X926028D01*
Y-203049D01*
X926601D01*
Y-202763D01*
X927173D01*
Y-202477D01*
X927746D01*
Y-202190D01*
X928032D01*
Y-201904D01*
X928605D01*
Y-201618D01*
X928891D01*
Y-201331D01*
X929464D01*
Y-201045D01*
X929750D01*
Y-200759D01*
X930037D01*
Y-200472D01*
X930609D01*
Y-200186D01*
X930896D01*
Y-199900D01*
X931182D01*
Y-199614D01*
X931468D01*
Y-199327D01*
X931754D01*
Y-199041D01*
X932041D01*
Y-198755D01*
X932327D01*
Y-198468D01*
X932613D01*
Y-198182D01*
X932900D01*
Y-197896D01*
X933186D01*
Y-197609D01*
X933472D01*
Y-197323D01*
X933759D01*
Y-197037D01*
Y-196750D01*
X934045D01*
Y-196464D01*
X934331D01*
Y-196178D01*
X934618D01*
Y-195891D01*
Y-195605D01*
X934904D01*
Y-195319D01*
X935190D01*
Y-195033D01*
Y-194746D01*
X935476D01*
Y-194460D01*
Y-194174D01*
X935763D01*
Y-193887D01*
X936049D01*
Y-193601D01*
Y-193315D01*
X936335D01*
Y-193028D01*
Y-192742D01*
X936622D01*
Y-192456D01*
Y-192169D01*
X934904D01*
Y-191883D01*
X932900D01*
Y-191597D01*
X931754D01*
Y-191311D01*
X931182D01*
Y-191024D01*
X930323D01*
Y-190738D01*
X929750D01*
Y-190452D01*
X929464D01*
Y-190165D01*
X928891D01*
Y-189879D01*
X928605D01*
Y-189593D01*
X928319D01*
Y-189306D01*
X928032D01*
Y-189020D01*
X927746D01*
Y-188734D01*
X927460D01*
Y-188447D01*
Y-188161D01*
X927173D01*
Y-187875D01*
X926887D01*
Y-187588D01*
Y-187302D01*
X926601D01*
Y-187016D01*
Y-186730D01*
X926315D01*
Y-186443D01*
Y-186157D01*
X926028D01*
Y-185871D01*
Y-185584D01*
Y-185298D01*
X925742D01*
Y-185012D01*
Y-184725D01*
Y-184439D01*
Y-184153D01*
X925455D01*
Y-183866D01*
Y-183580D01*
Y-183294D01*
Y-183007D01*
Y-182721D01*
Y-182435D01*
Y-182149D01*
X925169D01*
Y-181862D01*
Y-181576D01*
Y-181290D01*
Y-181003D01*
Y-180717D01*
Y-180431D01*
Y-180144D01*
Y-179858D01*
Y-179572D01*
Y-179285D01*
Y-178999D01*
Y-178713D01*
Y-178426D01*
Y-178140D01*
Y-177854D01*
X924883D01*
Y-177568D01*
Y-177281D01*
Y-176995D01*
Y-176709D01*
Y-176422D01*
Y-176136D01*
Y-175850D01*
Y-175563D01*
Y-175277D01*
Y-174991D01*
Y-174704D01*
Y-174418D01*
Y-174132D01*
Y-173845D01*
Y-173559D01*
X924597D01*
Y-173273D01*
Y-172986D01*
Y-172700D01*
Y-172414D01*
Y-172127D01*
Y-171841D01*
Y-171555D01*
Y-171269D01*
Y-170982D01*
Y-170696D01*
Y-170410D01*
Y-170123D01*
Y-169837D01*
Y-169551D01*
Y-169264D01*
Y-168978D01*
X924310D01*
Y-168692D01*
Y-168405D01*
Y-168119D01*
Y-167833D01*
Y-167547D01*
Y-167260D01*
Y-166974D01*
Y-166688D01*
Y-166401D01*
Y-166115D01*
Y-165829D01*
Y-165542D01*
Y-165256D01*
Y-164970D01*
Y-164683D01*
Y-164397D01*
X924024D01*
Y-164111D01*
Y-163824D01*
Y-163538D01*
Y-163252D01*
Y-162966D01*
Y-162679D01*
Y-162393D01*
Y-162107D01*
Y-161820D01*
Y-161534D01*
Y-161248D01*
Y-160961D01*
Y-160675D01*
Y-160389D01*
X923738D01*
Y-160102D01*
Y-159816D01*
Y-159530D01*
Y-159244D01*
Y-158957D01*
Y-158671D01*
Y-158385D01*
Y-158098D01*
Y-157812D01*
Y-157526D01*
Y-157239D01*
Y-156953D01*
Y-156667D01*
Y-156380D01*
Y-156094D01*
Y-155808D01*
X923451D01*
Y-155521D01*
X937194D01*
Y-155808D01*
Y-156094D01*
Y-156380D01*
Y-156667D01*
Y-156953D01*
Y-157239D01*
Y-157526D01*
Y-157812D01*
Y-158098D01*
Y-158385D01*
Y-158671D01*
Y-158957D01*
Y-159244D01*
Y-159530D01*
X937481D01*
Y-159816D01*
Y-160102D01*
Y-160389D01*
Y-160675D01*
Y-160961D01*
Y-161248D01*
Y-161534D01*
Y-161820D01*
Y-162107D01*
Y-162393D01*
Y-162679D01*
Y-162966D01*
Y-163252D01*
Y-163538D01*
Y-163824D01*
Y-164111D01*
Y-164397D01*
Y-164683D01*
Y-164970D01*
Y-165256D01*
Y-165542D01*
Y-165829D01*
Y-166115D01*
Y-166401D01*
Y-166688D01*
Y-166974D01*
Y-167260D01*
Y-167547D01*
Y-167833D01*
Y-168119D01*
Y-168405D01*
Y-168692D01*
Y-168978D01*
Y-169264D01*
Y-169551D01*
Y-169837D01*
Y-170123D01*
Y-170410D01*
Y-170696D01*
Y-170982D01*
Y-171269D01*
X937767D01*
Y-171555D01*
X937481D01*
Y-171841D01*
Y-172127D01*
X937767D01*
Y-172414D01*
Y-172700D01*
Y-172986D01*
Y-173273D01*
Y-173559D01*
Y-173845D01*
Y-174132D01*
Y-174418D01*
Y-174704D01*
Y-174991D01*
Y-175277D01*
Y-175563D01*
Y-175850D01*
Y-176136D01*
Y-176422D01*
Y-176709D01*
Y-176995D01*
Y-177281D01*
Y-177568D01*
Y-177854D01*
Y-178140D01*
Y-178426D01*
Y-178713D01*
Y-178999D01*
Y-179285D01*
Y-179572D01*
X938053D01*
Y-179858D01*
Y-180144D01*
Y-180431D01*
X938340D01*
Y-180717D01*
X938626D01*
Y-181003D01*
X938912D01*
Y-181290D01*
X939771D01*
Y-181576D01*
X940630D01*
Y-181290D01*
X940916D01*
Y-181003D01*
Y-180717D01*
Y-180431D01*
X941203D01*
Y-180144D01*
Y-179858D01*
X941489D01*
Y-179572D01*
Y-179285D01*
Y-178999D01*
X941775D01*
Y-178713D01*
Y-178426D01*
Y-178140D01*
X942062D01*
Y-177854D01*
Y-177568D01*
Y-177281D01*
X942348D01*
Y-176995D01*
Y-176709D01*
Y-176422D01*
X942634D01*
Y-176136D01*
Y-175850D01*
X942921D01*
Y-175563D01*
Y-175277D01*
Y-174991D01*
X943207D01*
Y-174704D01*
Y-174418D01*
Y-174132D01*
X943493D01*
Y-173845D01*
Y-173559D01*
Y-173273D01*
X943780D01*
Y-172986D01*
Y-172700D01*
X944066D01*
Y-172414D01*
Y-172127D01*
Y-171841D01*
X944352D01*
Y-171555D01*
Y-171269D01*
Y-170982D01*
X944639D01*
Y-170696D01*
Y-170410D01*
Y-170123D01*
X944925D01*
Y-169837D01*
Y-169551D01*
X945211D01*
Y-169264D01*
Y-168978D01*
Y-168692D01*
X945497D01*
Y-168405D01*
Y-168119D01*
Y-167833D01*
X945784D01*
Y-167547D01*
Y-167260D01*
Y-166974D01*
X946070D01*
Y-166688D01*
Y-166401D01*
X946356D01*
Y-166115D01*
Y-165829D01*
Y-165542D01*
X946643D01*
Y-165256D01*
Y-164970D01*
Y-164683D01*
X946929D01*
Y-164397D01*
Y-164111D01*
Y-163824D01*
X947215D01*
Y-163538D01*
Y-163252D01*
Y-162966D01*
Y-162679D01*
X947502D01*
Y-162393D01*
Y-162107D01*
Y-161820D01*
Y-161534D01*
X947788D01*
Y-161248D01*
Y-160961D01*
Y-160675D01*
Y-160389D01*
Y-160102D01*
X948074D01*
Y-159816D01*
Y-159530D01*
Y-159244D01*
Y-158957D01*
Y-158671D01*
Y-158385D01*
X948361D01*
Y-158098D01*
Y-157812D01*
Y-157526D01*
Y-157239D01*
Y-156953D01*
Y-156667D01*
Y-156380D01*
Y-156094D01*
Y-155808D01*
Y-155521D01*
X961245D01*
Y-155808D01*
D02*
G37*
G36*
X903409Y-138343D02*
Y-138629D01*
X903123D01*
Y-138915D01*
Y-139202D01*
Y-139488D01*
Y-139774D01*
Y-140060D01*
Y-140347D01*
X902837D01*
Y-140633D01*
Y-140919D01*
Y-141206D01*
Y-141492D01*
Y-141778D01*
Y-142065D01*
X902551D01*
Y-142351D01*
Y-142637D01*
Y-142924D01*
Y-143210D01*
Y-143496D01*
Y-143783D01*
Y-144069D01*
X902264D01*
Y-144355D01*
Y-144641D01*
Y-144928D01*
Y-145214D01*
Y-145501D01*
Y-145787D01*
X901978D01*
Y-146073D01*
Y-146359D01*
Y-146646D01*
Y-146932D01*
Y-147218D01*
Y-147505D01*
X901692D01*
Y-147791D01*
Y-148077D01*
Y-148364D01*
Y-148650D01*
Y-148936D01*
Y-149223D01*
Y-149509D01*
X901405D01*
Y-149795D01*
Y-150082D01*
Y-150368D01*
Y-150654D01*
Y-150940D01*
Y-151227D01*
X901119D01*
Y-151513D01*
Y-151799D01*
Y-152086D01*
Y-152372D01*
Y-152658D01*
Y-152945D01*
X900833D01*
Y-153231D01*
Y-153517D01*
Y-153804D01*
Y-154090D01*
Y-154376D01*
Y-154663D01*
X900546D01*
Y-154949D01*
Y-155235D01*
Y-155521D01*
Y-155808D01*
Y-156094D01*
Y-156380D01*
Y-156667D01*
X900260D01*
Y-156953D01*
Y-157239D01*
Y-157526D01*
Y-157812D01*
Y-158098D01*
Y-158385D01*
X899974D01*
Y-158671D01*
Y-158957D01*
X900546D01*
Y-158671D01*
X900833D01*
Y-158385D01*
X901119D01*
Y-158098D01*
X901692D01*
Y-157812D01*
X901978D01*
Y-157526D01*
X902264D01*
Y-157239D01*
X902837D01*
Y-156953D01*
X903409D01*
Y-156667D01*
X903696D01*
Y-156380D01*
X904268D01*
Y-156094D01*
X905127D01*
Y-155808D01*
X905700D01*
Y-155521D01*
X906559D01*
Y-155235D01*
X907990D01*
Y-154949D01*
X914289D01*
Y-155235D01*
X915435D01*
Y-155521D01*
X916294D01*
Y-155808D01*
X916866D01*
Y-156094D01*
X917153D01*
Y-156380D01*
X917725D01*
Y-156667D01*
X918011D01*
Y-156953D01*
X918298D01*
Y-157239D01*
X918584D01*
Y-157526D01*
X918870D01*
Y-157812D01*
Y-158098D01*
X919157D01*
Y-158385D01*
Y-158671D01*
X919443D01*
Y-158957D01*
Y-159244D01*
Y-159530D01*
X919729D01*
Y-159816D01*
Y-160102D01*
Y-160389D01*
Y-160675D01*
X920016D01*
Y-160961D01*
Y-161248D01*
Y-161534D01*
Y-161820D01*
Y-162107D01*
Y-162393D01*
Y-162679D01*
Y-162966D01*
Y-163252D01*
Y-163538D01*
Y-163824D01*
Y-164111D01*
Y-164397D01*
Y-164683D01*
Y-164970D01*
Y-165256D01*
Y-165542D01*
Y-165829D01*
X919729D01*
Y-166115D01*
Y-166401D01*
Y-166688D01*
Y-166974D01*
Y-167260D01*
Y-167547D01*
Y-167833D01*
X919443D01*
Y-168119D01*
Y-168405D01*
Y-168692D01*
Y-168978D01*
Y-169264D01*
Y-169551D01*
Y-169837D01*
X919157D01*
Y-170123D01*
Y-170410D01*
Y-170696D01*
Y-170982D01*
Y-171269D01*
Y-171555D01*
X918870D01*
Y-171841D01*
Y-172127D01*
Y-172414D01*
Y-172700D01*
Y-172986D01*
Y-173273D01*
X918584D01*
Y-173559D01*
Y-173845D01*
Y-174132D01*
Y-174418D01*
Y-174704D01*
Y-174991D01*
X918298D01*
Y-175277D01*
Y-175563D01*
Y-175850D01*
Y-176136D01*
Y-176422D01*
Y-176709D01*
Y-176995D01*
X918011D01*
Y-177281D01*
Y-177568D01*
Y-177854D01*
Y-178140D01*
Y-178426D01*
Y-178713D01*
X917725D01*
Y-178999D01*
Y-179285D01*
Y-179572D01*
Y-179858D01*
Y-180144D01*
Y-180431D01*
X917439D01*
Y-180717D01*
Y-181003D01*
Y-181290D01*
Y-181576D01*
Y-181862D01*
Y-182149D01*
Y-182435D01*
X917153D01*
Y-182721D01*
Y-183007D01*
Y-183294D01*
Y-183580D01*
Y-183866D01*
Y-184153D01*
X916866D01*
Y-184439D01*
Y-184725D01*
Y-185012D01*
Y-185298D01*
Y-185584D01*
Y-185871D01*
X916580D01*
Y-186157D01*
Y-186443D01*
Y-186730D01*
Y-187016D01*
Y-187302D01*
Y-187588D01*
X916294D01*
Y-187875D01*
Y-188161D01*
Y-188447D01*
Y-188734D01*
Y-189020D01*
Y-189306D01*
Y-189593D01*
X916007D01*
Y-189879D01*
Y-190165D01*
Y-190452D01*
Y-190738D01*
Y-191024D01*
Y-191311D01*
X915721D01*
Y-191597D01*
Y-191883D01*
X902551D01*
Y-191597D01*
Y-191311D01*
X902837D01*
Y-191024D01*
Y-190738D01*
Y-190452D01*
Y-190165D01*
Y-189879D01*
Y-189593D01*
X903123D01*
Y-189306D01*
Y-189020D01*
Y-188734D01*
Y-188447D01*
Y-188161D01*
Y-187875D01*
Y-187588D01*
X903409D01*
Y-187302D01*
Y-187016D01*
Y-186730D01*
Y-186443D01*
Y-186157D01*
Y-185871D01*
X903696D01*
Y-185584D01*
Y-185298D01*
Y-185012D01*
Y-184725D01*
Y-184439D01*
Y-184153D01*
X903982D01*
Y-183866D01*
Y-183580D01*
Y-183294D01*
Y-183007D01*
Y-182721D01*
Y-182435D01*
Y-182149D01*
X904268D01*
Y-181862D01*
Y-181576D01*
Y-181290D01*
Y-181003D01*
Y-180717D01*
Y-180431D01*
X904555D01*
Y-180144D01*
Y-179858D01*
Y-179572D01*
Y-179285D01*
Y-178999D01*
Y-178713D01*
Y-178426D01*
X904841D01*
Y-178140D01*
Y-177854D01*
Y-177568D01*
Y-177281D01*
Y-176995D01*
Y-176709D01*
X905127D01*
Y-176422D01*
Y-176136D01*
Y-175850D01*
Y-175563D01*
Y-175277D01*
Y-174991D01*
X905414D01*
Y-174704D01*
Y-174418D01*
Y-174132D01*
Y-173845D01*
Y-173559D01*
Y-173273D01*
X905700D01*
Y-172986D01*
Y-172700D01*
Y-172414D01*
Y-172127D01*
Y-171841D01*
Y-171555D01*
Y-171269D01*
X905986D01*
Y-170982D01*
Y-170696D01*
Y-170410D01*
Y-170123D01*
Y-169837D01*
Y-169551D01*
X906273D01*
Y-169264D01*
Y-168978D01*
Y-168692D01*
Y-168405D01*
Y-168119D01*
Y-167833D01*
Y-167547D01*
X906559D01*
Y-167260D01*
Y-166974D01*
Y-166688D01*
Y-166401D01*
Y-166115D01*
Y-165829D01*
X906273D01*
Y-165542D01*
Y-165256D01*
X905986D01*
Y-164970D01*
X905700D01*
Y-164683D01*
X905127D01*
Y-164397D01*
X903409D01*
Y-164683D01*
X901978D01*
Y-164970D01*
X901119D01*
Y-165256D01*
X900546D01*
Y-165542D01*
X900260D01*
Y-165829D01*
X899687D01*
Y-166115D01*
X899401D01*
Y-166401D01*
X899115D01*
Y-166688D01*
Y-166974D01*
X898828D01*
Y-167260D01*
Y-167547D01*
Y-167833D01*
X898542D01*
Y-168119D01*
Y-168405D01*
Y-168692D01*
Y-168978D01*
Y-169264D01*
Y-169551D01*
X898256D01*
Y-169837D01*
Y-170123D01*
Y-170410D01*
Y-170696D01*
Y-170982D01*
Y-171269D01*
Y-171555D01*
X897970D01*
Y-171841D01*
Y-172127D01*
Y-172414D01*
Y-172700D01*
Y-172986D01*
Y-173273D01*
X897683D01*
Y-173559D01*
Y-173845D01*
Y-174132D01*
Y-174418D01*
Y-174704D01*
Y-174991D01*
X897397D01*
Y-175277D01*
Y-175563D01*
Y-175850D01*
Y-176136D01*
Y-176422D01*
Y-176709D01*
X897111D01*
Y-176995D01*
Y-177281D01*
Y-177568D01*
Y-177854D01*
Y-178140D01*
Y-178426D01*
Y-178713D01*
X896824D01*
Y-178999D01*
Y-179285D01*
Y-179572D01*
Y-179858D01*
Y-180144D01*
Y-180431D01*
X896538D01*
Y-180717D01*
Y-181003D01*
Y-181290D01*
Y-181576D01*
Y-181862D01*
Y-182149D01*
X896252D01*
Y-182435D01*
Y-182721D01*
Y-183007D01*
Y-183294D01*
Y-183580D01*
Y-183866D01*
Y-184153D01*
X895965D01*
Y-184439D01*
Y-184725D01*
Y-185012D01*
Y-185298D01*
Y-185584D01*
Y-185871D01*
X895679D01*
Y-186157D01*
Y-186443D01*
Y-186730D01*
Y-187016D01*
Y-187302D01*
Y-187588D01*
X895393D01*
Y-187875D01*
Y-188161D01*
Y-188447D01*
Y-188734D01*
Y-189020D01*
Y-189306D01*
X895106D01*
Y-189593D01*
Y-189879D01*
Y-190165D01*
Y-190452D01*
Y-190738D01*
Y-191024D01*
Y-191311D01*
X894820D01*
Y-191597D01*
Y-191883D01*
X881650D01*
Y-191597D01*
Y-191311D01*
X881936D01*
Y-191024D01*
Y-190738D01*
Y-190452D01*
Y-190165D01*
Y-189879D01*
Y-189593D01*
Y-189306D01*
X882222D01*
Y-189020D01*
Y-188734D01*
Y-188447D01*
Y-188161D01*
Y-187875D01*
Y-187588D01*
X882509D01*
Y-187302D01*
Y-187016D01*
Y-186730D01*
Y-186443D01*
Y-186157D01*
Y-185871D01*
X882795D01*
Y-185584D01*
Y-185298D01*
Y-185012D01*
Y-184725D01*
Y-184439D01*
Y-184153D01*
Y-183866D01*
X883081D01*
Y-183580D01*
Y-183294D01*
Y-183007D01*
Y-182721D01*
Y-182435D01*
Y-182149D01*
X883368D01*
Y-181862D01*
Y-181576D01*
Y-181290D01*
Y-181003D01*
Y-180717D01*
Y-180431D01*
X883654D01*
Y-180144D01*
Y-179858D01*
Y-179572D01*
Y-179285D01*
Y-178999D01*
Y-178713D01*
X883940D01*
Y-178426D01*
Y-178140D01*
Y-177854D01*
Y-177568D01*
Y-177281D01*
Y-176995D01*
Y-176709D01*
X884227D01*
Y-176422D01*
Y-176136D01*
Y-175850D01*
Y-175563D01*
Y-175277D01*
Y-174991D01*
X884513D01*
Y-174704D01*
Y-174418D01*
Y-174132D01*
Y-173845D01*
Y-173559D01*
Y-173273D01*
X884799D01*
Y-172986D01*
Y-172700D01*
Y-172414D01*
Y-172127D01*
Y-171841D01*
Y-171555D01*
Y-171269D01*
X885085D01*
Y-170982D01*
Y-170696D01*
Y-170410D01*
Y-170123D01*
Y-169837D01*
Y-169551D01*
X885372D01*
Y-169264D01*
Y-168978D01*
Y-168692D01*
Y-168405D01*
Y-168119D01*
Y-167833D01*
X885658D01*
Y-167547D01*
Y-167260D01*
Y-166974D01*
Y-166688D01*
Y-166401D01*
Y-166115D01*
X885944D01*
Y-165829D01*
Y-165542D01*
Y-165256D01*
Y-164970D01*
Y-164683D01*
Y-164397D01*
Y-164111D01*
X886231D01*
Y-163824D01*
Y-163538D01*
Y-163252D01*
Y-162966D01*
Y-162679D01*
Y-162393D01*
X886517D01*
Y-162107D01*
Y-161820D01*
Y-161534D01*
Y-161248D01*
Y-160961D01*
Y-160675D01*
X886803D01*
Y-160389D01*
Y-160102D01*
Y-159816D01*
Y-159530D01*
Y-159244D01*
Y-158957D01*
X887090D01*
Y-158671D01*
Y-158385D01*
Y-158098D01*
Y-157812D01*
Y-157526D01*
Y-157239D01*
Y-156953D01*
X887376D01*
Y-156667D01*
Y-156380D01*
Y-156094D01*
Y-155808D01*
Y-155521D01*
Y-155235D01*
X887662D01*
Y-154949D01*
Y-154663D01*
Y-154376D01*
Y-154090D01*
Y-153804D01*
Y-153517D01*
X887949D01*
Y-153231D01*
Y-152945D01*
Y-152658D01*
Y-152372D01*
Y-152086D01*
Y-151799D01*
Y-151513D01*
X888235D01*
Y-151227D01*
Y-150940D01*
Y-150654D01*
Y-150368D01*
Y-150082D01*
Y-149795D01*
X888521D01*
Y-149509D01*
Y-149223D01*
Y-148936D01*
Y-148650D01*
Y-148364D01*
Y-148077D01*
X888807D01*
Y-147791D01*
Y-147505D01*
Y-147218D01*
Y-146932D01*
Y-146646D01*
Y-146359D01*
X889094D01*
Y-146073D01*
Y-145787D01*
Y-145501D01*
Y-145214D01*
Y-144928D01*
Y-144641D01*
Y-144355D01*
X889380D01*
Y-144069D01*
Y-143783D01*
Y-143496D01*
Y-143210D01*
Y-142924D01*
Y-142637D01*
X889666D01*
Y-142351D01*
Y-142065D01*
Y-141778D01*
Y-141492D01*
Y-141206D01*
Y-140919D01*
X889953D01*
Y-140633D01*
Y-140347D01*
Y-140060D01*
Y-139774D01*
Y-139488D01*
Y-139202D01*
Y-138915D01*
X890239D01*
Y-138629D01*
Y-138343D01*
Y-138056D01*
X903409D01*
Y-138343D01*
D02*
G37*
%LPC*%
G36*
X47900Y24336D02*
X44519Y23740D01*
X44636Y23077D01*
X43959Y22957D01*
X44079Y22276D01*
X44198Y21599D01*
X44318Y20921D01*
X44438Y20240D01*
X44557Y19563D01*
X44676Y18889D01*
X46035Y19128D01*
X45916Y19802D01*
X45797Y20480D01*
X47818Y20836D01*
X47938Y20159D01*
X48057Y19485D01*
X49415Y19724D01*
X49296Y20398D01*
X49177Y21076D01*
X49057Y21757D01*
X48937Y22434D01*
X48818Y23112D01*
X48698Y23793D01*
X48017Y23673D01*
X47900Y24336D01*
D02*
G37*
G36*
X43521Y21479D02*
X43517Y21479D01*
X43637Y20801D01*
X43757Y20120D01*
X43876Y19443D01*
X43880Y19443D01*
X43760Y20121D01*
X43640Y20802D01*
X43521Y21479D01*
D02*
G37*
G36*
X42487Y23382D02*
X37748Y22546D01*
X37865Y21883D01*
X37985Y21202D01*
X38104Y20524D01*
X38224Y19847D01*
X38344Y19166D01*
X38464Y18488D01*
X38582Y17814D01*
X43321Y18650D01*
X43202Y19324D01*
X39822Y18728D01*
X39703Y19405D01*
X39582Y20086D01*
X42282Y20562D01*
X42162Y21240D01*
X39463Y20764D01*
X39344Y21441D01*
X39224Y22122D01*
X42604Y22718D01*
X42487Y23382D01*
D02*
G37*
G36*
X35712Y22187D02*
X31654Y21472D01*
X31771Y20808D01*
X31891Y20127D01*
X32010Y19450D01*
X32130Y18772D01*
X32250Y18091D01*
X32370Y17414D01*
X32488Y16740D01*
X33847Y16979D01*
X33728Y17653D01*
X33609Y18331D01*
X33489Y19012D01*
X35510Y19368D01*
X35630Y18687D01*
X35750Y18010D01*
X35869Y17336D01*
X37227Y17575D01*
X37108Y18249D01*
X36989Y18927D01*
X36869Y19608D01*
X36188Y19488D01*
X36068Y20165D01*
X36749Y20285D01*
X36630Y20963D01*
X36510Y21644D01*
X35829Y21524D01*
X35712Y22187D01*
D02*
G37*
G36*
X29618Y21113D02*
X26237Y20516D01*
X26354Y19853D01*
X25677Y19734D01*
X25797Y19053D01*
X25916Y18375D01*
X26036Y17698D01*
X26156Y17017D01*
X26276Y16339D01*
X26394Y15665D01*
X27753Y15905D01*
X27634Y16579D01*
X27515Y17256D01*
X29536Y17613D01*
X29656Y16935D01*
X29775Y16261D01*
X31133Y16501D01*
X31014Y17175D01*
X30895Y17852D01*
X30775Y18533D01*
X30655Y19211D01*
X30536Y19888D01*
X30416Y20570D01*
X29735Y20449D01*
X29618Y21113D01*
D02*
G37*
%LPD*%
G36*
X47459Y22872D02*
X47579Y22195D01*
X47698Y21517D01*
X45676Y21161D01*
X45557Y21838D01*
X45438Y22516D01*
X45318Y23197D01*
X47339Y23553D01*
X47459Y22872D01*
D02*
G37*
G36*
X35271Y20723D02*
X35391Y20046D01*
X33369Y19689D01*
X33250Y20367D01*
X33130Y21048D01*
X35151Y21404D01*
X35271Y20723D01*
D02*
G37*
G36*
X29177Y19649D02*
X29297Y18971D01*
X29416Y18294D01*
X27395Y17937D01*
X27275Y18615D01*
X27156Y19292D01*
X27035Y19973D01*
X29057Y20330D01*
X29177Y19649D01*
D02*
G37*
%LPC*%
G36*
X48302Y16060D02*
X46961Y15823D01*
X47078Y15160D01*
X46397Y15040D01*
X46517Y14359D01*
X47198Y14479D01*
X47318Y13802D01*
X47437Y13124D01*
X47557Y12443D01*
X47677Y11765D01*
X46318Y11526D01*
X46437Y10852D01*
X50495Y11567D01*
X50376Y12241D01*
X49018Y12002D01*
X48898Y12679D01*
X48778Y13360D01*
X48659Y14038D01*
X48539Y14715D01*
X48419Y15396D01*
X48302Y16060D01*
D02*
G37*
G36*
X43567Y15225D02*
X40186Y14629D01*
X40303Y13965D01*
X39626Y13846D01*
X39746Y13165D01*
X39865Y12487D01*
X39985Y11810D01*
X40105Y11129D01*
X40224Y10451D01*
X40902Y10571D01*
X41021Y9897D01*
X44401Y10493D01*
X44282Y11167D01*
X44963Y11287D01*
X44844Y11964D01*
X44724Y12645D01*
X44604Y13323D01*
X44485Y14001D01*
X44365Y14682D01*
X43684Y14561D01*
X43567Y15225D01*
D02*
G37*
G36*
X37473Y14150D02*
X34092Y13554D01*
X34209Y12891D01*
X33532Y12772D01*
X33652Y12090D01*
X33771Y11413D01*
X33891Y10735D01*
X34011Y10054D01*
X34130Y9377D01*
X34808Y9496D01*
X34927Y8822D01*
X38307Y9418D01*
X38188Y10092D01*
X38869Y10212D01*
X38750Y10890D01*
X38630Y11571D01*
X38510Y12248D01*
X38391Y12926D01*
X38271Y13607D01*
X37590Y13487D01*
X37473Y14150D01*
D02*
G37*
G36*
X31379Y13076D02*
X27998Y12480D01*
X28115Y11816D01*
X27438Y11697D01*
X27558Y11016D01*
X28916Y11255D01*
X28796Y11936D01*
X30818Y12293D01*
X30938Y11612D01*
X31058Y10934D01*
X29699Y10695D01*
X29818Y10017D01*
X31177Y10257D01*
X31297Y9576D01*
X31417Y8898D01*
X29395Y8542D01*
X29276Y9219D01*
X27917Y8980D01*
X28036Y8302D01*
X28714Y8422D01*
X28833Y7748D01*
X32213Y8344D01*
X32094Y9018D01*
X32775Y9138D01*
X32656Y9815D01*
X32536Y10497D01*
X31855Y10376D01*
X31735Y11054D01*
X32416Y11174D01*
X32297Y11851D01*
X32177Y12533D01*
X31496Y12412D01*
X31379Y13076D01*
D02*
G37*
%LPD*%
G36*
X43126Y13761D02*
X42445Y13641D01*
X42565Y12963D01*
X41887Y12844D01*
X42006Y12166D01*
X41343Y12049D01*
X41224Y12727D01*
X41104Y13405D01*
X40984Y14086D01*
X43006Y14442D01*
X43126Y13761D01*
D02*
G37*
G36*
X43365Y12406D02*
X43485Y11725D01*
X43605Y11047D01*
X41583Y10691D01*
X41464Y11368D01*
X42127Y11485D01*
X42006Y12166D01*
X42684Y12286D01*
X42565Y12963D01*
X43246Y13083D01*
X43365Y12406D01*
D02*
G37*
G36*
X37032Y12686D02*
X36351Y12566D01*
X36471Y11889D01*
X35793Y11769D01*
X35912Y11092D01*
X35249Y10975D01*
X35130Y11653D01*
X35010Y12330D01*
X34890Y13011D01*
X36912Y13367D01*
X37032Y12686D01*
D02*
G37*
G36*
X37271Y11331D02*
X37391Y10650D01*
X37511Y9973D01*
X35489Y9616D01*
X35370Y10294D01*
X36033Y10411D01*
X35912Y11092D01*
X36590Y11211D01*
X36471Y11889D01*
X37152Y12009D01*
X37271Y11331D01*
D02*
G37*
%LPC*%
G36*
X867907Y-152658D02*
X859890D01*
Y-152945D01*
Y-153231D01*
Y-153517D01*
Y-153804D01*
Y-154090D01*
X859604D01*
Y-154376D01*
Y-154663D01*
Y-154949D01*
Y-155235D01*
Y-155521D01*
Y-155808D01*
X859317D01*
Y-156094D01*
Y-156380D01*
Y-156667D01*
Y-156953D01*
Y-157239D01*
Y-157526D01*
X859031D01*
Y-157812D01*
Y-158098D01*
Y-158385D01*
Y-158671D01*
Y-158957D01*
Y-159244D01*
X858745D01*
Y-159530D01*
Y-159816D01*
Y-160102D01*
Y-160389D01*
Y-160675D01*
Y-160961D01*
Y-161248D01*
X858458D01*
Y-161534D01*
Y-161820D01*
Y-162107D01*
Y-162393D01*
Y-162679D01*
Y-162966D01*
X858172D01*
Y-163252D01*
Y-163538D01*
Y-163824D01*
X865330D01*
Y-163538D01*
X866475D01*
Y-163252D01*
X867048D01*
Y-162966D01*
X867334D01*
Y-162679D01*
X867620D01*
Y-162393D01*
X867907D01*
Y-162107D01*
X868193D01*
Y-161820D01*
Y-161534D01*
X868479D01*
Y-161248D01*
Y-160961D01*
X868766D01*
Y-160675D01*
Y-160389D01*
X869052D01*
Y-160102D01*
Y-159816D01*
Y-159530D01*
Y-159244D01*
X869338D01*
Y-158957D01*
Y-158671D01*
Y-158385D01*
Y-158098D01*
Y-157812D01*
X869625D01*
Y-157526D01*
Y-157239D01*
Y-156953D01*
Y-156667D01*
Y-156380D01*
Y-156094D01*
Y-155808D01*
Y-155521D01*
Y-155235D01*
Y-154949D01*
Y-154663D01*
X869338D01*
Y-154376D01*
Y-154090D01*
X869052D01*
Y-153804D01*
Y-153517D01*
X868766D01*
Y-153231D01*
X868479D01*
Y-152945D01*
X867907D01*
Y-152658D01*
D02*
G37*
%LPD*%
D10*
X1182685Y-202012D02*
Y-194141D01*
X1186621D01*
X1187932Y-195452D01*
Y-198076D01*
X1186621Y-199388D01*
X1182685D01*
X1185308D02*
X1187932Y-202012D01*
X1194492D02*
X1191868D01*
X1190556Y-200700D01*
Y-198076D01*
X1191868Y-196764D01*
X1194492D01*
X1195804Y-198076D01*
Y-199388D01*
X1190556D01*
X1198428Y-196764D02*
X1201052Y-202012D01*
X1203675Y-196764D01*
X828354Y-233511D02*
Y-241382D01*
X832290D01*
X833602Y-240070D01*
Y-234823D01*
X832290Y-233511D01*
X828354D01*
X840161Y-241382D02*
X837537D01*
X836226Y-240070D01*
Y-237446D01*
X837537Y-236134D01*
X840161D01*
X841473Y-237446D01*
Y-238758D01*
X836226D01*
X844097Y-241382D02*
X848033D01*
X849345Y-240070D01*
X848033Y-238758D01*
X845409D01*
X844097Y-237446D01*
X845409Y-236134D01*
X849345D01*
X854592Y-244006D02*
X855904D01*
X857216Y-242694D01*
Y-236134D01*
X853280D01*
X851968Y-237446D01*
Y-240070D01*
X853280Y-241382D01*
X857216D01*
X859840D02*
X862464D01*
X861152D01*
Y-236134D01*
X859840D01*
X866399Y-241382D02*
Y-236134D01*
X870335D01*
X871647Y-237446D01*
Y-241382D01*
X878207D02*
X875583D01*
X874271Y-240070D01*
Y-237446D01*
X875583Y-236134D01*
X878207D01*
X879519Y-237446D01*
Y-238758D01*
X874271D01*
X882143Y-236134D02*
Y-241382D01*
Y-238758D01*
X883454Y-237446D01*
X884766Y-236134D01*
X886078D01*
X1025204Y-115400D02*
Y-123272D01*
X1029140D01*
X1030452Y-121960D01*
Y-116712D01*
X1029140Y-115400D01*
X1025204D01*
X1034388Y-123272D02*
X1037012D01*
X1038323Y-121960D01*
Y-119336D01*
X1037012Y-118024D01*
X1034388D01*
X1033076Y-119336D01*
Y-121960D01*
X1034388Y-123272D01*
X1046195Y-118024D02*
X1042259D01*
X1040947Y-119336D01*
Y-121960D01*
X1042259Y-123272D01*
X1046195D01*
X1048819Y-118024D02*
Y-121960D01*
X1050131Y-123272D01*
X1054066D01*
Y-118024D01*
X1056690Y-123272D02*
Y-118024D01*
X1058002D01*
X1059314Y-119336D01*
Y-123272D01*
Y-119336D01*
X1060626Y-118024D01*
X1061938Y-119336D01*
Y-123272D01*
X1068498D02*
X1065874D01*
X1064562Y-121960D01*
Y-119336D01*
X1065874Y-118024D01*
X1068498D01*
X1069810Y-119336D01*
Y-120648D01*
X1064562D01*
X1072433Y-123272D02*
Y-118024D01*
X1076369D01*
X1077681Y-119336D01*
Y-123272D01*
X1081617Y-116712D02*
Y-118024D01*
X1080305D01*
X1082929D01*
X1081617D01*
Y-121960D01*
X1082929Y-123272D01*
X1025204Y-154770D02*
Y-162642D01*
X1030452D01*
X1034388Y-157394D02*
X1037012D01*
X1038323Y-158706D01*
Y-162642D01*
X1034388D01*
X1033076Y-161330D01*
X1034388Y-160018D01*
X1038323D01*
X1040947Y-157394D02*
Y-161330D01*
X1042259Y-162642D01*
X1046195D01*
Y-163954D01*
X1044883Y-165266D01*
X1043571D01*
X1046195Y-162642D02*
Y-157394D01*
X1052755Y-162642D02*
X1050131D01*
X1048819Y-161330D01*
Y-158706D01*
X1050131Y-157394D01*
X1052755D01*
X1054066Y-158706D01*
Y-160018D01*
X1048819D01*
X1056690Y-157394D02*
Y-162642D01*
Y-160018D01*
X1058002Y-158706D01*
X1059314Y-157394D01*
X1060626D01*
X1072433Y-162642D02*
Y-154770D01*
X1077681Y-162642D01*
Y-154770D01*
X1081617Y-157394D02*
X1084241D01*
X1085552Y-158706D01*
Y-162642D01*
X1081617D01*
X1080305Y-161330D01*
X1081617Y-160018D01*
X1085552D01*
X1088176Y-162642D02*
Y-157394D01*
X1089488D01*
X1090800Y-158706D01*
Y-162642D01*
Y-158706D01*
X1092112Y-157394D01*
X1093424Y-158706D01*
Y-162642D01*
X1099984D02*
X1097360D01*
X1096048Y-161330D01*
Y-158706D01*
X1097360Y-157394D01*
X1099984D01*
X1101295Y-158706D01*
Y-160018D01*
X1096048D01*
X1025204Y-194141D02*
Y-202012D01*
X1029140D01*
X1030452Y-200700D01*
Y-195452D01*
X1029140Y-194141D01*
X1025204D01*
X1034388Y-196764D02*
X1037012D01*
X1038323Y-198076D01*
Y-202012D01*
X1034388D01*
X1033076Y-200700D01*
X1034388Y-199388D01*
X1038323D01*
X1042259Y-195452D02*
Y-196764D01*
X1040947D01*
X1043571D01*
X1042259D01*
Y-200700D01*
X1043571Y-202012D01*
X1051443D02*
X1048819D01*
X1047507Y-200700D01*
Y-198076D01*
X1048819Y-196764D01*
X1051443D01*
X1052755Y-198076D01*
Y-199388D01*
X1047507D01*
X1025204Y-233511D02*
Y-241382D01*
X1029140D01*
X1030452Y-240070D01*
Y-234823D01*
X1029140Y-233511D01*
X1025204D01*
X1034388Y-241382D02*
X1037012D01*
X1038323Y-240070D01*
Y-237446D01*
X1037012Y-236134D01*
X1034388D01*
X1033076Y-237446D01*
Y-240070D01*
X1034388Y-241382D01*
X1046195Y-236134D02*
X1042259D01*
X1040947Y-237446D01*
Y-240070D01*
X1042259Y-241382D01*
X1046195D01*
X1048819Y-236134D02*
Y-240070D01*
X1050131Y-241382D01*
X1054066D01*
Y-236134D01*
X1056690Y-241382D02*
Y-236134D01*
X1058002D01*
X1059314Y-237446D01*
Y-241382D01*
Y-237446D01*
X1060626Y-236134D01*
X1061938Y-237446D01*
Y-241382D01*
X1068498D02*
X1065874D01*
X1064562Y-240070D01*
Y-237446D01*
X1065874Y-236134D01*
X1068498D01*
X1069810Y-237446D01*
Y-238758D01*
X1064562D01*
X1072433Y-241382D02*
Y-236134D01*
X1076369D01*
X1077681Y-237446D01*
Y-241382D01*
X1081617Y-234823D02*
Y-236134D01*
X1080305D01*
X1082929D01*
X1081617D01*
Y-240070D01*
X1082929Y-241382D01*
D11*
X1178748Y-229571D02*
Y-190201D01*
X1021267Y-150831D02*
X1296858D01*
X1021267Y-190201D02*
X1296858D01*
X824417Y-229571D02*
X1296858D01*
X824417Y-111461D02*
X1296858D01*
X824417Y-268941D02*
Y-111461D01*
X1021267Y-268941D02*
Y-111461D01*
X-356685Y900350D02*
X1296858D01*
Y-268941D02*
Y900350D01*
X-356685Y-268941D02*
Y900350D01*
Y-268941D02*
X1296858D01*
X1035046Y-255164D02*
X1031110D01*
Y-258115D01*
X1033078D01*
X1031110D01*
Y-261067D01*
X1037014Y-257131D02*
Y-261067D01*
Y-259099D01*
X1037998Y-258115D01*
X1038981Y-257131D01*
X1039965D01*
X1042917Y-261067D02*
X1044885D01*
X1043901D01*
Y-257131D01*
X1042917D01*
X1047837Y-256147D02*
X1048821Y-255164D01*
X1050789D01*
X1051772Y-256147D01*
Y-257131D01*
X1050789Y-258115D01*
X1049805D01*
X1050789D01*
X1051772Y-259099D01*
Y-260083D01*
X1050789Y-261067D01*
X1048821D01*
X1047837Y-260083D01*
X1057676Y-255164D02*
Y-261067D01*
X1054724D01*
X1053740Y-260083D01*
Y-258115D01*
X1054724Y-257131D01*
X1057676D01*
X1059644Y-262051D02*
X1063580D01*
X1069483Y-261067D02*
X1065548D01*
X1069483Y-257131D01*
Y-256147D01*
X1068499Y-255164D01*
X1066531D01*
X1065548Y-256147D01*
X1071451D02*
X1072435Y-255164D01*
X1074403D01*
X1075387Y-256147D01*
Y-260083D01*
X1074403Y-261067D01*
X1072435D01*
X1071451Y-260083D01*
Y-256147D01*
X1081291Y-261067D02*
X1077355D01*
X1081291Y-257131D01*
Y-256147D01*
X1080307Y-255164D01*
X1078339D01*
X1077355Y-256147D01*
X1083258D02*
X1084242Y-255164D01*
X1086210D01*
X1087194Y-256147D01*
Y-260083D01*
X1086210Y-261067D01*
X1084242D01*
X1083258Y-260083D01*
Y-256147D01*
X1089162Y-262051D02*
X1093098D01*
X1095066Y-255164D02*
X1099001D01*
X1097034D01*
Y-261067D01*
X1100969D02*
X1102937D01*
X1101953D01*
Y-257131D01*
X1100969D01*
X1105889Y-261067D02*
Y-257131D01*
X1106873D01*
X1107857Y-258115D01*
Y-261067D01*
Y-258115D01*
X1108841Y-257131D01*
X1109825Y-258115D01*
Y-261067D01*
X1114744D02*
X1112776D01*
X1111792Y-260083D01*
Y-258115D01*
X1112776Y-257131D01*
X1114744D01*
X1115728Y-258115D01*
Y-259099D01*
X1111792D01*
X1117696Y-262051D02*
X1121632D01*
X1123600Y-255164D02*
Y-261067D01*
X1126552D01*
X1127535Y-260083D01*
Y-259099D01*
X1126552Y-258115D01*
X1123600D01*
X1126552D01*
X1127535Y-257131D01*
Y-256147D01*
X1126552Y-255164D01*
X1123600D01*
X1129503Y-261067D02*
X1131471D01*
X1130487D01*
Y-255164D01*
X1129503D01*
X1135407Y-257131D02*
X1137375D01*
X1138359Y-258115D01*
Y-261067D01*
X1135407D01*
X1134423Y-260083D01*
X1135407Y-259099D01*
X1138359D01*
X1140326Y-261067D02*
X1143278D01*
X1144262Y-260083D01*
X1143278Y-259099D01*
X1141311D01*
X1140326Y-258115D01*
X1141311Y-257131D01*
X1144262D01*
X1147214Y-256147D02*
Y-257131D01*
X1146230D01*
X1148198D01*
X1147214D01*
Y-260083D01*
X1148198Y-261067D01*
X1154102D02*
X1152134D01*
X1151150Y-260083D01*
Y-258115D01*
X1152134Y-257131D01*
X1154102D01*
X1155085Y-258115D01*
Y-259099D01*
X1151150D01*
X1157053Y-257131D02*
Y-261067D01*
Y-259099D01*
X1158037Y-258115D01*
X1159021Y-257131D01*
X1160005D01*
X1162957Y-262051D02*
X1166893D01*
X1168861Y-256147D02*
X1169845Y-255164D01*
X1171812D01*
X1172796Y-256147D01*
Y-260083D01*
X1171812Y-261067D01*
X1169845D01*
X1168861Y-260083D01*
Y-256147D01*
X1174764D02*
X1175748Y-255164D01*
X1177716D01*
X1178700Y-256147D01*
Y-260083D01*
X1177716Y-261067D01*
X1175748D01*
X1174764Y-260083D01*
Y-256147D01*
X1180668Y-261067D02*
Y-260083D01*
X1181652D01*
Y-261067D01*
X1180668D01*
X1185588D02*
Y-255164D01*
X1188539D01*
X1189523Y-256147D01*
Y-258115D01*
X1188539Y-259099D01*
X1185588D01*
X1195427Y-257131D02*
X1192475D01*
X1191491Y-258115D01*
Y-260083D01*
X1192475Y-261067D01*
X1195427D01*
X1197395Y-255164D02*
Y-261067D01*
X1200346D01*
X1201330Y-260083D01*
Y-259099D01*
Y-258115D01*
X1200346Y-257131D01*
X1197395D01*
X1203298Y-255164D02*
Y-261067D01*
X1206250D01*
X1207234Y-260083D01*
Y-256147D01*
X1206250Y-255164D01*
X1203298D01*
X1210186Y-261067D02*
X1212154D01*
X1213138Y-260083D01*
Y-258115D01*
X1212154Y-257131D01*
X1210186D01*
X1209202Y-258115D01*
Y-260083D01*
X1210186Y-261067D01*
X1219041Y-257131D02*
X1216089D01*
X1215106Y-258115D01*
Y-260083D01*
X1216089Y-261067D01*
X1219041D01*
D16*
X1042921Y-168552D02*
X1052104D01*
X1047513D01*
Y-182327D01*
X1058992D02*
X1063584D01*
X1065879Y-180031D01*
Y-175439D01*
X1063584Y-173144D01*
X1058992D01*
X1056696Y-175439D01*
Y-180031D01*
X1058992Y-182327D01*
X1070471Y-186919D02*
Y-173144D01*
X1077359D01*
X1079655Y-175439D01*
Y-180031D01*
X1077359Y-182327D01*
X1070471D01*
X1107205Y-170848D02*
X1104909Y-168552D01*
X1100317D01*
X1098021Y-170848D01*
Y-173144D01*
X1100317Y-175439D01*
X1104909D01*
X1107205Y-177735D01*
Y-180031D01*
X1104909Y-182327D01*
X1100317D01*
X1098021Y-180031D01*
X1114092Y-182327D02*
X1118684D01*
X1120980Y-180031D01*
Y-175439D01*
X1118684Y-173144D01*
X1114092D01*
X1111796Y-175439D01*
Y-180031D01*
X1114092Y-182327D01*
X1125571D02*
X1130163D01*
X1127867D01*
Y-168552D01*
X1125571D01*
X1146234D02*
Y-182327D01*
X1139347D01*
X1137051Y-180031D01*
Y-175439D01*
X1139347Y-173144D01*
X1146234D01*
X1157713Y-182327D02*
X1153122D01*
X1150826Y-180031D01*
Y-175439D01*
X1153122Y-173144D01*
X1157713D01*
X1160009Y-175439D01*
Y-177735D01*
X1150826D01*
X1164601Y-173144D02*
Y-182327D01*
Y-177735D01*
X1166897Y-175439D01*
X1169193Y-173144D01*
X1171488D01*
X846071Y-247293D02*
Y-263036D01*
X851318Y-257788D01*
X856566Y-263036D01*
Y-247293D01*
X861814Y-263036D02*
X867061D01*
X864437D01*
Y-252540D01*
X861814D01*
X874933Y-263036D02*
Y-252540D01*
X877556D01*
X880180Y-255164D01*
Y-263036D01*
Y-255164D01*
X882804Y-252540D01*
X885428Y-255164D01*
Y-263036D01*
X890676Y-247293D02*
Y-257788D01*
X895923Y-263036D01*
X901171Y-257788D01*
Y-247293D01*
X916914Y-249917D02*
X914290Y-247293D01*
X909042D01*
X906419Y-249917D01*
Y-260412D01*
X909042Y-263036D01*
X914290D01*
X916914Y-260412D01*
Y-255164D01*
X911666D01*
X1200401Y-210546D02*
X1203025Y-207923D01*
X1208273D01*
X1210897Y-210546D01*
Y-221042D01*
X1208273Y-223665D01*
X1203025D01*
X1200401Y-221042D01*
Y-210546D01*
X1216144D02*
X1218768Y-207923D01*
X1224016D01*
X1226639Y-210546D01*
Y-221042D01*
X1224016Y-223665D01*
X1218768D01*
X1216144Y-221042D01*
Y-210546D01*
X1037015Y-212186D02*
X1039311Y-209890D01*
X1043903D01*
X1046199Y-212186D01*
Y-221370D01*
X1043903Y-223665D01*
X1039311D01*
X1037015Y-221370D01*
Y-212186D01*
X1050791D02*
X1053086Y-209890D01*
X1057678D01*
X1059974Y-212186D01*
Y-214482D01*
X1057678Y-216778D01*
X1055382D01*
X1057678D01*
X1059974Y-219074D01*
Y-221370D01*
X1057678Y-223665D01*
X1053086D01*
X1050791Y-221370D01*
X1064566Y-223665D02*
X1073749Y-214482D01*
X1078341Y-223665D02*
X1082932D01*
X1080637D01*
Y-209890D01*
X1078341Y-212186D01*
X1089820D02*
X1092116Y-209890D01*
X1096707D01*
X1099003Y-212186D01*
Y-221370D01*
X1096707Y-223665D01*
X1092116D01*
X1089820Y-221370D01*
Y-212186D01*
X1103595Y-223665D02*
X1112778Y-214482D01*
X1126553Y-223665D02*
X1117370D01*
X1126553Y-214482D01*
Y-212186D01*
X1124258Y-209890D01*
X1119666D01*
X1117370Y-212186D01*
X1131145D02*
X1133441Y-209890D01*
X1138033D01*
X1140329Y-212186D01*
Y-221370D01*
X1138033Y-223665D01*
X1133441D01*
X1131145Y-221370D01*
Y-212186D01*
X1144920Y-223665D02*
X1149512D01*
X1147216D01*
Y-209890D01*
X1144920Y-212186D01*
X1156400Y-221370D02*
X1158695Y-223665D01*
X1163287D01*
X1165583Y-221370D01*
Y-212186D01*
X1163287Y-209890D01*
X1158695D01*
X1156400Y-212186D01*
Y-214482D01*
X1158695Y-216778D01*
X1165583D01*
X1031110Y-132331D02*
X1039506D01*
X1035308D01*
Y-144925D01*
X1043704D02*
X1047902D01*
X1045803D01*
Y-136529D01*
X1043704D01*
X1054200Y-144925D02*
Y-136529D01*
X1056299D01*
X1058398Y-138628D01*
Y-144925D01*
Y-138628D01*
X1060497Y-136529D01*
X1062596Y-138628D01*
Y-144925D01*
X1073091D02*
X1068893D01*
X1066794Y-142826D01*
Y-138628D01*
X1068893Y-136529D01*
X1073091D01*
X1075190Y-138628D01*
Y-140727D01*
X1066794D01*
X1091983Y-132331D02*
Y-144925D01*
X1098280D01*
X1100379Y-142826D01*
Y-140727D01*
X1098280Y-138628D01*
X1091983D01*
X1098280D01*
X1100379Y-136529D01*
Y-134430D01*
X1098280Y-132331D01*
X1091983D01*
X1104577Y-144925D02*
X1108775D01*
X1106676D01*
Y-132331D01*
X1104577D01*
X1117171Y-136529D02*
X1121369D01*
X1123469Y-138628D01*
Y-144925D01*
X1117171D01*
X1115072Y-142826D01*
X1117171Y-140727D01*
X1123469D01*
X1127667Y-144925D02*
X1133964D01*
X1136063Y-142826D01*
X1133964Y-140727D01*
X1129766D01*
X1127667Y-138628D01*
X1129766Y-136529D01*
X1136063D01*
X1142360Y-134430D02*
Y-136529D01*
X1140261D01*
X1144459D01*
X1142360D01*
Y-142826D01*
X1144459Y-144925D01*
X1157053D02*
X1152855D01*
X1150756Y-142826D01*
Y-138628D01*
X1152855Y-136529D01*
X1157053D01*
X1159153Y-138628D01*
Y-140727D01*
X1150756D01*
X1163351Y-136529D02*
Y-144925D01*
Y-140727D01*
X1165450Y-138628D01*
X1167549Y-136529D01*
X1169648D01*
D17*
X1969Y5649D02*
G03*
X5906Y0I4793J-856D01*
G01*
X114173Y0D02*
G03*
X119482Y3937I-962J6845D01*
G01*
X220474Y208749D02*
G03*
X179920Y177368I-1674J-39731D01*
G01*
X214567Y74803D02*
G03*
X212598Y72835I0J-1969D01*
G01*
X214567Y137795D02*
G03*
X212598Y135827I0J-1969D01*
G01*
X291339Y72835D02*
G03*
X289370Y74803I-1969J0D01*
G01*
X291339Y135827D02*
G03*
X289370Y137795I-1969J0D01*
G01*
X355315Y74803D02*
G03*
X353346Y76772I-1969J0D01*
G01*
X355315Y137795D02*
G03*
X353346Y139764I-1969J0D01*
G01*
X445276Y96063D02*
G03*
X446260Y95079I984J0D01*
G01*
Y133268D02*
G03*
X445276Y132283I0J-984D01*
G01*
X559449Y190157D02*
G03*
X560433Y189173I984J0D01*
G01*
X565551D02*
G03*
X566535Y190157I0J984D01*
G01*
X593110Y71850D02*
G03*
X594095Y72835I0J984D01*
G01*
Y100394D02*
G03*
X593110Y101378I-984J0D01*
G01*
X214567Y11811D02*
G03*
X212598Y9843I0J-1969D01*
G01*
X291339D02*
G03*
X289370Y11811I-1969J0D01*
G01*
X355315D02*
G03*
X353346Y13780I-1969J0D01*
G01*
X438976Y11811D02*
G03*
X437008Y9843I0J-1969D01*
G01*
X196850Y72835D02*
G03*
X194882Y74803I-1969J0D01*
G01*
X196850Y135827D02*
G03*
X194882Y137795I-1969J0D01*
G01*
X245079Y76772D02*
G03*
X243110Y74803I0J-1969D01*
G01*
X245079Y139764D02*
G03*
X243110Y137795I0J-1969D01*
G01*
X260827Y74803D02*
G03*
X258858Y76772I-1969J0D01*
G01*
X260827Y137795D02*
G03*
X258858Y139764I-1969J0D01*
G01*
X309055Y74803D02*
G03*
X307087Y72835I0J-1969D01*
G01*
X309055Y137795D02*
G03*
X307087Y135827I0J-1969D01*
G01*
X339567Y76772D02*
G03*
X337598Y74803I0J-1969D01*
G01*
X339567Y139764D02*
G03*
X337598Y137795I0J-1969D01*
G01*
X451378Y95079D02*
G03*
X452362Y96063I0J984D01*
G01*
Y132283D02*
G03*
X451378Y133268I-984J0D01*
G01*
X587008Y72835D02*
G03*
X587992Y71850I984J0D01*
G01*
Y101378D02*
G03*
X587008Y100394I0J-984D01*
G01*
X196850Y9843D02*
G03*
X194882Y11811I-1969J0D01*
G01*
X245079Y13780D02*
G03*
X243110Y11811I0J-1969D01*
G01*
X260827Y11811D02*
G03*
X258858Y13780I-1969J0D01*
G01*
X309055Y11811D02*
G03*
X307087Y9843I0J-1969D01*
G01*
X339567Y13780D02*
G03*
X337598Y11811I0J-1969D01*
G01*
X421260Y9843D02*
G03*
X419291Y11811I-1969J0D01*
G01*
X469488Y13780D02*
G03*
X467520Y11811I0J-1969D01*
G01*
X485236Y11811D02*
G03*
X483268Y13780I-1969J0D01*
G01*
X515748Y9843D02*
G03*
X513779Y11811I-1969J0D01*
G01*
X533465D02*
G03*
X531496Y9843I0J-1969D01*
G01*
X563976Y13780D02*
G03*
X562008Y11811I0J-1969D01*
G01*
X579724Y11811D02*
G03*
X577756Y13780I-1969J0D01*
G01*
X629921Y86614D02*
G03*
X629921Y86614I-39370J0D01*
G01*
X377953Y11811D02*
G03*
X173228Y11811I-102362J-102362D01*
G01*
X377953Y74803D02*
G03*
X173228Y74803I-102362J-102362D01*
G01*
X641732Y212598D02*
G03*
X641732Y212598I-78740J0D01*
G01*
X602362Y11811D02*
G03*
X397638Y11811I-102362J-102362D01*
G01*
X507874Y114173D02*
G03*
X507874Y114173I-59055J0D01*
G01*
X560433Y236024D02*
G03*
X559449Y235039I0J-984D01*
G01*
X566535D02*
G03*
X565551Y236024I-984J0D01*
G01*
X377953Y137795D02*
G03*
X173228Y137795I-102362J-102362D01*
G01*
X171312Y424484D02*
G03*
X173788Y431342I-2191J4667D01*
G01*
X220474Y208749D02*
G03*
X454859Y291178I7872J352063D01*
G01*
X277819Y427393D02*
G03*
X102362Y500000I-165735J-152199D01*
G01*
X173788Y431342D02*
G03*
X102362Y476378I-68387J-29303D01*
G01*
X454859Y346617D02*
G03*
X281482Y425102I-226513J-269634D01*
G01*
X171312Y424484D02*
G03*
X11635Y354556I57035J-347502D01*
G01*
X11602Y283277D02*
G03*
X11811Y354331I-31779J35621D01*
G01*
X11635Y283240D02*
G03*
X79220Y241796I216711J277573D01*
G01*
X81102Y232729D02*
G03*
X79220Y241796I-7642J3142D01*
G01*
X277819Y427393D02*
G03*
X281482Y425102I4142J2550D01*
G01*
X5906Y-0D02*
X114173Y0D01*
X119482Y3937D02*
X179920Y177368D01*
X515748Y-0D02*
X531496D01*
X421260D02*
X437008D01*
X446260Y95079D02*
X451378D01*
X446260Y133268D02*
X451378D01*
X196850Y-0D02*
Y9843D01*
Y62992D02*
Y72835D01*
Y125984D02*
Y135827D01*
X212598Y-0D02*
Y9843D01*
Y62992D02*
Y72835D01*
Y125984D02*
Y135827D01*
X291339Y-0D02*
Y9843D01*
Y62992D02*
Y72835D01*
Y125984D02*
Y135827D01*
X307087Y-0D02*
Y9843D01*
Y62992D02*
Y72835D01*
Y125984D02*
Y135827D01*
X421260Y-0D02*
Y9843D01*
X437008Y-0D02*
Y9843D01*
X531496Y-0D02*
Y9843D01*
X445276Y96063D02*
Y132283D01*
X559449Y190157D02*
Y235039D01*
X566535Y190157D02*
Y235039D01*
X587008Y72835D02*
Y100394D01*
X594095Y72835D02*
Y100394D01*
X196850Y-0D02*
X212598D01*
X196850Y62992D02*
X212598D01*
X196850Y125984D02*
X212598D01*
X291339Y-0D02*
X307087D01*
X291339Y62992D02*
X307087D01*
X291339Y125984D02*
X307087D01*
X560433Y189173D02*
X565551D01*
X587992Y71850D02*
X593110D01*
X587992Y101378D02*
X593110D01*
X515748Y-0D02*
Y9843D01*
X452362Y96063D02*
Y132283D01*
X173228Y74803D02*
X194882D01*
X214567D02*
X243110D01*
X245079Y76772D02*
X258858D01*
X173228Y137795D02*
X194882D01*
X214567D02*
X243110D01*
X245079Y139764D02*
X258858D01*
X355315Y74803D02*
X377953D01*
X309055D02*
X337598D01*
X339567Y76772D02*
X353346D01*
X355315Y137795D02*
X377953D01*
X309055D02*
X337598D01*
X339567Y139764D02*
X353346D01*
X214567Y11811D02*
X243110D01*
X173228D02*
X194882D01*
X245079Y13780D02*
X258858D01*
X309055Y11811D02*
X337598D01*
X355315D02*
X377953D01*
X339567Y13780D02*
X353346D01*
X485236Y11811D02*
X513779D01*
X438976D02*
X467520D01*
X397638D02*
X419291D01*
X469488Y13780D02*
X483268D01*
X533465Y11811D02*
X562008D01*
X579724D02*
X602362D01*
X563976Y13780D02*
X577756D01*
X260827Y74803D02*
X289370D01*
X260827Y137795D02*
X289370D01*
X260827Y11811D02*
X289370D01*
X560433Y236024D02*
X565551D01*
X455014Y291366D02*
X494095Y294991D01*
X505643Y296063D02*
X541339Y299375D01*
X552887Y300447D02*
X588583Y303758D01*
X600131Y304830D02*
X645669Y309055D01*
X600131Y332965D02*
X645669Y328740D01*
X552887Y337349D02*
X588583Y334037D01*
X505643Y341732D02*
X541339Y338420D01*
X455014Y346430D02*
X494095Y342804D01*
X645669Y309055D02*
Y328740D01*
X494095Y296063D02*
X505643D01*
X541339Y300447D02*
X552887D01*
X588583Y304830D02*
X600131D01*
X588583Y332965D02*
X600131D01*
X541339Y337349D02*
X552887D01*
X588583Y332965D02*
Y334037D01*
Y303758D02*
Y304830D01*
X541339Y299375D02*
Y300447D01*
Y337349D02*
Y338420D01*
X494095Y341732D02*
Y342804D01*
Y341732D02*
X505643D01*
X494095Y294991D02*
Y296063D01*
X1969Y5649D02*
X81102Y232729D01*
X102362Y476378D02*
Y500000D01*
X454859Y346617D02*
X455014Y346430D01*
X454859Y291178D02*
X455014Y291366D01*
X11635Y354556D02*
X11811Y354331D01*
X11602Y283277D02*
X11635Y283240D01*
D26*
X408581Y147936D02*
G03*
X399460Y132138I40237J-33763D01*
G01*
X405512Y139764D02*
G03*
X401550Y131378I43307J-25591D01*
G01*
X414052Y101519D02*
G03*
X421473Y98547I5196J2224D01*
G01*
D02*
G03*
X424691Y93928I27346J15626D01*
G01*
X399460Y96208D02*
G03*
X408581Y80410I49358J17965D01*
G01*
X474746Y96290D02*
G03*
X494505Y97545I5904J63240D01*
G01*
X472946Y93928D02*
G03*
X474746Y96290I-24127J20245D01*
G01*
X489056Y80410D02*
G03*
X498177Y96208I-40237J33763D01*
G01*
X490181Y129228D02*
G03*
X472946Y134418I-16057J-22106D01*
G01*
X498177Y132138D02*
G03*
X489056Y147936I-49358J-17965D01*
G01*
X439698Y62445D02*
G03*
X457940Y62445I9121J51728D01*
G01*
Y165902D02*
G03*
X439698Y165902I-9121J-51728D01*
G01*
X453605Y141314D02*
G03*
X444033Y141314I-4786J-27140D01*
G01*
Y87033D02*
G03*
X453605Y87033I4786J27140D01*
G01*
X405512Y139764D02*
X406201Y139656D01*
X418450D01*
X399460Y132138D02*
X401550Y131378D01*
X408581Y147936D02*
X418450Y139656D01*
X408581Y80410D02*
X424691Y93928D01*
X399460Y96208D02*
X414052Y101519D01*
X494505Y97545D02*
X498177Y96208D01*
X472946Y93928D02*
X489056Y80410D01*
X472946Y134418D02*
X489056Y147936D01*
X490181Y129228D02*
X498177Y132138D01*
X453605Y141314D02*
X457940Y165902D01*
X439698D02*
X444033Y141314D01*
X439698Y62445D02*
X444033Y87033D01*
X453605D02*
X457940Y62445D01*
D27*
X637795Y212598D02*
G03*
X637795Y212598I-74803J0D01*
G01*
D28*
X454528Y34383D02*
G03*
X433524Y24589I45472J-124935D01*
G01*
X523087Y40382D02*
G03*
X500000Y42402I-23087J-130933D01*
G01*
X230118Y34383D02*
G03*
X209114Y24589I45472J-124935D01*
G01*
X298678Y40382D02*
G03*
X275591Y42402I-23087J-130933D01*
G01*
X230118Y97376D02*
G03*
X209114Y87581I45472J-124935D01*
G01*
X298678Y103374D02*
G03*
X275591Y105394I-23087J-130933D01*
G01*
X298678Y166366D02*
G03*
X275591Y168386I-23087J-130933D01*
G01*
X230118Y160368D02*
G03*
X209114Y150574I45472J-124935D01*
G01*
D29*
X87832Y74402D02*
D03*
X85396Y67330D02*
D03*
D30*
X49523Y103455D02*
D03*
X56595Y101020D02*
D03*
D31*
X52478Y89595D02*
D03*
X57206Y87967D02*
D03*
X66661Y84711D02*
D03*
X71389Y83083D02*
D03*
X80844Y79827D02*
D03*
X76116Y81455D02*
D03*
X74691Y61959D02*
D03*
X69964Y63587D02*
D03*
D32*
X47751Y91222D02*
D03*
X61933Y86339D02*
D03*
X60509Y66843D02*
D03*
X65236Y65215D02*
D03*
X55781Y68471D02*
D03*
X51053Y70099D02*
D03*
X46326Y71727D02*
D03*
X41598Y73354D02*
D03*
D33*
X529921Y245866D02*
D03*
X517323D02*
D03*
Y226575D02*
D03*
X529921D02*
D03*
X574213Y76968D02*
D03*
X561614D02*
D03*
Y96260D02*
D03*
X574213D02*
D03*
X619488Y76968D02*
D03*
X606890D02*
D03*
Y96260D02*
D03*
X619488D02*
D03*
X419685Y104528D02*
D03*
X407087D02*
D03*
Y123819D02*
D03*
X419685D02*
D03*
X490551Y104528D02*
D03*
X477953D02*
D03*
Y123819D02*
D03*
X490551D02*
D03*
X529921Y179331D02*
D03*
X517323D02*
D03*
Y198622D02*
D03*
X529921D02*
D03*
X608661Y179331D02*
D03*
X596063D02*
D03*
Y198622D02*
D03*
X608661D02*
D03*
Y226575D02*
D03*
X596063D02*
D03*
Y245866D02*
D03*
X608661D02*
D03*
D34*
X500000Y334646D02*
D03*
Y303150D02*
D03*
X547244Y330709D02*
D03*
Y307087D02*
D03*
X594488Y326772D02*
D03*
Y311024D02*
D03*
D35*
X566732Y259842D02*
D03*
X559252D02*
D03*
X416339Y134646D02*
D03*
X408858D02*
D03*
X594291Y108268D02*
D03*
X586811D02*
D03*
D36*
X204724Y134646D02*
D03*
X299213D02*
D03*
Y71654D02*
D03*
X204724D02*
D03*
X299213Y8661D02*
D03*
X204724D02*
D03*
X523622Y8661D02*
D03*
X429134D02*
D03*
D37*
X238347Y388779D02*
D03*
X246007Y382352D02*
D03*
X230686Y395207D02*
D03*
X223026Y401635D02*
D03*
X215365Y408063D02*
D03*
X207705Y414491D02*
D03*
X43754Y333622D02*
D03*
Y323622D02*
D03*
Y313622D02*
D03*
Y303622D02*
D03*
Y293622D02*
D03*
X164065Y191207D02*
D03*
X171631Y183216D02*
D03*
X165571Y166568D02*
D03*
X154639Y165309D02*
D03*
D38*
X200044Y420919D02*
D03*
D39*
X74803Y108268D02*
D03*
X131890Y195866D02*
D03*
X169291Y472441D02*
D03*
D40*
X205913Y260291D02*
D03*
Y278291D02*
D03*
X179913D02*
D03*
Y260291D02*
D03*
X346850Y284959D02*
D03*
X386221Y353150D02*
D03*
X75590Y334646D02*
D03*
X75590Y326772D02*
D03*
X75590Y311024D02*
D03*
X75590Y303150D02*
D03*
X62598Y303150D02*
D03*
Y311024D02*
D03*
X62598Y326772D02*
D03*
X62598Y334646D02*
D03*
D41*
X218347Y229252D02*
D03*
Y239252D02*
D03*
X228346Y229252D02*
D03*
Y239252D02*
D03*
X238347Y229252D02*
D03*
D42*
Y239252D02*
D03*
D43*
X55427Y45858D02*
D03*
X46121Y49062D02*
D03*
X48684Y56507D02*
D03*
X57991Y53303D02*
D03*
D44*
X69710Y29656D02*
D03*
X24891Y45088D02*
D03*
D45*
X43754Y343622D02*
D03*
D46*
X118110Y383071D02*
D03*
D47*
Y353150D02*
D03*
X243000Y363789D02*
D03*
X235339Y370216D02*
D03*
X250660Y357361D02*
D03*
X258320Y350933D02*
D03*
X288962Y325221D02*
D03*
X281302Y331649D02*
D03*
X273641Y338077D02*
D03*
X265981Y344505D02*
D03*
X254358Y315096D02*
D03*
X262018Y308668D02*
D03*
X269679Y302240D02*
D03*
X246697Y321524D02*
D03*
X231376Y334379D02*
D03*
X223716Y340807D02*
D03*
X200735Y360091D02*
D03*
X208395Y353663D02*
D03*
X216055Y347235D02*
D03*
X193074Y366519D02*
D03*
X185414Y372947D02*
D03*
X177753Y379375D02*
D03*
X239037Y327951D02*
D03*
X204697Y395928D02*
D03*
X212358Y389500D02*
D03*
X220018Y383072D02*
D03*
X227679Y376644D02*
D03*
X197037Y402356D02*
D03*
X189376Y408784D02*
D03*
D48*
X218776Y295400D02*
D03*
X204059Y307750D02*
D03*
X261811Y413386D02*
D03*
X268882Y420457D02*
D03*
X235418Y453922D02*
D03*
X228346Y446850D02*
D03*
X622835Y313898D02*
D03*
X640158D02*
D03*
D49*
X222227Y319950D02*
D03*
X178920Y356958D02*
D03*
X253150Y376310D02*
D03*
X200449Y338454D02*
D03*
X228954Y314578D02*
D03*
D50*
X206907Y332806D02*
D03*
X163599Y369814D02*
D03*
X268470Y363454D02*
D03*
X185128Y351310D02*
D03*
X244275Y301722D02*
D03*
D51*
X170093Y385802D02*
D03*
D52*
X280512Y363789D02*
D03*
D53*
X286417D02*
D03*
D54*
X105818Y39479D02*
D03*
X118022Y14457D02*
D03*
X80797Y27275D02*
D03*
D55*
X96512Y42683D02*
D03*
X87206Y45888D02*
D03*
X115125Y36274D02*
D03*
X124431Y33070D02*
D03*
D56*
X99410Y20866D02*
D03*
D57*
X417323Y315945D02*
D03*
D58*
Y321850D02*
D03*
D59*
X263795Y397653D02*
D03*
D60*
X277937Y411796D02*
D03*
D61*
X196063Y326378D02*
D03*
X165904Y351684D02*
D03*
X418622Y358019D02*
D03*
X384527Y377704D02*
D03*
X418622Y279528D02*
D03*
X384527Y259842D02*
D03*
D62*
X440945Y329646D02*
D03*
Y339646D02*
D03*
Y298150D02*
D03*
Y308150D02*
D03*
D63*
Y334646D02*
D03*
Y303150D02*
D03*
D64*
X153543Y248031D02*
D03*
Y295276D02*
D03*
Y342520D02*
D03*
Y389764D02*
D03*
X303150D02*
D03*
Y342520D02*
D03*
Y295276D02*
D03*
Y248031D02*
D03*
D65*
X107874Y480315D02*
D03*
Y485433D02*
D03*
Y490551D02*
D03*
D66*
Y495669D02*
D03*
D67*
X254740Y406315D02*
D03*
X221275Y439779D02*
D03*
D68*
X622835Y323898D02*
D03*
X640158D02*
D03*
D69*
X125984Y488189D02*
D03*
D70*
X143701Y482283D02*
D03*
D71*
X196850Y452756D02*
D03*
D72*
X366142Y387795D02*
D03*
X370079Y374016D02*
D03*
X81693Y282480D02*
D03*
X58071Y106496D02*
D03*
X82677Y62992D02*
D03*
X36614Y66929D02*
D03*
X285433Y342126D02*
D03*
X522614Y306079D02*
D03*
X569858Y310016D02*
D03*
X571850Y228346D02*
D03*
X554134Y228346D02*
D03*
X554335Y196850D02*
D03*
X571850D02*
D03*
X439961Y124016D02*
D03*
X457677D02*
D03*
Y104331D02*
D03*
X439961D02*
D03*
X581693Y94488D02*
D03*
X581693Y78740D02*
D03*
X599409D02*
D03*
Y94488D02*
D03*
M02*
