G04*
G04 #@! TF.GenerationSoftware,Altium Limited,Altium Designer,18.1.11 (251)*
G04*
G04 Layer_Color=8421504*
%FSLAX25Y25*%
%MOIN*%
G70*
G01*
G75*
%ADD10C,0.01575*%
%ADD11C,0.00984*%
G04:AMPARAMS|DCode=12|XSize=59.06mil|YSize=51.18mil|CornerRadius=0mil|HoleSize=0mil|Usage=FLASHONLY|Rotation=341.000|XOffset=0mil|YOffset=0mil|HoleType=Round|Shape=Rectangle|*
%AMROTATEDRECTD12*
4,1,4,-0.03625,-0.01458,-0.01959,0.03381,0.03625,0.01458,0.01959,-0.03381,-0.03625,-0.01458,0.0*
%
%ADD12ROTATEDRECTD12*%

G04:AMPARAMS|DCode=13|XSize=59.06mil|YSize=51.18mil|CornerRadius=0mil|HoleSize=0mil|Usage=FLASHONLY|Rotation=71.000|XOffset=0mil|YOffset=0mil|HoleType=Round|Shape=Rectangle|*
%AMROTATEDRECTD13*
4,1,4,0.01458,-0.03625,-0.03381,-0.01959,-0.01458,0.03625,0.03381,0.01959,0.01458,-0.03625,0.0*
%
%ADD13ROTATEDRECTD13*%

G04:AMPARAMS|DCode=14|XSize=15.75mil|YSize=86.61mil|CornerRadius=0mil|HoleSize=0mil|Usage=FLASHONLY|Rotation=161.000|XOffset=0mil|YOffset=0mil|HoleType=Round|Shape=Round|*
%AMOVALD14*
21,1,0.07087,0.01575,0.00000,0.00000,251.0*
1,1,0.01575,0.01154,0.03350*
1,1,0.01575,-0.01154,-0.03350*
%
%ADD14OVALD14*%

G04:AMPARAMS|DCode=15|XSize=23.62mil|YSize=86.61mil|CornerRadius=0mil|HoleSize=0mil|Usage=FLASHONLY|Rotation=161.000|XOffset=0mil|YOffset=0mil|HoleType=Round|Shape=Round|*
%AMOVALD15*
21,1,0.06299,0.02362,0.00000,0.00000,251.0*
1,1,0.02362,0.01025,0.02978*
1,1,0.02362,-0.01025,-0.02978*
%
%ADD15OVALD15*%

%ADD16R,0.03937X0.05906*%
G04:AMPARAMS|DCode=17|XSize=196.85mil|YSize=78.74mil|CornerRadius=3.94mil|HoleSize=0mil|Usage=FLASHONLY|Rotation=0.000|XOffset=0mil|YOffset=0mil|HoleType=Round|Shape=RoundedRectangle|*
%AMROUNDEDRECTD17*
21,1,0.19685,0.07087,0,0,0.0*
21,1,0.18898,0.07874,0,0,0.0*
1,1,0.00787,0.09449,-0.03543*
1,1,0.00787,-0.09449,-0.03543*
1,1,0.00787,-0.09449,0.03543*
1,1,0.00787,0.09449,0.03543*
%
%ADD17ROUNDEDRECTD17*%
%ADD18R,0.05118X0.05906*%
G04:AMPARAMS|DCode=19|XSize=137.8mil|YSize=118.11mil|CornerRadius=14.76mil|HoleSize=0mil|Usage=FLASHONLY|Rotation=90.000|XOffset=0mil|YOffset=0mil|HoleType=Round|Shape=RoundedRectangle|*
%AMROUNDEDRECTD19*
21,1,0.13780,0.08858,0,0,90.0*
21,1,0.10827,0.11811,0,0,90.0*
1,1,0.02953,0.04429,0.05413*
1,1,0.02953,0.04429,-0.05413*
1,1,0.02953,-0.04429,-0.05413*
1,1,0.02953,-0.04429,0.05413*
%
%ADD19ROUNDEDRECTD19*%
D10*
X1042921Y-168552D02*
X1052104D01*
X1047513D01*
Y-182327D01*
X1058992D02*
X1063584D01*
X1065879Y-180031D01*
Y-175439D01*
X1063584Y-173144D01*
X1058992D01*
X1056696Y-175439D01*
Y-180031D01*
X1058992Y-182327D01*
X1070471Y-186919D02*
Y-173144D01*
X1077359D01*
X1079655Y-175439D01*
Y-180031D01*
X1077359Y-182327D01*
X1070471D01*
X1098021D02*
Y-168552D01*
X1104909D01*
X1107205Y-170848D01*
Y-175439D01*
X1104909Y-177735D01*
X1098021D01*
X1114092Y-173144D02*
X1118684D01*
X1120980Y-175439D01*
Y-182327D01*
X1114092D01*
X1111796Y-180031D01*
X1114092Y-177735D01*
X1120980D01*
X1125571Y-182327D02*
X1132459D01*
X1134755Y-180031D01*
X1132459Y-177735D01*
X1127867D01*
X1125571Y-175439D01*
X1127867Y-173144D01*
X1134755D01*
X1141642Y-170848D02*
Y-173144D01*
X1139347D01*
X1143938D01*
X1141642D01*
Y-180031D01*
X1143938Y-182327D01*
X1157713D02*
X1153122D01*
X1150826Y-180031D01*
Y-175439D01*
X1153122Y-173144D01*
X1157713D01*
X1160009Y-175439D01*
Y-177735D01*
X1150826D01*
D11*
X0Y0D02*
X645669D01*
Y500000D01*
X0D02*
X645669D01*
X0Y0D02*
Y500000D01*
D12*
X87832Y74402D02*
D03*
X85396Y67330D02*
D03*
D13*
X49523Y103455D02*
D03*
X56595Y101020D02*
D03*
D14*
X52478Y89595D02*
D03*
X57206Y87967D02*
D03*
X66661Y84711D02*
D03*
X71389Y83083D02*
D03*
X80844Y79827D02*
D03*
X76116Y81455D02*
D03*
X74691Y61959D02*
D03*
X69964Y63587D02*
D03*
D15*
X47751Y91222D02*
D03*
X61933Y86339D02*
D03*
X60509Y66843D02*
D03*
X65236Y65215D02*
D03*
X55781Y68471D02*
D03*
X51053Y70099D02*
D03*
X46326Y71727D02*
D03*
X41598Y73354D02*
D03*
D16*
X529921Y245866D02*
D03*
X517323D02*
D03*
Y226575D02*
D03*
X529921D02*
D03*
X574213Y76968D02*
D03*
X561614D02*
D03*
Y96260D02*
D03*
X574213D02*
D03*
X619488Y76968D02*
D03*
X606890D02*
D03*
Y96260D02*
D03*
X619488D02*
D03*
X419685Y104528D02*
D03*
X407087D02*
D03*
Y123819D02*
D03*
X419685D02*
D03*
X490551Y104528D02*
D03*
X477953D02*
D03*
Y123819D02*
D03*
X490551D02*
D03*
X529921Y179331D02*
D03*
X517323D02*
D03*
Y198622D02*
D03*
X529921D02*
D03*
X608661Y179331D02*
D03*
X596063D02*
D03*
Y198622D02*
D03*
X608661D02*
D03*
Y226575D02*
D03*
X596063D02*
D03*
Y245866D02*
D03*
X608661D02*
D03*
D17*
X500000Y334646D02*
D03*
Y303150D02*
D03*
X547244Y330709D02*
D03*
Y307087D02*
D03*
X594488Y326772D02*
D03*
Y311024D02*
D03*
D18*
X566732Y259842D02*
D03*
X559252D02*
D03*
X416339Y134646D02*
D03*
X408858D02*
D03*
X594291Y108268D02*
D03*
X586811D02*
D03*
D19*
X204724Y134646D02*
D03*
X299213D02*
D03*
Y71654D02*
D03*
X204724D02*
D03*
X299213Y8661D02*
D03*
X204724D02*
D03*
X523622Y8661D02*
D03*
X429134D02*
D03*
M02*
