G04*
G04 #@! TF.GenerationSoftware,Altium Limited,Altium Designer,20.0.13 (296)*
G04*
G04 Layer_Color=417716*
%FSLAX25Y25*%
%MOIN*%
G70*
G01*
G75*
%ADD10C,0.00984*%
%ADD11C,0.00197*%
%ADD12C,0.00394*%
%ADD13C,0.01575*%
%ADD14C,0.01968*%
%ADD15C,0.01378*%
%ADD16C,0.00787*%
G36*
X872201Y-141778D02*
X873919D01*
Y-142065D01*
X874778D01*
Y-142351D01*
X875637D01*
Y-142637D01*
X876496D01*
Y-142924D01*
X877069D01*
Y-143210D01*
X877355D01*
Y-143496D01*
X877928D01*
Y-143783D01*
X878214D01*
Y-144069D01*
X878786D01*
Y-144355D01*
X879073D01*
Y-144641D01*
X879359D01*
Y-144928D01*
X879646D01*
Y-145214D01*
X879932D01*
Y-145501D01*
X880218D01*
Y-145787D01*
X880504D01*
Y-146073D01*
Y-146359D01*
X880791D01*
Y-146646D01*
X881077D01*
Y-146932D01*
Y-147218D01*
X881363D01*
Y-147505D01*
X881650D01*
Y-147791D01*
Y-148077D01*
X881936D01*
Y-148364D01*
Y-148650D01*
Y-148936D01*
X882222D01*
Y-149223D01*
Y-149509D01*
Y-149795D01*
X882509D01*
Y-150082D01*
Y-150368D01*
Y-150654D01*
Y-150940D01*
X882795D01*
Y-151227D01*
Y-151513D01*
Y-151799D01*
Y-152086D01*
Y-152372D01*
X883081D01*
Y-152658D01*
Y-152945D01*
Y-153231D01*
Y-153517D01*
Y-153804D01*
Y-154090D01*
Y-154376D01*
Y-154663D01*
Y-154949D01*
Y-155235D01*
Y-155521D01*
Y-155808D01*
Y-156094D01*
Y-156380D01*
Y-156667D01*
Y-156953D01*
Y-157239D01*
Y-157526D01*
Y-157812D01*
Y-158098D01*
X882795D01*
Y-158385D01*
Y-158671D01*
Y-158957D01*
Y-159244D01*
Y-159530D01*
Y-159816D01*
Y-160102D01*
X882509D01*
Y-160389D01*
Y-160675D01*
Y-160961D01*
Y-161248D01*
Y-161534D01*
X882222D01*
Y-161820D01*
Y-162107D01*
Y-162393D01*
Y-162679D01*
Y-162966D01*
X881936D01*
Y-163252D01*
Y-163538D01*
Y-163824D01*
X881650D01*
Y-164111D01*
Y-164397D01*
Y-164683D01*
Y-164970D01*
X881363D01*
Y-165256D01*
Y-165542D01*
Y-165829D01*
X881077D01*
Y-166115D01*
Y-166401D01*
X880791D01*
Y-166688D01*
Y-166974D01*
Y-167260D01*
X880504D01*
Y-167547D01*
Y-167833D01*
X880218D01*
Y-168119D01*
Y-168405D01*
X879932D01*
Y-168692D01*
Y-168978D01*
X879646D01*
Y-169264D01*
X879359D01*
Y-169551D01*
Y-169837D01*
X879073D01*
Y-170123D01*
X878786D01*
Y-170410D01*
X878500D01*
Y-170696D01*
Y-170982D01*
X878214D01*
Y-171269D01*
X877928D01*
Y-171555D01*
X877641D01*
Y-171841D01*
X877355D01*
Y-172127D01*
X877069D01*
Y-172414D01*
X876496D01*
Y-172700D01*
X876210D01*
Y-172986D01*
X875637D01*
Y-173273D01*
X875351D01*
Y-173559D01*
X874778D01*
Y-173845D01*
X873919D01*
Y-174132D01*
X873060D01*
Y-174418D01*
X872201D01*
Y-174704D01*
X870483D01*
Y-174991D01*
X865330D01*
Y-174704D01*
X862753D01*
Y-174418D01*
X860749D01*
Y-174132D01*
X859317D01*
Y-173845D01*
X857886D01*
Y-173559D01*
X856454D01*
Y-173845D01*
Y-174132D01*
Y-174418D01*
Y-174704D01*
Y-174991D01*
Y-175277D01*
Y-175563D01*
X856168D01*
Y-175850D01*
Y-176136D01*
Y-176422D01*
Y-176709D01*
Y-176995D01*
Y-177281D01*
X855882D01*
Y-177568D01*
Y-177854D01*
Y-178140D01*
Y-178426D01*
Y-178713D01*
Y-178999D01*
X855595D01*
Y-179285D01*
Y-179572D01*
Y-179858D01*
Y-180144D01*
Y-180431D01*
Y-180717D01*
Y-181003D01*
X855309D01*
Y-181290D01*
Y-181576D01*
Y-181862D01*
Y-182149D01*
Y-182435D01*
Y-182721D01*
X855023D01*
Y-183007D01*
Y-183294D01*
Y-183580D01*
Y-183866D01*
Y-184153D01*
Y-184439D01*
X854736D01*
Y-184725D01*
Y-185012D01*
Y-185298D01*
Y-185584D01*
Y-185871D01*
Y-186157D01*
Y-186443D01*
X854450D01*
Y-186730D01*
Y-187016D01*
Y-187302D01*
Y-187588D01*
Y-187875D01*
Y-188161D01*
X854164D01*
Y-188447D01*
Y-188734D01*
Y-189020D01*
Y-189306D01*
Y-189593D01*
Y-189879D01*
X853877D01*
Y-190165D01*
Y-190452D01*
Y-190738D01*
Y-191024D01*
Y-191311D01*
Y-191597D01*
Y-191883D01*
X840421D01*
Y-191597D01*
X840707D01*
Y-191311D01*
Y-191024D01*
Y-190738D01*
Y-190452D01*
Y-190165D01*
X840993D01*
Y-189879D01*
Y-189593D01*
Y-189306D01*
Y-189020D01*
Y-188734D01*
Y-188447D01*
Y-188161D01*
X841280D01*
Y-187875D01*
Y-187588D01*
Y-187302D01*
Y-187016D01*
Y-186730D01*
Y-186443D01*
X841566D01*
Y-186157D01*
Y-185871D01*
Y-185584D01*
Y-185298D01*
Y-185012D01*
Y-184725D01*
X841852D01*
Y-184439D01*
Y-184153D01*
Y-183866D01*
Y-183580D01*
Y-183294D01*
Y-183007D01*
Y-182721D01*
X842138D01*
Y-182435D01*
Y-182149D01*
Y-181862D01*
Y-181576D01*
Y-181290D01*
Y-181003D01*
X842425D01*
Y-180717D01*
Y-180431D01*
Y-180144D01*
Y-179858D01*
Y-179572D01*
Y-179285D01*
X842711D01*
Y-178999D01*
Y-178713D01*
Y-178426D01*
Y-178140D01*
Y-177854D01*
Y-177568D01*
X842997D01*
Y-177281D01*
Y-176995D01*
Y-176709D01*
Y-176422D01*
Y-176136D01*
Y-175850D01*
Y-175563D01*
X843284D01*
Y-175277D01*
Y-174991D01*
Y-174704D01*
Y-174418D01*
Y-174132D01*
Y-173845D01*
X843570D01*
Y-173559D01*
Y-173273D01*
Y-172986D01*
Y-172700D01*
Y-172414D01*
Y-172127D01*
X843856D01*
Y-171841D01*
Y-171555D01*
Y-171269D01*
Y-170982D01*
Y-170696D01*
Y-170410D01*
X844143D01*
Y-170123D01*
Y-169837D01*
Y-169551D01*
Y-169264D01*
Y-168978D01*
Y-168692D01*
Y-168405D01*
X844429D01*
Y-168119D01*
Y-167833D01*
Y-167547D01*
Y-167260D01*
Y-166974D01*
Y-166688D01*
X844715D01*
Y-166401D01*
Y-166115D01*
Y-165829D01*
Y-165542D01*
Y-165256D01*
Y-164970D01*
X845002D01*
Y-164683D01*
Y-164397D01*
Y-164111D01*
Y-163824D01*
Y-163538D01*
Y-163252D01*
Y-162966D01*
X845288D01*
Y-162679D01*
Y-162393D01*
Y-162107D01*
Y-161820D01*
Y-161534D01*
Y-161248D01*
X845574D01*
Y-160961D01*
Y-160675D01*
Y-160389D01*
Y-160102D01*
Y-159816D01*
Y-159530D01*
X845861D01*
Y-159244D01*
Y-158957D01*
Y-158671D01*
Y-158385D01*
Y-158098D01*
Y-157812D01*
X846147D01*
Y-157526D01*
Y-157239D01*
Y-156953D01*
Y-156667D01*
Y-156380D01*
Y-156094D01*
Y-155808D01*
X846433D01*
Y-155521D01*
Y-155235D01*
Y-154949D01*
Y-154663D01*
Y-154376D01*
Y-154090D01*
X846719D01*
Y-153804D01*
Y-153517D01*
Y-153231D01*
Y-152945D01*
Y-152658D01*
Y-152372D01*
X847006D01*
Y-152086D01*
Y-151799D01*
Y-151513D01*
Y-151227D01*
Y-150940D01*
Y-150654D01*
Y-150368D01*
X847292D01*
Y-150082D01*
Y-149795D01*
Y-149509D01*
Y-149223D01*
Y-148936D01*
Y-148650D01*
X847578D01*
Y-148364D01*
Y-148077D01*
Y-147791D01*
Y-147505D01*
Y-147218D01*
Y-146932D01*
X847865D01*
Y-146646D01*
Y-146359D01*
Y-146073D01*
Y-145787D01*
Y-145501D01*
Y-145214D01*
Y-144928D01*
X848151D01*
Y-144641D01*
Y-144355D01*
Y-144069D01*
Y-143783D01*
Y-143496D01*
Y-143210D01*
X848437D01*
Y-142924D01*
Y-142637D01*
Y-142351D01*
Y-142065D01*
Y-141778D01*
Y-141492D01*
X872201D01*
Y-141778D01*
D02*
G37*
G36*
X903409Y-138343D02*
Y-138629D01*
X903123D01*
Y-138915D01*
Y-139202D01*
Y-139488D01*
Y-139774D01*
Y-140060D01*
Y-140347D01*
X902837D01*
Y-140633D01*
Y-140919D01*
Y-141206D01*
Y-141492D01*
Y-141778D01*
Y-142065D01*
X902551D01*
Y-142351D01*
Y-142637D01*
Y-142924D01*
Y-143210D01*
Y-143496D01*
Y-143783D01*
Y-144069D01*
X902264D01*
Y-144355D01*
Y-144641D01*
Y-144928D01*
Y-145214D01*
Y-145501D01*
Y-145787D01*
X901978D01*
Y-146073D01*
Y-146359D01*
Y-146646D01*
Y-146932D01*
Y-147218D01*
Y-147505D01*
X901692D01*
Y-147791D01*
Y-148077D01*
Y-148364D01*
Y-148650D01*
Y-148936D01*
Y-149223D01*
Y-149509D01*
X901405D01*
Y-149795D01*
Y-150082D01*
Y-150368D01*
Y-150654D01*
Y-150940D01*
Y-151227D01*
X901119D01*
Y-151513D01*
Y-151799D01*
Y-152086D01*
Y-152372D01*
Y-152658D01*
Y-152945D01*
X900833D01*
Y-153231D01*
Y-153517D01*
Y-153804D01*
Y-154090D01*
Y-154376D01*
Y-154663D01*
X900546D01*
Y-154949D01*
Y-155235D01*
Y-155521D01*
Y-155808D01*
Y-156094D01*
Y-156380D01*
Y-156667D01*
X900260D01*
Y-156953D01*
Y-157239D01*
Y-157526D01*
Y-157812D01*
Y-158098D01*
Y-158385D01*
X899974D01*
Y-158671D01*
Y-158957D01*
X900546D01*
Y-158671D01*
X900833D01*
Y-158385D01*
X901119D01*
Y-158098D01*
X901692D01*
Y-157812D01*
X901978D01*
Y-157526D01*
X902264D01*
Y-157239D01*
X902837D01*
Y-156953D01*
X903409D01*
Y-156667D01*
X903696D01*
Y-156380D01*
X904268D01*
Y-156094D01*
X905127D01*
Y-155808D01*
X905700D01*
Y-155521D01*
X906559D01*
Y-155235D01*
X907990D01*
Y-154949D01*
X914289D01*
Y-155235D01*
X915435D01*
Y-155521D01*
X916294D01*
Y-155808D01*
X916866D01*
Y-156094D01*
X917153D01*
Y-156380D01*
X917725D01*
Y-156667D01*
X918011D01*
Y-156953D01*
X918298D01*
Y-157239D01*
X918584D01*
Y-157526D01*
X918870D01*
Y-157812D01*
Y-158098D01*
X919157D01*
Y-158385D01*
Y-158671D01*
X919443D01*
Y-158957D01*
Y-159244D01*
Y-159530D01*
X919729D01*
Y-159816D01*
Y-160102D01*
Y-160389D01*
Y-160675D01*
X920016D01*
Y-160961D01*
Y-161248D01*
Y-161534D01*
Y-161820D01*
Y-162107D01*
Y-162393D01*
Y-162679D01*
Y-162966D01*
Y-163252D01*
Y-163538D01*
Y-163824D01*
Y-164111D01*
Y-164397D01*
Y-164683D01*
Y-164970D01*
Y-165256D01*
Y-165542D01*
Y-165829D01*
X919729D01*
Y-166115D01*
Y-166401D01*
Y-166688D01*
Y-166974D01*
Y-167260D01*
Y-167547D01*
Y-167833D01*
X919443D01*
Y-168119D01*
Y-168405D01*
Y-168692D01*
Y-168978D01*
Y-169264D01*
Y-169551D01*
Y-169837D01*
X919157D01*
Y-170123D01*
Y-170410D01*
Y-170696D01*
Y-170982D01*
Y-171269D01*
Y-171555D01*
X918870D01*
Y-171841D01*
Y-172127D01*
Y-172414D01*
Y-172700D01*
Y-172986D01*
Y-173273D01*
X918584D01*
Y-173559D01*
Y-173845D01*
Y-174132D01*
Y-174418D01*
Y-174704D01*
Y-174991D01*
X918298D01*
Y-175277D01*
Y-175563D01*
Y-175850D01*
Y-176136D01*
Y-176422D01*
Y-176709D01*
Y-176995D01*
X918011D01*
Y-177281D01*
Y-177568D01*
Y-177854D01*
Y-178140D01*
Y-178426D01*
Y-178713D01*
X917725D01*
Y-178999D01*
Y-179285D01*
Y-179572D01*
Y-179858D01*
Y-180144D01*
Y-180431D01*
X917439D01*
Y-180717D01*
Y-181003D01*
Y-181290D01*
Y-181576D01*
Y-181862D01*
Y-182149D01*
Y-182435D01*
X917153D01*
Y-182721D01*
Y-183007D01*
Y-183294D01*
Y-183580D01*
Y-183866D01*
Y-184153D01*
X916866D01*
Y-184439D01*
Y-184725D01*
Y-185012D01*
Y-185298D01*
Y-185584D01*
Y-185871D01*
X916580D01*
Y-186157D01*
Y-186443D01*
Y-186730D01*
Y-187016D01*
Y-187302D01*
Y-187588D01*
X916294D01*
Y-187875D01*
Y-188161D01*
Y-188447D01*
Y-188734D01*
Y-189020D01*
Y-189306D01*
Y-189593D01*
X916007D01*
Y-189879D01*
Y-190165D01*
Y-190452D01*
Y-190738D01*
Y-191024D01*
Y-191311D01*
X915721D01*
Y-191597D01*
Y-191883D01*
X902551D01*
Y-191597D01*
Y-191311D01*
X902837D01*
Y-191024D01*
Y-190738D01*
Y-190452D01*
Y-190165D01*
Y-189879D01*
Y-189593D01*
X903123D01*
Y-189306D01*
Y-189020D01*
Y-188734D01*
Y-188447D01*
Y-188161D01*
Y-187875D01*
Y-187588D01*
X903409D01*
Y-187302D01*
Y-187016D01*
Y-186730D01*
Y-186443D01*
Y-186157D01*
Y-185871D01*
X903696D01*
Y-185584D01*
Y-185298D01*
Y-185012D01*
Y-184725D01*
Y-184439D01*
Y-184153D01*
X903982D01*
Y-183866D01*
Y-183580D01*
Y-183294D01*
Y-183007D01*
Y-182721D01*
Y-182435D01*
Y-182149D01*
X904268D01*
Y-181862D01*
Y-181576D01*
Y-181290D01*
Y-181003D01*
Y-180717D01*
Y-180431D01*
X904555D01*
Y-180144D01*
Y-179858D01*
Y-179572D01*
Y-179285D01*
Y-178999D01*
Y-178713D01*
Y-178426D01*
X904841D01*
Y-178140D01*
Y-177854D01*
Y-177568D01*
Y-177281D01*
Y-176995D01*
Y-176709D01*
X905127D01*
Y-176422D01*
Y-176136D01*
Y-175850D01*
Y-175563D01*
Y-175277D01*
Y-174991D01*
X905414D01*
Y-174704D01*
Y-174418D01*
Y-174132D01*
Y-173845D01*
Y-173559D01*
Y-173273D01*
X905700D01*
Y-172986D01*
Y-172700D01*
Y-172414D01*
Y-172127D01*
Y-171841D01*
Y-171555D01*
Y-171269D01*
X905986D01*
Y-170982D01*
Y-170696D01*
Y-170410D01*
Y-170123D01*
Y-169837D01*
Y-169551D01*
X906273D01*
Y-169264D01*
Y-168978D01*
Y-168692D01*
Y-168405D01*
Y-168119D01*
Y-167833D01*
Y-167547D01*
X906559D01*
Y-167260D01*
Y-166974D01*
Y-166688D01*
Y-166401D01*
Y-166115D01*
Y-165829D01*
X906273D01*
Y-165542D01*
Y-165256D01*
X905986D01*
Y-164970D01*
X905700D01*
Y-164683D01*
X905127D01*
Y-164397D01*
X903409D01*
Y-164683D01*
X901978D01*
Y-164970D01*
X901119D01*
Y-165256D01*
X900546D01*
Y-165542D01*
X900260D01*
Y-165829D01*
X899687D01*
Y-166115D01*
X899401D01*
Y-166401D01*
X899115D01*
Y-166688D01*
Y-166974D01*
X898828D01*
Y-167260D01*
Y-167547D01*
Y-167833D01*
X898542D01*
Y-168119D01*
Y-168405D01*
Y-168692D01*
Y-168978D01*
Y-169264D01*
Y-169551D01*
X898256D01*
Y-169837D01*
Y-170123D01*
Y-170410D01*
Y-170696D01*
Y-170982D01*
Y-171269D01*
Y-171555D01*
X897970D01*
Y-171841D01*
Y-172127D01*
Y-172414D01*
Y-172700D01*
Y-172986D01*
Y-173273D01*
X897683D01*
Y-173559D01*
Y-173845D01*
Y-174132D01*
Y-174418D01*
Y-174704D01*
Y-174991D01*
X897397D01*
Y-175277D01*
Y-175563D01*
Y-175850D01*
Y-176136D01*
Y-176422D01*
Y-176709D01*
X897111D01*
Y-176995D01*
Y-177281D01*
Y-177568D01*
Y-177854D01*
Y-178140D01*
Y-178426D01*
Y-178713D01*
X896824D01*
Y-178999D01*
Y-179285D01*
Y-179572D01*
Y-179858D01*
Y-180144D01*
Y-180431D01*
X896538D01*
Y-180717D01*
Y-181003D01*
Y-181290D01*
Y-181576D01*
Y-181862D01*
Y-182149D01*
X896252D01*
Y-182435D01*
Y-182721D01*
Y-183007D01*
Y-183294D01*
Y-183580D01*
Y-183866D01*
Y-184153D01*
X895965D01*
Y-184439D01*
Y-184725D01*
Y-185012D01*
Y-185298D01*
Y-185584D01*
Y-185871D01*
X895679D01*
Y-186157D01*
Y-186443D01*
Y-186730D01*
Y-187016D01*
Y-187302D01*
Y-187588D01*
X895393D01*
Y-187875D01*
Y-188161D01*
Y-188447D01*
Y-188734D01*
Y-189020D01*
Y-189306D01*
X895106D01*
Y-189593D01*
Y-189879D01*
Y-190165D01*
Y-190452D01*
Y-190738D01*
Y-191024D01*
Y-191311D01*
X894820D01*
Y-191597D01*
Y-191883D01*
X881650D01*
Y-191597D01*
Y-191311D01*
X881936D01*
Y-191024D01*
Y-190738D01*
Y-190452D01*
Y-190165D01*
Y-189879D01*
Y-189593D01*
Y-189306D01*
X882222D01*
Y-189020D01*
Y-188734D01*
Y-188447D01*
Y-188161D01*
Y-187875D01*
Y-187588D01*
X882509D01*
Y-187302D01*
Y-187016D01*
Y-186730D01*
Y-186443D01*
Y-186157D01*
Y-185871D01*
X882795D01*
Y-185584D01*
Y-185298D01*
Y-185012D01*
Y-184725D01*
Y-184439D01*
Y-184153D01*
Y-183866D01*
X883081D01*
Y-183580D01*
Y-183294D01*
Y-183007D01*
Y-182721D01*
Y-182435D01*
Y-182149D01*
X883368D01*
Y-181862D01*
Y-181576D01*
Y-181290D01*
Y-181003D01*
Y-180717D01*
Y-180431D01*
X883654D01*
Y-180144D01*
Y-179858D01*
Y-179572D01*
Y-179285D01*
Y-178999D01*
Y-178713D01*
X883940D01*
Y-178426D01*
Y-178140D01*
Y-177854D01*
Y-177568D01*
Y-177281D01*
Y-176995D01*
Y-176709D01*
X884227D01*
Y-176422D01*
Y-176136D01*
Y-175850D01*
Y-175563D01*
Y-175277D01*
Y-174991D01*
X884513D01*
Y-174704D01*
Y-174418D01*
Y-174132D01*
Y-173845D01*
Y-173559D01*
Y-173273D01*
X884799D01*
Y-172986D01*
Y-172700D01*
Y-172414D01*
Y-172127D01*
Y-171841D01*
Y-171555D01*
Y-171269D01*
X885085D01*
Y-170982D01*
Y-170696D01*
Y-170410D01*
Y-170123D01*
Y-169837D01*
Y-169551D01*
X885372D01*
Y-169264D01*
Y-168978D01*
Y-168692D01*
Y-168405D01*
Y-168119D01*
Y-167833D01*
X885658D01*
Y-167547D01*
Y-167260D01*
Y-166974D01*
Y-166688D01*
Y-166401D01*
Y-166115D01*
X885944D01*
Y-165829D01*
Y-165542D01*
Y-165256D01*
Y-164970D01*
Y-164683D01*
Y-164397D01*
Y-164111D01*
X886231D01*
Y-163824D01*
Y-163538D01*
Y-163252D01*
Y-162966D01*
Y-162679D01*
Y-162393D01*
X886517D01*
Y-162107D01*
Y-161820D01*
Y-161534D01*
Y-161248D01*
Y-160961D01*
Y-160675D01*
X886803D01*
Y-160389D01*
Y-160102D01*
Y-159816D01*
Y-159530D01*
Y-159244D01*
Y-158957D01*
X887090D01*
Y-158671D01*
Y-158385D01*
Y-158098D01*
Y-157812D01*
Y-157526D01*
Y-157239D01*
Y-156953D01*
X887376D01*
Y-156667D01*
Y-156380D01*
Y-156094D01*
Y-155808D01*
Y-155521D01*
Y-155235D01*
X887662D01*
Y-154949D01*
Y-154663D01*
Y-154376D01*
Y-154090D01*
Y-153804D01*
Y-153517D01*
X887949D01*
Y-153231D01*
Y-152945D01*
Y-152658D01*
Y-152372D01*
Y-152086D01*
Y-151799D01*
Y-151513D01*
X888235D01*
Y-151227D01*
Y-150940D01*
Y-150654D01*
Y-150368D01*
Y-150082D01*
Y-149795D01*
X888521D01*
Y-149509D01*
Y-149223D01*
Y-148936D01*
Y-148650D01*
Y-148364D01*
Y-148077D01*
X888807D01*
Y-147791D01*
Y-147505D01*
Y-147218D01*
Y-146932D01*
Y-146646D01*
Y-146359D01*
X889094D01*
Y-146073D01*
Y-145787D01*
Y-145501D01*
Y-145214D01*
Y-144928D01*
Y-144641D01*
Y-144355D01*
X889380D01*
Y-144069D01*
Y-143783D01*
Y-143496D01*
Y-143210D01*
Y-142924D01*
Y-142637D01*
X889666D01*
Y-142351D01*
Y-142065D01*
Y-141778D01*
Y-141492D01*
Y-141206D01*
Y-140919D01*
X889953D01*
Y-140633D01*
Y-140347D01*
Y-140060D01*
Y-139774D01*
Y-139488D01*
Y-139202D01*
Y-138915D01*
X890239D01*
Y-138629D01*
Y-138343D01*
Y-138056D01*
X903409D01*
Y-138343D01*
D02*
G37*
G36*
X1005337Y-155808D02*
X1005050D01*
Y-156094D01*
X1004764D01*
Y-156380D01*
Y-156667D01*
X1004478D01*
Y-156953D01*
X1004192D01*
Y-157239D01*
X1003905D01*
Y-157526D01*
Y-157812D01*
X1003619D01*
Y-158098D01*
X1003333D01*
Y-158385D01*
X1003046D01*
Y-158671D01*
X1002760D01*
Y-158957D01*
Y-159244D01*
X1002474D01*
Y-159530D01*
X1002187D01*
Y-159816D01*
X1001901D01*
Y-160102D01*
Y-160389D01*
X1001615D01*
Y-160675D01*
X1001328D01*
Y-160961D01*
X1001042D01*
Y-161248D01*
X1000756D01*
Y-161534D01*
Y-161820D01*
X1000469D01*
Y-162107D01*
X1000183D01*
Y-162393D01*
X999897D01*
Y-162679D01*
Y-162966D01*
X999611D01*
Y-163252D01*
X999324D01*
Y-163538D01*
X999038D01*
Y-163824D01*
Y-164111D01*
X998752D01*
Y-164397D01*
X998465D01*
Y-164683D01*
X998179D01*
Y-164970D01*
X997893D01*
Y-165256D01*
Y-165542D01*
X997606D01*
Y-165829D01*
X997320D01*
Y-166115D01*
X997034D01*
Y-166401D01*
Y-166688D01*
X996747D01*
Y-166974D01*
X996461D01*
Y-167260D01*
X996175D01*
Y-167547D01*
Y-167833D01*
X995889D01*
Y-168119D01*
X995602D01*
Y-168405D01*
X995316D01*
Y-168692D01*
X995030D01*
Y-168978D01*
Y-169264D01*
X994743D01*
Y-169551D01*
X994457D01*
Y-169837D01*
X994171D01*
Y-170123D01*
Y-170410D01*
X993884D01*
Y-170696D01*
X993598D01*
Y-170982D01*
X993312D01*
Y-171269D01*
Y-171555D01*
X993025D01*
Y-171841D01*
X992739D01*
Y-172127D01*
X992453D01*
Y-172414D01*
X992166D01*
Y-172700D01*
Y-172986D01*
X991880D01*
Y-173273D01*
X991594D01*
Y-173559D01*
X991308D01*
Y-173845D01*
Y-174132D01*
X991021D01*
Y-174418D01*
X990735D01*
Y-174704D01*
X990449D01*
Y-174991D01*
X990162D01*
Y-175277D01*
Y-175563D01*
X990449D01*
Y-175850D01*
Y-176136D01*
X990735D01*
Y-176422D01*
Y-176709D01*
X991021D01*
Y-176995D01*
X991308D01*
Y-177281D01*
Y-177568D01*
X991594D01*
Y-177854D01*
Y-178140D01*
X991880D01*
Y-178426D01*
Y-178713D01*
X992166D01*
Y-178999D01*
Y-179285D01*
X992453D01*
Y-179572D01*
Y-179858D01*
X992739D01*
Y-180144D01*
Y-180431D01*
X993025D01*
Y-180717D01*
Y-181003D01*
X993312D01*
Y-181290D01*
Y-181576D01*
X993598D01*
Y-181862D01*
X993884D01*
Y-182149D01*
Y-182435D01*
X994171D01*
Y-182721D01*
Y-183007D01*
X994457D01*
Y-183294D01*
Y-183580D01*
X994743D01*
Y-183866D01*
Y-184153D01*
X995030D01*
Y-184439D01*
Y-184725D01*
X995316D01*
Y-185012D01*
Y-185298D01*
X995602D01*
Y-185584D01*
Y-185871D01*
X995889D01*
Y-186157D01*
X996175D01*
Y-186443D01*
Y-186730D01*
X996461D01*
Y-187016D01*
Y-187302D01*
X996747D01*
Y-187588D01*
Y-187875D01*
X997034D01*
Y-188161D01*
Y-188447D01*
X997320D01*
Y-188734D01*
Y-189020D01*
X997606D01*
Y-189306D01*
Y-189593D01*
X997893D01*
Y-189879D01*
Y-190165D01*
X998179D01*
Y-190452D01*
X998465D01*
Y-190738D01*
Y-191024D01*
X998752D01*
Y-191311D01*
Y-191597D01*
X999038D01*
Y-191883D01*
X983863D01*
Y-191597D01*
X983577D01*
Y-191311D01*
Y-191024D01*
Y-190738D01*
X983291D01*
Y-190452D01*
Y-190165D01*
Y-189879D01*
X983004D01*
Y-189593D01*
Y-189306D01*
X982718D01*
Y-189020D01*
Y-188734D01*
Y-188447D01*
X982432D01*
Y-188161D01*
Y-187875D01*
Y-187588D01*
X982146D01*
Y-187302D01*
Y-187016D01*
X981859D01*
Y-186730D01*
Y-186443D01*
Y-186157D01*
X981573D01*
Y-185871D01*
Y-185584D01*
Y-185298D01*
X981287D01*
Y-185012D01*
Y-184725D01*
Y-184439D01*
X981000D01*
Y-184153D01*
X980428D01*
Y-184439D01*
Y-184725D01*
X980141D01*
Y-185012D01*
X979855D01*
Y-185298D01*
Y-185584D01*
X979569D01*
Y-185871D01*
X979282D01*
Y-186157D01*
Y-186443D01*
X978996D01*
Y-186730D01*
X978710D01*
Y-187016D01*
Y-187302D01*
X978423D01*
Y-187588D01*
X978137D01*
Y-187875D01*
X977851D01*
Y-188161D01*
Y-188447D01*
X977565D01*
Y-188734D01*
X977278D01*
Y-189020D01*
Y-189306D01*
X976992D01*
Y-189593D01*
X976705D01*
Y-189879D01*
Y-190165D01*
X976419D01*
Y-190452D01*
X976133D01*
Y-190738D01*
Y-191024D01*
X975847D01*
Y-191311D01*
X975560D01*
Y-191597D01*
Y-191883D01*
X959527D01*
Y-191597D01*
X959813D01*
Y-191311D01*
X960099D01*
Y-191024D01*
X960386D01*
Y-190738D01*
X960672D01*
Y-190452D01*
Y-190165D01*
X960958D01*
Y-189879D01*
X961245D01*
Y-189593D01*
X961531D01*
Y-189306D01*
X961817D01*
Y-189020D01*
Y-188734D01*
X962104D01*
Y-188447D01*
X962390D01*
Y-188161D01*
X962676D01*
Y-187875D01*
Y-187588D01*
X962963D01*
Y-187302D01*
X963249D01*
Y-187016D01*
X963535D01*
Y-186730D01*
X963822D01*
Y-186443D01*
Y-186157D01*
X964108D01*
Y-185871D01*
X964394D01*
Y-185584D01*
X964680D01*
Y-185298D01*
X964967D01*
Y-185012D01*
Y-184725D01*
X965253D01*
Y-184439D01*
X965539D01*
Y-184153D01*
X965826D01*
Y-183866D01*
Y-183580D01*
X966112D01*
Y-183294D01*
X966398D01*
Y-183007D01*
X966685D01*
Y-182721D01*
X966971D01*
Y-182435D01*
Y-182149D01*
X967257D01*
Y-181862D01*
X967544D01*
Y-181576D01*
X967830D01*
Y-181290D01*
Y-181003D01*
X968116D01*
Y-180717D01*
X968402D01*
Y-180431D01*
X968689D01*
Y-180144D01*
X968975D01*
Y-179858D01*
Y-179572D01*
X969261D01*
Y-179285D01*
X969548D01*
Y-178999D01*
X969834D01*
Y-178713D01*
Y-178426D01*
X970120D01*
Y-178140D01*
X970407D01*
Y-177854D01*
X970693D01*
Y-177568D01*
X970979D01*
Y-177281D01*
Y-176995D01*
X971266D01*
Y-176709D01*
X971552D01*
Y-176422D01*
X971838D01*
Y-176136D01*
X972124D01*
Y-175850D01*
Y-175563D01*
X972411D01*
Y-175277D01*
X972697D01*
Y-174991D01*
X972983D01*
Y-174704D01*
Y-174418D01*
X973270D01*
Y-174132D01*
X973556D01*
Y-173845D01*
X973842D01*
Y-173559D01*
X974129D01*
Y-173273D01*
Y-172986D01*
X974415D01*
Y-172700D01*
Y-172414D01*
Y-172127D01*
X974129D01*
Y-171841D01*
X973842D01*
Y-171555D01*
Y-171269D01*
X973556D01*
Y-170982D01*
Y-170696D01*
X973270D01*
Y-170410D01*
Y-170123D01*
X972983D01*
Y-169837D01*
Y-169551D01*
X972697D01*
Y-169264D01*
Y-168978D01*
X972411D01*
Y-168692D01*
Y-168405D01*
X972124D01*
Y-168119D01*
X971838D01*
Y-167833D01*
Y-167547D01*
X971552D01*
Y-167260D01*
Y-166974D01*
X971266D01*
Y-166688D01*
Y-166401D01*
X970979D01*
Y-166115D01*
Y-165829D01*
X970693D01*
Y-165542D01*
Y-165256D01*
X970407D01*
Y-164970D01*
Y-164683D01*
X970120D01*
Y-164397D01*
X969834D01*
Y-164111D01*
Y-163824D01*
X969548D01*
Y-163538D01*
Y-163252D01*
X969261D01*
Y-162966D01*
Y-162679D01*
X968975D01*
Y-162393D01*
Y-162107D01*
X968689D01*
Y-161820D01*
Y-161534D01*
X968402D01*
Y-161248D01*
Y-160961D01*
X968116D01*
Y-160675D01*
Y-160389D01*
X967830D01*
Y-160102D01*
X967544D01*
Y-159816D01*
Y-159530D01*
X967257D01*
Y-159244D01*
Y-158957D01*
X966971D01*
Y-158671D01*
Y-158385D01*
X966685D01*
Y-158098D01*
Y-157812D01*
X966398D01*
Y-157526D01*
Y-157239D01*
X966112D01*
Y-156953D01*
Y-156667D01*
X965826D01*
Y-156380D01*
X965539D01*
Y-156094D01*
Y-155808D01*
X965253D01*
Y-155521D01*
X981000D01*
Y-155808D01*
X981287D01*
Y-156094D01*
Y-156380D01*
Y-156667D01*
X981573D01*
Y-156953D01*
Y-157239D01*
Y-157526D01*
X981859D01*
Y-157812D01*
Y-158098D01*
Y-158385D01*
X982146D01*
Y-158671D01*
Y-158957D01*
Y-159244D01*
X982432D01*
Y-159530D01*
Y-159816D01*
Y-160102D01*
X982718D01*
Y-160389D01*
Y-160675D01*
Y-160961D01*
X983004D01*
Y-161248D01*
Y-161534D01*
Y-161820D01*
X983291D01*
Y-162107D01*
Y-162393D01*
Y-162679D01*
X983577D01*
Y-162966D01*
Y-163252D01*
Y-163538D01*
Y-163824D01*
X984150D01*
Y-163538D01*
X984436D01*
Y-163252D01*
X984722D01*
Y-162966D01*
Y-162679D01*
X985009D01*
Y-162393D01*
X985295D01*
Y-162107D01*
Y-161820D01*
X985581D01*
Y-161534D01*
X985868D01*
Y-161248D01*
Y-160961D01*
X986154D01*
Y-160675D01*
X986440D01*
Y-160389D01*
Y-160102D01*
X986726D01*
Y-159816D01*
X987013D01*
Y-159530D01*
Y-159244D01*
X987299D01*
Y-158957D01*
X987585D01*
Y-158671D01*
Y-158385D01*
X987872D01*
Y-158098D01*
X988158D01*
Y-157812D01*
Y-157526D01*
X988444D01*
Y-157239D01*
X988731D01*
Y-156953D01*
Y-156667D01*
X989017D01*
Y-156380D01*
X989303D01*
Y-156094D01*
Y-155808D01*
X989590D01*
Y-155521D01*
X1005337D01*
Y-155808D01*
D02*
G37*
G36*
X961245D02*
Y-156094D01*
Y-156380D01*
Y-156667D01*
Y-156953D01*
Y-157239D01*
Y-157526D01*
Y-157812D01*
Y-158098D01*
Y-158385D01*
Y-158671D01*
Y-158957D01*
Y-159244D01*
Y-159530D01*
Y-159816D01*
Y-160102D01*
Y-160389D01*
Y-160675D01*
Y-160961D01*
Y-161248D01*
Y-161534D01*
X960958D01*
Y-161820D01*
Y-162107D01*
Y-162393D01*
Y-162679D01*
Y-162966D01*
X960672D01*
Y-163252D01*
Y-163538D01*
Y-163824D01*
Y-164111D01*
X960386D01*
Y-164397D01*
Y-164683D01*
Y-164970D01*
Y-165256D01*
X960099D01*
Y-165542D01*
Y-165829D01*
Y-166115D01*
X959813D01*
Y-166401D01*
Y-166688D01*
Y-166974D01*
X959527D01*
Y-167260D01*
Y-167547D01*
Y-167833D01*
X959241D01*
Y-168119D01*
Y-168405D01*
Y-168692D01*
X958954D01*
Y-168978D01*
Y-169264D01*
X958668D01*
Y-169551D01*
Y-169837D01*
X958381D01*
Y-170123D01*
Y-170410D01*
Y-170696D01*
X958095D01*
Y-170982D01*
Y-171269D01*
X957809D01*
Y-171555D01*
Y-171841D01*
Y-172127D01*
X957523D01*
Y-172414D01*
Y-172700D01*
X957236D01*
Y-172986D01*
Y-173273D01*
Y-173559D01*
X956950D01*
Y-173845D01*
Y-174132D01*
X956664D01*
Y-174418D01*
Y-174704D01*
Y-174991D01*
X956377D01*
Y-175277D01*
Y-175563D01*
X956091D01*
Y-175850D01*
Y-176136D01*
Y-176422D01*
X955805D01*
Y-176709D01*
Y-176995D01*
X955518D01*
Y-177281D01*
Y-177568D01*
Y-177854D01*
X955232D01*
Y-178140D01*
Y-178426D01*
X954946D01*
Y-178713D01*
Y-178999D01*
Y-179285D01*
X954659D01*
Y-179572D01*
Y-179858D01*
X954373D01*
Y-180144D01*
Y-180431D01*
Y-180717D01*
X954087D01*
Y-181003D01*
Y-181290D01*
X953800D01*
Y-181576D01*
Y-181862D01*
Y-182149D01*
X953514D01*
Y-182435D01*
Y-182721D01*
X953228D01*
Y-183007D01*
Y-183294D01*
Y-183580D01*
X952942D01*
Y-183866D01*
Y-184153D01*
X952655D01*
Y-184439D01*
Y-184725D01*
Y-185012D01*
X952369D01*
Y-185298D01*
Y-185584D01*
X952083D01*
Y-185871D01*
Y-186157D01*
Y-186443D01*
X951796D01*
Y-186730D01*
Y-187016D01*
X951510D01*
Y-187302D01*
Y-187588D01*
Y-187875D01*
X951224D01*
Y-188161D01*
Y-188447D01*
X950937D01*
Y-188734D01*
Y-189020D01*
Y-189306D01*
X950651D01*
Y-189593D01*
Y-189879D01*
X950365D01*
Y-190165D01*
Y-190452D01*
Y-190738D01*
X950078D01*
Y-191024D01*
Y-191311D01*
X949792D01*
Y-191597D01*
Y-191883D01*
Y-192169D01*
X949506D01*
Y-192456D01*
Y-192742D01*
X949220D01*
Y-193028D01*
Y-193315D01*
X948933D01*
Y-193601D01*
Y-193887D01*
X948647D01*
Y-194174D01*
Y-194460D01*
Y-194746D01*
X948361D01*
Y-195033D01*
X948074D01*
Y-195319D01*
Y-195605D01*
Y-195891D01*
X947788D01*
Y-196178D01*
X947502D01*
Y-196464D01*
Y-196750D01*
X947215D01*
Y-197037D01*
Y-197323D01*
X946929D01*
Y-197609D01*
Y-197896D01*
X946643D01*
Y-198182D01*
Y-198468D01*
X946356D01*
Y-198755D01*
X946070D01*
Y-199041D01*
Y-199327D01*
X945784D01*
Y-199614D01*
Y-199900D01*
X945497D01*
Y-200186D01*
X945211D01*
Y-200472D01*
X944925D01*
Y-200759D01*
Y-201045D01*
X944639D01*
Y-201331D01*
X944352D01*
Y-201618D01*
Y-201904D01*
X944066D01*
Y-202190D01*
X943780D01*
Y-202477D01*
X943493D01*
Y-202763D01*
Y-203049D01*
X943207D01*
Y-203336D01*
X942921D01*
Y-203622D01*
X942634D01*
Y-203908D01*
X942348D01*
Y-204195D01*
X942062D01*
Y-204481D01*
Y-204767D01*
X941775D01*
Y-205053D01*
X941489D01*
Y-205340D01*
X941203D01*
Y-205626D01*
X940916D01*
Y-205912D01*
X940630D01*
Y-206199D01*
X940344D01*
Y-206485D01*
X940057D01*
Y-206771D01*
X939485D01*
Y-207058D01*
X939199D01*
Y-207344D01*
X938912D01*
Y-207630D01*
X938626D01*
Y-207917D01*
X938340D01*
Y-208203D01*
X937767D01*
Y-208489D01*
X937481D01*
Y-208776D01*
X936908D01*
Y-209062D01*
X936622D01*
Y-209348D01*
X936049D01*
Y-209634D01*
X935763D01*
Y-209921D01*
X935190D01*
Y-210207D01*
X934618D01*
Y-210493D01*
X934045D01*
Y-210780D01*
X933472D01*
Y-211066D01*
X932900D01*
Y-211352D01*
X932041D01*
Y-211639D01*
X931468D01*
Y-211925D01*
X930609D01*
Y-212211D01*
X929464D01*
Y-212498D01*
X928319D01*
Y-212784D01*
X926601D01*
Y-213070D01*
X924597D01*
Y-213357D01*
X924310D01*
Y-213070D01*
Y-212784D01*
Y-212498D01*
Y-212211D01*
Y-211925D01*
Y-211639D01*
Y-211352D01*
Y-211066D01*
Y-210780D01*
Y-210493D01*
Y-210207D01*
Y-209921D01*
Y-209634D01*
Y-209348D01*
Y-209062D01*
Y-208776D01*
Y-208489D01*
Y-208203D01*
Y-207917D01*
Y-207630D01*
Y-207344D01*
Y-207058D01*
Y-206771D01*
Y-206485D01*
Y-206199D01*
Y-205912D01*
Y-205626D01*
Y-205340D01*
Y-205053D01*
Y-204767D01*
Y-204481D01*
Y-204195D01*
Y-203908D01*
X924883D01*
Y-203622D01*
X925455D01*
Y-203336D01*
X926028D01*
Y-203049D01*
X926601D01*
Y-202763D01*
X927173D01*
Y-202477D01*
X927746D01*
Y-202190D01*
X928032D01*
Y-201904D01*
X928605D01*
Y-201618D01*
X928891D01*
Y-201331D01*
X929464D01*
Y-201045D01*
X929750D01*
Y-200759D01*
X930037D01*
Y-200472D01*
X930609D01*
Y-200186D01*
X930896D01*
Y-199900D01*
X931182D01*
Y-199614D01*
X931468D01*
Y-199327D01*
X931754D01*
Y-199041D01*
X932041D01*
Y-198755D01*
X932327D01*
Y-198468D01*
X932613D01*
Y-198182D01*
X932900D01*
Y-197896D01*
X933186D01*
Y-197609D01*
X933472D01*
Y-197323D01*
X933759D01*
Y-197037D01*
Y-196750D01*
X934045D01*
Y-196464D01*
X934331D01*
Y-196178D01*
X934618D01*
Y-195891D01*
Y-195605D01*
X934904D01*
Y-195319D01*
X935190D01*
Y-195033D01*
Y-194746D01*
X935476D01*
Y-194460D01*
Y-194174D01*
X935763D01*
Y-193887D01*
X936049D01*
Y-193601D01*
Y-193315D01*
X936335D01*
Y-193028D01*
Y-192742D01*
X936622D01*
Y-192456D01*
Y-192169D01*
X934904D01*
Y-191883D01*
X932900D01*
Y-191597D01*
X931754D01*
Y-191311D01*
X931182D01*
Y-191024D01*
X930323D01*
Y-190738D01*
X929750D01*
Y-190452D01*
X929464D01*
Y-190165D01*
X928891D01*
Y-189879D01*
X928605D01*
Y-189593D01*
X928319D01*
Y-189306D01*
X928032D01*
Y-189020D01*
X927746D01*
Y-188734D01*
X927460D01*
Y-188447D01*
Y-188161D01*
X927173D01*
Y-187875D01*
X926887D01*
Y-187588D01*
Y-187302D01*
X926601D01*
Y-187016D01*
Y-186730D01*
X926315D01*
Y-186443D01*
Y-186157D01*
X926028D01*
Y-185871D01*
Y-185584D01*
Y-185298D01*
X925742D01*
Y-185012D01*
Y-184725D01*
Y-184439D01*
Y-184153D01*
X925455D01*
Y-183866D01*
Y-183580D01*
Y-183294D01*
Y-183007D01*
Y-182721D01*
Y-182435D01*
Y-182149D01*
X925169D01*
Y-181862D01*
Y-181576D01*
Y-181290D01*
Y-181003D01*
Y-180717D01*
Y-180431D01*
Y-180144D01*
Y-179858D01*
Y-179572D01*
Y-179285D01*
Y-178999D01*
Y-178713D01*
Y-178426D01*
Y-178140D01*
Y-177854D01*
X924883D01*
Y-177568D01*
Y-177281D01*
Y-176995D01*
Y-176709D01*
Y-176422D01*
Y-176136D01*
Y-175850D01*
Y-175563D01*
Y-175277D01*
Y-174991D01*
Y-174704D01*
Y-174418D01*
Y-174132D01*
Y-173845D01*
Y-173559D01*
X924597D01*
Y-173273D01*
Y-172986D01*
Y-172700D01*
Y-172414D01*
Y-172127D01*
Y-171841D01*
Y-171555D01*
Y-171269D01*
Y-170982D01*
Y-170696D01*
Y-170410D01*
Y-170123D01*
Y-169837D01*
Y-169551D01*
Y-169264D01*
Y-168978D01*
X924310D01*
Y-168692D01*
Y-168405D01*
Y-168119D01*
Y-167833D01*
Y-167547D01*
Y-167260D01*
Y-166974D01*
Y-166688D01*
Y-166401D01*
Y-166115D01*
Y-165829D01*
Y-165542D01*
Y-165256D01*
Y-164970D01*
Y-164683D01*
Y-164397D01*
X924024D01*
Y-164111D01*
Y-163824D01*
Y-163538D01*
Y-163252D01*
Y-162966D01*
Y-162679D01*
Y-162393D01*
Y-162107D01*
Y-161820D01*
Y-161534D01*
Y-161248D01*
Y-160961D01*
Y-160675D01*
Y-160389D01*
X923738D01*
Y-160102D01*
Y-159816D01*
Y-159530D01*
Y-159244D01*
Y-158957D01*
Y-158671D01*
Y-158385D01*
Y-158098D01*
Y-157812D01*
Y-157526D01*
Y-157239D01*
Y-156953D01*
Y-156667D01*
Y-156380D01*
Y-156094D01*
Y-155808D01*
X923451D01*
Y-155521D01*
X937194D01*
Y-155808D01*
Y-156094D01*
Y-156380D01*
Y-156667D01*
Y-156953D01*
Y-157239D01*
Y-157526D01*
Y-157812D01*
Y-158098D01*
Y-158385D01*
Y-158671D01*
Y-158957D01*
Y-159244D01*
Y-159530D01*
X937481D01*
Y-159816D01*
Y-160102D01*
Y-160389D01*
Y-160675D01*
Y-160961D01*
Y-161248D01*
Y-161534D01*
Y-161820D01*
Y-162107D01*
Y-162393D01*
Y-162679D01*
Y-162966D01*
Y-163252D01*
Y-163538D01*
Y-163824D01*
Y-164111D01*
Y-164397D01*
Y-164683D01*
Y-164970D01*
Y-165256D01*
Y-165542D01*
Y-165829D01*
Y-166115D01*
Y-166401D01*
Y-166688D01*
Y-166974D01*
Y-167260D01*
Y-167547D01*
Y-167833D01*
Y-168119D01*
Y-168405D01*
Y-168692D01*
Y-168978D01*
Y-169264D01*
Y-169551D01*
Y-169837D01*
Y-170123D01*
Y-170410D01*
Y-170696D01*
Y-170982D01*
Y-171269D01*
X937767D01*
Y-171555D01*
X937481D01*
Y-171841D01*
Y-172127D01*
X937767D01*
Y-172414D01*
Y-172700D01*
Y-172986D01*
Y-173273D01*
Y-173559D01*
Y-173845D01*
Y-174132D01*
Y-174418D01*
Y-174704D01*
Y-174991D01*
Y-175277D01*
Y-175563D01*
Y-175850D01*
Y-176136D01*
Y-176422D01*
Y-176709D01*
Y-176995D01*
Y-177281D01*
Y-177568D01*
Y-177854D01*
Y-178140D01*
Y-178426D01*
Y-178713D01*
Y-178999D01*
Y-179285D01*
Y-179572D01*
X938053D01*
Y-179858D01*
Y-180144D01*
Y-180431D01*
X938340D01*
Y-180717D01*
X938626D01*
Y-181003D01*
X938912D01*
Y-181290D01*
X939771D01*
Y-181576D01*
X940630D01*
Y-181290D01*
X940916D01*
Y-181003D01*
Y-180717D01*
Y-180431D01*
X941203D01*
Y-180144D01*
Y-179858D01*
X941489D01*
Y-179572D01*
Y-179285D01*
Y-178999D01*
X941775D01*
Y-178713D01*
Y-178426D01*
Y-178140D01*
X942062D01*
Y-177854D01*
Y-177568D01*
Y-177281D01*
X942348D01*
Y-176995D01*
Y-176709D01*
Y-176422D01*
X942634D01*
Y-176136D01*
Y-175850D01*
X942921D01*
Y-175563D01*
Y-175277D01*
Y-174991D01*
X943207D01*
Y-174704D01*
Y-174418D01*
Y-174132D01*
X943493D01*
Y-173845D01*
Y-173559D01*
Y-173273D01*
X943780D01*
Y-172986D01*
Y-172700D01*
X944066D01*
Y-172414D01*
Y-172127D01*
Y-171841D01*
X944352D01*
Y-171555D01*
Y-171269D01*
Y-170982D01*
X944639D01*
Y-170696D01*
Y-170410D01*
Y-170123D01*
X944925D01*
Y-169837D01*
Y-169551D01*
X945211D01*
Y-169264D01*
Y-168978D01*
Y-168692D01*
X945497D01*
Y-168405D01*
Y-168119D01*
Y-167833D01*
X945784D01*
Y-167547D01*
Y-167260D01*
Y-166974D01*
X946070D01*
Y-166688D01*
Y-166401D01*
X946356D01*
Y-166115D01*
Y-165829D01*
Y-165542D01*
X946643D01*
Y-165256D01*
Y-164970D01*
Y-164683D01*
X946929D01*
Y-164397D01*
Y-164111D01*
Y-163824D01*
X947215D01*
Y-163538D01*
Y-163252D01*
Y-162966D01*
Y-162679D01*
X947502D01*
Y-162393D01*
Y-162107D01*
Y-161820D01*
Y-161534D01*
X947788D01*
Y-161248D01*
Y-160961D01*
Y-160675D01*
Y-160389D01*
Y-160102D01*
X948074D01*
Y-159816D01*
Y-159530D01*
Y-159244D01*
Y-158957D01*
Y-158671D01*
Y-158385D01*
X948361D01*
Y-158098D01*
Y-157812D01*
Y-157526D01*
Y-157239D01*
Y-156953D01*
Y-156667D01*
Y-156380D01*
Y-156094D01*
Y-155808D01*
Y-155521D01*
X961245D01*
Y-155808D01*
D02*
G37*
%LPC*%
G36*
X867907Y-152658D02*
X859890D01*
Y-152945D01*
Y-153231D01*
Y-153517D01*
Y-153804D01*
Y-154090D01*
X859604D01*
Y-154376D01*
Y-154663D01*
Y-154949D01*
Y-155235D01*
Y-155521D01*
Y-155808D01*
X859317D01*
Y-156094D01*
Y-156380D01*
Y-156667D01*
Y-156953D01*
Y-157239D01*
Y-157526D01*
X859031D01*
Y-157812D01*
Y-158098D01*
Y-158385D01*
Y-158671D01*
Y-158957D01*
Y-159244D01*
X858745D01*
Y-159530D01*
Y-159816D01*
Y-160102D01*
Y-160389D01*
Y-160675D01*
Y-160961D01*
Y-161248D01*
X858458D01*
Y-161534D01*
Y-161820D01*
Y-162107D01*
Y-162393D01*
Y-162679D01*
Y-162966D01*
X858172D01*
Y-163252D01*
Y-163538D01*
Y-163824D01*
X865330D01*
Y-163538D01*
X866475D01*
Y-163252D01*
X867048D01*
Y-162966D01*
X867334D01*
Y-162679D01*
X867620D01*
Y-162393D01*
X867907D01*
Y-162107D01*
X868193D01*
Y-161820D01*
Y-161534D01*
X868479D01*
Y-161248D01*
Y-160961D01*
X868766D01*
Y-160675D01*
Y-160389D01*
X869052D01*
Y-160102D01*
Y-159816D01*
Y-159530D01*
Y-159244D01*
X869338D01*
Y-158957D01*
Y-158671D01*
Y-158385D01*
Y-158098D01*
Y-157812D01*
X869625D01*
Y-157526D01*
Y-157239D01*
Y-156953D01*
Y-156667D01*
Y-156380D01*
Y-156094D01*
Y-155808D01*
Y-155521D01*
Y-155235D01*
Y-154949D01*
Y-154663D01*
X869338D01*
Y-154376D01*
Y-154090D01*
X869052D01*
Y-153804D01*
Y-153517D01*
X868766D01*
Y-153231D01*
X868479D01*
Y-152945D01*
X867907D01*
Y-152658D01*
D02*
G37*
%LPD*%
D10*
X430709Y117717D02*
G03*
X429724Y116732I0J-984D01*
G01*
X467913D02*
G03*
X466929Y117717I-984J0D01*
G01*
X429724Y111614D02*
G03*
X430709Y110630I984J0D01*
G01*
X466929D02*
G03*
X467913Y111614I0J984D01*
G01*
X579724Y16732D02*
G03*
X577756Y18701I-1969J0D01*
G01*
X469488Y18701D02*
G03*
X467520Y16732I0J-1969D01*
G01*
X485236Y16732D02*
G03*
X483268Y18701I-1969J0D01*
G01*
X563976Y18701D02*
G03*
X562008Y16732I0J-1969D01*
G01*
X355315Y142717D02*
G03*
X353346Y144685I-1969J0D01*
G01*
X245079Y144685D02*
G03*
X243110Y142717I0J-1969D01*
G01*
X260827Y142717D02*
G03*
X258858Y144685I-1969J0D01*
G01*
X339567Y144685D02*
G03*
X337598Y142717I0J-1969D01*
G01*
X355315Y16732D02*
G03*
X353346Y18701I-1969J0D01*
G01*
X245079Y18701D02*
G03*
X243110Y16732I0J-1969D01*
G01*
X260827Y16732D02*
G03*
X258858Y18701I-1969J0D01*
G01*
X339567Y18701D02*
G03*
X337598Y16732I0J-1969D01*
G01*
X377953Y137795D02*
G03*
X173228Y137795I-102362J-102362D01*
G01*
X566535Y235039D02*
G03*
X565551Y236024I-984J0D01*
G01*
X560433D02*
G03*
X559449Y235039I0J-984D01*
G01*
X507874Y114173D02*
G03*
X507874Y114173I-59055J0D01*
G01*
X602362Y11811D02*
G03*
X397638Y11811I-102362J-102362D01*
G01*
X641732Y212598D02*
G03*
X641732Y212598I-78740J0D01*
G01*
X377953Y74803D02*
G03*
X173228Y74803I-102362J-102362D01*
G01*
X377953Y11811D02*
G03*
X173228Y11811I-102362J-102362D01*
G01*
X629921Y86614D02*
G03*
X629921Y86614I-39370J0D01*
G01*
X533465Y11811D02*
G03*
X531496Y9843I0J-1969D01*
G01*
X515748D02*
G03*
X513779Y11811I-1969J0D01*
G01*
X421260Y9843D02*
G03*
X419291Y11811I-1969J0D01*
G01*
X309055Y11811D02*
G03*
X307087Y9843I0J-1969D01*
G01*
X196850D02*
G03*
X194882Y11811I-1969J0D01*
G01*
X587992Y101378D02*
G03*
X587008Y100394I0J-984D01*
G01*
Y72835D02*
G03*
X587992Y71850I984J0D01*
G01*
X339567Y81693D02*
G03*
X337598Y79724I0J-1969D01*
G01*
X309055Y137795D02*
G03*
X307087Y135827I0J-1969D01*
G01*
X309055Y74803D02*
G03*
X307087Y72835I0J-1969D01*
G01*
X260827Y79724D02*
G03*
X258858Y81693I-1969J0D01*
G01*
X245079Y81693D02*
G03*
X243110Y79724I0J-1969D01*
G01*
X196850Y135827D02*
G03*
X194882Y137795I-1969J0D01*
G01*
X196850Y72835D02*
G03*
X194882Y74803I-1969J0D01*
G01*
X438976Y11811D02*
G03*
X437008Y9843I0J-1969D01*
G01*
X291339Y9843D02*
G03*
X289370Y11811I-1969J0D01*
G01*
X214567D02*
G03*
X212598Y9843I0J-1969D01*
G01*
X594095Y100394D02*
G03*
X593110Y101378I-984J0D01*
G01*
Y71850D02*
G03*
X594095Y72835I0J984D01*
G01*
X565551Y189173D02*
G03*
X566535Y190157I0J984D01*
G01*
X559449D02*
G03*
X560433Y189173I984J0D01*
G01*
X355315Y79724D02*
G03*
X353346Y81693I-1969J0D01*
G01*
X291339Y135827D02*
G03*
X289370Y137795I-1969J0D01*
G01*
X291339Y72835D02*
G03*
X289370Y74803I-1969J0D01*
G01*
X214567Y137795D02*
G03*
X212598Y135827I0J-1969D01*
G01*
X214567Y74803D02*
G03*
X212598Y72835I0J-1969D01*
G01*
X429724Y111614D02*
Y116732D01*
X467913Y111614D02*
Y116732D01*
X430709Y117717D02*
X466929D01*
X430709Y110630D02*
X466929D01*
X469488Y18701D02*
X483268D01*
X563976D02*
X577756D01*
X562008Y11811D02*
Y16732D01*
X579724Y11811D02*
Y16732D01*
X467520Y11811D02*
Y16732D01*
X485236Y11811D02*
Y16732D01*
X245079Y144685D02*
X258858D01*
X339567D02*
X353346D01*
X337598Y137795D02*
Y142717D01*
X355315Y137795D02*
Y142717D01*
X243110Y137795D02*
Y142717D01*
X260827Y137795D02*
Y142717D01*
X245079Y18701D02*
X258858D01*
X339567D02*
X353346D01*
X337598Y11811D02*
Y16732D01*
X355315Y11811D02*
Y16732D01*
X243110Y11811D02*
Y16732D01*
X260827Y11811D02*
Y16732D01*
X260827Y74803D02*
Y79724D01*
X243110Y74803D02*
Y79724D01*
X355315Y74803D02*
Y79724D01*
X337598Y74803D02*
Y79724D01*
X560433Y236024D02*
X565551D01*
X260827Y11811D02*
X289370D01*
X260827Y137795D02*
X289370D01*
X260827Y74803D02*
X289370D01*
X579724Y11811D02*
X602362D01*
X533465D02*
X562008D01*
X397638D02*
X419291D01*
X438976D02*
X467520D01*
X485236D02*
X513779D01*
X355315Y11811D02*
X377953D01*
X309055D02*
X337598D01*
X173228D02*
X194882D01*
X214567D02*
X243110D01*
X309055Y137795D02*
X337598D01*
X355315D02*
X377953D01*
X339567Y81693D02*
X353346D01*
X309055Y74803D02*
X337598D01*
X355315D02*
X377953D01*
X214567Y137795D02*
X243110D01*
X173228D02*
X194882D01*
X245079Y81693D02*
X258858D01*
X214567Y74803D02*
X243110D01*
X173228D02*
X194882D01*
X515748Y-0D02*
Y9843D01*
X587992Y101378D02*
X593110D01*
X587992Y71850D02*
X593110D01*
X560433Y189173D02*
X565551D01*
X291339Y125984D02*
X307087D01*
X291339Y62992D02*
X307087D01*
X291339Y-0D02*
X307087D01*
X196850Y125984D02*
X212598D01*
X196850Y62992D02*
X212598D01*
X196850Y-0D02*
X212598D01*
X594095Y72835D02*
Y100394D01*
X587008Y72835D02*
Y100394D01*
X566535Y190157D02*
Y235039D01*
X559449Y190157D02*
Y235039D01*
X531496Y-0D02*
Y9843D01*
X437008Y-0D02*
Y9843D01*
X421260Y-0D02*
Y9843D01*
X307087Y125984D02*
Y135827D01*
Y62992D02*
Y72835D01*
Y-0D02*
Y9843D01*
X291339Y125984D02*
Y135827D01*
Y62992D02*
Y72835D01*
Y-0D02*
Y9843D01*
X212598Y125984D02*
Y135827D01*
Y62992D02*
Y72835D01*
Y-0D02*
Y9843D01*
X196850Y125984D02*
Y135827D01*
Y62992D02*
Y72835D01*
Y-0D02*
Y9843D01*
X421260Y-0D02*
X437008D01*
X515748D02*
X531496D01*
X1182685Y-202012D02*
Y-194141D01*
X1186621D01*
X1187932Y-195452D01*
Y-198076D01*
X1186621Y-199388D01*
X1182685D01*
X1185308D02*
X1187932Y-202012D01*
X1194492D02*
X1191868D01*
X1190556Y-200700D01*
Y-198076D01*
X1191868Y-196764D01*
X1194492D01*
X1195804Y-198076D01*
Y-199388D01*
X1190556D01*
X1198428Y-196764D02*
X1201052Y-202012D01*
X1203675Y-196764D01*
X828354Y-233511D02*
Y-241382D01*
X832290D01*
X833602Y-240070D01*
Y-234823D01*
X832290Y-233511D01*
X828354D01*
X840161Y-241382D02*
X837537D01*
X836226Y-240070D01*
Y-237446D01*
X837537Y-236134D01*
X840161D01*
X841473Y-237446D01*
Y-238758D01*
X836226D01*
X844097Y-241382D02*
X848033D01*
X849345Y-240070D01*
X848033Y-238758D01*
X845409D01*
X844097Y-237446D01*
X845409Y-236134D01*
X849345D01*
X854592Y-244006D02*
X855904D01*
X857216Y-242694D01*
Y-236134D01*
X853280D01*
X851968Y-237446D01*
Y-240070D01*
X853280Y-241382D01*
X857216D01*
X859840D02*
X862464D01*
X861152D01*
Y-236134D01*
X859840D01*
X866399Y-241382D02*
Y-236134D01*
X870335D01*
X871647Y-237446D01*
Y-241382D01*
X878207D02*
X875583D01*
X874271Y-240070D01*
Y-237446D01*
X875583Y-236134D01*
X878207D01*
X879519Y-237446D01*
Y-238758D01*
X874271D01*
X882143Y-236134D02*
Y-241382D01*
Y-238758D01*
X883454Y-237446D01*
X884766Y-236134D01*
X886078D01*
X1025204Y-115400D02*
Y-123272D01*
X1029140D01*
X1030452Y-121960D01*
Y-116712D01*
X1029140Y-115400D01*
X1025204D01*
X1034388Y-123272D02*
X1037012D01*
X1038323Y-121960D01*
Y-119336D01*
X1037012Y-118024D01*
X1034388D01*
X1033076Y-119336D01*
Y-121960D01*
X1034388Y-123272D01*
X1046195Y-118024D02*
X1042259D01*
X1040947Y-119336D01*
Y-121960D01*
X1042259Y-123272D01*
X1046195D01*
X1048819Y-118024D02*
Y-121960D01*
X1050131Y-123272D01*
X1054066D01*
Y-118024D01*
X1056690Y-123272D02*
Y-118024D01*
X1058002D01*
X1059314Y-119336D01*
Y-123272D01*
Y-119336D01*
X1060626Y-118024D01*
X1061938Y-119336D01*
Y-123272D01*
X1068498D02*
X1065874D01*
X1064562Y-121960D01*
Y-119336D01*
X1065874Y-118024D01*
X1068498D01*
X1069810Y-119336D01*
Y-120648D01*
X1064562D01*
X1072433Y-123272D02*
Y-118024D01*
X1076369D01*
X1077681Y-119336D01*
Y-123272D01*
X1081617Y-116712D02*
Y-118024D01*
X1080305D01*
X1082929D01*
X1081617D01*
Y-121960D01*
X1082929Y-123272D01*
X1025204Y-154770D02*
Y-162642D01*
X1030452D01*
X1034388Y-157394D02*
X1037012D01*
X1038323Y-158706D01*
Y-162642D01*
X1034388D01*
X1033076Y-161330D01*
X1034388Y-160018D01*
X1038323D01*
X1040947Y-157394D02*
Y-161330D01*
X1042259Y-162642D01*
X1046195D01*
Y-163954D01*
X1044883Y-165266D01*
X1043571D01*
X1046195Y-162642D02*
Y-157394D01*
X1052755Y-162642D02*
X1050131D01*
X1048819Y-161330D01*
Y-158706D01*
X1050131Y-157394D01*
X1052755D01*
X1054066Y-158706D01*
Y-160018D01*
X1048819D01*
X1056690Y-157394D02*
Y-162642D01*
Y-160018D01*
X1058002Y-158706D01*
X1059314Y-157394D01*
X1060626D01*
X1072433Y-162642D02*
Y-154770D01*
X1077681Y-162642D01*
Y-154770D01*
X1081617Y-157394D02*
X1084241D01*
X1085552Y-158706D01*
Y-162642D01*
X1081617D01*
X1080305Y-161330D01*
X1081617Y-160018D01*
X1085552D01*
X1088176Y-162642D02*
Y-157394D01*
X1089488D01*
X1090800Y-158706D01*
Y-162642D01*
Y-158706D01*
X1092112Y-157394D01*
X1093424Y-158706D01*
Y-162642D01*
X1099984D02*
X1097360D01*
X1096048Y-161330D01*
Y-158706D01*
X1097360Y-157394D01*
X1099984D01*
X1101295Y-158706D01*
Y-160018D01*
X1096048D01*
X1025204Y-194141D02*
Y-202012D01*
X1029140D01*
X1030452Y-200700D01*
Y-195452D01*
X1029140Y-194141D01*
X1025204D01*
X1034388Y-196764D02*
X1037012D01*
X1038323Y-198076D01*
Y-202012D01*
X1034388D01*
X1033076Y-200700D01*
X1034388Y-199388D01*
X1038323D01*
X1042259Y-195452D02*
Y-196764D01*
X1040947D01*
X1043571D01*
X1042259D01*
Y-200700D01*
X1043571Y-202012D01*
X1051443D02*
X1048819D01*
X1047507Y-200700D01*
Y-198076D01*
X1048819Y-196764D01*
X1051443D01*
X1052755Y-198076D01*
Y-199388D01*
X1047507D01*
X1025204Y-233511D02*
Y-241382D01*
X1029140D01*
X1030452Y-240070D01*
Y-234823D01*
X1029140Y-233511D01*
X1025204D01*
X1034388Y-241382D02*
X1037012D01*
X1038323Y-240070D01*
Y-237446D01*
X1037012Y-236134D01*
X1034388D01*
X1033076Y-237446D01*
Y-240070D01*
X1034388Y-241382D01*
X1046195Y-236134D02*
X1042259D01*
X1040947Y-237446D01*
Y-240070D01*
X1042259Y-241382D01*
X1046195D01*
X1048819Y-236134D02*
Y-240070D01*
X1050131Y-241382D01*
X1054066D01*
Y-236134D01*
X1056690Y-241382D02*
Y-236134D01*
X1058002D01*
X1059314Y-237446D01*
Y-241382D01*
Y-237446D01*
X1060626Y-236134D01*
X1061938Y-237446D01*
Y-241382D01*
X1068498D02*
X1065874D01*
X1064562Y-240070D01*
Y-237446D01*
X1065874Y-236134D01*
X1068498D01*
X1069810Y-237446D01*
Y-238758D01*
X1064562D01*
X1072433Y-241382D02*
Y-236134D01*
X1076369D01*
X1077681Y-237446D01*
Y-241382D01*
X1081617Y-234823D02*
Y-236134D01*
X1080305D01*
X1082929D01*
X1081617D01*
Y-240070D01*
X1082929Y-241382D01*
D11*
X61803Y2337D02*
G03*
X76378Y-0I13100J35072D01*
G01*
X9055Y25984D02*
G03*
X11770Y19565I4567J-1852D01*
G01*
X277819Y427393D02*
G03*
X281482Y425102I4142J2550D01*
G01*
X81102Y232729D02*
G03*
X79220Y241796I-7642J3142D01*
G01*
X11635Y283240D02*
G03*
X79220Y241796I216711J277573D01*
G01*
X11602Y283277D02*
G03*
X11811Y354331I-31779J35621D01*
G01*
X171312Y424484D02*
G03*
X11635Y354556I57035J-347502D01*
G01*
X454859Y346617D02*
G03*
X281482Y425102I-226513J-269634D01*
G01*
X173788Y431342D02*
G03*
X102362Y476378I-68387J-29303D01*
G01*
X277819Y427393D02*
G03*
X102362Y500000I-165735J-152199D01*
G01*
X220474Y208749D02*
G03*
X454859Y291178I7872J352063D01*
G01*
X171312Y424484D02*
G03*
X173788Y431342I-2191J4667D01*
G01*
X220474Y208749D02*
G03*
X179920Y177368I-1674J-39731D01*
G01*
X114173Y0D02*
G03*
X119482Y3937I-962J6845D01*
G01*
X9055Y25984D02*
X81102Y232729D01*
X76378Y0D02*
X114173D01*
X21118Y16346D02*
X48944Y6765D01*
X11770Y19565D02*
X21118Y16346D01*
X48944Y6765D02*
X61803Y2337D01*
X11602Y283277D02*
X11635Y283240D01*
X11635Y354556D02*
X11811Y354331D01*
X454859Y291178D02*
X455014Y291366D01*
X454859Y346617D02*
X455014Y346430D01*
X102362Y476378D02*
Y500000D01*
X494095Y294991D02*
Y296063D01*
Y341732D02*
X505643D01*
X494095D02*
Y342804D01*
X541339Y337349D02*
Y338420D01*
Y299375D02*
Y300447D01*
X588583Y303758D02*
Y304830D01*
Y332965D02*
Y334037D01*
X541339Y337349D02*
X552887D01*
X588583Y332965D02*
X600131D01*
X588583Y304830D02*
X600131D01*
X541339Y300447D02*
X552887D01*
X494095Y296063D02*
X505643D01*
X645669Y309055D02*
Y328740D01*
X455014Y346430D02*
X494095Y342804D01*
X505643Y341732D02*
X541339Y338420D01*
X552887Y337349D02*
X588583Y334037D01*
X600131Y332965D02*
X645669Y328740D01*
X600131Y304830D02*
X645669Y309055D01*
X552887Y300447D02*
X588583Y303758D01*
X505643Y296063D02*
X541339Y299375D01*
X455014Y291366D02*
X494095Y294991D01*
X119482Y3937D02*
X179920Y177368D01*
D12*
X437008Y114566D02*
Y112598D01*
X437992D01*
X438320Y112926D01*
Y113254D01*
X437992Y113582D01*
X437008D01*
X437992D01*
X438320Y113910D01*
Y114238D01*
X437992Y114566D01*
X437008D01*
X439304Y112598D02*
X439960D01*
X440288Y112926D01*
Y113582D01*
X439960Y113910D01*
X439304D01*
X438976Y113582D01*
Y112926D01*
X439304Y112598D01*
X441272Y113910D02*
X441927D01*
X442255Y113582D01*
Y112598D01*
X441272D01*
X440944Y112926D01*
X441272Y113254D01*
X442255D01*
X442911Y113910D02*
Y112598D01*
Y113254D01*
X443239Y113582D01*
X443567Y113910D01*
X443895D01*
X446191Y114566D02*
Y112598D01*
X445207D01*
X444879Y112926D01*
Y113582D01*
X445207Y113910D01*
X446191D01*
X450127Y114238D02*
X449799Y114566D01*
X449143D01*
X448815Y114238D01*
Y112926D01*
X449143Y112598D01*
X449799D01*
X450127Y112926D01*
X450783Y113910D02*
Y112926D01*
X451111Y112598D01*
X452095D01*
Y113910D01*
X453079Y114238D02*
Y113910D01*
X452751D01*
X453407D01*
X453079D01*
Y112926D01*
X453407Y112598D01*
X454719D02*
X455375D01*
X455703Y112926D01*
Y113582D01*
X455375Y113910D01*
X454719D01*
X454391Y113582D01*
Y112926D01*
X454719Y112598D01*
X456358Y113910D02*
Y112926D01*
X456686Y112598D01*
X457670D01*
Y113910D01*
X458654Y114238D02*
Y113910D01*
X458326D01*
X458982D01*
X458654D01*
Y112926D01*
X458982Y112598D01*
X561812Y201575D02*
X563779D01*
Y202559D01*
X563452Y202887D01*
X563124D01*
X562796Y202559D01*
Y201575D01*
Y202559D01*
X562468Y202887D01*
X562140D01*
X561812Y202559D01*
Y201575D01*
X563779Y203871D02*
Y204527D01*
X563452Y204855D01*
X562796D01*
X562468Y204527D01*
Y203871D01*
X562796Y203543D01*
X563452D01*
X563779Y203871D01*
X562468Y205838D02*
Y206494D01*
X562796Y206822D01*
X563779D01*
Y205838D01*
X563452Y205510D01*
X563124Y205838D01*
Y206822D01*
X562468Y207478D02*
X563779D01*
X563124D01*
X562796Y207806D01*
X562468Y208134D01*
Y208462D01*
X561812Y210758D02*
X563779D01*
Y209774D01*
X563452Y209446D01*
X562796D01*
X562468Y209774D01*
Y210758D01*
X562140Y214694D02*
X561812Y214366D01*
Y213710D01*
X562140Y213382D01*
X563452D01*
X563779Y213710D01*
Y214366D01*
X563452Y214694D01*
X562468Y215350D02*
X563452D01*
X563779Y215678D01*
Y216662D01*
X562468D01*
X562140Y217646D02*
X562468D01*
Y217318D01*
Y217974D01*
Y217646D01*
X563452D01*
X563779Y217974D01*
Y219286D02*
Y219941D01*
X563452Y220269D01*
X562796D01*
X562468Y219941D01*
Y219286D01*
X562796Y218958D01*
X563452D01*
X563779Y219286D01*
X562468Y220925D02*
X563452D01*
X563779Y221253D01*
Y222237D01*
X562468D01*
X562140Y223221D02*
X562468D01*
Y222893D01*
Y223549D01*
Y223221D01*
X563452D01*
X563779Y223549D01*
X590158Y75984D02*
X592126D01*
Y76968D01*
X591798Y77296D01*
X591470D01*
X591142Y76968D01*
Y75984D01*
Y76968D01*
X590814Y77296D01*
X590486D01*
X590158Y76968D01*
Y75984D01*
X592126Y78280D02*
Y78936D01*
X591798Y79264D01*
X591142D01*
X590814Y78936D01*
Y78280D01*
X591142Y77952D01*
X591798D01*
X592126Y78280D01*
X590814Y80248D02*
Y80904D01*
X591142Y81232D01*
X592126D01*
Y80248D01*
X591798Y79920D01*
X591470Y80248D01*
Y81232D01*
X590814Y81888D02*
X592126D01*
X591470D01*
X591142Y82216D01*
X590814Y82544D01*
Y82872D01*
X590158Y85168D02*
X592126D01*
Y84184D01*
X591798Y83856D01*
X591142D01*
X590814Y84184D01*
Y85168D01*
X590486Y89103D02*
X590158Y88775D01*
Y88119D01*
X590486Y87791D01*
X591798D01*
X592126Y88119D01*
Y88775D01*
X591798Y89103D01*
X590814Y89759D02*
X591798D01*
X592126Y90087D01*
Y91071D01*
X590814D01*
X590486Y92055D02*
X590814D01*
Y91727D01*
Y92383D01*
Y92055D01*
X591798D01*
X592126Y92383D01*
Y93695D02*
Y94351D01*
X591798Y94679D01*
X591142D01*
X590814Y94351D01*
Y93695D01*
X591142Y93367D01*
X591798D01*
X592126Y93695D01*
X590814Y95335D02*
X591798D01*
X592126Y95663D01*
Y96647D01*
X590814D01*
X590486Y97631D02*
X590814D01*
Y97303D01*
Y97959D01*
Y97631D01*
X591798D01*
X592126Y97959D01*
D13*
X1042921Y-182327D02*
Y-168552D01*
X1049809D01*
X1052104Y-170848D01*
Y-175439D01*
X1049809Y-177735D01*
X1042921D01*
X1058992Y-173144D02*
X1063584D01*
X1065879Y-175439D01*
Y-182327D01*
X1058992D01*
X1056696Y-180031D01*
X1058992Y-177735D01*
X1065879D01*
X1070471Y-182327D02*
Y-173144D01*
X1077359D01*
X1079655Y-175439D01*
Y-182327D01*
X1091134D02*
X1086542D01*
X1084246Y-180031D01*
Y-175439D01*
X1086542Y-173144D01*
X1091134D01*
X1093430Y-175439D01*
Y-177735D01*
X1084246D01*
X1098021Y-182327D02*
X1102613D01*
X1100317D01*
Y-168552D01*
X1098021D01*
X846071Y-247293D02*
Y-263036D01*
X851318Y-257788D01*
X856566Y-263036D01*
Y-247293D01*
X861814Y-263036D02*
X867061D01*
X864437D01*
Y-252540D01*
X861814D01*
X874933Y-263036D02*
Y-252540D01*
X877556D01*
X880180Y-255164D01*
Y-263036D01*
Y-255164D01*
X882804Y-252540D01*
X885428Y-255164D01*
Y-263036D01*
X890676Y-247293D02*
Y-257788D01*
X895923Y-263036D01*
X901171Y-257788D01*
Y-247293D01*
X916914Y-249917D02*
X914290Y-247293D01*
X909042D01*
X906419Y-249917D01*
Y-260412D01*
X909042Y-263036D01*
X914290D01*
X916914Y-260412D01*
Y-255164D01*
X911666D01*
X1200401Y-210546D02*
X1203025Y-207923D01*
X1208273D01*
X1210897Y-210546D01*
Y-221042D01*
X1208273Y-223665D01*
X1203025D01*
X1200401Y-221042D01*
Y-210546D01*
X1216144Y-223665D02*
X1221392D01*
X1218768D01*
Y-207923D01*
X1216144Y-210546D01*
X1046199Y-223665D02*
X1037015D01*
X1046199Y-214482D01*
Y-212186D01*
X1043903Y-209890D01*
X1039311D01*
X1037015Y-212186D01*
X1050791Y-221370D02*
X1053086Y-223665D01*
X1057678D01*
X1059974Y-221370D01*
Y-212186D01*
X1057678Y-209890D01*
X1053086D01*
X1050791Y-212186D01*
Y-214482D01*
X1053086Y-216778D01*
X1059974D01*
X1064566Y-223665D02*
X1073749Y-214482D01*
X1078341Y-212186D02*
X1080637Y-209890D01*
X1085228D01*
X1087524Y-212186D01*
Y-221370D01*
X1085228Y-223665D01*
X1080637D01*
X1078341Y-221370D01*
Y-212186D01*
X1092116D02*
X1094412Y-209890D01*
X1099003D01*
X1101299Y-212186D01*
Y-214482D01*
X1099003Y-216778D01*
X1096707D01*
X1099003D01*
X1101299Y-219074D01*
Y-221370D01*
X1099003Y-223665D01*
X1094412D01*
X1092116Y-221370D01*
X1105891Y-223665D02*
X1115074Y-214482D01*
X1128849Y-223665D02*
X1119666D01*
X1128849Y-214482D01*
Y-212186D01*
X1126553Y-209890D01*
X1121962D01*
X1119666Y-212186D01*
X1133441D02*
X1135737Y-209890D01*
X1140329D01*
X1142624Y-212186D01*
Y-221370D01*
X1140329Y-223665D01*
X1135737D01*
X1133441Y-221370D01*
Y-212186D01*
X1156400Y-223665D02*
X1147216D01*
X1156400Y-214482D01*
Y-212186D01*
X1154104Y-209890D01*
X1149512D01*
X1147216Y-212186D01*
X1160991D02*
X1163287Y-209890D01*
X1167879D01*
X1170175Y-212186D01*
Y-221370D01*
X1167879Y-223665D01*
X1163287D01*
X1160991Y-221370D01*
Y-212186D01*
X1031110Y-132331D02*
X1039506D01*
X1035308D01*
Y-144925D01*
X1043704D02*
X1047902D01*
X1045803D01*
Y-136529D01*
X1043704D01*
X1054200Y-144925D02*
Y-136529D01*
X1056299D01*
X1058398Y-138628D01*
Y-144925D01*
Y-138628D01*
X1060497Y-136529D01*
X1062596Y-138628D01*
Y-144925D01*
X1073091D02*
X1068893D01*
X1066794Y-142826D01*
Y-138628D01*
X1068893Y-136529D01*
X1073091D01*
X1075190Y-138628D01*
Y-140727D01*
X1066794D01*
X1091983Y-132331D02*
Y-144925D01*
X1098280D01*
X1100379Y-142826D01*
Y-140727D01*
X1098280Y-138628D01*
X1091983D01*
X1098280D01*
X1100379Y-136529D01*
Y-134430D01*
X1098280Y-132331D01*
X1091983D01*
X1104577Y-144925D02*
X1108775D01*
X1106676D01*
Y-132331D01*
X1104577D01*
X1117171Y-136529D02*
X1121369D01*
X1123469Y-138628D01*
Y-144925D01*
X1117171D01*
X1115072Y-142826D01*
X1117171Y-140727D01*
X1123469D01*
X1127667Y-144925D02*
X1133964D01*
X1136063Y-142826D01*
X1133964Y-140727D01*
X1129766D01*
X1127667Y-138628D01*
X1129766Y-136529D01*
X1136063D01*
X1142360Y-134430D02*
Y-136529D01*
X1140261D01*
X1144459D01*
X1142360D01*
Y-142826D01*
X1144459Y-144925D01*
X1157053D02*
X1152855D01*
X1150756Y-142826D01*
Y-138628D01*
X1152855Y-136529D01*
X1157053D01*
X1159153Y-138628D01*
Y-140727D01*
X1150756D01*
X1163351Y-136529D02*
Y-144925D01*
Y-140727D01*
X1165450Y-138628D01*
X1167549Y-136529D01*
X1169648D01*
D14*
X98425Y316929D02*
Y324801D01*
X101049Y322177D01*
X103673Y324801D01*
Y316929D01*
X106297D02*
X108921D01*
X107609D01*
Y322177D01*
X106297D01*
X112856Y316929D02*
X115480D01*
X114168D01*
Y324801D01*
X112856D01*
X119416Y316929D02*
X122040D01*
X120728D01*
Y324801D01*
X119416D01*
X133847Y316929D02*
Y324801D01*
X137783D01*
X139094Y323489D01*
Y320865D01*
X137783Y319553D01*
X133847D01*
X146966Y323489D02*
X145654Y324801D01*
X143030D01*
X141718Y323489D01*
Y318241D01*
X143030Y316929D01*
X145654D01*
X146966Y318241D01*
X149590Y324801D02*
Y316929D01*
X153525D01*
X154837Y318241D01*
Y319553D01*
X153525Y320865D01*
X149590D01*
X153525D01*
X154837Y322177D01*
Y323489D01*
X153525Y324801D01*
X149590D01*
X169269Y316929D02*
X166645D01*
X165333Y318241D01*
Y320865D01*
X166645Y322177D01*
X169269D01*
X170580Y320865D01*
Y319553D01*
X165333D01*
X178452Y324801D02*
Y316929D01*
X174516D01*
X173204Y318241D01*
Y320865D01*
X174516Y322177D01*
X178452D01*
X183700Y314305D02*
X185011D01*
X186323Y315617D01*
Y322177D01*
X182388D01*
X181076Y320865D01*
Y318241D01*
X182388Y316929D01*
X186323D01*
X192883D02*
X190259D01*
X188947Y318241D01*
Y320865D01*
X190259Y322177D01*
X192883D01*
X194195Y320865D01*
Y319553D01*
X188947D01*
X196819Y316929D02*
X200754D01*
X202066Y318241D01*
X200754Y319553D01*
X198131D01*
X196819Y320865D01*
X198131Y322177D01*
X202066D01*
X212562Y324801D02*
Y316929D01*
X216497D01*
X217809Y318241D01*
Y319553D01*
Y320865D01*
X216497Y322177D01*
X212562D01*
X220433D02*
Y318241D01*
X221745Y316929D01*
X225681D01*
Y322177D01*
X229616Y323489D02*
Y322177D01*
X228305D01*
X230928D01*
X229616D01*
Y318241D01*
X230928Y316929D01*
X242736D02*
X245359D01*
X244048D01*
Y324801D01*
X242736D01*
X253231Y316929D02*
X250607D01*
X249295Y318241D01*
Y320865D01*
X250607Y322177D01*
X253231D01*
X254543Y320865D01*
Y319553D01*
X249295D01*
X258479Y322177D02*
X261102D01*
X262414Y320865D01*
Y316929D01*
X258479D01*
X257167Y318241D01*
X258479Y319553D01*
X262414D01*
X265038Y322177D02*
X267662Y316929D01*
X270286Y322177D01*
X276845Y316929D02*
X274221D01*
X272910Y318241D01*
Y320865D01*
X274221Y322177D01*
X276845D01*
X278157Y320865D01*
Y319553D01*
X272910D01*
X289965Y323489D02*
Y322177D01*
X288653D01*
X291276D01*
X289965D01*
Y318241D01*
X291276Y316929D01*
X295212Y324801D02*
Y316929D01*
Y320865D01*
X296524Y322177D01*
X299148D01*
X300460Y320865D01*
Y316929D01*
X307019D02*
X304396D01*
X303084Y318241D01*
Y320865D01*
X304396Y322177D01*
X307019D01*
X308331Y320865D01*
Y319553D01*
X303084D01*
X310955Y316929D02*
Y322177D01*
X312267D01*
X313579Y320865D01*
Y316929D01*
Y320865D01*
X314891Y322177D01*
X316203Y320865D01*
Y316929D01*
X331946Y322177D02*
X328010D01*
X326698Y320865D01*
Y318241D01*
X328010Y316929D01*
X331946D01*
X335881D02*
X338505D01*
X339817Y318241D01*
Y320865D01*
X338505Y322177D01*
X335881D01*
X334570Y320865D01*
Y318241D01*
X335881Y316929D01*
X342441D02*
Y322177D01*
X346377D01*
X347689Y320865D01*
Y316929D01*
X350312D02*
Y322177D01*
X354248D01*
X355560Y320865D01*
Y316929D01*
X362120D02*
X359496D01*
X358184Y318241D01*
Y320865D01*
X359496Y322177D01*
X362120D01*
X363432Y320865D01*
Y319553D01*
X358184D01*
X371303Y322177D02*
X367367D01*
X366055Y320865D01*
Y318241D01*
X367367Y316929D01*
X371303D01*
X375239Y323489D02*
Y322177D01*
X373927D01*
X376551D01*
X375239D01*
Y318241D01*
X376551Y316929D01*
X384422D02*
X381798D01*
X380486Y318241D01*
Y320865D01*
X381798Y322177D01*
X384422D01*
X385734Y320865D01*
Y319553D01*
X380486D01*
X393606Y324801D02*
Y316929D01*
X389670D01*
X388358Y318241D01*
Y320865D01*
X389670Y322177D01*
X393606D01*
X404101D02*
Y318241D01*
X405413Y316929D01*
X406725Y318241D01*
X408037Y316929D01*
X409349Y318241D01*
Y322177D01*
X411972Y316929D02*
X414596D01*
X413284D01*
Y322177D01*
X411972D01*
X419844Y323489D02*
Y322177D01*
X418532D01*
X421156D01*
X419844D01*
Y318241D01*
X421156Y316929D01*
X425092Y324801D02*
Y316929D01*
Y320865D01*
X426404Y322177D01*
X429027D01*
X430339Y320865D01*
Y316929D01*
X442146Y322177D02*
X444770D01*
X446082Y320865D01*
Y316929D01*
X442146D01*
X440835Y318241D01*
X442146Y319553D01*
X446082D01*
X457889Y316929D02*
Y323489D01*
Y320865D01*
X456577D01*
X459201D01*
X457889D01*
Y323489D01*
X459201Y324801D01*
X467073Y316929D02*
X464449D01*
X463137Y318241D01*
Y320865D01*
X464449Y322177D01*
X467073D01*
X468385Y320865D01*
Y319553D01*
X463137D01*
X471008Y322177D02*
Y318241D01*
X472320Y316929D01*
X473632Y318241D01*
X474944Y316929D01*
X476256Y318241D01*
Y322177D01*
X486752Y324801D02*
Y316929D01*
X490687D01*
X491999Y318241D01*
Y319553D01*
Y320865D01*
X490687Y322177D01*
X486752D01*
X494623D02*
Y316929D01*
Y319553D01*
X495935Y320865D01*
X497247Y322177D01*
X498559D01*
X506430Y316929D02*
X503806D01*
X502494Y318241D01*
Y320865D01*
X503806Y322177D01*
X506430D01*
X507742Y320865D01*
Y319553D01*
X502494D01*
X511678Y322177D02*
X514302D01*
X515614Y320865D01*
Y316929D01*
X511678D01*
X510366Y318241D01*
X511678Y319553D01*
X515614D01*
X518237Y316929D02*
Y324801D01*
Y319553D02*
X522173Y322177D01*
X518237Y319553D02*
X522173Y316929D01*
X527421Y322177D02*
X530045D01*
X531356Y320865D01*
Y316929D01*
X527421D01*
X526109Y318241D01*
X527421Y319553D01*
X531356D01*
X533980Y322177D02*
Y318241D01*
X535292Y316929D01*
X536604Y318241D01*
X537916Y316929D01*
X539228Y318241D01*
Y322177D01*
X543164D02*
X545788D01*
X547099Y320865D01*
Y316929D01*
X543164D01*
X541852Y318241D01*
X543164Y319553D01*
X547099D01*
X549723Y322177D02*
Y318241D01*
X551035Y316929D01*
X554971D01*
Y315617D01*
X553659Y314305D01*
X552347D01*
X554971Y316929D02*
Y322177D01*
X566778Y323489D02*
Y322177D01*
X565466D01*
X568090D01*
X566778D01*
Y318241D01*
X568090Y316929D01*
X573338Y322177D02*
X575962D01*
X577274Y320865D01*
Y316929D01*
X573338D01*
X572026Y318241D01*
X573338Y319553D01*
X577274D01*
X579897Y324801D02*
Y316929D01*
X583833D01*
X585145Y318241D01*
Y319553D01*
Y320865D01*
X583833Y322177D01*
X579897D01*
X587769Y316929D02*
X591705D01*
X593016Y318241D01*
X591705Y319553D01*
X589081D01*
X587769Y320865D01*
X589081Y322177D01*
X593016D01*
X468504Y39761D02*
Y31890D01*
X472440D01*
X473752Y33202D01*
Y38449D01*
X472440Y39761D01*
X468504D01*
X481623D02*
X476375D01*
Y31890D01*
X481623D01*
X476375Y35825D02*
X478999D01*
X489495Y38449D02*
X488183Y39761D01*
X485559D01*
X484247Y38449D01*
Y37137D01*
X485559Y35825D01*
X488183D01*
X489495Y34514D01*
Y33202D01*
X488183Y31890D01*
X485559D01*
X484247Y33202D01*
X492118Y39761D02*
X494742D01*
X493430D01*
Y31890D01*
X492118D01*
X494742D01*
X503926Y38449D02*
X502614Y39761D01*
X499990D01*
X498678Y38449D01*
Y33202D01*
X499990Y31890D01*
X502614D01*
X503926Y33202D01*
Y35825D01*
X501302D01*
X506549Y31890D02*
Y39761D01*
X511797Y31890D01*
Y39761D01*
X527540D02*
X522292D01*
Y35825D01*
X524916Y37137D01*
X526228D01*
X527540Y35825D01*
Y33202D01*
X526228Y31890D01*
X523604D01*
X522292Y33202D01*
X243701Y39761D02*
Y31890D01*
X247637D01*
X248948Y33202D01*
Y38449D01*
X247637Y39761D01*
X243701D01*
X256820D02*
X251572D01*
Y31890D01*
X256820D01*
X251572Y35825D02*
X254196D01*
X264691Y38449D02*
X263380Y39761D01*
X260756D01*
X259444Y38449D01*
Y37137D01*
X260756Y35825D01*
X263380D01*
X264691Y34514D01*
Y33202D01*
X263380Y31890D01*
X260756D01*
X259444Y33202D01*
X267315Y39761D02*
X269939D01*
X268627D01*
Y31890D01*
X267315D01*
X269939D01*
X279122Y38449D02*
X277811Y39761D01*
X275187D01*
X273875Y38449D01*
Y33202D01*
X275187Y31890D01*
X277811D01*
X279122Y33202D01*
Y35825D01*
X276499D01*
X281746Y31890D02*
Y39761D01*
X286994Y31890D01*
Y39761D01*
X302737D02*
X297489D01*
Y35825D01*
X300113Y37137D01*
X301425D01*
X302737Y35825D01*
Y33202D01*
X301425Y31890D01*
X298801D01*
X297489Y33202D01*
X243701Y102753D02*
Y94882D01*
X247637D01*
X248948Y96194D01*
Y101442D01*
X247637Y102753D01*
X243701D01*
X256820D02*
X251572D01*
Y94882D01*
X256820D01*
X251572Y98818D02*
X254196D01*
X264691Y101442D02*
X263380Y102753D01*
X260756D01*
X259444Y101442D01*
Y100129D01*
X260756Y98818D01*
X263380D01*
X264691Y97506D01*
Y96194D01*
X263380Y94882D01*
X260756D01*
X259444Y96194D01*
X267315Y102753D02*
X269939D01*
X268627D01*
Y94882D01*
X267315D01*
X269939D01*
X279122Y101442D02*
X277811Y102753D01*
X275187D01*
X273875Y101442D01*
Y96194D01*
X275187Y94882D01*
X277811D01*
X279122Y96194D01*
Y98818D01*
X276499D01*
X281746Y94882D02*
Y102753D01*
X286994Y94882D01*
Y102753D01*
X302737D02*
X297489D01*
Y98818D01*
X300113Y100129D01*
X301425D01*
X302737Y98818D01*
Y96194D01*
X301425Y94882D01*
X298801D01*
X297489Y96194D01*
X243701Y165745D02*
Y157874D01*
X247637D01*
X248948Y159186D01*
Y164434D01*
X247637Y165745D01*
X243701D01*
X256820D02*
X251572D01*
Y157874D01*
X256820D01*
X251572Y161810D02*
X254196D01*
X264691Y164434D02*
X263380Y165745D01*
X260756D01*
X259444Y164434D01*
Y163122D01*
X260756Y161810D01*
X263380D01*
X264691Y160498D01*
Y159186D01*
X263380Y157874D01*
X260756D01*
X259444Y159186D01*
X267315Y165745D02*
X269939D01*
X268627D01*
Y157874D01*
X267315D01*
X269939D01*
X279122Y164434D02*
X277811Y165745D01*
X275187D01*
X273875Y164434D01*
Y159186D01*
X275187Y157874D01*
X277811D01*
X279122Y159186D01*
Y161810D01*
X276499D01*
X281746Y157874D02*
Y165745D01*
X286994Y157874D01*
Y165745D01*
X302737D02*
X297489D01*
Y161810D01*
X300113Y163122D01*
X301425D01*
X302737Y161810D01*
Y159186D01*
X301425Y157874D01*
X298801D01*
X297489Y159186D01*
X537795Y259446D02*
Y251575D01*
X541731D01*
X543043Y252887D01*
Y258134D01*
X541731Y259446D01*
X537795D01*
X550914D02*
X545667D01*
Y251575D01*
X550914D01*
X545667Y255510D02*
X548291D01*
X558786Y258134D02*
X557474Y259446D01*
X554850D01*
X553538Y258134D01*
Y256822D01*
X554850Y255510D01*
X557474D01*
X558786Y254199D01*
Y252887D01*
X557474Y251575D01*
X554850D01*
X553538Y252887D01*
X561410Y259446D02*
X564034D01*
X562722D01*
Y251575D01*
X561410D01*
X564034D01*
X573217Y258134D02*
X571905Y259446D01*
X569281D01*
X567969Y258134D01*
Y252887D01*
X569281Y251575D01*
X571905D01*
X573217Y252887D01*
Y255510D01*
X570593D01*
X575841Y251575D02*
Y259446D01*
X581088Y251575D01*
Y259446D01*
X591584Y258134D02*
X592896Y259446D01*
X595519D01*
X596831Y258134D01*
Y256822D01*
X595519Y255510D01*
X594207D01*
X595519D01*
X596831Y254199D01*
Y252887D01*
X595519Y251575D01*
X592896D01*
X591584Y252887D01*
X419291Y152753D02*
Y144882D01*
X423227D01*
X424539Y146194D01*
Y151442D01*
X423227Y152753D01*
X419291D01*
X432410D02*
X427163D01*
Y144882D01*
X432410D01*
X427163Y148818D02*
X429787D01*
X440282Y151442D02*
X438970Y152753D01*
X436346D01*
X435034Y151442D01*
Y150129D01*
X436346Y148818D01*
X438970D01*
X440282Y147506D01*
Y146194D01*
X438970Y144882D01*
X436346D01*
X435034Y146194D01*
X442906Y152753D02*
X445530D01*
X444218D01*
Y144882D01*
X442906D01*
X445530D01*
X454713Y151442D02*
X453401Y152753D01*
X450777D01*
X449465Y151442D01*
Y146194D01*
X450777Y144882D01*
X453401D01*
X454713Y146194D01*
Y148818D01*
X452089D01*
X457337Y144882D02*
Y152753D01*
X462584Y144882D01*
Y152753D01*
X478327Y144882D02*
X473080D01*
X478327Y150129D01*
Y151442D01*
X477015Y152753D01*
X474392D01*
X473080Y151442D01*
X220866Y281493D02*
Y273622D01*
X224802D01*
X226114Y274934D01*
Y280182D01*
X224802Y281493D01*
X220866D01*
X233985D02*
X228738D01*
Y273622D01*
X233985D01*
X228738Y277558D02*
X231361D01*
X241857Y280182D02*
X240545Y281493D01*
X237921D01*
X236609Y280182D01*
Y278870D01*
X237921Y277558D01*
X240545D01*
X241857Y276246D01*
Y274934D01*
X240545Y273622D01*
X237921D01*
X236609Y274934D01*
X244481Y281493D02*
X247104D01*
X245793D01*
Y273622D01*
X244481D01*
X247104D01*
X256288Y280182D02*
X254976Y281493D01*
X252352D01*
X251040Y280182D01*
Y274934D01*
X252352Y273622D01*
X254976D01*
X256288Y274934D01*
Y277558D01*
X253664D01*
X258912Y273622D02*
Y281493D01*
X264159Y273622D01*
Y281493D01*
X274655Y273622D02*
X277278D01*
X275967D01*
Y281493D01*
X274655Y280182D01*
D15*
X569291Y112596D02*
Y106693D01*
X572243D01*
X573227Y107677D01*
Y111613D01*
X572243Y112596D01*
X569291D01*
X579131D02*
X575195D01*
Y106693D01*
X579131D01*
X575195Y109645D02*
X577163D01*
X585034Y111613D02*
X584050Y112596D01*
X582083D01*
X581099Y111613D01*
Y110629D01*
X582083Y109645D01*
X584050D01*
X585034Y108661D01*
Y107677D01*
X584050Y106693D01*
X582083D01*
X581099Y107677D01*
X587002Y112596D02*
X588970D01*
X587986D01*
Y106693D01*
X587002D01*
X588970D01*
X595857Y111613D02*
X594874Y112596D01*
X592906D01*
X591922Y111613D01*
Y107677D01*
X592906Y106693D01*
X594874D01*
X595857Y107677D01*
Y109645D01*
X593890D01*
X597825Y106693D02*
Y112596D01*
X601761Y106693D01*
Y112596D01*
X612584Y106693D02*
Y112596D01*
X609633Y109645D01*
X613568D01*
D16*
X1178748Y-229571D02*
Y-190201D01*
X1021267Y-150831D02*
X1296858D01*
X1021267Y-190201D02*
X1296858D01*
X824417Y-229571D02*
X1296858D01*
X824417Y-111461D02*
X1296858D01*
X824417Y-268941D02*
Y-111461D01*
X1021267Y-268941D02*
Y-111461D01*
X-356685Y900350D02*
X1296858D01*
Y-268941D02*
Y900350D01*
X-356685Y-268941D02*
Y900350D01*
Y-268941D02*
X1296858D01*
X1035046Y-255164D02*
X1031110D01*
Y-258115D01*
X1033078D01*
X1031110D01*
Y-261067D01*
X1037014Y-257131D02*
Y-261067D01*
Y-259099D01*
X1037998Y-258115D01*
X1038981Y-257131D01*
X1039965D01*
X1042917Y-261067D02*
X1044885D01*
X1043901D01*
Y-257131D01*
X1042917D01*
X1047837Y-256147D02*
X1048821Y-255164D01*
X1050789D01*
X1051772Y-256147D01*
Y-257131D01*
X1050789Y-258115D01*
X1049805D01*
X1050789D01*
X1051772Y-259099D01*
Y-260083D01*
X1050789Y-261067D01*
X1048821D01*
X1047837Y-260083D01*
X1057676Y-255164D02*
Y-261067D01*
X1054724D01*
X1053740Y-260083D01*
Y-258115D01*
X1054724Y-257131D01*
X1057676D01*
X1059644Y-262051D02*
X1063580D01*
X1069483Y-261067D02*
X1065548D01*
X1069483Y-257131D01*
Y-256147D01*
X1068499Y-255164D01*
X1066531D01*
X1065548Y-256147D01*
X1071451D02*
X1072435Y-255164D01*
X1074403D01*
X1075387Y-256147D01*
Y-260083D01*
X1074403Y-261067D01*
X1072435D01*
X1071451Y-260083D01*
Y-256147D01*
X1081291Y-261067D02*
X1077355D01*
X1081291Y-257131D01*
Y-256147D01*
X1080307Y-255164D01*
X1078339D01*
X1077355Y-256147D01*
X1083258D02*
X1084242Y-255164D01*
X1086210D01*
X1087194Y-256147D01*
Y-260083D01*
X1086210Y-261067D01*
X1084242D01*
X1083258Y-260083D01*
Y-256147D01*
X1089162Y-262051D02*
X1093098D01*
X1095066Y-255164D02*
X1099001D01*
X1097034D01*
Y-261067D01*
X1100969D02*
X1102937D01*
X1101953D01*
Y-257131D01*
X1100969D01*
X1105889Y-261067D02*
Y-257131D01*
X1106873D01*
X1107857Y-258115D01*
Y-261067D01*
Y-258115D01*
X1108841Y-257131D01*
X1109825Y-258115D01*
Y-261067D01*
X1114744D02*
X1112776D01*
X1111792Y-260083D01*
Y-258115D01*
X1112776Y-257131D01*
X1114744D01*
X1115728Y-258115D01*
Y-259099D01*
X1111792D01*
X1117696Y-262051D02*
X1121632D01*
X1123600Y-255164D02*
Y-261067D01*
X1126552D01*
X1127535Y-260083D01*
Y-259099D01*
X1126552Y-258115D01*
X1123600D01*
X1126552D01*
X1127535Y-257131D01*
Y-256147D01*
X1126552Y-255164D01*
X1123600D01*
X1129503Y-261067D02*
X1131471D01*
X1130487D01*
Y-255164D01*
X1129503D01*
X1135407Y-257131D02*
X1137375D01*
X1138359Y-258115D01*
Y-261067D01*
X1135407D01*
X1134423Y-260083D01*
X1135407Y-259099D01*
X1138359D01*
X1140326Y-261067D02*
X1143278D01*
X1144262Y-260083D01*
X1143278Y-259099D01*
X1141311D01*
X1140326Y-258115D01*
X1141311Y-257131D01*
X1144262D01*
X1147214Y-256147D02*
Y-257131D01*
X1146230D01*
X1148198D01*
X1147214D01*
Y-260083D01*
X1148198Y-261067D01*
X1154102D02*
X1152134D01*
X1151150Y-260083D01*
Y-258115D01*
X1152134Y-257131D01*
X1154102D01*
X1155085Y-258115D01*
Y-259099D01*
X1151150D01*
X1157053Y-257131D02*
Y-261067D01*
Y-259099D01*
X1158037Y-258115D01*
X1159021Y-257131D01*
X1160005D01*
X1162957Y-262051D02*
X1166893D01*
X1168861Y-256147D02*
X1169845Y-255164D01*
X1171812D01*
X1172796Y-256147D01*
Y-260083D01*
X1171812Y-261067D01*
X1169845D01*
X1168861Y-260083D01*
Y-256147D01*
X1174764Y-261067D02*
X1176732D01*
X1175748D01*
Y-255164D01*
X1174764Y-256147D01*
X1179684Y-261067D02*
Y-260083D01*
X1180668D01*
Y-261067D01*
X1179684D01*
X1184604D02*
Y-255164D01*
X1187555D01*
X1188539Y-256147D01*
Y-258115D01*
X1187555Y-259099D01*
X1184604D01*
X1194443Y-257131D02*
X1191491D01*
X1190507Y-258115D01*
Y-260083D01*
X1191491Y-261067D01*
X1194443D01*
X1196411Y-255164D02*
Y-261067D01*
X1199362D01*
X1200346Y-260083D01*
Y-259099D01*
Y-258115D01*
X1199362Y-257131D01*
X1196411D01*
X1202314Y-255164D02*
Y-261067D01*
X1205266D01*
X1206250Y-260083D01*
Y-256147D01*
X1205266Y-255164D01*
X1202314D01*
X1209202Y-261067D02*
X1211170D01*
X1212154Y-260083D01*
Y-258115D01*
X1211170Y-257131D01*
X1209202D01*
X1208218Y-258115D01*
Y-260083D01*
X1209202Y-261067D01*
X1218057Y-257131D02*
X1215106D01*
X1214122Y-258115D01*
Y-260083D01*
X1215106Y-261067D01*
X1218057D01*
M02*
