M48
;Layer_Color=9474304
;FILE_FORMAT=2:5
INCH,LZ
;TYPE=PLATED
T2F00S00C0.01968
T3F00S00C0.02362
T6F00S00C0.03150
T14F00S00C0.07087
;TYPE=NON_PLATED
%
G90
G05
T02
G00X002315Y0020435
M15
G01X0023983Y0022854
M16
G00X0050599Y001369
M15
G01X0049766Y001127
M16
T03
G00X0023182Y0020528
M15
G01X0023951Y0022761
M16
G00X002822Y0035157
M15
G01X002963Y0039252
M16
G00X0060382Y0024083
M15
G01X0061792Y0028178
M16
G00X0055345Y0009454
M15
G01X0056114Y0011687
M16
T06
G00X0086757Y0044585
M15
G01X0087654Y004719
M16
G00X0096063Y004138
M15
G01X0096961Y0043986
M16
G00X0114676Y0034971
M15
G01X0115573Y0037577
M16
G00X0123982Y0031767
M15
G01X012488Y0034373
M16
T14
G00X030315Y0241732
M15
G01Y0254331
M16
G00X030315Y0288976
M15
G01Y0301575
M16
G00X030315Y0348819
M15
G01Y0336221
M16
G00X0153543Y0348819
M15
G01Y0336221
M16
G00X0153543Y0288976
M15
G01Y0301575
M16
G00X0153543Y0241732
M15
G01Y0254331
M16
G00X0153543Y0396063
M15
G01Y0383465
M16
G00X030315Y0396063
M15
G01Y0383465
M16
M17
M30
