M48
;Layer_Color=9474304
;FILE_FORMAT=2:5
INCH,LZ
;TYPE=PLATED
T1F00S00C0.01181
T4F00S00C0.02559
T5F00S00C0.03150
T7F00S00C0.03346
T8F00S00C0.03543
T9F00S00C0.03622
T10F00S00C0.03937
T11F00S00C0.04331
T12F00S00C0.04724
T13F00S00C0.05906
T15F00S00C0.09055
;TYPE=NON_PLATED
T16F00S00C0.03937
T17F00S00C0.04724
T18F00S00C0.07874
T19F00S00C0.15748
T20F00S00C0.23622
%
T01
X0057874Y0038976
X0041339Y0057087
X0036614Y0066929
X0082677Y0062992
X0058071Y0106496
X0438976Y0103543
Y0123031
X0458661
Y0105315
X0581693Y0094488
X0581693Y007874
X057185Y019685
X0554335
X0599409Y0094488
Y007874
X057185Y0228346
X0554134Y0228346
X0569858Y0310016
X0522614Y0306079
X0262992Y0301969
X0247736Y0342717
X022874Y0357283
X0285433Y0342126
X0081693Y028248
X0370079Y0374016
X0366142Y0387795
T04
X0033568Y0033397
X0055084Y0025989
X0286417Y0363789
X0417323Y032185
Y0315945
X0280512Y0363789
X026847Y0363454
X0244275Y0301722
X0228954Y0314578
X0222227Y031995
X0206907Y0332806
X0200449Y0338454
X0185128Y035131
X017892Y0356958
X0163599Y0369814
X025315Y037631
X0263795Y0397653
X0277937Y0411796
T05
X0440945Y029815
Y030315
Y030815
Y0329646
Y0334646
Y0339646
X0218776Y02954
X0204059Y030775
X0108268Y0480315
Y0485433
Y0490551
Y0495669
T07
X0384527Y0259842
X0418622Y0279528
Y0358019
X0196063Y0326378
X0165904Y0351684
X0384527Y0377704
T08
X0622835Y0313898
Y0323898
X0640158
Y0313898
X0386221Y035315
X034685Y0284959
X0288962Y0325221
X0281302Y0331649
X0273641Y0338077
X0265981Y0344505
X025832Y0350933
X025066Y0357361
X0243Y0363789
X0235339Y0370216
X0231376Y0334379
X0223716Y0340807
X0216055Y0347235
X0208395Y0353663
X0200735Y0360091
X0193074Y0366519
X0185414Y0372947
X0239037Y0327951
X0246697Y0321524
X0254358Y0315096
X0262018Y0308668
X0269679Y030224
X007559Y030315
X007559Y0311024
X0062598
Y030315
X0043754Y0303622
Y0293622
Y0313622
Y0323622
Y0333622
Y0343622
X0062598Y0334646
X0062598Y0326772
X007559Y0326772
X007559Y0334646
X011811Y035315
Y0383071
X0170093Y0385802
X0177753Y0379375
X0189376Y0408784
X0197037Y0402356
X0204697Y0395928
X0212358Y03895
X0220018Y0383072
X0227679Y0376644
X0230686Y0395207
X0238347Y0388779
X0246007Y0382352
X025474Y0406315
X0261811Y0413386
X0268882Y0420457
X0223026Y0401635
X0215365Y0408063
X0207705Y0414491
X0200044Y0420919
X0221275Y0439779
X0228346Y044685
X0235418Y0453922
T09
X0046121Y0049062
X0048684Y0056507
X0057991Y0053303
X0055427Y0045858
T10
X0165571Y0166568
X0171631Y0183216
X0218347Y0229252
Y0239252
X0228346
Y0229252
X0238347
Y0239252
T11
X0179913Y0260291
Y0278291
X0205913
Y0260291
T12
X0154639Y0165309
X0164065Y0191207
T13
X009941Y0020866
T15
X0024891Y0045088
X006971Y0029656
T16
X0125984Y0488189
T17
X0080797Y0027275
X0105818Y0039479
X0118022Y0014457
T18
X0143701Y0482283
T19
X0074803Y0108268
X013189Y0195866
X0169291Y0472441
T20
X019685Y0452756
M30
