G04*
G04 #@! TF.GenerationSoftware,Altium Limited,Altium Designer,22.0.2 (36)*
G04*
G04 Layer_Color=8388736*
%FSLAX25Y25*%
%MOIN*%
G70*
G04*
G04 #@! TF.SameCoordinates,9300CD48-3008-460F-951F-6CAC255EBD8A*
G04*
G04*
G04 #@! TF.FilePolarity,Positive*
G04*
G01*
G75*
%ADD10C,0.00787*%
%ADD11C,0.00984*%
%ADD16C,0.01000*%
%ADD17C,0.01575*%
%ADD19C,0.00197*%
%ADD141C,0.00600*%
G36*
X872201Y-141778D02*
X873919D01*
Y-142065D01*
X874778D01*
Y-142351D01*
X875637D01*
Y-142637D01*
X876496D01*
Y-142924D01*
X877069D01*
Y-143210D01*
X877355D01*
Y-143496D01*
X877928D01*
Y-143783D01*
X878214D01*
Y-144069D01*
X878786D01*
Y-144355D01*
X879073D01*
Y-144641D01*
X879359D01*
Y-144928D01*
X879646D01*
Y-145214D01*
X879932D01*
Y-145501D01*
X880218D01*
Y-145787D01*
X880504D01*
Y-146073D01*
Y-146359D01*
X880791D01*
Y-146646D01*
X881077D01*
Y-146932D01*
Y-147218D01*
X881363D01*
Y-147505D01*
X881650D01*
Y-147791D01*
Y-148077D01*
X881936D01*
Y-148364D01*
Y-148650D01*
Y-148936D01*
X882222D01*
Y-149223D01*
Y-149509D01*
Y-149795D01*
X882509D01*
Y-150082D01*
Y-150368D01*
Y-150654D01*
Y-150940D01*
X882795D01*
Y-151227D01*
Y-151513D01*
Y-151799D01*
Y-152086D01*
Y-152372D01*
X883081D01*
Y-152658D01*
Y-152945D01*
Y-153231D01*
Y-153517D01*
Y-153804D01*
Y-154090D01*
Y-154376D01*
Y-154663D01*
Y-154949D01*
Y-155235D01*
Y-155521D01*
Y-155808D01*
Y-156094D01*
Y-156380D01*
Y-156667D01*
Y-156953D01*
Y-157239D01*
Y-157526D01*
Y-157812D01*
Y-158098D01*
X882795D01*
Y-158385D01*
Y-158671D01*
Y-158957D01*
Y-159244D01*
Y-159530D01*
Y-159816D01*
Y-160102D01*
X882509D01*
Y-160389D01*
Y-160675D01*
Y-160961D01*
Y-161248D01*
Y-161534D01*
X882222D01*
Y-161820D01*
Y-162107D01*
Y-162393D01*
Y-162679D01*
Y-162966D01*
X881936D01*
Y-163252D01*
Y-163538D01*
Y-163824D01*
X881650D01*
Y-164111D01*
Y-164397D01*
Y-164683D01*
Y-164970D01*
X881363D01*
Y-165256D01*
Y-165542D01*
Y-165829D01*
X881077D01*
Y-166115D01*
Y-166401D01*
X880791D01*
Y-166688D01*
Y-166974D01*
Y-167260D01*
X880504D01*
Y-167547D01*
Y-167833D01*
X880218D01*
Y-168119D01*
Y-168405D01*
X879932D01*
Y-168692D01*
Y-168978D01*
X879646D01*
Y-169264D01*
X879359D01*
Y-169551D01*
Y-169837D01*
X879073D01*
Y-170123D01*
X878786D01*
Y-170410D01*
X878500D01*
Y-170696D01*
Y-170982D01*
X878214D01*
Y-171269D01*
X877928D01*
Y-171555D01*
X877641D01*
Y-171841D01*
X877355D01*
Y-172127D01*
X877069D01*
Y-172414D01*
X876496D01*
Y-172700D01*
X876210D01*
Y-172986D01*
X875637D01*
Y-173273D01*
X875351D01*
Y-173559D01*
X874778D01*
Y-173845D01*
X873919D01*
Y-174132D01*
X873060D01*
Y-174418D01*
X872201D01*
Y-174704D01*
X870483D01*
Y-174991D01*
X865330D01*
Y-174704D01*
X862753D01*
Y-174418D01*
X860749D01*
Y-174132D01*
X859317D01*
Y-173845D01*
X857886D01*
Y-173559D01*
X856454D01*
Y-173845D01*
Y-174132D01*
Y-174418D01*
Y-174704D01*
Y-174991D01*
Y-175277D01*
Y-175563D01*
X856168D01*
Y-175850D01*
Y-176136D01*
Y-176422D01*
Y-176709D01*
Y-176995D01*
Y-177281D01*
X855882D01*
Y-177568D01*
Y-177854D01*
Y-178140D01*
Y-178426D01*
Y-178713D01*
Y-178999D01*
X855595D01*
Y-179285D01*
Y-179572D01*
Y-179858D01*
Y-180144D01*
Y-180431D01*
Y-180717D01*
Y-181003D01*
X855309D01*
Y-181290D01*
Y-181576D01*
Y-181862D01*
Y-182149D01*
Y-182435D01*
Y-182721D01*
X855023D01*
Y-183007D01*
Y-183294D01*
Y-183580D01*
Y-183866D01*
Y-184153D01*
Y-184439D01*
X854736D01*
Y-184725D01*
Y-185012D01*
Y-185298D01*
Y-185584D01*
Y-185871D01*
Y-186157D01*
Y-186443D01*
X854450D01*
Y-186730D01*
Y-187016D01*
Y-187302D01*
Y-187588D01*
Y-187875D01*
Y-188161D01*
X854164D01*
Y-188447D01*
Y-188734D01*
Y-189020D01*
Y-189306D01*
Y-189593D01*
Y-189879D01*
X853877D01*
Y-190165D01*
Y-190452D01*
Y-190738D01*
Y-191024D01*
Y-191311D01*
Y-191597D01*
Y-191883D01*
X840421D01*
Y-191597D01*
X840707D01*
Y-191311D01*
Y-191024D01*
Y-190738D01*
Y-190452D01*
Y-190165D01*
X840993D01*
Y-189879D01*
Y-189593D01*
Y-189306D01*
Y-189020D01*
Y-188734D01*
Y-188447D01*
Y-188161D01*
X841280D01*
Y-187875D01*
Y-187588D01*
Y-187302D01*
Y-187016D01*
Y-186730D01*
Y-186443D01*
X841566D01*
Y-186157D01*
Y-185871D01*
Y-185584D01*
Y-185298D01*
Y-185012D01*
Y-184725D01*
X841852D01*
Y-184439D01*
Y-184153D01*
Y-183866D01*
Y-183580D01*
Y-183294D01*
Y-183007D01*
Y-182721D01*
X842138D01*
Y-182435D01*
Y-182149D01*
Y-181862D01*
Y-181576D01*
Y-181290D01*
Y-181003D01*
X842425D01*
Y-180717D01*
Y-180431D01*
Y-180144D01*
Y-179858D01*
Y-179572D01*
Y-179285D01*
X842711D01*
Y-178999D01*
Y-178713D01*
Y-178426D01*
Y-178140D01*
Y-177854D01*
Y-177568D01*
X842997D01*
Y-177281D01*
Y-176995D01*
Y-176709D01*
Y-176422D01*
Y-176136D01*
Y-175850D01*
Y-175563D01*
X843284D01*
Y-175277D01*
Y-174991D01*
Y-174704D01*
Y-174418D01*
Y-174132D01*
Y-173845D01*
X843570D01*
Y-173559D01*
Y-173273D01*
Y-172986D01*
Y-172700D01*
Y-172414D01*
Y-172127D01*
X843856D01*
Y-171841D01*
Y-171555D01*
Y-171269D01*
Y-170982D01*
Y-170696D01*
Y-170410D01*
X844143D01*
Y-170123D01*
Y-169837D01*
Y-169551D01*
Y-169264D01*
Y-168978D01*
Y-168692D01*
Y-168405D01*
X844429D01*
Y-168119D01*
Y-167833D01*
Y-167547D01*
Y-167260D01*
Y-166974D01*
Y-166688D01*
X844715D01*
Y-166401D01*
Y-166115D01*
Y-165829D01*
Y-165542D01*
Y-165256D01*
Y-164970D01*
X845002D01*
Y-164683D01*
Y-164397D01*
Y-164111D01*
Y-163824D01*
Y-163538D01*
Y-163252D01*
Y-162966D01*
X845288D01*
Y-162679D01*
Y-162393D01*
Y-162107D01*
Y-161820D01*
Y-161534D01*
Y-161248D01*
X845574D01*
Y-160961D01*
Y-160675D01*
Y-160389D01*
Y-160102D01*
Y-159816D01*
Y-159530D01*
X845861D01*
Y-159244D01*
Y-158957D01*
Y-158671D01*
Y-158385D01*
Y-158098D01*
Y-157812D01*
X846147D01*
Y-157526D01*
Y-157239D01*
Y-156953D01*
Y-156667D01*
Y-156380D01*
Y-156094D01*
Y-155808D01*
X846433D01*
Y-155521D01*
Y-155235D01*
Y-154949D01*
Y-154663D01*
Y-154376D01*
Y-154090D01*
X846719D01*
Y-153804D01*
Y-153517D01*
Y-153231D01*
Y-152945D01*
Y-152658D01*
Y-152372D01*
X847006D01*
Y-152086D01*
Y-151799D01*
Y-151513D01*
Y-151227D01*
Y-150940D01*
Y-150654D01*
Y-150368D01*
X847292D01*
Y-150082D01*
Y-149795D01*
Y-149509D01*
Y-149223D01*
Y-148936D01*
Y-148650D01*
X847578D01*
Y-148364D01*
Y-148077D01*
Y-147791D01*
Y-147505D01*
Y-147218D01*
Y-146932D01*
X847865D01*
Y-146646D01*
Y-146359D01*
Y-146073D01*
Y-145787D01*
Y-145501D01*
Y-145214D01*
Y-144928D01*
X848151D01*
Y-144641D01*
Y-144355D01*
Y-144069D01*
Y-143783D01*
Y-143496D01*
Y-143210D01*
X848437D01*
Y-142924D01*
Y-142637D01*
Y-142351D01*
Y-142065D01*
Y-141778D01*
Y-141492D01*
X872201D01*
Y-141778D01*
D02*
G37*
G36*
X903409Y-138343D02*
Y-138629D01*
X903123D01*
Y-138915D01*
Y-139202D01*
Y-139488D01*
Y-139774D01*
Y-140060D01*
Y-140347D01*
X902837D01*
Y-140633D01*
Y-140919D01*
Y-141206D01*
Y-141492D01*
Y-141778D01*
Y-142065D01*
X902551D01*
Y-142351D01*
Y-142637D01*
Y-142924D01*
Y-143210D01*
Y-143496D01*
Y-143783D01*
Y-144069D01*
X902264D01*
Y-144355D01*
Y-144641D01*
Y-144928D01*
Y-145214D01*
Y-145501D01*
Y-145787D01*
X901978D01*
Y-146073D01*
Y-146359D01*
Y-146646D01*
Y-146932D01*
Y-147218D01*
Y-147505D01*
X901692D01*
Y-147791D01*
Y-148077D01*
Y-148364D01*
Y-148650D01*
Y-148936D01*
Y-149223D01*
Y-149509D01*
X901405D01*
Y-149795D01*
Y-150082D01*
Y-150368D01*
Y-150654D01*
Y-150940D01*
Y-151227D01*
X901119D01*
Y-151513D01*
Y-151799D01*
Y-152086D01*
Y-152372D01*
Y-152658D01*
Y-152945D01*
X900833D01*
Y-153231D01*
Y-153517D01*
Y-153804D01*
Y-154090D01*
Y-154376D01*
Y-154663D01*
X900546D01*
Y-154949D01*
Y-155235D01*
Y-155521D01*
Y-155808D01*
Y-156094D01*
Y-156380D01*
Y-156667D01*
X900260D01*
Y-156953D01*
Y-157239D01*
Y-157526D01*
Y-157812D01*
Y-158098D01*
Y-158385D01*
X899974D01*
Y-158671D01*
Y-158957D01*
X900546D01*
Y-158671D01*
X900833D01*
Y-158385D01*
X901119D01*
Y-158098D01*
X901692D01*
Y-157812D01*
X901978D01*
Y-157526D01*
X902264D01*
Y-157239D01*
X902837D01*
Y-156953D01*
X903409D01*
Y-156667D01*
X903696D01*
Y-156380D01*
X904268D01*
Y-156094D01*
X905127D01*
Y-155808D01*
X905700D01*
Y-155521D01*
X906559D01*
Y-155235D01*
X907990D01*
Y-154949D01*
X914289D01*
Y-155235D01*
X915435D01*
Y-155521D01*
X916294D01*
Y-155808D01*
X916866D01*
Y-156094D01*
X917153D01*
Y-156380D01*
X917725D01*
Y-156667D01*
X918011D01*
Y-156953D01*
X918298D01*
Y-157239D01*
X918584D01*
Y-157526D01*
X918870D01*
Y-157812D01*
Y-158098D01*
X919157D01*
Y-158385D01*
Y-158671D01*
X919443D01*
Y-158957D01*
Y-159244D01*
Y-159530D01*
X919729D01*
Y-159816D01*
Y-160102D01*
Y-160389D01*
Y-160675D01*
X920016D01*
Y-160961D01*
Y-161248D01*
Y-161534D01*
Y-161820D01*
Y-162107D01*
Y-162393D01*
Y-162679D01*
Y-162966D01*
Y-163252D01*
Y-163538D01*
Y-163824D01*
Y-164111D01*
Y-164397D01*
Y-164683D01*
Y-164970D01*
Y-165256D01*
Y-165542D01*
Y-165829D01*
X919729D01*
Y-166115D01*
Y-166401D01*
Y-166688D01*
Y-166974D01*
Y-167260D01*
Y-167547D01*
Y-167833D01*
X919443D01*
Y-168119D01*
Y-168405D01*
Y-168692D01*
Y-168978D01*
Y-169264D01*
Y-169551D01*
Y-169837D01*
X919157D01*
Y-170123D01*
Y-170410D01*
Y-170696D01*
Y-170982D01*
Y-171269D01*
Y-171555D01*
X918870D01*
Y-171841D01*
Y-172127D01*
Y-172414D01*
Y-172700D01*
Y-172986D01*
Y-173273D01*
X918584D01*
Y-173559D01*
Y-173845D01*
Y-174132D01*
Y-174418D01*
Y-174704D01*
Y-174991D01*
X918298D01*
Y-175277D01*
Y-175563D01*
Y-175850D01*
Y-176136D01*
Y-176422D01*
Y-176709D01*
Y-176995D01*
X918011D01*
Y-177281D01*
Y-177568D01*
Y-177854D01*
Y-178140D01*
Y-178426D01*
Y-178713D01*
X917725D01*
Y-178999D01*
Y-179285D01*
Y-179572D01*
Y-179858D01*
Y-180144D01*
Y-180431D01*
X917439D01*
Y-180717D01*
Y-181003D01*
Y-181290D01*
Y-181576D01*
Y-181862D01*
Y-182149D01*
Y-182435D01*
X917153D01*
Y-182721D01*
Y-183007D01*
Y-183294D01*
Y-183580D01*
Y-183866D01*
Y-184153D01*
X916866D01*
Y-184439D01*
Y-184725D01*
Y-185012D01*
Y-185298D01*
Y-185584D01*
Y-185871D01*
X916580D01*
Y-186157D01*
Y-186443D01*
Y-186730D01*
Y-187016D01*
Y-187302D01*
Y-187588D01*
X916294D01*
Y-187875D01*
Y-188161D01*
Y-188447D01*
Y-188734D01*
Y-189020D01*
Y-189306D01*
Y-189593D01*
X916007D01*
Y-189879D01*
Y-190165D01*
Y-190452D01*
Y-190738D01*
Y-191024D01*
Y-191311D01*
X915721D01*
Y-191597D01*
Y-191883D01*
X902551D01*
Y-191597D01*
Y-191311D01*
X902837D01*
Y-191024D01*
Y-190738D01*
Y-190452D01*
Y-190165D01*
Y-189879D01*
Y-189593D01*
X903123D01*
Y-189306D01*
Y-189020D01*
Y-188734D01*
Y-188447D01*
Y-188161D01*
Y-187875D01*
Y-187588D01*
X903409D01*
Y-187302D01*
Y-187016D01*
Y-186730D01*
Y-186443D01*
Y-186157D01*
Y-185871D01*
X903696D01*
Y-185584D01*
Y-185298D01*
Y-185012D01*
Y-184725D01*
Y-184439D01*
Y-184153D01*
X903982D01*
Y-183866D01*
Y-183580D01*
Y-183294D01*
Y-183007D01*
Y-182721D01*
Y-182435D01*
Y-182149D01*
X904268D01*
Y-181862D01*
Y-181576D01*
Y-181290D01*
Y-181003D01*
Y-180717D01*
Y-180431D01*
X904555D01*
Y-180144D01*
Y-179858D01*
Y-179572D01*
Y-179285D01*
Y-178999D01*
Y-178713D01*
Y-178426D01*
X904841D01*
Y-178140D01*
Y-177854D01*
Y-177568D01*
Y-177281D01*
Y-176995D01*
Y-176709D01*
X905127D01*
Y-176422D01*
Y-176136D01*
Y-175850D01*
Y-175563D01*
Y-175277D01*
Y-174991D01*
X905414D01*
Y-174704D01*
Y-174418D01*
Y-174132D01*
Y-173845D01*
Y-173559D01*
Y-173273D01*
X905700D01*
Y-172986D01*
Y-172700D01*
Y-172414D01*
Y-172127D01*
Y-171841D01*
Y-171555D01*
Y-171269D01*
X905986D01*
Y-170982D01*
Y-170696D01*
Y-170410D01*
Y-170123D01*
Y-169837D01*
Y-169551D01*
X906273D01*
Y-169264D01*
Y-168978D01*
Y-168692D01*
Y-168405D01*
Y-168119D01*
Y-167833D01*
Y-167547D01*
X906559D01*
Y-167260D01*
Y-166974D01*
Y-166688D01*
Y-166401D01*
Y-166115D01*
Y-165829D01*
X906273D01*
Y-165542D01*
Y-165256D01*
X905986D01*
Y-164970D01*
X905700D01*
Y-164683D01*
X905127D01*
Y-164397D01*
X903409D01*
Y-164683D01*
X901978D01*
Y-164970D01*
X901119D01*
Y-165256D01*
X900546D01*
Y-165542D01*
X900260D01*
Y-165829D01*
X899687D01*
Y-166115D01*
X899401D01*
Y-166401D01*
X899115D01*
Y-166688D01*
Y-166974D01*
X898828D01*
Y-167260D01*
Y-167547D01*
Y-167833D01*
X898542D01*
Y-168119D01*
Y-168405D01*
Y-168692D01*
Y-168978D01*
Y-169264D01*
Y-169551D01*
X898256D01*
Y-169837D01*
Y-170123D01*
Y-170410D01*
Y-170696D01*
Y-170982D01*
Y-171269D01*
Y-171555D01*
X897970D01*
Y-171841D01*
Y-172127D01*
Y-172414D01*
Y-172700D01*
Y-172986D01*
Y-173273D01*
X897683D01*
Y-173559D01*
Y-173845D01*
Y-174132D01*
Y-174418D01*
Y-174704D01*
Y-174991D01*
X897397D01*
Y-175277D01*
Y-175563D01*
Y-175850D01*
Y-176136D01*
Y-176422D01*
Y-176709D01*
X897111D01*
Y-176995D01*
Y-177281D01*
Y-177568D01*
Y-177854D01*
Y-178140D01*
Y-178426D01*
Y-178713D01*
X896824D01*
Y-178999D01*
Y-179285D01*
Y-179572D01*
Y-179858D01*
Y-180144D01*
Y-180431D01*
X896538D01*
Y-180717D01*
Y-181003D01*
Y-181290D01*
Y-181576D01*
Y-181862D01*
Y-182149D01*
X896252D01*
Y-182435D01*
Y-182721D01*
Y-183007D01*
Y-183294D01*
Y-183580D01*
Y-183866D01*
Y-184153D01*
X895965D01*
Y-184439D01*
Y-184725D01*
Y-185012D01*
Y-185298D01*
Y-185584D01*
Y-185871D01*
X895679D01*
Y-186157D01*
Y-186443D01*
Y-186730D01*
Y-187016D01*
Y-187302D01*
Y-187588D01*
X895393D01*
Y-187875D01*
Y-188161D01*
Y-188447D01*
Y-188734D01*
Y-189020D01*
Y-189306D01*
X895106D01*
Y-189593D01*
Y-189879D01*
Y-190165D01*
Y-190452D01*
Y-190738D01*
Y-191024D01*
Y-191311D01*
X894820D01*
Y-191597D01*
Y-191883D01*
X881650D01*
Y-191597D01*
Y-191311D01*
X881936D01*
Y-191024D01*
Y-190738D01*
Y-190452D01*
Y-190165D01*
Y-189879D01*
Y-189593D01*
Y-189306D01*
X882222D01*
Y-189020D01*
Y-188734D01*
Y-188447D01*
Y-188161D01*
Y-187875D01*
Y-187588D01*
X882509D01*
Y-187302D01*
Y-187016D01*
Y-186730D01*
Y-186443D01*
Y-186157D01*
Y-185871D01*
X882795D01*
Y-185584D01*
Y-185298D01*
Y-185012D01*
Y-184725D01*
Y-184439D01*
Y-184153D01*
Y-183866D01*
X883081D01*
Y-183580D01*
Y-183294D01*
Y-183007D01*
Y-182721D01*
Y-182435D01*
Y-182149D01*
X883368D01*
Y-181862D01*
Y-181576D01*
Y-181290D01*
Y-181003D01*
Y-180717D01*
Y-180431D01*
X883654D01*
Y-180144D01*
Y-179858D01*
Y-179572D01*
Y-179285D01*
Y-178999D01*
Y-178713D01*
X883940D01*
Y-178426D01*
Y-178140D01*
Y-177854D01*
Y-177568D01*
Y-177281D01*
Y-176995D01*
Y-176709D01*
X884227D01*
Y-176422D01*
Y-176136D01*
Y-175850D01*
Y-175563D01*
Y-175277D01*
Y-174991D01*
X884513D01*
Y-174704D01*
Y-174418D01*
Y-174132D01*
Y-173845D01*
Y-173559D01*
Y-173273D01*
X884799D01*
Y-172986D01*
Y-172700D01*
Y-172414D01*
Y-172127D01*
Y-171841D01*
Y-171555D01*
Y-171269D01*
X885085D01*
Y-170982D01*
Y-170696D01*
Y-170410D01*
Y-170123D01*
Y-169837D01*
Y-169551D01*
X885372D01*
Y-169264D01*
Y-168978D01*
Y-168692D01*
Y-168405D01*
Y-168119D01*
Y-167833D01*
X885658D01*
Y-167547D01*
Y-167260D01*
Y-166974D01*
Y-166688D01*
Y-166401D01*
Y-166115D01*
X885944D01*
Y-165829D01*
Y-165542D01*
Y-165256D01*
Y-164970D01*
Y-164683D01*
Y-164397D01*
Y-164111D01*
X886231D01*
Y-163824D01*
Y-163538D01*
Y-163252D01*
Y-162966D01*
Y-162679D01*
Y-162393D01*
X886517D01*
Y-162107D01*
Y-161820D01*
Y-161534D01*
Y-161248D01*
Y-160961D01*
Y-160675D01*
X886803D01*
Y-160389D01*
Y-160102D01*
Y-159816D01*
Y-159530D01*
Y-159244D01*
Y-158957D01*
X887090D01*
Y-158671D01*
Y-158385D01*
Y-158098D01*
Y-157812D01*
Y-157526D01*
Y-157239D01*
Y-156953D01*
X887376D01*
Y-156667D01*
Y-156380D01*
Y-156094D01*
Y-155808D01*
Y-155521D01*
Y-155235D01*
X887662D01*
Y-154949D01*
Y-154663D01*
Y-154376D01*
Y-154090D01*
Y-153804D01*
Y-153517D01*
X887949D01*
Y-153231D01*
Y-152945D01*
Y-152658D01*
Y-152372D01*
Y-152086D01*
Y-151799D01*
Y-151513D01*
X888235D01*
Y-151227D01*
Y-150940D01*
Y-150654D01*
Y-150368D01*
Y-150082D01*
Y-149795D01*
X888521D01*
Y-149509D01*
Y-149223D01*
Y-148936D01*
Y-148650D01*
Y-148364D01*
Y-148077D01*
X888807D01*
Y-147791D01*
Y-147505D01*
Y-147218D01*
Y-146932D01*
Y-146646D01*
Y-146359D01*
X889094D01*
Y-146073D01*
Y-145787D01*
Y-145501D01*
Y-145214D01*
Y-144928D01*
Y-144641D01*
Y-144355D01*
X889380D01*
Y-144069D01*
Y-143783D01*
Y-143496D01*
Y-143210D01*
Y-142924D01*
Y-142637D01*
X889666D01*
Y-142351D01*
Y-142065D01*
Y-141778D01*
Y-141492D01*
Y-141206D01*
Y-140919D01*
X889953D01*
Y-140633D01*
Y-140347D01*
Y-140060D01*
Y-139774D01*
Y-139488D01*
Y-139202D01*
Y-138915D01*
X890239D01*
Y-138629D01*
Y-138343D01*
Y-138056D01*
X903409D01*
Y-138343D01*
D02*
G37*
G36*
X1005337Y-155808D02*
X1005050D01*
Y-156094D01*
X1004764D01*
Y-156380D01*
Y-156667D01*
X1004478D01*
Y-156953D01*
X1004192D01*
Y-157239D01*
X1003905D01*
Y-157526D01*
Y-157812D01*
X1003619D01*
Y-158098D01*
X1003333D01*
Y-158385D01*
X1003046D01*
Y-158671D01*
X1002760D01*
Y-158957D01*
Y-159244D01*
X1002474D01*
Y-159530D01*
X1002187D01*
Y-159816D01*
X1001901D01*
Y-160102D01*
Y-160389D01*
X1001615D01*
Y-160675D01*
X1001328D01*
Y-160961D01*
X1001042D01*
Y-161248D01*
X1000756D01*
Y-161534D01*
Y-161820D01*
X1000469D01*
Y-162107D01*
X1000183D01*
Y-162393D01*
X999897D01*
Y-162679D01*
Y-162966D01*
X999611D01*
Y-163252D01*
X999324D01*
Y-163538D01*
X999038D01*
Y-163824D01*
Y-164111D01*
X998752D01*
Y-164397D01*
X998465D01*
Y-164683D01*
X998179D01*
Y-164970D01*
X997893D01*
Y-165256D01*
Y-165542D01*
X997606D01*
Y-165829D01*
X997320D01*
Y-166115D01*
X997034D01*
Y-166401D01*
Y-166688D01*
X996747D01*
Y-166974D01*
X996461D01*
Y-167260D01*
X996175D01*
Y-167547D01*
Y-167833D01*
X995889D01*
Y-168119D01*
X995602D01*
Y-168405D01*
X995316D01*
Y-168692D01*
X995030D01*
Y-168978D01*
Y-169264D01*
X994743D01*
Y-169551D01*
X994457D01*
Y-169837D01*
X994171D01*
Y-170123D01*
Y-170410D01*
X993884D01*
Y-170696D01*
X993598D01*
Y-170982D01*
X993312D01*
Y-171269D01*
Y-171555D01*
X993025D01*
Y-171841D01*
X992739D01*
Y-172127D01*
X992453D01*
Y-172414D01*
X992166D01*
Y-172700D01*
Y-172986D01*
X991880D01*
Y-173273D01*
X991594D01*
Y-173559D01*
X991308D01*
Y-173845D01*
Y-174132D01*
X991021D01*
Y-174418D01*
X990735D01*
Y-174704D01*
X990449D01*
Y-174991D01*
X990162D01*
Y-175277D01*
Y-175563D01*
X990449D01*
Y-175850D01*
Y-176136D01*
X990735D01*
Y-176422D01*
Y-176709D01*
X991021D01*
Y-176995D01*
X991308D01*
Y-177281D01*
Y-177568D01*
X991594D01*
Y-177854D01*
Y-178140D01*
X991880D01*
Y-178426D01*
Y-178713D01*
X992166D01*
Y-178999D01*
Y-179285D01*
X992453D01*
Y-179572D01*
Y-179858D01*
X992739D01*
Y-180144D01*
Y-180431D01*
X993025D01*
Y-180717D01*
Y-181003D01*
X993312D01*
Y-181290D01*
Y-181576D01*
X993598D01*
Y-181862D01*
X993884D01*
Y-182149D01*
Y-182435D01*
X994171D01*
Y-182721D01*
Y-183007D01*
X994457D01*
Y-183294D01*
Y-183580D01*
X994743D01*
Y-183866D01*
Y-184153D01*
X995030D01*
Y-184439D01*
Y-184725D01*
X995316D01*
Y-185012D01*
Y-185298D01*
X995602D01*
Y-185584D01*
Y-185871D01*
X995889D01*
Y-186157D01*
X996175D01*
Y-186443D01*
Y-186730D01*
X996461D01*
Y-187016D01*
Y-187302D01*
X996747D01*
Y-187588D01*
Y-187875D01*
X997034D01*
Y-188161D01*
Y-188447D01*
X997320D01*
Y-188734D01*
Y-189020D01*
X997606D01*
Y-189306D01*
Y-189593D01*
X997893D01*
Y-189879D01*
Y-190165D01*
X998179D01*
Y-190452D01*
X998465D01*
Y-190738D01*
Y-191024D01*
X998752D01*
Y-191311D01*
Y-191597D01*
X999038D01*
Y-191883D01*
X983863D01*
Y-191597D01*
X983577D01*
Y-191311D01*
Y-191024D01*
Y-190738D01*
X983291D01*
Y-190452D01*
Y-190165D01*
Y-189879D01*
X983004D01*
Y-189593D01*
Y-189306D01*
X982718D01*
Y-189020D01*
Y-188734D01*
Y-188447D01*
X982432D01*
Y-188161D01*
Y-187875D01*
Y-187588D01*
X982146D01*
Y-187302D01*
Y-187016D01*
X981859D01*
Y-186730D01*
Y-186443D01*
Y-186157D01*
X981573D01*
Y-185871D01*
Y-185584D01*
Y-185298D01*
X981287D01*
Y-185012D01*
Y-184725D01*
Y-184439D01*
X981000D01*
Y-184153D01*
X980428D01*
Y-184439D01*
Y-184725D01*
X980141D01*
Y-185012D01*
X979855D01*
Y-185298D01*
Y-185584D01*
X979569D01*
Y-185871D01*
X979282D01*
Y-186157D01*
Y-186443D01*
X978996D01*
Y-186730D01*
X978710D01*
Y-187016D01*
Y-187302D01*
X978423D01*
Y-187588D01*
X978137D01*
Y-187875D01*
X977851D01*
Y-188161D01*
Y-188447D01*
X977565D01*
Y-188734D01*
X977278D01*
Y-189020D01*
Y-189306D01*
X976992D01*
Y-189593D01*
X976705D01*
Y-189879D01*
Y-190165D01*
X976419D01*
Y-190452D01*
X976133D01*
Y-190738D01*
Y-191024D01*
X975847D01*
Y-191311D01*
X975560D01*
Y-191597D01*
Y-191883D01*
X959527D01*
Y-191597D01*
X959813D01*
Y-191311D01*
X960099D01*
Y-191024D01*
X960386D01*
Y-190738D01*
X960672D01*
Y-190452D01*
Y-190165D01*
X960958D01*
Y-189879D01*
X961245D01*
Y-189593D01*
X961531D01*
Y-189306D01*
X961817D01*
Y-189020D01*
Y-188734D01*
X962104D01*
Y-188447D01*
X962390D01*
Y-188161D01*
X962676D01*
Y-187875D01*
Y-187588D01*
X962963D01*
Y-187302D01*
X963249D01*
Y-187016D01*
X963535D01*
Y-186730D01*
X963822D01*
Y-186443D01*
Y-186157D01*
X964108D01*
Y-185871D01*
X964394D01*
Y-185584D01*
X964680D01*
Y-185298D01*
X964967D01*
Y-185012D01*
Y-184725D01*
X965253D01*
Y-184439D01*
X965539D01*
Y-184153D01*
X965826D01*
Y-183866D01*
Y-183580D01*
X966112D01*
Y-183294D01*
X966398D01*
Y-183007D01*
X966685D01*
Y-182721D01*
X966971D01*
Y-182435D01*
Y-182149D01*
X967257D01*
Y-181862D01*
X967544D01*
Y-181576D01*
X967830D01*
Y-181290D01*
Y-181003D01*
X968116D01*
Y-180717D01*
X968402D01*
Y-180431D01*
X968689D01*
Y-180144D01*
X968975D01*
Y-179858D01*
Y-179572D01*
X969261D01*
Y-179285D01*
X969548D01*
Y-178999D01*
X969834D01*
Y-178713D01*
Y-178426D01*
X970120D01*
Y-178140D01*
X970407D01*
Y-177854D01*
X970693D01*
Y-177568D01*
X970979D01*
Y-177281D01*
Y-176995D01*
X971266D01*
Y-176709D01*
X971552D01*
Y-176422D01*
X971838D01*
Y-176136D01*
X972124D01*
Y-175850D01*
Y-175563D01*
X972411D01*
Y-175277D01*
X972697D01*
Y-174991D01*
X972983D01*
Y-174704D01*
Y-174418D01*
X973270D01*
Y-174132D01*
X973556D01*
Y-173845D01*
X973842D01*
Y-173559D01*
X974129D01*
Y-173273D01*
Y-172986D01*
X974415D01*
Y-172700D01*
Y-172414D01*
Y-172127D01*
X974129D01*
Y-171841D01*
X973842D01*
Y-171555D01*
Y-171269D01*
X973556D01*
Y-170982D01*
Y-170696D01*
X973270D01*
Y-170410D01*
Y-170123D01*
X972983D01*
Y-169837D01*
Y-169551D01*
X972697D01*
Y-169264D01*
Y-168978D01*
X972411D01*
Y-168692D01*
Y-168405D01*
X972124D01*
Y-168119D01*
X971838D01*
Y-167833D01*
Y-167547D01*
X971552D01*
Y-167260D01*
Y-166974D01*
X971266D01*
Y-166688D01*
Y-166401D01*
X970979D01*
Y-166115D01*
Y-165829D01*
X970693D01*
Y-165542D01*
Y-165256D01*
X970407D01*
Y-164970D01*
Y-164683D01*
X970120D01*
Y-164397D01*
X969834D01*
Y-164111D01*
Y-163824D01*
X969548D01*
Y-163538D01*
Y-163252D01*
X969261D01*
Y-162966D01*
Y-162679D01*
X968975D01*
Y-162393D01*
Y-162107D01*
X968689D01*
Y-161820D01*
Y-161534D01*
X968402D01*
Y-161248D01*
Y-160961D01*
X968116D01*
Y-160675D01*
Y-160389D01*
X967830D01*
Y-160102D01*
X967544D01*
Y-159816D01*
Y-159530D01*
X967257D01*
Y-159244D01*
Y-158957D01*
X966971D01*
Y-158671D01*
Y-158385D01*
X966685D01*
Y-158098D01*
Y-157812D01*
X966398D01*
Y-157526D01*
Y-157239D01*
X966112D01*
Y-156953D01*
Y-156667D01*
X965826D01*
Y-156380D01*
X965539D01*
Y-156094D01*
Y-155808D01*
X965253D01*
Y-155521D01*
X981000D01*
Y-155808D01*
X981287D01*
Y-156094D01*
Y-156380D01*
Y-156667D01*
X981573D01*
Y-156953D01*
Y-157239D01*
Y-157526D01*
X981859D01*
Y-157812D01*
Y-158098D01*
Y-158385D01*
X982146D01*
Y-158671D01*
Y-158957D01*
Y-159244D01*
X982432D01*
Y-159530D01*
Y-159816D01*
Y-160102D01*
X982718D01*
Y-160389D01*
Y-160675D01*
Y-160961D01*
X983004D01*
Y-161248D01*
Y-161534D01*
Y-161820D01*
X983291D01*
Y-162107D01*
Y-162393D01*
Y-162679D01*
X983577D01*
Y-162966D01*
Y-163252D01*
Y-163538D01*
Y-163824D01*
X984150D01*
Y-163538D01*
X984436D01*
Y-163252D01*
X984722D01*
Y-162966D01*
Y-162679D01*
X985009D01*
Y-162393D01*
X985295D01*
Y-162107D01*
Y-161820D01*
X985581D01*
Y-161534D01*
X985868D01*
Y-161248D01*
Y-160961D01*
X986154D01*
Y-160675D01*
X986440D01*
Y-160389D01*
Y-160102D01*
X986726D01*
Y-159816D01*
X987013D01*
Y-159530D01*
Y-159244D01*
X987299D01*
Y-158957D01*
X987585D01*
Y-158671D01*
Y-158385D01*
X987872D01*
Y-158098D01*
X988158D01*
Y-157812D01*
Y-157526D01*
X988444D01*
Y-157239D01*
X988731D01*
Y-156953D01*
Y-156667D01*
X989017D01*
Y-156380D01*
X989303D01*
Y-156094D01*
Y-155808D01*
X989590D01*
Y-155521D01*
X1005337D01*
Y-155808D01*
D02*
G37*
G36*
X961245D02*
Y-156094D01*
Y-156380D01*
Y-156667D01*
Y-156953D01*
Y-157239D01*
Y-157526D01*
Y-157812D01*
Y-158098D01*
Y-158385D01*
Y-158671D01*
Y-158957D01*
Y-159244D01*
Y-159530D01*
Y-159816D01*
Y-160102D01*
Y-160389D01*
Y-160675D01*
Y-160961D01*
Y-161248D01*
Y-161534D01*
X960958D01*
Y-161820D01*
Y-162107D01*
Y-162393D01*
Y-162679D01*
Y-162966D01*
X960672D01*
Y-163252D01*
Y-163538D01*
Y-163824D01*
Y-164111D01*
X960386D01*
Y-164397D01*
Y-164683D01*
Y-164970D01*
Y-165256D01*
X960099D01*
Y-165542D01*
Y-165829D01*
Y-166115D01*
X959813D01*
Y-166401D01*
Y-166688D01*
Y-166974D01*
X959527D01*
Y-167260D01*
Y-167547D01*
Y-167833D01*
X959241D01*
Y-168119D01*
Y-168405D01*
Y-168692D01*
X958954D01*
Y-168978D01*
Y-169264D01*
X958668D01*
Y-169551D01*
Y-169837D01*
X958381D01*
Y-170123D01*
Y-170410D01*
Y-170696D01*
X958095D01*
Y-170982D01*
Y-171269D01*
X957809D01*
Y-171555D01*
Y-171841D01*
Y-172127D01*
X957523D01*
Y-172414D01*
Y-172700D01*
X957236D01*
Y-172986D01*
Y-173273D01*
Y-173559D01*
X956950D01*
Y-173845D01*
Y-174132D01*
X956664D01*
Y-174418D01*
Y-174704D01*
Y-174991D01*
X956377D01*
Y-175277D01*
Y-175563D01*
X956091D01*
Y-175850D01*
Y-176136D01*
Y-176422D01*
X955805D01*
Y-176709D01*
Y-176995D01*
X955518D01*
Y-177281D01*
Y-177568D01*
Y-177854D01*
X955232D01*
Y-178140D01*
Y-178426D01*
X954946D01*
Y-178713D01*
Y-178999D01*
Y-179285D01*
X954659D01*
Y-179572D01*
Y-179858D01*
X954373D01*
Y-180144D01*
Y-180431D01*
Y-180717D01*
X954087D01*
Y-181003D01*
Y-181290D01*
X953800D01*
Y-181576D01*
Y-181862D01*
Y-182149D01*
X953514D01*
Y-182435D01*
Y-182721D01*
X953228D01*
Y-183007D01*
Y-183294D01*
Y-183580D01*
X952942D01*
Y-183866D01*
Y-184153D01*
X952655D01*
Y-184439D01*
Y-184725D01*
Y-185012D01*
X952369D01*
Y-185298D01*
Y-185584D01*
X952083D01*
Y-185871D01*
Y-186157D01*
Y-186443D01*
X951796D01*
Y-186730D01*
Y-187016D01*
X951510D01*
Y-187302D01*
Y-187588D01*
Y-187875D01*
X951224D01*
Y-188161D01*
Y-188447D01*
X950937D01*
Y-188734D01*
Y-189020D01*
Y-189306D01*
X950651D01*
Y-189593D01*
Y-189879D01*
X950365D01*
Y-190165D01*
Y-190452D01*
Y-190738D01*
X950078D01*
Y-191024D01*
Y-191311D01*
X949792D01*
Y-191597D01*
Y-191883D01*
Y-192169D01*
X949506D01*
Y-192456D01*
Y-192742D01*
X949220D01*
Y-193028D01*
Y-193315D01*
X948933D01*
Y-193601D01*
Y-193887D01*
X948647D01*
Y-194174D01*
Y-194460D01*
Y-194746D01*
X948361D01*
Y-195033D01*
X948074D01*
Y-195319D01*
Y-195605D01*
Y-195891D01*
X947788D01*
Y-196178D01*
X947502D01*
Y-196464D01*
Y-196750D01*
X947215D01*
Y-197037D01*
Y-197323D01*
X946929D01*
Y-197609D01*
Y-197896D01*
X946643D01*
Y-198182D01*
Y-198468D01*
X946356D01*
Y-198755D01*
X946070D01*
Y-199041D01*
Y-199327D01*
X945784D01*
Y-199614D01*
Y-199900D01*
X945497D01*
Y-200186D01*
X945211D01*
Y-200472D01*
X944925D01*
Y-200759D01*
Y-201045D01*
X944639D01*
Y-201331D01*
X944352D01*
Y-201618D01*
Y-201904D01*
X944066D01*
Y-202190D01*
X943780D01*
Y-202477D01*
X943493D01*
Y-202763D01*
Y-203049D01*
X943207D01*
Y-203336D01*
X942921D01*
Y-203622D01*
X942634D01*
Y-203908D01*
X942348D01*
Y-204195D01*
X942062D01*
Y-204481D01*
Y-204767D01*
X941775D01*
Y-205053D01*
X941489D01*
Y-205340D01*
X941203D01*
Y-205626D01*
X940916D01*
Y-205912D01*
X940630D01*
Y-206199D01*
X940344D01*
Y-206485D01*
X940057D01*
Y-206771D01*
X939485D01*
Y-207058D01*
X939199D01*
Y-207344D01*
X938912D01*
Y-207630D01*
X938626D01*
Y-207917D01*
X938340D01*
Y-208203D01*
X937767D01*
Y-208489D01*
X937481D01*
Y-208776D01*
X936908D01*
Y-209062D01*
X936622D01*
Y-209348D01*
X936049D01*
Y-209634D01*
X935763D01*
Y-209921D01*
X935190D01*
Y-210207D01*
X934618D01*
Y-210493D01*
X934045D01*
Y-210780D01*
X933472D01*
Y-211066D01*
X932900D01*
Y-211352D01*
X932041D01*
Y-211639D01*
X931468D01*
Y-211925D01*
X930609D01*
Y-212211D01*
X929464D01*
Y-212498D01*
X928319D01*
Y-212784D01*
X926601D01*
Y-213070D01*
X924597D01*
Y-213357D01*
X924310D01*
Y-213070D01*
Y-212784D01*
Y-212498D01*
Y-212211D01*
Y-211925D01*
Y-211639D01*
Y-211352D01*
Y-211066D01*
Y-210780D01*
Y-210493D01*
Y-210207D01*
Y-209921D01*
Y-209634D01*
Y-209348D01*
Y-209062D01*
Y-208776D01*
Y-208489D01*
Y-208203D01*
Y-207917D01*
Y-207630D01*
Y-207344D01*
Y-207058D01*
Y-206771D01*
Y-206485D01*
Y-206199D01*
Y-205912D01*
Y-205626D01*
Y-205340D01*
Y-205053D01*
Y-204767D01*
Y-204481D01*
Y-204195D01*
Y-203908D01*
X924883D01*
Y-203622D01*
X925455D01*
Y-203336D01*
X926028D01*
Y-203049D01*
X926601D01*
Y-202763D01*
X927173D01*
Y-202477D01*
X927746D01*
Y-202190D01*
X928032D01*
Y-201904D01*
X928605D01*
Y-201618D01*
X928891D01*
Y-201331D01*
X929464D01*
Y-201045D01*
X929750D01*
Y-200759D01*
X930037D01*
Y-200472D01*
X930609D01*
Y-200186D01*
X930896D01*
Y-199900D01*
X931182D01*
Y-199614D01*
X931468D01*
Y-199327D01*
X931754D01*
Y-199041D01*
X932041D01*
Y-198755D01*
X932327D01*
Y-198468D01*
X932613D01*
Y-198182D01*
X932900D01*
Y-197896D01*
X933186D01*
Y-197609D01*
X933472D01*
Y-197323D01*
X933759D01*
Y-197037D01*
Y-196750D01*
X934045D01*
Y-196464D01*
X934331D01*
Y-196178D01*
X934618D01*
Y-195891D01*
Y-195605D01*
X934904D01*
Y-195319D01*
X935190D01*
Y-195033D01*
Y-194746D01*
X935476D01*
Y-194460D01*
Y-194174D01*
X935763D01*
Y-193887D01*
X936049D01*
Y-193601D01*
Y-193315D01*
X936335D01*
Y-193028D01*
Y-192742D01*
X936622D01*
Y-192456D01*
Y-192169D01*
X934904D01*
Y-191883D01*
X932900D01*
Y-191597D01*
X931754D01*
Y-191311D01*
X931182D01*
Y-191024D01*
X930323D01*
Y-190738D01*
X929750D01*
Y-190452D01*
X929464D01*
Y-190165D01*
X928891D01*
Y-189879D01*
X928605D01*
Y-189593D01*
X928319D01*
Y-189306D01*
X928032D01*
Y-189020D01*
X927746D01*
Y-188734D01*
X927460D01*
Y-188447D01*
Y-188161D01*
X927173D01*
Y-187875D01*
X926887D01*
Y-187588D01*
Y-187302D01*
X926601D01*
Y-187016D01*
Y-186730D01*
X926315D01*
Y-186443D01*
Y-186157D01*
X926028D01*
Y-185871D01*
Y-185584D01*
Y-185298D01*
X925742D01*
Y-185012D01*
Y-184725D01*
Y-184439D01*
Y-184153D01*
X925455D01*
Y-183866D01*
Y-183580D01*
Y-183294D01*
Y-183007D01*
Y-182721D01*
Y-182435D01*
Y-182149D01*
X925169D01*
Y-181862D01*
Y-181576D01*
Y-181290D01*
Y-181003D01*
Y-180717D01*
Y-180431D01*
Y-180144D01*
Y-179858D01*
Y-179572D01*
Y-179285D01*
Y-178999D01*
Y-178713D01*
Y-178426D01*
Y-178140D01*
Y-177854D01*
X924883D01*
Y-177568D01*
Y-177281D01*
Y-176995D01*
Y-176709D01*
Y-176422D01*
Y-176136D01*
Y-175850D01*
Y-175563D01*
Y-175277D01*
Y-174991D01*
Y-174704D01*
Y-174418D01*
Y-174132D01*
Y-173845D01*
Y-173559D01*
X924597D01*
Y-173273D01*
Y-172986D01*
Y-172700D01*
Y-172414D01*
Y-172127D01*
Y-171841D01*
Y-171555D01*
Y-171269D01*
Y-170982D01*
Y-170696D01*
Y-170410D01*
Y-170123D01*
Y-169837D01*
Y-169551D01*
Y-169264D01*
Y-168978D01*
X924310D01*
Y-168692D01*
Y-168405D01*
Y-168119D01*
Y-167833D01*
Y-167547D01*
Y-167260D01*
Y-166974D01*
Y-166688D01*
Y-166401D01*
Y-166115D01*
Y-165829D01*
Y-165542D01*
Y-165256D01*
Y-164970D01*
Y-164683D01*
Y-164397D01*
X924024D01*
Y-164111D01*
Y-163824D01*
Y-163538D01*
Y-163252D01*
Y-162966D01*
Y-162679D01*
Y-162393D01*
Y-162107D01*
Y-161820D01*
Y-161534D01*
Y-161248D01*
Y-160961D01*
Y-160675D01*
Y-160389D01*
X923738D01*
Y-160102D01*
Y-159816D01*
Y-159530D01*
Y-159244D01*
Y-158957D01*
Y-158671D01*
Y-158385D01*
Y-158098D01*
Y-157812D01*
Y-157526D01*
Y-157239D01*
Y-156953D01*
Y-156667D01*
Y-156380D01*
Y-156094D01*
Y-155808D01*
X923451D01*
Y-155521D01*
X937194D01*
Y-155808D01*
Y-156094D01*
Y-156380D01*
Y-156667D01*
Y-156953D01*
Y-157239D01*
Y-157526D01*
Y-157812D01*
Y-158098D01*
Y-158385D01*
Y-158671D01*
Y-158957D01*
Y-159244D01*
Y-159530D01*
X937481D01*
Y-159816D01*
Y-160102D01*
Y-160389D01*
Y-160675D01*
Y-160961D01*
Y-161248D01*
Y-161534D01*
Y-161820D01*
Y-162107D01*
Y-162393D01*
Y-162679D01*
Y-162966D01*
Y-163252D01*
Y-163538D01*
Y-163824D01*
Y-164111D01*
Y-164397D01*
Y-164683D01*
Y-164970D01*
Y-165256D01*
Y-165542D01*
Y-165829D01*
Y-166115D01*
Y-166401D01*
Y-166688D01*
Y-166974D01*
Y-167260D01*
Y-167547D01*
Y-167833D01*
Y-168119D01*
Y-168405D01*
Y-168692D01*
Y-168978D01*
Y-169264D01*
Y-169551D01*
Y-169837D01*
Y-170123D01*
Y-170410D01*
Y-170696D01*
Y-170982D01*
Y-171269D01*
X937767D01*
Y-171555D01*
X937481D01*
Y-171841D01*
Y-172127D01*
X937767D01*
Y-172414D01*
Y-172700D01*
Y-172986D01*
Y-173273D01*
Y-173559D01*
Y-173845D01*
Y-174132D01*
Y-174418D01*
Y-174704D01*
Y-174991D01*
Y-175277D01*
Y-175563D01*
Y-175850D01*
Y-176136D01*
Y-176422D01*
Y-176709D01*
Y-176995D01*
Y-177281D01*
Y-177568D01*
Y-177854D01*
Y-178140D01*
Y-178426D01*
Y-178713D01*
Y-178999D01*
Y-179285D01*
Y-179572D01*
X938053D01*
Y-179858D01*
Y-180144D01*
Y-180431D01*
X938340D01*
Y-180717D01*
X938626D01*
Y-181003D01*
X938912D01*
Y-181290D01*
X939771D01*
Y-181576D01*
X940630D01*
Y-181290D01*
X940916D01*
Y-181003D01*
Y-180717D01*
Y-180431D01*
X941203D01*
Y-180144D01*
Y-179858D01*
X941489D01*
Y-179572D01*
Y-179285D01*
Y-178999D01*
X941775D01*
Y-178713D01*
Y-178426D01*
Y-178140D01*
X942062D01*
Y-177854D01*
Y-177568D01*
Y-177281D01*
X942348D01*
Y-176995D01*
Y-176709D01*
Y-176422D01*
X942634D01*
Y-176136D01*
Y-175850D01*
X942921D01*
Y-175563D01*
Y-175277D01*
Y-174991D01*
X943207D01*
Y-174704D01*
Y-174418D01*
Y-174132D01*
X943493D01*
Y-173845D01*
Y-173559D01*
Y-173273D01*
X943780D01*
Y-172986D01*
Y-172700D01*
X944066D01*
Y-172414D01*
Y-172127D01*
Y-171841D01*
X944352D01*
Y-171555D01*
Y-171269D01*
Y-170982D01*
X944639D01*
Y-170696D01*
Y-170410D01*
Y-170123D01*
X944925D01*
Y-169837D01*
Y-169551D01*
X945211D01*
Y-169264D01*
Y-168978D01*
Y-168692D01*
X945497D01*
Y-168405D01*
Y-168119D01*
Y-167833D01*
X945784D01*
Y-167547D01*
Y-167260D01*
Y-166974D01*
X946070D01*
Y-166688D01*
Y-166401D01*
X946356D01*
Y-166115D01*
Y-165829D01*
Y-165542D01*
X946643D01*
Y-165256D01*
Y-164970D01*
Y-164683D01*
X946929D01*
Y-164397D01*
Y-164111D01*
Y-163824D01*
X947215D01*
Y-163538D01*
Y-163252D01*
Y-162966D01*
Y-162679D01*
X947502D01*
Y-162393D01*
Y-162107D01*
Y-161820D01*
Y-161534D01*
X947788D01*
Y-161248D01*
Y-160961D01*
Y-160675D01*
Y-160389D01*
Y-160102D01*
X948074D01*
Y-159816D01*
Y-159530D01*
Y-159244D01*
Y-158957D01*
Y-158671D01*
Y-158385D01*
X948361D01*
Y-158098D01*
Y-157812D01*
Y-157526D01*
Y-157239D01*
Y-156953D01*
Y-156667D01*
Y-156380D01*
Y-156094D01*
Y-155808D01*
Y-155521D01*
X961245D01*
Y-155808D01*
D02*
G37*
%LPC*%
G36*
X867907Y-152658D02*
X859890D01*
Y-152945D01*
Y-153231D01*
Y-153517D01*
Y-153804D01*
Y-154090D01*
X859604D01*
Y-154376D01*
Y-154663D01*
Y-154949D01*
Y-155235D01*
Y-155521D01*
Y-155808D01*
X859317D01*
Y-156094D01*
Y-156380D01*
Y-156667D01*
Y-156953D01*
Y-157239D01*
Y-157526D01*
X859031D01*
Y-157812D01*
Y-158098D01*
Y-158385D01*
Y-158671D01*
Y-158957D01*
Y-159244D01*
X858745D01*
Y-159530D01*
Y-159816D01*
Y-160102D01*
Y-160389D01*
Y-160675D01*
Y-160961D01*
Y-161248D01*
X858458D01*
Y-161534D01*
Y-161820D01*
Y-162107D01*
Y-162393D01*
Y-162679D01*
Y-162966D01*
X858172D01*
Y-163252D01*
Y-163538D01*
Y-163824D01*
X865330D01*
Y-163538D01*
X866475D01*
Y-163252D01*
X867048D01*
Y-162966D01*
X867334D01*
Y-162679D01*
X867620D01*
Y-162393D01*
X867907D01*
Y-162107D01*
X868193D01*
Y-161820D01*
Y-161534D01*
X868479D01*
Y-161248D01*
Y-160961D01*
X868766D01*
Y-160675D01*
Y-160389D01*
X869052D01*
Y-160102D01*
Y-159816D01*
Y-159530D01*
Y-159244D01*
X869338D01*
Y-158957D01*
Y-158671D01*
Y-158385D01*
Y-158098D01*
Y-157812D01*
X869625D01*
Y-157526D01*
Y-157239D01*
Y-156953D01*
Y-156667D01*
Y-156380D01*
Y-156094D01*
Y-155808D01*
Y-155521D01*
Y-155235D01*
Y-154949D01*
Y-154663D01*
X869338D01*
Y-154376D01*
Y-154090D01*
X869052D01*
Y-153804D01*
Y-153517D01*
X868766D01*
Y-153231D01*
X868479D01*
Y-152945D01*
X867907D01*
Y-152658D01*
D02*
G37*
%LPD*%
D10*
X1178748Y-229571D02*
Y-190201D01*
X1021267Y-150831D02*
X1296858D01*
X1021267Y-190201D02*
X1296858D01*
X824417Y-229571D02*
X1296858D01*
X824417Y-111461D02*
X1296858D01*
X824417Y-268941D02*
Y-111461D01*
X1021267Y-268941D02*
Y-111461D01*
X-356685Y900350D02*
X1296858D01*
Y-268941D02*
Y900350D01*
X-356685Y-268941D02*
Y900350D01*
Y-268941D02*
X1296858D01*
X1035046Y-255164D02*
X1031110D01*
Y-258115D01*
X1033078D01*
X1031110D01*
Y-261067D01*
X1037014Y-257131D02*
Y-261067D01*
Y-259099D01*
X1037998Y-258115D01*
X1038981Y-257131D01*
X1039965D01*
X1042917Y-261067D02*
X1044885D01*
X1043901D01*
Y-257131D01*
X1042917D01*
X1047837Y-256147D02*
X1048821Y-255164D01*
X1050789D01*
X1051772Y-256147D01*
Y-257131D01*
X1050789Y-258115D01*
X1049805D01*
X1050789D01*
X1051772Y-259099D01*
Y-260083D01*
X1050789Y-261067D01*
X1048821D01*
X1047837Y-260083D01*
X1057676Y-255164D02*
Y-261067D01*
X1054724D01*
X1053740Y-260083D01*
Y-258115D01*
X1054724Y-257131D01*
X1057676D01*
X1059644Y-262051D02*
X1063580D01*
X1069483Y-261067D02*
X1065548D01*
X1069483Y-257131D01*
Y-256147D01*
X1068499Y-255164D01*
X1066531D01*
X1065548Y-256147D01*
X1071451D02*
X1072435Y-255164D01*
X1074403D01*
X1075387Y-256147D01*
Y-260083D01*
X1074403Y-261067D01*
X1072435D01*
X1071451Y-260083D01*
Y-256147D01*
X1081291Y-261067D02*
X1077355D01*
X1081291Y-257131D01*
Y-256147D01*
X1080307Y-255164D01*
X1078339D01*
X1077355Y-256147D01*
X1083258D02*
X1084242Y-255164D01*
X1086210D01*
X1087194Y-256147D01*
Y-260083D01*
X1086210Y-261067D01*
X1084242D01*
X1083258Y-260083D01*
Y-256147D01*
X1089162Y-262051D02*
X1093098D01*
X1095066Y-255164D02*
X1099001D01*
X1097034D01*
Y-261067D01*
X1100969D02*
X1102937D01*
X1101953D01*
Y-257131D01*
X1100969D01*
X1105889Y-261067D02*
Y-257131D01*
X1106873D01*
X1107857Y-258115D01*
Y-261067D01*
Y-258115D01*
X1108841Y-257131D01*
X1109825Y-258115D01*
Y-261067D01*
X1114744D02*
X1112776D01*
X1111792Y-260083D01*
Y-258115D01*
X1112776Y-257131D01*
X1114744D01*
X1115728Y-258115D01*
Y-259099D01*
X1111792D01*
X1117696Y-262051D02*
X1121632D01*
X1123600Y-255164D02*
Y-261067D01*
X1126552D01*
X1127535Y-260083D01*
Y-259099D01*
X1126552Y-258115D01*
X1123600D01*
X1126552D01*
X1127535Y-257131D01*
Y-256147D01*
X1126552Y-255164D01*
X1123600D01*
X1129503Y-261067D02*
X1131471D01*
X1130487D01*
Y-255164D01*
X1129503D01*
X1135407Y-257131D02*
X1137375D01*
X1138359Y-258115D01*
Y-261067D01*
X1135407D01*
X1134423Y-260083D01*
X1135407Y-259099D01*
X1138359D01*
X1140326Y-261067D02*
X1143278D01*
X1144262Y-260083D01*
X1143278Y-259099D01*
X1141311D01*
X1140326Y-258115D01*
X1141311Y-257131D01*
X1144262D01*
X1147214Y-256147D02*
Y-257131D01*
X1146230D01*
X1148198D01*
X1147214D01*
Y-260083D01*
X1148198Y-261067D01*
X1154102D02*
X1152134D01*
X1151150Y-260083D01*
Y-258115D01*
X1152134Y-257131D01*
X1154102D01*
X1155085Y-258115D01*
Y-259099D01*
X1151150D01*
X1157053Y-257131D02*
Y-261067D01*
Y-259099D01*
X1158037Y-258115D01*
X1159021Y-257131D01*
X1160005D01*
X1162957Y-262051D02*
X1166893D01*
X1168861Y-256147D02*
X1169845Y-255164D01*
X1171812D01*
X1172796Y-256147D01*
Y-260083D01*
X1171812Y-261067D01*
X1169845D01*
X1168861Y-260083D01*
Y-256147D01*
X1178700Y-261067D02*
X1174764D01*
X1178700Y-257131D01*
Y-256147D01*
X1177716Y-255164D01*
X1175748D01*
X1174764Y-256147D01*
X1180668Y-261067D02*
Y-260083D01*
X1181652D01*
Y-261067D01*
X1180668D01*
X1185588D02*
Y-255164D01*
X1188539D01*
X1189523Y-256147D01*
Y-258115D01*
X1188539Y-259099D01*
X1185588D01*
X1195427Y-257131D02*
X1192475D01*
X1191491Y-258115D01*
Y-260083D01*
X1192475Y-261067D01*
X1195427D01*
X1197395Y-255164D02*
Y-261067D01*
X1200346D01*
X1201330Y-260083D01*
Y-259099D01*
Y-258115D01*
X1200346Y-257131D01*
X1197395D01*
X1203298Y-255164D02*
Y-261067D01*
X1206250D01*
X1207234Y-260083D01*
Y-256147D01*
X1206250Y-255164D01*
X1203298D01*
X1210186Y-261067D02*
X1212154D01*
X1213138Y-260083D01*
Y-258115D01*
X1212154Y-257131D01*
X1210186D01*
X1209202Y-258115D01*
Y-260083D01*
X1210186Y-261067D01*
X1219041Y-257131D02*
X1216089D01*
X1215106Y-258115D01*
Y-260083D01*
X1216089Y-261067D01*
X1219041D01*
D11*
X-122047Y-62992D02*
X-120079D01*
X-121063D01*
Y-57089D01*
X-122047Y-58073D01*
X-117128Y-62992D02*
Y-62008D01*
X-116144D01*
Y-62992D01*
X-117128D01*
X-108272Y-57089D02*
X-110240Y-58073D01*
X-112208Y-60040D01*
Y-62008D01*
X-111224Y-62992D01*
X-109256D01*
X-108272Y-62008D01*
Y-61024D01*
X-109256Y-60040D01*
X-112208D01*
X-106304Y-62992D02*
Y-59056D01*
X-105320D01*
X-104336Y-60040D01*
Y-62992D01*
Y-60040D01*
X-103352Y-59056D01*
X-102369Y-60040D01*
Y-62992D01*
X-100401D02*
Y-59056D01*
X-99417D01*
X-98433Y-60040D01*
Y-62992D01*
Y-60040D01*
X-97449Y-59056D01*
X-96465Y-60040D01*
Y-62992D01*
X-88594Y-57089D02*
X-84658D01*
X-86626D01*
Y-62992D01*
X-82690Y-57089D02*
Y-62992D01*
Y-60040D01*
X-81706Y-59056D01*
X-79738D01*
X-78754Y-60040D01*
Y-62992D01*
X-76786D02*
X-74818D01*
X-75802D01*
Y-59056D01*
X-76786D01*
X-67931D02*
X-70883D01*
X-71867Y-60040D01*
Y-62008D01*
X-70883Y-62992D01*
X-67931D01*
X-65963D02*
Y-57089D01*
Y-61024D02*
X-63011Y-59056D01*
X-65963Y-61024D02*
X-63011Y-62992D01*
X-60059D02*
Y-59056D01*
X-57108D01*
X-56124Y-60040D01*
Y-62992D01*
X-51204D02*
X-53172D01*
X-54156Y-62008D01*
Y-60040D01*
X-53172Y-59056D01*
X-51204D01*
X-50220Y-60040D01*
Y-61024D01*
X-54156D01*
X-48252Y-62992D02*
X-45300D01*
X-44317Y-62008D01*
X-45300Y-61024D01*
X-47268D01*
X-48252Y-60040D01*
X-47268Y-59056D01*
X-44317D01*
X-42349Y-62992D02*
X-39397D01*
X-38413Y-62008D01*
X-39397Y-61024D01*
X-41365D01*
X-42349Y-60040D01*
X-41365Y-59056D01*
X-38413D01*
X-122047Y-33467D02*
Y-39370D01*
X-120079Y-37402D01*
X-118112Y-39370D01*
Y-33467D01*
X-116144D02*
Y-39370D01*
Y-36418D01*
X-115160Y-35434D01*
X-113192D01*
X-112208Y-36418D01*
Y-39370D01*
X-110240D02*
X-108272D01*
X-109256D01*
Y-35434D01*
X-110240D01*
X-104336Y-34450D02*
Y-35434D01*
X-105320D01*
X-103352D01*
X-104336D01*
Y-38386D01*
X-103352Y-39370D01*
X-97449D02*
X-99417D01*
X-100401Y-38386D01*
Y-36418D01*
X-99417Y-35434D01*
X-97449D01*
X-96465Y-36418D01*
Y-37402D01*
X-100401D01*
X-84658Y-34450D02*
X-85642Y-33467D01*
X-87610D01*
X-88594Y-34450D01*
Y-35434D01*
X-87610Y-36418D01*
X-85642D01*
X-84658Y-37402D01*
Y-38386D01*
X-85642Y-39370D01*
X-87610D01*
X-88594Y-38386D01*
X-82690Y-39370D02*
X-80722D01*
X-81706D01*
Y-35434D01*
X-82690D01*
X-77770Y-39370D02*
X-75802D01*
X-76786D01*
Y-33467D01*
X-77770D01*
X-72851Y-39370D02*
Y-33467D01*
Y-37402D02*
X-69899Y-35434D01*
X-72851Y-37402D02*
X-69899Y-39370D01*
X-66947D02*
X-63995D01*
X-63011Y-38386D01*
X-63995Y-37402D01*
X-65963D01*
X-66947Y-36418D01*
X-65963Y-35434D01*
X-63011D01*
X-57108D02*
X-60059D01*
X-61043Y-36418D01*
Y-38386D01*
X-60059Y-39370D01*
X-57108D01*
X-55140Y-35434D02*
Y-39370D01*
Y-37402D01*
X-54156Y-36418D01*
X-53172Y-35434D01*
X-52188D01*
X-46284Y-39370D02*
X-48252D01*
X-49236Y-38386D01*
Y-36418D01*
X-48252Y-35434D01*
X-46284D01*
X-45300Y-36418D01*
Y-37402D01*
X-49236D01*
X-40381Y-39370D02*
X-42349D01*
X-43333Y-38386D01*
Y-36418D01*
X-42349Y-35434D01*
X-40381D01*
X-39397Y-36418D01*
Y-37402D01*
X-43333D01*
X-37429Y-39370D02*
Y-35434D01*
X-34477D01*
X-33493Y-36418D01*
Y-39370D01*
X-122047Y-27559D02*
Y-21655D01*
X-119096D01*
X-118112Y-22639D01*
Y-24607D01*
X-119096Y-25591D01*
X-122047D01*
X-120079D02*
X-118112Y-27559D01*
X-113192D02*
X-115160D01*
X-116144Y-26575D01*
Y-24607D01*
X-115160Y-23623D01*
X-113192D01*
X-112208Y-24607D01*
Y-25591D01*
X-116144D01*
X-106304Y-21655D02*
Y-27559D01*
X-109256D01*
X-110240Y-26575D01*
Y-24607D01*
X-109256Y-23623D01*
X-106304D01*
X-94497Y-22639D02*
X-95481Y-21655D01*
X-97449D01*
X-98433Y-22639D01*
Y-23623D01*
X-97449Y-24607D01*
X-95481D01*
X-94497Y-25591D01*
Y-26575D01*
X-95481Y-27559D01*
X-97449D01*
X-98433Y-26575D01*
X-91545Y-27559D02*
X-89577D01*
X-88594Y-26575D01*
Y-24607D01*
X-89577Y-23623D01*
X-91545D01*
X-92529Y-24607D01*
Y-26575D01*
X-91545Y-27559D01*
X-86626D02*
X-84658D01*
X-85642D01*
Y-21655D01*
X-86626D01*
X-77770D02*
Y-27559D01*
X-80722D01*
X-81706Y-26575D01*
Y-24607D01*
X-80722Y-23623D01*
X-77770D01*
X-72851Y-27559D02*
X-74818D01*
X-75802Y-26575D01*
Y-24607D01*
X-74818Y-23623D01*
X-72851D01*
X-71867Y-24607D01*
Y-25591D01*
X-75802D01*
X-69899Y-23623D02*
Y-27559D01*
Y-25591D01*
X-68915Y-24607D01*
X-67931Y-23623D01*
X-66947D01*
X-58092Y-27559D02*
Y-21655D01*
X-56124Y-23623D01*
X-54156Y-21655D01*
Y-27559D01*
X-51204Y-23623D02*
X-49236D01*
X-48252Y-24607D01*
Y-27559D01*
X-51204D01*
X-52188Y-26575D01*
X-51204Y-25591D01*
X-48252D01*
X-46284Y-27559D02*
X-43333D01*
X-42349Y-26575D01*
X-43333Y-25591D01*
X-45300D01*
X-46284Y-24607D01*
X-45300Y-23623D01*
X-42349D01*
X-40381Y-27559D02*
Y-21655D01*
Y-25591D02*
X-37429Y-23623D01*
X-40381Y-25591D02*
X-37429Y-27559D01*
X1182685Y-202012D02*
Y-194141D01*
X1186621D01*
X1187932Y-195452D01*
Y-198076D01*
X1186621Y-199388D01*
X1182685D01*
X1185308D02*
X1187932Y-202012D01*
X1194492D02*
X1191868D01*
X1190556Y-200700D01*
Y-198076D01*
X1191868Y-196764D01*
X1194492D01*
X1195804Y-198076D01*
Y-199388D01*
X1190556D01*
X1198428Y-196764D02*
X1201052Y-202012D01*
X1203675Y-196764D01*
X828354Y-233511D02*
Y-241382D01*
X832290D01*
X833602Y-240070D01*
Y-234823D01*
X832290Y-233511D01*
X828354D01*
X840161Y-241382D02*
X837537D01*
X836226Y-240070D01*
Y-237446D01*
X837537Y-236134D01*
X840161D01*
X841473Y-237446D01*
Y-238758D01*
X836226D01*
X844097Y-241382D02*
X848033D01*
X849345Y-240070D01*
X848033Y-238758D01*
X845409D01*
X844097Y-237446D01*
X845409Y-236134D01*
X849345D01*
X854592Y-244006D02*
X855904D01*
X857216Y-242694D01*
Y-236134D01*
X853280D01*
X851968Y-237446D01*
Y-240070D01*
X853280Y-241382D01*
X857216D01*
X859840D02*
X862464D01*
X861152D01*
Y-236134D01*
X859840D01*
X866399Y-241382D02*
Y-236134D01*
X870335D01*
X871647Y-237446D01*
Y-241382D01*
X878207D02*
X875583D01*
X874271Y-240070D01*
Y-237446D01*
X875583Y-236134D01*
X878207D01*
X879519Y-237446D01*
Y-238758D01*
X874271D01*
X882143Y-236134D02*
Y-241382D01*
Y-238758D01*
X883454Y-237446D01*
X884766Y-236134D01*
X886078D01*
X1025204Y-115400D02*
Y-123272D01*
X1029140D01*
X1030452Y-121960D01*
Y-116712D01*
X1029140Y-115400D01*
X1025204D01*
X1034388Y-123272D02*
X1037012D01*
X1038323Y-121960D01*
Y-119336D01*
X1037012Y-118024D01*
X1034388D01*
X1033076Y-119336D01*
Y-121960D01*
X1034388Y-123272D01*
X1046195Y-118024D02*
X1042259D01*
X1040947Y-119336D01*
Y-121960D01*
X1042259Y-123272D01*
X1046195D01*
X1048819Y-118024D02*
Y-121960D01*
X1050131Y-123272D01*
X1054066D01*
Y-118024D01*
X1056690Y-123272D02*
Y-118024D01*
X1058002D01*
X1059314Y-119336D01*
Y-123272D01*
Y-119336D01*
X1060626Y-118024D01*
X1061938Y-119336D01*
Y-123272D01*
X1068498D02*
X1065874D01*
X1064562Y-121960D01*
Y-119336D01*
X1065874Y-118024D01*
X1068498D01*
X1069810Y-119336D01*
Y-120648D01*
X1064562D01*
X1072433Y-123272D02*
Y-118024D01*
X1076369D01*
X1077681Y-119336D01*
Y-123272D01*
X1081617Y-116712D02*
Y-118024D01*
X1080305D01*
X1082929D01*
X1081617D01*
Y-121960D01*
X1082929Y-123272D01*
X1025204Y-154770D02*
Y-162642D01*
X1030452D01*
X1034388Y-157394D02*
X1037012D01*
X1038323Y-158706D01*
Y-162642D01*
X1034388D01*
X1033076Y-161330D01*
X1034388Y-160018D01*
X1038323D01*
X1040947Y-157394D02*
Y-161330D01*
X1042259Y-162642D01*
X1046195D01*
Y-163954D01*
X1044883Y-165266D01*
X1043571D01*
X1046195Y-162642D02*
Y-157394D01*
X1052755Y-162642D02*
X1050131D01*
X1048819Y-161330D01*
Y-158706D01*
X1050131Y-157394D01*
X1052755D01*
X1054066Y-158706D01*
Y-160018D01*
X1048819D01*
X1056690Y-157394D02*
Y-162642D01*
Y-160018D01*
X1058002Y-158706D01*
X1059314Y-157394D01*
X1060626D01*
X1072433Y-162642D02*
Y-154770D01*
X1077681Y-162642D01*
Y-154770D01*
X1081617Y-157394D02*
X1084241D01*
X1085552Y-158706D01*
Y-162642D01*
X1081617D01*
X1080305Y-161330D01*
X1081617Y-160018D01*
X1085552D01*
X1088176Y-162642D02*
Y-157394D01*
X1089488D01*
X1090800Y-158706D01*
Y-162642D01*
Y-158706D01*
X1092112Y-157394D01*
X1093424Y-158706D01*
Y-162642D01*
X1099984D02*
X1097360D01*
X1096048Y-161330D01*
Y-158706D01*
X1097360Y-157394D01*
X1099984D01*
X1101295Y-158706D01*
Y-160018D01*
X1096048D01*
X1025204Y-194141D02*
Y-202012D01*
X1029140D01*
X1030452Y-200700D01*
Y-195452D01*
X1029140Y-194141D01*
X1025204D01*
X1034388Y-196764D02*
X1037012D01*
X1038323Y-198076D01*
Y-202012D01*
X1034388D01*
X1033076Y-200700D01*
X1034388Y-199388D01*
X1038323D01*
X1042259Y-195452D02*
Y-196764D01*
X1040947D01*
X1043571D01*
X1042259D01*
Y-200700D01*
X1043571Y-202012D01*
X1051443D02*
X1048819D01*
X1047507Y-200700D01*
Y-198076D01*
X1048819Y-196764D01*
X1051443D01*
X1052755Y-198076D01*
Y-199388D01*
X1047507D01*
X1025204Y-233511D02*
Y-241382D01*
X1029140D01*
X1030452Y-240070D01*
Y-234823D01*
X1029140Y-233511D01*
X1025204D01*
X1034388Y-241382D02*
X1037012D01*
X1038323Y-240070D01*
Y-237446D01*
X1037012Y-236134D01*
X1034388D01*
X1033076Y-237446D01*
Y-240070D01*
X1034388Y-241382D01*
X1046195Y-236134D02*
X1042259D01*
X1040947Y-237446D01*
Y-240070D01*
X1042259Y-241382D01*
X1046195D01*
X1048819Y-236134D02*
Y-240070D01*
X1050131Y-241382D01*
X1054066D01*
Y-236134D01*
X1056690Y-241382D02*
Y-236134D01*
X1058002D01*
X1059314Y-237446D01*
Y-241382D01*
Y-237446D01*
X1060626Y-236134D01*
X1061938Y-237446D01*
Y-241382D01*
X1068498D02*
X1065874D01*
X1064562Y-240070D01*
Y-237446D01*
X1065874Y-236134D01*
X1068498D01*
X1069810Y-237446D01*
Y-238758D01*
X1064562D01*
X1072433Y-241382D02*
Y-236134D01*
X1076369D01*
X1077681Y-237446D01*
Y-241382D01*
X1081617Y-234823D02*
Y-236134D01*
X1080305D01*
X1082929D01*
X1081617D01*
Y-240070D01*
X1082929Y-241382D01*
D16*
X1893Y-39370D02*
X7893Y-37370D01*
X1893Y-39370D02*
X7893Y-41370D01*
X582583D02*
X588583Y-39370D01*
X582583Y-37370D02*
X588583Y-39370D01*
X1893D02*
X275543D01*
X311732D02*
X588583D01*
X1893Y-40370D02*
Y4793D01*
X588583Y-40370D02*
Y317217D01*
X-101969Y500000D02*
X-99968Y494000D01*
X-103969D02*
X-101969Y500000D01*
X-103969Y6000D02*
X-101969Y0D01*
X-99968Y6000D01*
X-101969Y266495D02*
Y500000D01*
Y0D02*
Y230305D01*
X-102969Y500000D02*
X-12303D01*
X-102969Y0D02*
X-25591D01*
D17*
X1052104Y-168552D02*
X1042921D01*
Y-175439D01*
X1047513D01*
X1042921D01*
Y-182327D01*
X1058992Y-173143D02*
X1063584D01*
X1065879Y-175439D01*
Y-182327D01*
X1058992D01*
X1056696Y-180031D01*
X1058992Y-177735D01*
X1065879D01*
X1070471Y-168552D02*
Y-182327D01*
X1077359D01*
X1079655Y-180031D01*
Y-177735D01*
Y-175439D01*
X1077359Y-173143D01*
X1070471D01*
X1084246D02*
Y-182327D01*
Y-177735D01*
X1086542Y-175439D01*
X1088838Y-173143D01*
X1091134D01*
X1098021Y-182327D02*
X1102613D01*
X1100317D01*
Y-173143D01*
X1098021D01*
X1118684D02*
X1111796D01*
X1109501Y-175439D01*
Y-180031D01*
X1111796Y-182327D01*
X1118684D01*
X1125571Y-173143D02*
X1130163D01*
X1132459Y-175439D01*
Y-182327D01*
X1125571D01*
X1123276Y-180031D01*
X1125571Y-177735D01*
X1132459D01*
X1139347Y-170848D02*
Y-173143D01*
X1137051D01*
X1141642D01*
X1139347D01*
Y-180031D01*
X1141642Y-182327D01*
X1148530D02*
X1153122D01*
X1150826D01*
Y-173143D01*
X1148530D01*
X1162305Y-182327D02*
X1166897D01*
X1169193Y-180031D01*
Y-175439D01*
X1166897Y-173143D01*
X1162305D01*
X1160009Y-175439D01*
Y-180031D01*
X1162305Y-182327D01*
X1173784D02*
Y-173143D01*
X1180672D01*
X1182968Y-175439D01*
Y-182327D01*
X1049809Y-168552D02*
X1045217D01*
X1042921Y-170848D01*
Y-180031D01*
X1045217Y-182327D01*
X1049809D01*
X1052104Y-180031D01*
Y-170848D01*
X1049809Y-168552D01*
X1056696Y-173144D02*
Y-180031D01*
X1058992Y-182327D01*
X1065879D01*
Y-173144D01*
X1072767Y-170848D02*
Y-173144D01*
X1070471D01*
X1075063D01*
X1072767D01*
Y-180031D01*
X1075063Y-182327D01*
X1081950D02*
X1086542D01*
X1084246D01*
Y-168552D01*
X1081950D01*
X1093430Y-182327D02*
X1098021D01*
X1095725D01*
Y-173144D01*
X1093430D01*
X1104909Y-182327D02*
Y-173144D01*
X1111796D01*
X1114092Y-175439D01*
Y-182327D01*
X1125571D02*
X1120980D01*
X1118684Y-180031D01*
Y-175439D01*
X1120980Y-173144D01*
X1125571D01*
X1127867Y-175439D01*
Y-177735D01*
X1118684D01*
X846071Y-247293D02*
Y-263036D01*
X851318Y-257788D01*
X856566Y-263036D01*
Y-247293D01*
X861814Y-263036D02*
X867061D01*
X864437D01*
Y-252540D01*
X861814D01*
X874933Y-263036D02*
Y-252540D01*
X877556D01*
X880180Y-255164D01*
Y-263036D01*
Y-255164D01*
X882804Y-252540D01*
X885428Y-255164D01*
Y-263036D01*
X890676Y-247293D02*
Y-257788D01*
X895923Y-263036D01*
X901171Y-257788D01*
Y-247293D01*
X916914Y-249917D02*
X914290Y-247293D01*
X909042D01*
X906419Y-249917D01*
Y-260412D01*
X909042Y-263036D01*
X914290D01*
X916914Y-260412D01*
Y-255164D01*
X911666D01*
X1200401Y-210546D02*
X1203025Y-207923D01*
X1208273D01*
X1210897Y-210546D01*
Y-221042D01*
X1208273Y-223665D01*
X1203025D01*
X1200401Y-221042D01*
Y-210546D01*
X1226639Y-223665D02*
X1216144D01*
X1226639Y-213170D01*
Y-210546D01*
X1224016Y-207923D01*
X1218768D01*
X1216144Y-210546D01*
X1037015Y-212186D02*
X1039311Y-209890D01*
X1043903D01*
X1046199Y-212186D01*
Y-221370D01*
X1043903Y-223665D01*
X1039311D01*
X1037015Y-221370D01*
Y-212186D01*
X1059974Y-223665D02*
X1050791D01*
X1059974Y-214482D01*
Y-212186D01*
X1057678Y-209890D01*
X1053086D01*
X1050791Y-212186D01*
X1064566Y-223665D02*
X1073749Y-214482D01*
X1078341Y-212186D02*
X1080637Y-209890D01*
X1085228D01*
X1087524Y-212186D01*
Y-221370D01*
X1085228Y-223665D01*
X1080637D01*
X1078341Y-221370D01*
Y-212186D01*
X1092116Y-223665D02*
X1096707D01*
X1094412D01*
Y-209890D01*
X1092116Y-212186D01*
X1103595Y-223665D02*
X1112778Y-214482D01*
X1126553Y-223665D02*
X1117370D01*
X1126553Y-214482D01*
Y-212186D01*
X1124258Y-209890D01*
X1119666D01*
X1117370Y-212186D01*
X1131145D02*
X1133441Y-209890D01*
X1138033D01*
X1140329Y-212186D01*
Y-221370D01*
X1138033Y-223665D01*
X1133441D01*
X1131145Y-221370D01*
Y-212186D01*
X1154104Y-223665D02*
X1144920D01*
X1154104Y-214482D01*
Y-212186D01*
X1151808Y-209890D01*
X1147216D01*
X1144920Y-212186D01*
X1167879Y-223665D02*
X1158695D01*
X1167879Y-214482D01*
Y-212186D01*
X1165583Y-209890D01*
X1160991D01*
X1158695Y-212186D01*
X1031110Y-132331D02*
X1039506D01*
X1035308D01*
Y-144925D01*
X1043704D02*
X1047902D01*
X1045803D01*
Y-136529D01*
X1043704D01*
X1054200Y-144925D02*
Y-136529D01*
X1056299D01*
X1058398Y-138628D01*
Y-144925D01*
Y-138628D01*
X1060497Y-136529D01*
X1062596Y-138628D01*
Y-144925D01*
X1073091D02*
X1068893D01*
X1066794Y-142826D01*
Y-138628D01*
X1068893Y-136529D01*
X1073091D01*
X1075190Y-138628D01*
Y-140727D01*
X1066794D01*
X1091983Y-132331D02*
Y-144925D01*
X1098280D01*
X1100379Y-142826D01*
Y-140727D01*
X1098280Y-138628D01*
X1091983D01*
X1098280D01*
X1100379Y-136529D01*
Y-134430D01*
X1098280Y-132331D01*
X1091983D01*
X1104577Y-144925D02*
X1108775D01*
X1106676D01*
Y-132331D01*
X1104577D01*
X1117171Y-136529D02*
X1121369D01*
X1123469Y-138628D01*
Y-144925D01*
X1117171D01*
X1115072Y-142826D01*
X1117171Y-140727D01*
X1123469D01*
X1127667Y-144925D02*
X1133964D01*
X1136063Y-142826D01*
X1133964Y-140727D01*
X1129766D01*
X1127667Y-138628D01*
X1129766Y-136529D01*
X1136063D01*
X1142360Y-134430D02*
Y-136529D01*
X1140261D01*
X1144459D01*
X1142360D01*
Y-142826D01*
X1144459Y-144925D01*
X1157053D02*
X1152855D01*
X1150756Y-142826D01*
Y-138628D01*
X1152855Y-136529D01*
X1157053D01*
X1159153Y-138628D01*
Y-140727D01*
X1150756D01*
X1163351Y-136529D02*
Y-144925D01*
Y-140727D01*
X1165450Y-138628D01*
X1167549Y-136529D01*
X1169648D01*
D19*
X430709Y117717D02*
G03*
X429724Y116732I0J-984D01*
G01*
X467913D02*
G03*
X466929Y117717I-984J0D01*
G01*
X429724Y111614D02*
G03*
X430709Y110630I984J0D01*
G01*
X466929D02*
G03*
X467913Y111614I0J984D01*
G01*
X9055Y25984D02*
G03*
X11770Y19565I4567J-1852D01*
G01*
X61803Y2337D02*
G03*
X76378Y-0I13100J35072D01*
G01*
X339567Y81693D02*
G03*
X337598Y79724I0J-1969D01*
G01*
X260827Y79724D02*
G03*
X258858Y81693I-1969J0D01*
G01*
X245079Y81693D02*
G03*
X243110Y79724I0J-1969D01*
G01*
X355315Y79724D02*
G03*
X353346Y81693I-1969J0D01*
G01*
X339567Y18701D02*
G03*
X337598Y16732I0J-1969D01*
G01*
X260827Y16732D02*
G03*
X258858Y18701I-1969J0D01*
G01*
X245079Y18701D02*
G03*
X243110Y16732I0J-1969D01*
G01*
X355315Y16732D02*
G03*
X353346Y18701I-1969J0D01*
G01*
X563976Y18701D02*
G03*
X562008Y16732I0J-1969D01*
G01*
X485236Y16732D02*
G03*
X483268Y18701I-1969J0D01*
G01*
X469488Y18701D02*
G03*
X467520Y16732I0J-1969D01*
G01*
X579724Y16732D02*
G03*
X577756Y18701I-1969J0D01*
G01*
X114173Y0D02*
G03*
X119482Y3937I-962J6845D01*
G01*
X220474Y208749D02*
G03*
X179920Y177368I-1674J-39731D01*
G01*
X214567Y74803D02*
G03*
X212598Y72835I0J-1969D01*
G01*
X214567Y137795D02*
G03*
X212598Y135827I0J-1969D01*
G01*
X291339Y72835D02*
G03*
X289370Y74803I-1969J0D01*
G01*
X291339Y135827D02*
G03*
X289370Y137795I-1969J0D01*
G01*
X355315Y142717D02*
G03*
X353346Y144685I-1969J0D01*
G01*
X559449Y190157D02*
G03*
X560433Y189173I984J0D01*
G01*
X565551D02*
G03*
X566535Y190157I0J984D01*
G01*
X593110Y71850D02*
G03*
X594095Y72835I0J984D01*
G01*
Y100394D02*
G03*
X593110Y101378I-984J0D01*
G01*
X214567Y11811D02*
G03*
X212598Y9843I0J-1969D01*
G01*
X291339D02*
G03*
X289370Y11811I-1969J0D01*
G01*
X438976Y11811D02*
G03*
X437008Y9843I0J-1969D01*
G01*
X196850Y72835D02*
G03*
X194882Y74803I-1969J0D01*
G01*
X196850Y135827D02*
G03*
X194882Y137795I-1969J0D01*
G01*
X245079Y144685D02*
G03*
X243110Y142717I0J-1969D01*
G01*
X260827Y142717D02*
G03*
X258858Y144685I-1969J0D01*
G01*
X309055Y74803D02*
G03*
X307087Y72835I0J-1969D01*
G01*
X309055Y137795D02*
G03*
X307087Y135827I0J-1969D01*
G01*
X339567Y144685D02*
G03*
X337598Y142717I0J-1969D01*
G01*
X587008Y72835D02*
G03*
X587992Y71850I984J0D01*
G01*
Y101378D02*
G03*
X587008Y100394I0J-984D01*
G01*
X196850Y9843D02*
G03*
X194882Y11811I-1969J0D01*
G01*
X309055D02*
G03*
X307087Y9843I0J-1969D01*
G01*
X421260Y9843D02*
G03*
X419291Y11811I-1969J0D01*
G01*
X515748Y9843D02*
G03*
X513779Y11811I-1969J0D01*
G01*
X533465D02*
G03*
X531496Y9843I0J-1969D01*
G01*
X629921Y86614D02*
G03*
X629921Y86614I-39370J0D01*
G01*
X377953Y11811D02*
G03*
X173228Y11811I-102362J-102362D01*
G01*
X377953Y74803D02*
G03*
X173228Y74803I-102362J-102362D01*
G01*
X641732Y212598D02*
G03*
X641732Y212598I-78740J0D01*
G01*
X602362Y11811D02*
G03*
X397638Y11811I-102362J-102362D01*
G01*
X507874Y114173D02*
G03*
X507874Y114173I-59055J0D01*
G01*
X560433Y236024D02*
G03*
X559449Y235039I0J-984D01*
G01*
X566535D02*
G03*
X565551Y236024I-984J0D01*
G01*
X377953Y137795D02*
G03*
X173228Y137795I-102362J-102362D01*
G01*
X171312Y424484D02*
G03*
X173788Y431342I-2191J4667D01*
G01*
X220474Y208749D02*
G03*
X454859Y291178I7872J352063D01*
G01*
X277819Y427393D02*
G03*
X102362Y500000I-165735J-152199D01*
G01*
X173788Y431342D02*
G03*
X102362Y476378I-68387J-29303D01*
G01*
X454859Y346617D02*
G03*
X281482Y425102I-226513J-269634D01*
G01*
X171312Y424484D02*
G03*
X11635Y354556I57035J-347502D01*
G01*
X11602Y283277D02*
G03*
X11811Y354331I-31779J35621D01*
G01*
X11635Y283240D02*
G03*
X79220Y241796I216711J277573D01*
G01*
X81102Y232729D02*
G03*
X79220Y241796I-7642J3142D01*
G01*
X277819Y427393D02*
G03*
X281482Y425102I4142J2550D01*
G01*
X430709Y117717D02*
X466929D01*
X430709Y110630D02*
X466929D01*
X429724Y111614D02*
Y116732D01*
X467913Y111614D02*
Y116732D01*
X48944Y6765D02*
X61803Y2337D01*
X11770Y19565D02*
X21118Y16346D01*
X48944Y6765D01*
X339567Y81693D02*
X353346D01*
X245079D02*
X258858D01*
X243110Y74803D02*
Y79724D01*
X260827Y74803D02*
Y79724D01*
X337598Y74803D02*
Y79724D01*
X355315Y74803D02*
Y79724D01*
X339567Y18701D02*
X353346D01*
X245079D02*
X258858D01*
X243110Y11811D02*
Y16732D01*
X260827Y11811D02*
Y16732D01*
X337598Y11811D02*
Y16732D01*
X355315Y11811D02*
Y16732D01*
X563976Y18701D02*
X577756D01*
X469488D02*
X483268D01*
X467520Y11811D02*
Y16732D01*
X485236Y11811D02*
Y16732D01*
X562008Y11811D02*
Y16732D01*
X579724Y11811D02*
Y16732D01*
X355315Y137795D02*
Y142717D01*
X337598Y137795D02*
Y142717D01*
X260827Y137795D02*
Y142717D01*
X243110Y137795D02*
Y142717D01*
X76378Y0D02*
X114173D01*
X119482Y3937D02*
X179920Y177368D01*
X515748Y-0D02*
X531496D01*
X421260D02*
X437008D01*
X196850D02*
Y9843D01*
Y62992D02*
Y72835D01*
Y125984D02*
Y135827D01*
X212598Y-0D02*
Y9843D01*
Y62992D02*
Y72835D01*
Y125984D02*
Y135827D01*
X291339Y-0D02*
Y9843D01*
Y62992D02*
Y72835D01*
Y125984D02*
Y135827D01*
X307087Y-0D02*
Y9843D01*
Y62992D02*
Y72835D01*
Y125984D02*
Y135827D01*
X421260Y-0D02*
Y9843D01*
X437008Y-0D02*
Y9843D01*
X531496Y-0D02*
Y9843D01*
X559449Y190157D02*
Y235039D01*
X566535Y190157D02*
Y235039D01*
X587008Y72835D02*
Y100394D01*
X594095Y72835D02*
Y100394D01*
X196850Y-0D02*
X212598D01*
X196850Y62992D02*
X212598D01*
X196850Y125984D02*
X212598D01*
X291339Y-0D02*
X307087D01*
X291339Y62992D02*
X307087D01*
X291339Y125984D02*
X307087D01*
X560433Y189173D02*
X565551D01*
X587992Y71850D02*
X593110D01*
X587992Y101378D02*
X593110D01*
X515748Y-0D02*
Y9843D01*
X173228Y74803D02*
X194882D01*
X214567D02*
X243110D01*
X173228Y137795D02*
X194882D01*
X214567D02*
X243110D01*
X245079Y144685D02*
X258858D01*
X355315Y74803D02*
X377953D01*
X309055D02*
X337598D01*
X355315Y137795D02*
X377953D01*
X309055D02*
X337598D01*
X339567Y144685D02*
X353346D01*
X214567Y11811D02*
X243110D01*
X173228D02*
X194882D01*
X309055D02*
X337598D01*
X355315D02*
X377953D01*
X485236Y11811D02*
X513779D01*
X438976D02*
X467520D01*
X397638D02*
X419291D01*
X533465D02*
X562008D01*
X579724D02*
X602362D01*
X260827Y74803D02*
X289370D01*
X260827Y137795D02*
X289370D01*
X260827Y11811D02*
X289370D01*
X560433Y236024D02*
X565551D01*
X455014Y291366D02*
X494095Y294991D01*
X505643Y296063D02*
X541339Y299375D01*
X552887Y300447D02*
X588583Y303758D01*
X600131Y304830D02*
X645669Y309055D01*
X600131Y332965D02*
X645669Y328740D01*
X552887Y337349D02*
X588583Y334037D01*
X505643Y341732D02*
X541339Y338420D01*
X455014Y346430D02*
X494095Y342804D01*
X645669Y309055D02*
Y328740D01*
X494095Y296063D02*
X505643D01*
X541339Y300447D02*
X552887D01*
X588583Y304830D02*
X600131D01*
X588583Y332965D02*
X600131D01*
X541339Y337349D02*
X552887D01*
X588583Y332965D02*
Y334037D01*
Y303758D02*
Y304830D01*
X541339Y299375D02*
Y300447D01*
Y337349D02*
Y338420D01*
X494095Y341732D02*
Y342804D01*
Y341732D02*
X505643D01*
X494095Y294991D02*
Y296063D01*
X9055Y25984D02*
X81102Y232729D01*
X102362Y476378D02*
Y500000D01*
X454859Y346617D02*
X455014Y346430D01*
X454859Y291178D02*
X455014Y291366D01*
X11635Y354556D02*
X11811Y354331D01*
X11602Y283277D02*
X11635Y283240D01*
D141*
X277143Y-43969D02*
X279142D01*
X278143D01*
Y-37971D01*
X277143Y-38970D01*
X285140Y-43969D02*
Y-37971D01*
X282141Y-40970D01*
X286140D01*
X288140Y-42969D02*
X289139Y-43969D01*
X291139D01*
X292138Y-42969D01*
Y-38970D01*
X291139Y-37971D01*
X289139D01*
X288140Y-38970D01*
Y-39970D01*
X289139Y-40970D01*
X292138D01*
X295137Y-44969D02*
X296137Y-43969D01*
Y-42969D01*
X295137D01*
Y-43969D01*
X296137D01*
X295137Y-44969D01*
X294138Y-45968D01*
X300136Y-38970D02*
X301135Y-37971D01*
X303135D01*
X304134Y-38970D01*
Y-42969D01*
X303135Y-43969D01*
X301135D01*
X300136Y-42969D01*
Y-38970D01*
X310132Y-43969D02*
X306134D01*
X310132Y-39970D01*
Y-38970D01*
X309133Y-37971D01*
X307133D01*
X306134Y-38970D01*
X-97370Y231905D02*
Y233905D01*
Y232905D01*
X-103368D01*
X-102368Y231905D01*
X-97370Y240902D02*
Y236904D01*
X-101368Y240902D01*
X-102368D01*
X-103368Y239903D01*
Y237903D01*
X-102368Y236904D01*
X-103368Y242902D02*
Y246901D01*
X-102368D01*
X-98369Y242902D01*
X-97370D01*
X-96370Y249900D02*
X-97370Y250899D01*
X-98369D01*
Y249900D01*
X-97370D01*
Y250899D01*
X-96370Y249900D01*
X-95371Y248900D01*
X-102368Y254898D02*
X-103368Y255898D01*
Y257897D01*
X-102368Y258897D01*
X-98369D01*
X-97370Y257897D01*
Y255898D01*
X-98369Y254898D01*
X-102368D01*
Y260896D02*
X-103368Y261896D01*
Y263895D01*
X-102368Y264895D01*
X-98369D01*
X-97370Y263895D01*
Y261896D01*
X-98369Y260896D01*
X-102368D01*
M02*
